<svg xmlns="http://www.w3.org/2000/svg" xmlns:xlink="http://www.w3.org/1999/xlink" width="81" height="81" viewBox="0 0 81 81">
  <defs>
    <filter id="Rectangle_950" x="0" y="0" width="81" height="81" filterUnits="userSpaceOnUse">
      <feOffset dx="6" dy="6" input="SourceAlpha"/>
      <feGaussianBlur stdDeviation="7.5" result="blur"/>
      <feFlood flood-color="#4b4e6d" flood-opacity="0.161"/>
      <feComposite operator="in" in2="blur"/>
      <feComposite in="SourceGraphic"/>
    </filter>
  </defs>
  <g id="additional_cost" transform="translate(-176.5 -1166.5)">
    <g transform="matrix(1, 0, 0, 1, 176.5, 1166.5)" filter="url(#Rectangle_950)">
      <rect id="Rectangle_950-2" data-name="Rectangle 950" width="36" height="36" rx="4" transform="translate(16.5 16.5)" fill="#0075f4"/>
    </g>
    <path id="icons8_receive_cash" d="M10.037,3a2.378,2.378,0,1,0,0,4.757,2.417,2.417,0,0,0,.479-.048,5.672,5.672,0,0,1,1.434-3.731A2.367,2.367,0,0,0,10.037,3Zm6.183.951a3.805,3.805,0,1,0,3.805,3.805A3.805,3.805,0,0,0,16.221,3.951ZM5.757,10.61a2.854,2.854,0,0,0-.87.139L1,11.664v6.851L4.805,17.27l7.759,2.715a2.351,2.351,0,0,0,1.884-.145l5.832-3.118a1.362,1.362,0,0,0-1.21-2.44l-5.622,2.579-.355-.465.281-.622a1.9,1.9,0,0,0-.975-2.523L6.927,10.865l-.1-.045a2.854,2.854,0,0,0-1.07-.21Z" transform="translate(200 1189)" fill="#fff"/>
  </g>
</svg>
