<svg xmlns="http://www.w3.org/2000/svg" width="36" height="36" viewBox="0 0 36 36">
  <g id="android" transform="translate(-1036 -405)">
    <rect id="Rectangle_16545" data-name="Rectangle 16545" width="36" height="36" rx="4" transform="translate(1036 405)" fill="#0075f4" opacity="0"/>
    <path id="icons8_android_os_1" d="M8.727,1a.636.636,0,0,0-.45,1.086L9.945,3.754A7.618,7.618,0,0,0,6.818,9.909V21.364a1.273,1.273,0,0,0,1.273,1.273H9.364v4.455a1.909,1.909,0,0,0,3.818,0V22.636h2.545v4.455a1.909,1.909,0,0,0,3.818,0V22.636h1.273a1.273,1.273,0,0,0,1.273-1.273V9.909a7.618,7.618,0,0,0-3.127-6.155l1.668-1.668a.636.636,0,1,0-.9-.9L17.845,3.073a7.582,7.582,0,0,0-6.781,0L9.177,1.186A.635.635,0,0,0,8.727,1Zm5.727,3.818a5.1,5.1,0,0,1,5.091,5.091H9.364A5.1,5.1,0,0,1,14.455,4.818ZM11.909,7.364V8.636h1.273V7.364Zm3.818,0V8.636H17V7.364ZM4.273,11.182A1.273,1.273,0,0,0,3,12.455v7.636a1.273,1.273,0,1,0,2.545,0V12.455A1.273,1.273,0,0,0,4.273,11.182Zm20.364,0a1.273,1.273,0,0,0-1.273,1.273v7.636a1.273,1.273,0,1,0,2.545,0V12.455A1.273,1.273,0,0,0,24.636,11.182ZM9.364,12.455H19.545v7.636H9.364Z" transform="translate(1039.999 408)" fill="#0075f4"/>
  </g>
</svg>
