<svg xmlns="http://www.w3.org/2000/svg" width="17.446" height="20" viewBox="0 0 17.446 20">
  <path id="icons8_apple_logo" d="M15.952,1.078a.439.439,0,0,0-.206.022,5.9,5.9,0,0,0-2.809,1.506,3.851,3.851,0,0,0-1.1,2.509.431.431,0,0,0,.4.4,4.991,4.991,0,0,0,2.911-1.406,4.611,4.611,0,0,0,1.1-2.609A.385.385,0,0,0,15.952,1.078Zm.3,4.338c-1.807,0-2.608,1.1-3.813,1.1-1.3,0-2.509-1-4.015-1-2.108,0-5.32,2.007-5.32,6.624-.1,4.216,3.714,8.933,5.922,8.933,1.3,0,1.606-.8,3.413-.8s2.208.8,3.513.8c1.506,0,2.61-1.606,3.513-2.911.4-.7.7-1.1,1-1.706a.733.733,0,0,0-.4-1c-2.61-1.3-3.111-5.52-.2-7.026a.723.723,0,0,0,.2-1.206A6.679,6.679,0,0,0,16.248,5.416Z" transform="translate(-3.098 -1.074)" fill="#929fb2"/>
</svg>
