<svg xmlns="http://www.w3.org/2000/svg" width="24" height="24" viewBox="0 0 24 24">
  <g id="Group_61509" data-name="Group 61509" transform="translate(-242.808 -0.211)">
    <g id="Group_61507" data-name="Group 61507" transform="translate(20052)">
      <g id="Group_61506" data-name="Group 61506" transform="translate(-19809.191)">
        <rect id="Rectangle_16586" data-name="Rectangle 16586" width="24" height="24" transform="translate(0 0.211)" fill="#fff" opacity="0"/>
        <path id="icons8_attach" d="M8.182,5.454v9.454a3.241,3.241,0,0,1-2.514,3.2A3.187,3.187,0,0,1,1.818,15V3.739a1.891,1.891,0,0,1,1.51-1.9A1.821,1.821,0,0,1,5.455,3.636v9.546a.455.455,0,0,1-.909,0V5.454a.909.909,0,0,0-.909-.909h0a.909.909,0,0,0-.909.909v7.594a2.365,2.365,0,0,0,2.036,2.395,2.275,2.275,0,0,0,2.509-2.261V3.8A3.746,3.746,0,0,0,4,.018,3.64,3.64,0,0,0,0,3.636V14.777a5.152,5.152,0,0,0,4.5,5.2A5.006,5.006,0,0,0,10,15V5.454a.909.909,0,0,0-.909-.909h0A.909.909,0,0,0,8.182,5.454Z" transform="matrix(0.454, 0.891, -0.891, 0.454, 18.831, 3.005)" fill="#5d718d"/>
      </g>
    </g>
  </g>
</svg>
