<svg id="attach" xmlns="http://www.w3.org/2000/svg" width="24" height="24" viewBox="0 0 24 24">
  <rect id="Rectangle_13660" data-name="Rectangle 13660" width="24" height="24" rx="4" fill="#fff" opacity="0"/>
  <path id="icons8_attach" d="M3.491,0A3.263,3.263,0,0,0,0,2.939v9.186c0,2.223,2.159,4.042,4.8,4.042s4.8-1.818,4.8-4.042V3.674H7.855v8.451A2.833,2.833,0,0,1,4.8,14.7a2.833,2.833,0,0,1-3.055-2.572V2.939A1.613,1.613,0,0,1,3.491,1.47a1.613,1.613,0,0,1,1.745,1.47v7.716a.4.4,0,0,1-.436.367.4.4,0,0,1-.436-.367V3.674H2.618v6.981A2.044,2.044,0,0,0,4.8,12.492a2.044,2.044,0,0,0,2.182-1.837V2.939A3.264,3.264,0,0,0,3.491,0Z" transform="translate(19.768 7.2) rotate(90)" fill="#5d718d"/>
</svg>
