<svg xmlns="http://www.w3.org/2000/svg" width="24" height="24" viewBox="0 0 24 24">
  <g id="calender" transform="translate(-850)">
    <rect id="Rectangle_16456" data-name="Rectangle 16456" width="24" height="24" rx="4" transform="translate(850)" fill="#fff" opacity="0"/>
    <path id="icons8_thursday" d="M4.846,0a.694.694,0,0,0-.692.692V2.769a.692.692,0,0,0,1.385,0V.692A.694.694,0,0,0,4.846,0Zm8.308,0a.694.694,0,0,0-.692.692V2.769a.692.692,0,0,0,1.385,0V.692A.694.694,0,0,0,13.154,0ZM2.077,1.385A2.077,2.077,0,0,0,0,3.462V15.923A2.077,2.077,0,0,0,2.077,18H15.923A2.077,2.077,0,0,0,18,15.923V3.462a2.077,2.077,0,0,0-2.077-2.077H14.538V2.769a1.385,1.385,0,0,1-2.769,0V1.385H6.231V2.769a1.385,1.385,0,0,1-2.769,0V1.385ZM1.385,6.231H16.615v9.692a.694.694,0,0,1-.692.692H2.077a.694.694,0,0,1-.692-.692ZM9.5,8.438v5.409h1.147V11.639a.737.737,0,0,1,.043-.26.617.617,0,0,1,.584-.411c.435,0,.584.335.584.822v2.055h1.168V11.683c0-1.128-.56-1.644-1.3-1.644a1.338,1.338,0,0,0-.606.151,1.236,1.236,0,0,0-.454.389h-.022V8.438Zm-4.435.281v.974H6.447v4.154H7.594V9.692H9V8.719Z" transform="translate(853 3)" fill="#5d718d"/>
  </g>
</svg>
