<svg xmlns="http://www.w3.org/2000/svg" width="24" height="24" viewBox="0 0 24 24">
  <g id="Group_60781" data-name="Group 60781" transform="translate(-620)">
    <rect id="Rectangle_16520" data-name="Rectangle 16520" width="24" height="24" rx="4" transform="translate(620)" fill="#5d718d" opacity="0"/>
    <path id="icons8-skyscrapers" d="M10.273,3v.455H8.455V23h1.818v-.455h.455V23h.455v-.455h.455V23h.455v-.455h.455V23H13v-.455h.455V23h.455v-.455h.455V23h.455v-.455h.455V23h1.818V3.455H15.273V3ZM7.545,4.895,3,6.787V23H4.818v-.909h.455V23h.455v-.909h.455V23h.455v-.909h.455V23h.455Zm2.727.378h.455v.455h-.455Zm.909,0h.455v.455h-.455Zm.909,0h.455v.455h-.455Zm.909,0h.455v.455H13Zm.909,0h.455v.455h-.455Zm.909,0h.455v.455h-.455Zm-4.545.909h.455v.455h-.455Zm.909,0h.455v.455h-.455Zm.909,0h.455v.455h-.455Zm.909,0h.455v.455H13Zm.909,0h.455v.455h-.455Zm.909,0h.455v.455h-.455ZM7.091,6.97V8H6.636V7.146Zm3.182.121h.455v.455h-.455Zm.909,0h.455v.455h-.455Zm.909,0h.455v.455h-.455Zm.909,0h.455v.455H13Zm.909,0h.455v.455h-.455Zm.909,0h.455v.455h-.455Zm3.182,0V8.909h.455v.455H18v.455h.455v.455H18v.455h.455v.455H18v.455h.455v.455H18v.455h.455V13H18v.455h.455v.455H18v.455h.455v.455H18v.455h.455v.455H18v.455h.455v.455H18v.455h.455v.455H18V18h.455v.455H18v.455h.455v.455H18v.455h.455v.455H18v.455h.455v.455H18v.455h.455v.455H18v.455h.455V23h.455v-.455h.909V23h.455v-.455h.909V23H23V7.091ZM6.182,7.318V8H5.727V7.494Zm-.909.348V8H4.818V7.842Zm5,.334h.455v.455h-.455Zm.909,0h.455v.455h-.455Zm.909,0h.455v.455h-.455ZM13,8h.455v.455H13Zm.909,0h.455v.455h-.455Zm.909,0h.455v.455h-.455Zm-10,.455h.455v.909H4.818Zm.909,0h.455v.909H5.727Zm.909,0h.455v.909H6.636Zm3.636.455h.455v.455h-.455Zm.909,0h.455v.455h-.455Zm.909,0h.455v.455h-.455Zm.909,0h.455v.455H13Zm.909,0h.455v.455h-.455Zm.909,0h.455v.455h-.455Zm4.091,0h.909v.455h-.909Zm1.364,0h.909v.455h-.909ZM4.818,9.818h.455v.909H4.818Zm.909,0h.455v.909H5.727Zm.909,0h.455v.909H6.636Zm3.636,0h.455v.455h-.455Zm.909,0h.455v.455h-.455Zm.909,0h.455v.455h-.455Zm.909,0h.455v.455H13Zm.909,0h.455v.455h-.455Zm.909,0h.455v.455h-.455Zm4.091,0h.909v.455h-.909Zm1.364,0h.909v.455h-.909Zm-10,.909h.455v.455h-.455Zm.909,0h.455v.455h-.455Zm.909,0h.455v.455h-.455Zm.909,0h.455v.455H13Zm.909,0h.455v.455h-.455Zm.909,0h.455v.455h-.455Zm4.091,0h.909v.455h-.909Zm1.364,0h.909v.455h-.909Zm-15.455.455h.455v.909H4.818Zm.909,0h.455v.909H5.727Zm.909,0h.455v.909H6.636Zm3.636.455h.455v.455h-.455Zm.909,0h.455v.455h-.455Zm.909,0h.455v.455h-.455Zm.909,0h.455v.455H13Zm.909,0h.455v.455h-.455Zm.909,0h.455v.455h-.455Zm4.091,0h.909v.455h-.909Zm1.364,0h.909v.455h-.909Zm-15.455.909h.455v.909H4.818Zm.909,0h.455v.909H5.727Zm.909,0h.455v.909H6.636Zm3.636,0h.455V13h-.455Zm.909,0h.455V13h-.455Zm.909,0h.455V13h-.455Zm.909,0h.455V13H13Zm.909,0h.455V13h-.455Zm.909,0h.455V13h-.455Zm4.091,0h.909V13h-.909Zm1.364,0h.909V13h-.909Zm-10,.909h.455v.455h-.455Zm.909,0h.455v.455h-.455Zm.909,0h.455v.455h-.455Zm.909,0h.455v.455H13Zm.909,0h.455v.455h-.455Zm.909,0h.455v.455h-.455Zm4.091,0h.909v.455h-.909Zm1.364,0h.909v.455h-.909Zm-15.455.455h.455v.909H4.818Zm.909,0h.455v.909H5.727Zm.909,0h.455v.909H6.636Zm3.636.455h.455v.455h-.455Zm.909,0h.455v.455h-.455Zm.909,0h.455v.455h-.455Zm.909,0h.455v.455H13Zm.909,0h.455v.455h-.455Zm.909,0h.455v.455h-.455Zm4.091,0h.909v.455h-.909Zm1.364,0h.909v.455h-.909Zm-15.455.909h.455v.909H4.818Zm.909,0h.455v.909H5.727Zm.909,0h.455v.909H6.636Zm3.636,0h.455v.455h-.455Zm.909,0h.455v.455h-.455Zm.909,0h.455v.455h-.455Zm.909,0h.455v.455H13Zm.909,0h.455v.455h-.455Zm.909,0h.455v.455h-.455Zm4.091,0h.909v.455h-.909Zm1.364,0h.909v.455h-.909Zm-10,.909h.455v.455h-.455Zm.909,0h.455v.455h-.455Zm.909,0h.455v.455h-.455Zm.909,0h.455v.455H13Zm.909,0h.455v.455h-.455Zm.909,0h.455v.455h-.455Zm4.091,0h.909v.455h-.909Zm1.364,0h.909v.455h-.909Zm-15.455.455h.455v.909H4.818Zm.909,0h.455v.909H5.727Zm.909,0h.455v.909H6.636Zm3.636.455h.455v.455h-.455Zm.909,0h.455v.455h-.455Zm.909,0h.455v.455h-.455Zm.909,0h.455v.455H13Zm.909,0h.455v.455h-.455Zm.909,0h.455v.455h-.455Zm4.091,0h.909v.455h-.909Zm1.364,0h.909v.455h-.909ZM4.818,18h.455v.909H4.818Zm.909,0h.455v.909H5.727Zm.909,0h.455v.909H6.636Zm3.636,0h.455v.455h-.455Zm.909,0h.455v.455h-.455Zm.909,0h.455v.455h-.455ZM13,18h.455v.455H13Zm.909,0h.455v.455h-.455Zm.909,0h.455v.455h-.455Zm4.091,0h.909v.455h-.909Zm1.364,0h.909v.455h-.909Zm-10,.909h.455v.455h-.455Zm.909,0h.455v.455h-.455Zm.909,0h.455v.455h-.455Zm.909,0h.455v.455H13Zm.909,0h.455v.455h-.455Zm.909,0h.455v.455h-.455Zm4.091,0h.909v.455h-.909Zm1.364,0h.909v.455h-.909Zm-15.455.455h.455v.909H4.818Zm.909,0h.455v.909H5.727Zm.909,0h.455v.909H6.636Zm3.636.455h.455v.455h-.455Zm.909,0h.455v.455h-.455Zm.909,0h.455v.455h-.455Zm.909,0h.455v.455H13Zm.909,0h.455v.455h-.455Zm.909,0h.455v.455h-.455Zm4.091,0h.909v.455h-.909Zm1.364,0h.909v.455h-.909Zm-15.455.909h.455v.909H4.818Zm.909,0h.455v.909H5.727Zm.909,0h.455v.909H6.636Zm3.636,0h.455v.455h-.455Zm.909,0h.455v.455h-.455Zm.909,0h.455v.455h-.455Zm.909,0h.455v.455H13Zm.909,0h.455v.455h-.455Zm.909,0h.455v.455h-.455Zm4.091,0h.909v.455h-.909Zm1.364,0h.909v.455h-.909Zm-10,.909h.455v.455h-.455Zm.909,0h.455v.455h-.455Zm.909,0h.455v.455h-.455Zm.909,0h.455v.455H13Zm.909,0h.455v.455h-.455Zm.909,0h.455v.455h-.455Zm4.091,0h.909v.455h-.909Zm1.364,0h.909v.455h-.909Z" transform="translate(619 -1)" fill="#5d718d"/>
  </g>
</svg>
