<svg xmlns="http://www.w3.org/2000/svg" width="372" height="233.001" viewBox="0 0 372 233.001">
  <g id="change_password" transform="translate(0 -29.063)">
    <g id="freepik--background-complete--inject-4" transform="translate(13.485 30.68)">
      <path id="Path_49548" data-name="Path 49548" d="M410.855,215.691v-1.816c0-1.175,0-2.869-.042-5l.079.079L385.1,209c.058-.058-.133.132.133-.127h0v6.8l-.127-.132,18.384.058,5.425.037h1.851a.7.7,0,0,1,.138,0h-1.925l-5.451.122-18.474.058h-.127v-6.941h0l.133-.132,25.8.048h.1v.085c0,2.149-.032,3.859-.042,5.045v1.657A.451.451,0,0,1,410.855,215.691Z" transform="translate(-201.254 -115.228)" fill="#e0e0e0"/>
      <path id="Path_49549" data-name="Path 49549" d="M504.473,81.066a.528.528,0,0,1,0-.122V79.25c0-1.175-.026-2.864-.042-5l.08.079-25.8.053c.058-.058-.133.132.127-.132h0v6.814l-.133-.127L497.091,81l5.43.037h1.988a.5.5,0,0,1-.122,0H502.58l-5.4.037-18.474.058h-.127V74.263h0c.26-.259.069-.074.133-.132l25.8.053h.08v.079c0,2.155-.037,3.86-.048,5.045v1.662a.646.646,0,0,1-.069.1Z" transform="translate(-245.249 -51.874)" fill="#e0e0e0"/>
      <path id="Path_49550" data-name="Path 49550" d="M684.9,273.854a.535.535,0,0,1,0-.122v-1.689c0-1.175,0-2.87-.042-5l.079.079-25.8.053.133-.132h0v6.814l-.127-.127,18.384.058,5.425.037h.064l-5.4.037-18.474.058h-.133v-6.851h0l.133-.127,25.8.048h.048v.079c0,2.155-.032,3.86-.042,5.051v1.657A.642.642,0,0,1,684.9,273.854Z" transform="translate(-330.004 -142.61)" fill="#e0e0e0"/>
      <path id="Path_49551" data-name="Path 49551" d="M700.6,260.922a.361.361,0,0,1,0-.127v-1.726c0-1.2-.026-2.885-.048-4.961l.1.1-15.5.037c-.122.116.159-.159.127-.132h0v6.808l-.127-.122,11.093.058,3.229.037h1.182a1.839,1.839,0,0,1-.281,0h-.848l-3.182.037-11.173.058H685V254.05h0c-.032.032.249-.249.133-.127l15.5.032h.1v.09c0,2.118-.037,3.807-.048,5.014v1.35a4.467,4.467,0,0,1-.074.514Z" transform="translate(-342.211 -136.47)" fill="#e0e0e0"/>
      <path id="Path_49552" data-name="Path 49552" d="M221.114,380.18l-5.833,2.5.392-34.545a8.708,8.708,0,0,0-2.757-7.073c-9.391-10.663-23.4-2.928-23.517,7.878l-.35,30.871-5.679-.064.562-32.295c.042-3.637,2.874-9.948,5.732-12.209,15.8-12.5,31.969.413,31.816,14.072Z" transform="translate(-106.578 -172.37)" fill="#f5f5f5"/>
      <path id="Path_49553" data-name="Path 49553" d="M220.982,380.121v-2.409c0-1.588.032-3.891.053-6.883s.058-6.618.1-10.848q.032-3.177.064-6.761a39.374,39.374,0,0,0-.276-7.555,18.325,18.325,0,0,0-3.251-7.576c-.217-.291-.424-.588-.652-.874s-.488-.529-.732-.821a18.536,18.536,0,0,0-1.591-1.562c-.27-.259-.589-.466-.886-.7a7.209,7.209,0,0,0-.923-.672,17.879,17.879,0,0,0-2-1.154,19.22,19.22,0,0,0-4.465-1.588l-1.2-.2-.6-.1-.61-.037-1.23-.079c-.414,0-.827.026-1.241.042A18.708,18.708,0,0,0,185.2,341.7a19.754,19.754,0,0,0-1.389,5.352c-.159,1.853-.117,3.764-.154,5.675-.085,7.661-.175,15.592-.265,23.718q0,1.625-.037,3.24l-.133-.138,5.679.064-.133.132q.1-9.212.207-18,.048-4.373.1-8.624,0-2.118.048-4.209a14.4,14.4,0,0,1,.689-4.1,13.348,13.348,0,0,1,4.7-6.454,8.547,8.547,0,0,1,.811-.566l.848-.529a13.354,13.354,0,0,1,1.787-.784,13.5,13.5,0,0,1,1.861-.529c.313-.069.631-.1.944-.148l.472-.064h.477a13.418,13.418,0,0,1,3.712.312,14.18,14.18,0,0,1,3.4,1.3,13.5,13.5,0,0,1,6.363,7.841,13.851,13.851,0,0,1,.53,3.177,7.791,7.791,0,0,0,.027.789,7.622,7.622,0,0,1,0,.778v1.535c0,1.011,0,2.007-.037,2.981-.053,3.9-.1,7.475-.138,10.7-.09,6.454-.159,11.5-.207,14.861l-.037-.037,4.285.069h.016l-4.306-.027h-.037v-.037c0-3.357.074-8.407.133-14.861.032-3.229.069-6.814.106-10.71,0-.974,0-1.969.032-2.981v-2.308l-.032-.778a12.449,12.449,0,0,0-1.872-6.125,13.194,13.194,0,0,0-4.916-4.717,14,14,0,0,0-3.346-1.271,13.22,13.22,0,0,0-3.664-.3h-.467L200.8,336c-.313.048-.626.074-.933.143a14.113,14.113,0,0,0-3.579,1.287l-.833.5a8.221,8.221,0,0,0-.8.529,13.078,13.078,0,0,0-4.608,6.353,14.026,14.026,0,0,0-.668,4.024q0,2.086-.048,4.209-.048,4.235-.1,8.624c-.064,5.824-.133,11.843-.2,18v.132h-.133l-5.684-.063h-.133V379.6q0-1.588.037-3.24c.1-8.121.186-16.052.276-23.718.037-1.916,0-3.807.154-5.7a20.093,20.093,0,0,1,1.416-5.421,20.519,20.519,0,0,1,2.842-4.611,20.3,20.3,0,0,1,3.982-3.595,18.834,18.834,0,0,1,9.714-3.219c.419,0,.838-.048,1.257-.037l1.426.085.785.09,1.188.2.53.116a18.54,18.54,0,0,1,4.242,1.556,17.437,17.437,0,0,1,2.031,1.17c.334.2.62.461.928.683a9.652,9.652,0,0,1,.9.709,18.91,18.91,0,0,1,1.591,1.588l.742.831c.228.291.435.593.652.889a18.462,18.462,0,0,1,3.272,7.661,41.249,41.249,0,0,1,.26,7.6c.016,2.393-.064,4.67-.09,6.787-.058,4.235-.111,7.878-.154,10.859s-.074,5.294-.1,6.851c0,.773,0,1.371-.032,1.774A1.64,1.64,0,0,0,220.982,380.121Z" transform="translate(-106.446 -172.312)" fill="#e0e0e0"/>
      <path id="Path_49554" data-name="Path 49554" d="M0,0H51.435a1.982,1.982,0,0,1,1.983,1.98V41.671a1.8,1.8,0,0,1-1.8,1.8H.02V0Z" transform="matrix(1, 0.011, -0.011, 1, 70.307, 187.215)" fill="#e0e0e0"/>
      <path id="Path_49555" data-name="Path 49555" d="M2.153,0H47.385a2.151,2.151,0,0,1,2.153,2.149V40.8a2.649,2.649,0,0,1-2.651,2.647H2.227A2.225,2.225,0,0,1,0,41.222V2.15A2.151,2.151,0,0,1,2.153,0Z" transform="translate(68.153 187.082) rotate(0.573)" fill="#ebebeb"/>
      <path id="Path_49556" data-name="Path 49556" d="M215.087,414.7a6.067,6.067,0,0,0-6.193-6.131,6.136,6.136,0,0,0-5.955,5.945,6.042,6.042,0,0,0,4.348,5.908l-4.057,8.323,10.473.312-3.1-8.614A6.048,6.048,0,0,0,215.087,414.7Z" transform="translate(-115.77 -209.257)" fill="#e0e0e0"/>
      <path id="Path_49557" data-name="Path 49557" d="M259.154,431.053c-.074,0,0-7.566.133-16.894s.323-16.9.4-16.9,0,7.566-.133,16.9S259.228,431.058,259.154,431.053Z" transform="translate(-142.162 -203.936)" fill="#fafafa"/>
      <path id="Path_49558" data-name="Path 49558" d="M211.955,388.907c0,.074-6.665.148-14.89.164s-14.9-.032-14.9-.106,6.665-.143,14.9-.159S211.955,388.822,211.955,388.907Z" transform="translate(-106.014 -199.956)" fill="#fff"/>
      <path id="Path_49559" data-name="Path 49559" d="M201.644,417.481a1.365,1.365,0,0,1-.249-.381,6.183,6.183,0,0,1-.456-1.154,6.8,6.8,0,0,1,2.492-7.327,6.025,6.025,0,0,1,1.061-.641,1.326,1.326,0,0,1,.424-.148,14.651,14.651,0,0,0-1.373.937,6.972,6.972,0,0,0-2.423,7.131C201.379,416.92,201.686,417.45,201.644,417.481Z" transform="translate(-114.708 -208.91)" fill="#fff"/>
      <path id="Path_49560" data-name="Path 49560" d="M205.71,430.723c-.037.064-.392-.09-.8-.339s-.695-.5-.658-.567.4.09.8.339A1.758,1.758,0,0,1,205.71,430.723Z" transform="translate(-116.388 -219.25)" fill="#fff"/>
      <path id="Path_49561" data-name="Path 49561" d="M202.634,333.155a8.6,8.6,0,0,1-1.023.132,17.794,17.794,0,0,0-2.736.588,16.616,16.616,0,0,0-11.8,15.883v1.027a.825.825,0,0,1-.042-.265c0-.175-.053-.429-.058-.762a14.691,14.691,0,0,1,.159-2.816,16.071,16.071,0,0,1,11.7-13.236,14.622,14.622,0,0,1,2.779-.529c.329-.037.589-.032.764-.037A1.336,1.336,0,0,1,202.634,333.155Z" transform="translate(-108.263 -173.762)" fill="#fff"/>
      <path id="Path_49562" data-name="Path 49562" d="M186.531,372.5a4.758,4.758,0,0,1-.1-1.588,4.7,4.7,0,0,1,.164-1.588,9.276,9.276,0,0,1-.069,3.177Z" transform="translate(-108.005 -190.788)" fill="#fff"/>
      <rect id="Rectangle_13470" data-name="Rectangle 13470" width="25.797" height="6.814" transform="translate(85.409 34.237)" fill="#f5f5f5"/>
      <path id="Path_49563" data-name="Path 49563" d="M204.772,116.97v-1.816c0-1.175,0-2.864-.042-5l.08.079-25.8.053c.058-.058-.133.127.133-.132h0v6.8l-.127-.127,18.384.058,5.425.037h1.851a.707.707,0,0,1,.138,0H202.89l-5.4.037-18.474.058h-.127v-6.93h0l.133-.132,25.8.053h.08v.079c0,2.149-.032,3.86-.042,5.045v1.657A.286.286,0,0,1,204.772,116.97Z" transform="translate(-104.473 -68.74)" fill="#e0e0e0"/>
      <rect id="Rectangle_13471" data-name="Rectangle 13471" width="25.797" height="6.814" transform="translate(325.294 16.449)" fill="#f5f5f5"/>
      <path id="Path_49564" data-name="Path 49564" d="M657.157,83.435a.624.624,0,0,1,0-.122V81.62c0-1.175,0-2.864-.042-5l.08.079-25.8.053c.058-.058-.132.127.133-.132h0v6.814l-.127-.127,18.384.058,5.425.037h.064l-5.4.037L631.4,83.5h-.133V76.632h0l.133-.132,25.8.053h.08v.079c0,2.149-.032,3.86-.042,5.045V83.34A.085.085,0,0,1,657.157,83.435Z" transform="translate(-316.974 -52.994)" fill="#e0e0e0"/>
      <rect id="Rectangle_13472" data-name="Rectangle 13472" width="25.797" height="6.814" transform="translate(178.173 151.907)" fill="#f5f5f5"/>
      <path id="Path_49565" data-name="Path 49565" d="M379.674,339.3a.715.715,0,0,1,0-.127v-1.689c0-1.175-.026-2.864-.042-5l.08.079-25.8.053c.058-.058-.133.127.127-.132h0v6.8l-.127-.127,18.384.058,5.425.037h.064l-5.4.037-18.506.132h-.133v-6.93h0l.133-.132,25.8.053h.08v.079c0,2.15-.032,3.86-.042,5.045v1.657A.868.868,0,0,1,379.674,339.3Z" transform="translate(-186.612 -173.395)" fill="#e0e0e0"/>
      <path id="Path_49566" data-name="Path 49566" d="M81.29,70.445a.528.528,0,0,1,0-.122V68.63c0-1.175,0-2.864-.042-5l.08.079-25.834.058c.058-.058-.133.132.127-.132h0v6.808l-.127-.127,18.384.058,5.425.037H81.29a.5.5,0,0,1-.122,0H79.36l-5.393.037-18.474.058H55.36V63.642h0l.133-.132,25.8.053h.08v.079c0,2.155-.032,3.86-.042,5.045V70.35A.652.652,0,0,1,81.29,70.445Z" transform="translate(-46.446 -46.881)" fill="#e0e0e0"/>
      <path id="Path_49567" data-name="Path 49567" d="M566.482,441.5v-1.816c0-1.175,0-2.864-.042-5l.08.079-25.8.053.133-.132h0v6.8l-.127-.127,18.384.058,5.424.037h.064l-5.4.037-18.474.058H540.6v-6.93h0l.133-.132,25.8.053h.08v.079c0,2.149-.032,3.86-.042,5.045v1.662A.236.236,0,0,1,566.482,441.5Z" transform="translate(-274.382 -221.455)" fill="#e0e0e0"/>
      <path id="Path_49568" data-name="Path 49568" d="M371.432,51.965V50.15c0-1.175,0-2.869-.042-5l.079.079-25.8.048.133-.127h0v6.814l-.127-.127,18.384.058,5.425.032h1.856a.673.673,0,0,1,.133,0H369.55l-5.4.037-18.474.058h-.127V45.162h0l.133-.132,25.8.053h.08v.079c0,2.149-.032,3.86-.042,5.045v1.657a.45.45,0,0,1-.085.1Z" transform="translate(-182.76 -38.185)" fill="#e0e0e0"/>
      <path id="Path_49569" data-name="Path 49569" d="M387.211,39.068a.749.749,0,0,1,0-.132V37.21c0-1.2-.032-2.88-.053-4.955l.1.09-15.5.037.127-.127h0v6.8l-.122-.127,11.088.058,3.229.037h1.183a1.742,1.742,0,0,1-.281,0h-.848l-3.182.032-11.173.058h-.127V32.265h0c-.032,0,.249-.249.133-.132l15.5.037h.1v.1c0,2.118-.042,3.8-.053,5.014v1.345C387.322,38.957,387.211,39.073,387.211,39.068Z" transform="translate(-195.018 -32.101)" fill="#e0e0e0"/>
      <path id="Path_49570" data-name="Path 49570" d="M64.432,358.823a1.091,1.091,0,0,1,0-.122v-1.689c0-1.175,0-2.869-.042-5l.08.079-25.8.053.133-.132h0v6.808l-.127-.127,18.384.058,5.425.037h.064l-5.4.037-18.474.058H38.55v-6.867h0c.265-.259.074-.069.133-.127l25.8.048h.08v.079c0,2.155-.032,3.86-.042,5.051v1.657C64.437,358.823,64.437,358.823,64.432,358.823Z" transform="translate(-38.55 -182.578)" fill="#e0e0e0"/>
      <path id="Path_49571" data-name="Path 49571" d="M80.213,345.924a.645.645,0,0,1,0-.127v-1.726c0-1.2-.032-2.885-.053-4.961l.1.1-15.5.037c-.117.116.159-.159.127-.132h0v6.808l-.122-.122,11.088.058,3.229.037h1.182a1.756,1.756,0,0,1-.281,0h-.848l-3.182.037-11.173.058H64.65v-6.935h0l.133-.132,15.431.1h.1v.1c0,2.118-.042,3.807-.053,5.014v1.35A1.44,1.44,0,0,1,80.213,345.924Z" transform="translate(-50.81 -176.482)" fill="#e0e0e0"/>
      <path id="Path_49572" data-name="Path 49572" d="M217.623,252.95a.526.526,0,0,1,0-.122V251.14c0-1.181-.027-2.869-.042-5l.08.079-25.8.053c.058-.058-.133.132.127-.132h0v6.8l-.127-.127,18.384.058,5.425.037h.058l-5.393.032L191.863,253h-.133v-6.936h0l.133-.132,25.8.053h.08v.079c0,2.155-.032,3.86-.042,5.051v1.657A.651.651,0,0,1,217.623,252.95Z" transform="translate(-110.505 -132.724)" fill="#e0e0e0"/>
      <path id="Path_49573" data-name="Path 49573" d="M233.359,240.064a.359.359,0,0,1,0-.127v-.365l-.027-1.366c0-1.191,0-2.88-.048-4.955l.1.1-15.5.037.133-.132h0v6.808l-.127-.122,11.088.058,3.235.032h1.182a1.962,1.962,0,0,1-.286,0h-.843l-3.182.037-11.173.058h-.122v-6.935h0c0,.026.255-.249.133-.132l15.5.037h.1v.1c0,2.118-.037,3.807-.048,5.014,0,.566,0,1.016-.027,1.345A2.412,2.412,0,0,1,233.359,240.064Z" transform="translate(-122.741 -126.651)" fill="#e0e0e0"/>
    </g>
    <g id="freepik--Floor--inject-4" transform="translate(0 261.789)">
      <path id="Path_49574" data-name="Path 49574" d="M418.876,468.768c0,.074-80.874.138-180.607.138s-180.629-.079-180.629-.138,80.857-.138,180.629-.138S418.876,468.694,418.876,468.768Z" transform="translate(-57.64 -468.63)" fill="#263238"/>
    </g>
    <g id="freepik--Tab--inject-4" transform="translate(235.039 80.868)">
      <rect id="Rectangle_13483" data-name="Rectangle 13483" width="120.375" height="154.243" rx="8" fill="#fff"/>
      <rect id="Rectangle_13474" data-name="Rectangle 13474" width="96.693" height="16.677" rx="8.338" transform="translate(12.026 58.846)" fill="#ebebeb"/>
      <rect id="Rectangle_13475" data-name="Rectangle 13475" width="96.693" height="16.677" rx="8.338" transform="translate(12.122 81.749)" fill="#ebebeb"/>
      <rect id="Rectangle_13476" data-name="Rectangle 13476" width="96.688" height="16.677" rx="8.338" transform="translate(11.56 107.574)" fill="#0075f4"/>
      <g id="Group_53269" data-name="Group 53269" transform="translate(27.669 36.644)">
        <rect id="Rectangle_13482" data-name="Rectangle 13482" width="67.343" height="5.294" rx="2.647" transform="translate(0 7.412)" fill="#b9d8fb" opacity="0.5"/>
        <path id="Path_49728" data-name="Path 49728" d="M3.182,0H36.588A2.951,2.951,0,0,1,39.77,2.647a2.951,2.951,0,0,1-3.182,2.647H3.182A2.951,2.951,0,0,1,0,2.647,2.951,2.951,0,0,1,3.182,0Z" transform="translate(13.787)" fill="#b9d8fb" opacity="0.5"/>
      </g>
    </g>
    <g id="freepik--Padlock--inject-4" transform="translate(273.151 46.799)">
      <path id="Path_49621" data-name="Path 49621" d="M575.476,102.4l-4.189-.868,5.3-25.471a5.578,5.578,0,0,0-.827-3.833c-6.676-9.228-17.536-5.48-19.2,2.494l-4.772,22.765-4.189-.874,5.35-25.635a9.124,9.124,0,0,1,4.735-6.242c13.49-6.941,24.811,3.849,22.5,14.909Z" transform="translate(-537.336 -62.549)" fill="#e0e0e0"/>
      <path id="Path_49622" data-name="Path 49622" d="M575.495,102.408s.026-.159.09-.455.148-.746.265-1.324l1.061-5.067c.456-2.2,1.007-4.881,1.649-8l1.06-4.987a31.8,31.8,0,0,0,.9-5.623,13.789,13.789,0,0,0-1.3-6.067c-.117-.244-.228-.5-.35-.741l-.424-.715a14.2,14.2,0,0,0-.949-1.382c-.17-.233-.371-.434-.557-.651a5.948,5.948,0,0,0-.583-.63,12.952,12.952,0,0,0-1.315-1.144,14.215,14.215,0,0,0-3.065-1.827l-.854-.318-.483-.159-.445-.116-.9-.233c-.308-.069-.615-.1-.923-.154a14.065,14.065,0,0,0-15.5,9.778c-.387,1.35-.636,2.764-.939,4.172-1.177,5.649-2.4,11.5-3.648,17.471-.17.8-.334,1.588-.5,2.388l-.08-.122,4.189.874-.117.079c.944-4.527,1.872-8.958,2.768-13.236q.673-3.224,1.331-6.353l.647-3.1a11.1,11.1,0,0,1,1.1-2.933,10.127,10.127,0,0,1,4.412-4.087c.228-.1.445-.222.684-.3l.7-.244a10.527,10.527,0,0,1,1.432-.323,10.334,10.334,0,0,1,1.453-.116,5.483,5.483,0,0,1,.721.032h.355l.355.058a9.975,9.975,0,0,1,2.7.768,10.68,10.68,0,0,1,2.317,1.451,10.112,10.112,0,0,1,2.985,4.272,9.574,9.574,0,0,1,.493,4.871l-.1.588c-.037.191-.08.381-.117.572l-.239,1.133c-.159.746-.313,1.477-.461,2.2-.6,2.869-1.161,5.511-1.66,7.888-1.008,4.765-1.792,8.471-2.312,10.954l-.027-.037,3.182.672.774.169.255.058-.249-.048-.769-.148-3.182-.646h0v-.032l2.259-10.959c.493-2.382,1.061-5.024,1.639-7.9.148-.715.3-1.451.456-2.2.074-.371.154-.752.233-1.128.042-.191.08-.381.122-.577s.058-.386.09-.577a9.432,9.432,0,0,0-.493-4.8,9.942,9.942,0,0,0-2.948-4.2,10.527,10.527,0,0,0-2.291-1.424,10,10,0,0,0-2.651-.752l-.35-.053h-.355a5.224,5.224,0,0,0-.705,0,10.2,10.2,0,0,0-2.832.434l-.689.244a6.257,6.257,0,0,0-.668.3,9.889,9.889,0,0,0-4.327,4.018,10.616,10.616,0,0,0-1.061,2.875q-.318,1.541-.647,3.1-.652,3.129-1.326,6.353l-2.763,13.236v.1h-.1l-4.189-.874h-.1v-.1c.164-.789.329-1.588.5-2.388,1.251-5.988,2.471-11.838,3.654-17.471.3-1.414.53-2.817.944-4.193a15.255,15.255,0,0,1,1.829-3.8,14.312,14.312,0,0,1,13.914-6.094c.313.053.626.09.933.154l1.061.275.567.18.849.318.392.164a14.257,14.257,0,0,1,2.911,1.763,14.62,14.62,0,0,1,1.326,1.159q.251.273.477.566c.186.222.392.424.557.656a14.336,14.336,0,0,1,.965,1.4l.424.72c.127.249.233.529.355.752a13.92,13.92,0,0,1,1.3,6.136,29.65,29.65,0,0,1-.912,5.654c-.334,1.774-.726,3.441-1.061,5-.657,3.118-1.23,5.824-1.692,8s-.827,3.891-1.06,5.045l-.281,1.308C575.532,102.265,575.495,102.408,575.495,102.408Z" transform="translate(-537.355 -62.552)" fill="#263238"/>
      <path id="Path_49623" data-name="Path 49623" d="M.01.012,38.234,0a1.98,1.98,0,0,1,1.982,1.98l-.009,28.94a1.8,1.8,0,0,1-1.8,1.8L0,32.732.01.012Z" transform="translate(8.447 18.197) rotate(11.77)" fill="#455a64"/>
      <g id="Group_53266" data-name="Group 53266" transform="translate(1.79 18.227)" opacity="0.3">
        <path id="Path_49624" data-name="Path 49624" d="M.01.011,38.032,0A2.181,2.181,0,0,1,40.216,2.18l-.009,28.538a2,2,0,0,1-2,2L0,32.732.01.011Z" transform="translate(6.677 0) rotate(11.77)"/>
      </g>
      <path id="Path_49625" data-name="Path 49625" d="M2.141.01,35.11,0a2.15,2.15,0,0,1,2.152,2.149l-.009,27.94A2.651,2.651,0,0,1,34.6,32.736l-32.376.01A2.224,2.224,0,0,1,0,30.523L.009,2.16A2.153,2.153,0,0,1,2.141.01Z" transform="translate(6.68 17.831) rotate(11.77)" fill="#455a64"/>
      <g id="Group_53267" data-name="Group 53267" transform="translate(16.43 30.407)" opacity="0.3">
        <path id="Path_49626" data-name="Path 49626" d="M570.037,125.477a4.569,4.569,0,0,0-3.68-5.432,4.634,4.634,0,0,0-5.271,3.531,4.556,4.556,0,0,0,2.36,5l-4.216,5.564,7.694,1.747-1.061-6.8A4.558,4.558,0,0,0,570.037,125.477Z" transform="translate(-559.23 -119.983)"/>
      </g>
      <path id="Path_49627" data-name="Path 49627" d="M598.288,143.324c-.053,0,1.092-5.591,2.556-12.463s2.7-12.441,2.752-12.431-1.092,5.6-2.556,12.479S598.341,143.334,598.288,143.324Z" transform="translate(-561.146 -88.845)" fill="#263238"/>
      <path id="Path_49628" data-name="Path 49628" d="M573.866,105.336c0,.053-4.947-.863-11.024-2.044s-11-2.181-10.992-2.234,4.947.858,11.029,2.038S573.877,105.262,573.866,105.336Z" transform="translate(-539.333 -80.669)" fill="#fff"/>
      <path id="Path_49629" data-name="Path 49629" d="M561.222,125.415a1.533,1.533,0,0,1-.127-.318,4.111,4.111,0,0,1-.17-.916,5.176,5.176,0,0,1,.663-2.981,5.241,5.241,0,0,1,2.243-2.075,4.7,4.7,0,0,1,.88-.318,1.061,1.061,0,0,1,.339-.048c0,.037-.472.132-1.156.492a5.292,5.292,0,0,0-2.826,4.918C561.095,124.943,561.259,125.4,561.222,125.415Z" transform="translate(-543.588 -89)" fill="#fff"/>
      <path id="Path_49630" data-name="Path 49630" d="M563.169,135.2c-.037.042-.281-.122-.53-.365s-.44-.471-.4-.529.281.127.53.365A1.5,1.5,0,0,1,563.169,135.2Z" transform="translate(-544.209 -96.308)" fill="#fff"/>
      <path id="Path_49631" data-name="Path 49631" d="M572.883,64.567s-.276,0-.774-.053a13.306,13.306,0,0,0-2.121.037,12.3,12.3,0,0,0-10.441,8,13.223,13.223,0,0,0-.578,2.022c-.1.487-.138.762-.154.762a.847.847,0,0,1,0-.2,2.018,2.018,0,0,1,.069-.577,11.5,11.5,0,0,1,.53-2.054,12.135,12.135,0,0,1,10.573-8.095,11.154,11.154,0,0,1,2.121.032,3.442,3.442,0,0,1,.573.079A.728.728,0,0,1,572.883,64.567Z" transform="translate(-542.602 -63.407)" fill="#fff"/>
      <path id="Path_49632" data-name="Path 49632" d="M557.148,89.474a7.244,7.244,0,0,1,.509-2.324,6.962,6.962,0,0,1-.509,2.324Z" transform="translate(-541.821 -74.126)" fill="#fff"/>
    </g>
    <g id="freepik--Characters--inject-4" transform="translate(15.532 29.064)">
      <path id="Path_49633" data-name="Path 49633" d="M51.979,413.6,42.45,426.518,58.5,438.441c1.061-1.588-4.969-10.843-4.969-10.843l6.448-8.026Z" transform="translate(-42.429 -210.01)" fill="#263238"/>
      <path id="Path_49634" data-name="Path 49634" d="M54.058,431.736a.812.812,0,0,0-1.007.408.788.788,0,0,0,.4,1.006.859.859,0,0,0,1.061-.439.815.815,0,0,0-.53-1" transform="translate(-47.382 -218.521)" fill="#fff"/>
      <path id="Path_49635" data-name="Path 49635" d="M42.41,436.827l1.013-1.387,14.99,12.05s.477.847,0,1.286Z" transform="translate(-42.41 -220.287)" fill="#263238"/>
      <path id="Path_49636" data-name="Path 49636" d="M62.119,439.766c-.058.079-.477-.175-1.061-.212s-1.023.143-1.061.058.408-.45,1.1-.4S62.162,439.708,62.119,439.766Z" transform="translate(-50.671 -222.061)" fill="#fff"/>
      <path id="Path_49637" data-name="Path 49637" d="M64.438,443.7c-.042.09-.477-.032-.992.1s-.848.429-.928.365.207-.529.848-.694S64.491,443.622,64.438,443.7Z" transform="translate(-51.85 -224.043)" fill="#fff"/>
      <path id="Path_49638" data-name="Path 49638" d="M65.1,448.225c-.085-.037.1-.529.62-.789s1.013-.175,1-.085-.414.148-.833.387S65.187,448.272,65.1,448.225Z" transform="translate(-53.06 -225.85)" fill="#fff"/>
      <path id="Path_49639" data-name="Path 49639" d="M64.8,435.41c-.09.048-.366-.328-.833-.625s-.912-.418-.907-.529.53-.132,1.092.228S64.884,435.379,64.8,435.41Z" transform="translate(-52.11 -219.696)" fill="#263238"/>
      <path id="Path_49640" data-name="Path 49640" d="M95.658,299.451c.286,1.62.742,15.4,1.034,22.67s-.435,10.843-1.267,12.473S63.2,359.324,60.8,364.856l-7.954-6.4s11.666-20.907,16.64-24.708,14.545-7.29,14.545-7.29l-2.72-39.808,13.039-.709Z" transform="translate(-47.314 -149.936)" fill="#263238"/>
      <path id="Path_49641" data-name="Path 49641" d="M78.428,437.73l-.138,16.026,20,.275c-.09-1.906-10.383-5.882-10.383-5.882l.53-10.276Z" transform="translate(-59.264 -221.365)" fill="#263238"/>
      <path id="Path_49642" data-name="Path 49642" d="M84.257,455.649a.815.815,0,0,0-.578.921.79.79,0,0,0,.912.582.863.863,0,0,0,.6-.979.812.812,0,0,0-1.013-.5" transform="translate(-61.79 -229.791)" fill="#fff"/>
      <path id="Path_49643" data-name="Path 49643" d="M78.28,466.581V464.86l19.222,1s.88.408.769,1.032Z" transform="translate(-59.26 -234.131)" fill="#263238"/>
      <path id="Path_49644" data-name="Path 49644" d="M95.372,457.188c0,.1-.493.138-.976.445s-.748.709-.838.672.064-.6.658-.964S95.415,457.1,95.372,457.188Z" transform="translate(-66.425 -230.478)" fill="#fff"/>
      <path id="Path_49645" data-name="Path 49645" d="M99.814,458.956c0,.1-.408.254-.742.662s-.44.847-.53.837-.154-.556.276-1.059S99.814,458.845,99.814,458.956Z" transform="translate(-68.746 -231.33)" fill="#fff"/>
      <path id="Path_49646" data-name="Path 49646" d="M103.05,462.243c-.09,0-.217-.471.037-1s.721-.736.758-.657-.244.365-.451.8S103.146,462.232,103.05,462.243Z" transform="translate(-70.842 -232.112)" fill="#fff"/>
      <path id="Path_49647" data-name="Path 49647" d="M94.874,452.517c-.042.09-.488-.053-1.061,0s-.986.2-1.061.111.366-.424,1.018-.45S94.922,452.443,94.874,452.517Z" transform="translate(-66.054 -228.163)" fill="#263238"/>
      <path id="Path_49648" data-name="Path 49648" d="M107.592,271.884c0,.937,1.522,24.661-6.246,41.825,0,0-2.688,5.368-3.182,7.714S87.622,362.67,87.622,362.67l-11.613-.424s-1.856-19.488,0-30.77,5.3-9.958,5.3-17.243-1.734-22.389-1.734-22.389-2.535-4.124-3.4-12.124c-.705-6.5,2.36-13.458,2.36-13.458l3.028-5.352,25.617-1.339Z" transform="translate(-57.805 -137.527)" fill="#263238"/>
      <path id="Path_49649" data-name="Path 49649" d="M107.482,271.814V271c0-.535-.032-1.329-.053-2.372-.048-2.091-.127-5.172-.223-9.154v-.058h-.064l-25.617,1.3h-.053l-.032.048c-.939,1.662-1.973,3.478-3.033,5.353h0A34.219,34.219,0,0,0,76.567,272a26.13,26.13,0,0,0-.642,6.454,39.856,39.856,0,0,0,1.061,6.718,27.275,27.275,0,0,0,2.455,6.655v-.053c.44,3.949.848,8.042,1.193,12.256.17,2.118.318,4.235.424,6.411.053,1.059.1,2.171.1,3.267,0,.53,0,1.1-.032,1.641a15.212,15.212,0,0,1-.2,1.631,10.706,10.706,0,0,1-1.14,3.1c-.53.99-1.061,1.969-1.591,3a28.2,28.2,0,0,0-2.084,6.565A75.126,75.126,0,0,0,74.95,343.7c0,6.295.3,12.479.817,18.456v.127h.122l11.613.423h.111l.027-.111c3.367-13.029,6.506-25.206,9.274-36.154l1-4.05c.175-.672.286-1.339.493-1.975s.44-1.265.684-1.879c.5-1.228,1.061-2.419,1.591-3.579l.414-.863a8.523,8.523,0,0,0,.392-.868c.239-.588.477-1.165.716-1.742a70.159,70.159,0,0,0,3.664-13.2,114.615,114.615,0,0,0,1.75-19.451c.032-4.564-.154-7.041-.154-7.041v.455c0,.3,0,.762.032,1.355.032,1.191.053,2.949,0,5.231a117.591,117.591,0,0,1-1.766,19.435,70.116,70.116,0,0,1-3.712,13.151l-.711,1.731c-.117.3-.249.577-.392.863s-.281.577-.419.868c-.53,1.159-1.092,2.351-1.591,3.584-.249.619-.488,1.249-.695,1.9s-.329,1.329-.5,1.985c-.334,1.334-.668,2.679-1.013,4.05-2.816,10.938-5.95,23.115-9.306,36.144l.138-.1-11.613-.429.138.127c-.53-5.967-.838-12.145-.817-18.429a74.764,74.764,0,0,1,1.156-14,28.3,28.3,0,0,1,2.063-6.507c.477-1.022,1.061-1.991,1.591-3a11.059,11.059,0,0,0,1.124-3.177,14.768,14.768,0,0,0,.207-1.668c0-.529.053-1.112.032-1.657,0-1.1-.048-2.2-.1-3.282-.106-2.171-.26-4.31-.435-6.417q-.53-6.353-1.2-12.267h0v-.032a26.974,26.974,0,0,1-2.466-6.575,39.939,39.939,0,0,1-1.061-6.671,25.961,25.961,0,0,1,.626-6.4,34.716,34.716,0,0,1,1.8-5.824h0l3.022-5.358-.085.053,25.617-1.382-.069-.058c.127,3.976.223,7.057.286,9.148.037,1.059.064,1.832.085,2.372S107.482,271.814,107.482,271.814Z" transform="translate(-57.695 -137.456)" fill="#d5dbe8"/>
      <path id="Path_49650" data-name="Path 49650" d="M115.014,191.02s-6.893-1.218-6.252,7.64c.4,5.294,1.962,14.379,2.826,20.176.3,2.007.954,5.6,3.611,7.7l19.036,13.151,6.008-7.174-17-16.163-2.651-15.989Z" transform="translate(-73.559 -105.242)" fill="#d5dbe8"/>
      <path id="Path_49651" data-name="Path 49651" d="M110.485,130.77a8.708,8.708,0,0,1,3.235,7.37c-.106,1.355-.483,2.9.4,3.928s2.582,1,3.42,2.044c.981,1.239.159,3.081.53,4.622a3.139,3.139,0,0,0,3.335,2.324,12.253,12.253,0,0,1-6.066,2.647l-1.739-2.165a2.24,2.24,0,0,1-.148,2.753,5.145,5.145,0,0,1-2.5,1.482,15.552,15.552,0,0,1-13.6-2.208" transform="translate(-68.217 -76.917)" fill="#263238"/>
      <path id="Path_49652" data-name="Path 49652" d="M73.917,136.046c.339-1.059.912-2,1.14-3.06.488-2.292-.631-4.876.483-6.941.8-1.467,2.482-2.187,4.083-2.679s3.309-.905,4.5-2.075c.87-.858,1.368-2.044,2.238-2.9a7.371,7.371,0,0,1,4.815-1.752,10.471,10.471,0,0,1,5.255.852,5.73,5.73,0,0,1,3.235,4.039,16.271,16.271,0,0,0,.308,2.594,17.469,17.469,0,0,0,1.458,2.472,4.591,4.591,0,0,1-1.151,5.506L87.99,147.952c-2.582.974-8.839-.2-10.833-2.118S73.063,138.666,73.917,136.046Z" transform="translate(-57.118 -70.244)" fill="#263238"/>
      <path id="Path_49653" data-name="Path 49653" d="M106.865,135.635c-.53-3.6-3.25-7.851-6.83-7.195l-11.051,3.706c-1.061.2-.308,1.975-.2,3.071l2.4,24.883s-1.5,1.059-2.026.858a.154.154,0,0,0-.18.228c1.342,1.932,7.593,10.334,14.068,7.756,1.442-.577-.154-5.114,0-6.793l-.191-4.294c-.143-2.192-.212-3.092-.212-3.071s4.571-1.122,5.064-7.227A64.175,64.175,0,0,0,106.865,135.635Z" transform="translate(-64.025 -75.789)" fill="#ffbf9d"/>
      <path id="Path_49659" data-name="Path 49659" d="M107.931,176.915a15.43,15.43,0,0,1-8.251-1.535s2.36,4.077,8.357,3.049Z" transform="translate(-69.312 -97.909)" fill="#ff9a6c"/>
      <path id="Path_49664" data-name="Path 49664" d="M84.419,132.768a4.814,4.814,0,0,1,2.513-1.662,55.691,55.691,0,0,1,12.8-3.256,2.271,2.271,0,0,1-.779,2.769,10.112,10.112,0,0,1-2.863,1.276,3.936,3.936,0,0,0-2.4,1.906c-.408.969-.064,2.245-.445,3.293-.652,1.811-3.182,2.393-3.813,4.2-.488,1.371.308,2.827.53,4.267a5.191,5.191,0,0,1-5.1,5.9q-.445-7.777-.9-15.544A4.976,4.976,0,0,1,84.419,132.768Z" transform="translate(-61.904 -75.543)" fill="#263238"/>
      <path id="Path_49665" data-name="Path 49665" d="M64.139,149.419c.822-.736,1.851-1.371,2.174-2.419.477-1.53-.753-3.325.042-4.717.721-1.271,2.847-1.2,3.521-2.5.53-1.016-.08-1.911.117-2.8a2.431,2.431,0,0,1,2.37-1.562l7.074,10.255c.658,3.441,1.32,5.294.583,7.285a16.055,16.055,0,0,0-1.1,3.346,3.355,3.355,0,0,0,1.092,3.177c-4.242.334-8.208-1.879-11.878-4.024l-3.866-2.266a2.772,2.772,0,0,1-1.061-.889C62.633,151.362,63.322,150.15,64.139,149.419Z" transform="translate(-52.08 -79.101)" fill="#263238"/>
      <path id="Path_49666" data-name="Path 49666" d="M72.52,147.588a2.012,2.012,0,0,0,.456.09,3.978,3.978,0,0,0,1.32-.1,4.08,4.08,0,0,0,1.84-.99,4.005,4.005,0,0,0,1.209-2.472,4.086,4.086,0,0,0-.138-1.625,6.7,6.7,0,0,0-.785-1.588,6.09,6.09,0,0,1-.811-1.631,2.083,2.083,0,0,1,.228-1.795c.382-.529,1.1-.641,1.766-.905a1.924,1.924,0,0,0,.9-.672A1.9,1.9,0,0,0,78.8,134.8a12.059,12.059,0,0,0-.483-2.2,2.326,2.326,0,0,1,0-1.059,1.52,1.52,0,0,1,.61-.863,4.29,4.29,0,0,1,2.121-.572,4.561,4.561,0,0,0,2.185-.641,4.084,4.084,0,0,0,1.511-1.625,6.689,6.689,0,0,0,.53-2.028,9.713,9.713,0,0,1,.414-1.906,4.32,4.32,0,0,1,1-1.5,4.9,4.9,0,0,1,2.932-1.324,4.853,4.853,0,0,1,2.651.529,5.832,5.832,0,0,1,1.633,1.239,7.691,7.691,0,0,1,1.007,1.445.287.287,0,0,0-.037-.111,2.95,2.95,0,0,0-.148-.307,5.491,5.491,0,0,0-.737-1.069,5.927,5.927,0,0,0-1.644-1.3,4.938,4.938,0,0,0-2.7-.6,5.041,5.041,0,0,0-3.081,1.35,4.478,4.478,0,0,0-1.061,1.588,9.845,9.845,0,0,0-.435,1.943,6.53,6.53,0,0,1-.53,1.959,3.878,3.878,0,0,1-1.41,1.519,4.38,4.38,0,0,1-2.079.6,4.465,4.465,0,0,0-2.27.614,1.731,1.731,0,0,0-.7.985,2.58,2.58,0,0,0,0,1.191,12.13,12.13,0,0,1,.477,2.16,1.634,1.634,0,0,1-.244.969,1.76,1.76,0,0,1-.8.588c-.313.132-.652.222-.981.36a2.068,2.068,0,0,0-.875.63,2.342,2.342,0,0,0-.255,1.991,6.434,6.434,0,0,0,.848,1.684,6.349,6.349,0,0,1,.769,1.514,3.991,3.991,0,0,1,.148,1.546,3.894,3.894,0,0,1-1.135,2.393,4.005,4.005,0,0,1-1.771,1A4.445,4.445,0,0,1,72.52,147.588Z" transform="translate(-56.554 -72.272)" fill="#d5dbe8"/>
      <path id="Path_49667" data-name="Path 49667" d="M61.713,140.322a.9.9,0,0,0-.138.344,1.523,1.523,0,0,0,.18,1.059,1.658,1.658,0,0,0,.53.566,1.693,1.693,0,0,0,.907.244,2.121,2.121,0,0,0,1.856-1.181,2.808,2.808,0,0,0,.3-1.286,3.934,3.934,0,0,0-.3-1.4,8.709,8.709,0,0,1-.96-2.88,1.962,1.962,0,0,1,.493-1.456,2.123,2.123,0,0,1,1.538-.476,5.258,5.258,0,0,0,1.835-.191,1.59,1.59,0,0,0,.753-.635,2.285,2.285,0,0,0,.313-.932,7.311,7.311,0,0,0-.154-1.885,4,4,0,0,1,.1-1.742,4.384,4.384,0,0,1,1.967-2.584,6.249,6.249,0,0,1,2.954-.678,8.586,8.586,0,0,0,2.683-.424,5.627,5.627,0,0,0,1.9-1.165,5.55,5.55,0,0,0,1.061-1.334,3.919,3.919,0,0,0,.5-1.339,8.074,8.074,0,0,1-.589,1.292,5.7,5.7,0,0,1-2.916,2.414,8.751,8.751,0,0,1-2.651.381,6.371,6.371,0,0,0-3.044.678,4.6,4.6,0,0,0-2.089,2.674,4.287,4.287,0,0,0-.111,1.837,7.622,7.622,0,0,1,.154,1.821,1.588,1.588,0,0,1-.917,1.371,5,5,0,0,1-1.745.175,2.351,2.351,0,0,0-1.7.529,2.163,2.163,0,0,0-.53,1.625,4.188,4.188,0,0,0,.387,1.588c.207.476.435.921.61,1.366a3.812,3.812,0,0,1,.3,1.329,2.67,2.67,0,0,1-.265,1.207,1.967,1.967,0,0,1-1.7,1.122,1.593,1.593,0,0,1-.843-.206,1.473,1.473,0,0,1-.53-.529,1.491,1.491,0,0,1-.217-.99C61.66,140.443,61.729,140.327,61.713,140.322Z" transform="translate(-51.4 -72.296)" fill="#263238"/>
      <path id="Path_49668" data-name="Path 49668" d="M134.924,147.27a1.665,1.665,0,0,1,0,1.107,1.446,1.446,0,0,1-.88.895,1.534,1.534,0,0,1-1.554-.424,1.407,1.407,0,0,1-.366-.889,2.955,2.955,0,0,1,.164-1.059,6.262,6.262,0,0,0,.615-2.43,3.424,3.424,0,0,0-1.294-2.446,3.937,3.937,0,0,0-1.32-.694,6.017,6.017,0,0,0-1.506-.217,7.714,7.714,0,0,1-1.469-.154,1.952,1.952,0,0,1-1.14-.7,2.369,2.369,0,0,1-.408-1.255,4.847,4.847,0,0,1,.106-1.3,9.806,9.806,0,0,0,.382-2.478,3.75,3.75,0,0,0-.758-2.054A4.813,4.813,0,0,0,124.118,132a9.776,9.776,0,0,1-1.108-.762,2.775,2.775,0,0,1-.689-.889s0,0,0,.074a1.057,1.057,0,0,0,.085.206,2.288,2.288,0,0,0,.53.678,8.567,8.567,0,0,0,1.1.81,4.77,4.77,0,0,1,1.315,1.154,3.543,3.543,0,0,1,.689,1.959,9.87,9.87,0,0,1-.4,2.419,5.049,5.049,0,0,0-.122,1.366,2.644,2.644,0,0,0,.456,1.382,2.185,2.185,0,0,0,1.273.8,8.1,8.1,0,0,0,1.511.164,5.907,5.907,0,0,1,1.453.2,3.863,3.863,0,0,1,1.241.651,3.207,3.207,0,0,1,1.214,2.271,6.218,6.218,0,0,1-.583,2.356,3.172,3.172,0,0,0-.159,1.144,1.587,1.587,0,0,0,.43.99,1.683,1.683,0,0,0,1.729.439,1.547,1.547,0,0,0,.923-1,1.522,1.522,0,0,0,.042-.858A.894.894,0,0,0,134.924,147.27Z" transform="translate(-79.947 -76.719)" fill="#263238"/>
      <path id="Path_49669" data-name="Path 49669" d="M107.744,213.874v-5.855a16.288,16.288,0,0,0-1.188-10.186,54.82,54.82,0,0,0-3.68-5.585l-5.833-7.566c-3.213,2.335-8.246.646-12.562-.921a30.59,30.59,0,0,0-6.246,4.569c-2.084,2.329,5.043,31.474,5.043,31.474-3.229,6.448-7.4,12.177-8.028,18.053l33.725,1.3-1.432-15.438Z" transform="translate(-57.836 -101.853)" fill="#d5dbe8"/>
      <path id="Path_49670" data-name="Path 49670" d="M135.62,244.66a2.966,2.966,0,0,1-.027-.662c0-.482,0-1.059,0-1.795.027-1.588.058-3.637.1-5.919s.106-4.4.18-5.919c.037-.757.074-1.371.106-1.795a2.918,2.918,0,0,1,.085-.651,3.356,3.356,0,0,1,0,.656v1.795c-.027,1.588-.064,3.637-.1,5.919s-.1,4.4-.175,5.919c-.037.757-.074,1.371-.111,1.795A2.789,2.789,0,0,1,135.62,244.66Z" transform="translate(-86.178 -122.633)" fill="#263238"/>
      <path id="Path_49671" data-name="Path 49671" d="M161.332,269.6a13.272,13.272,0,0,1,5.3,1.451c2.015,1.271,5.3,3.251,6.655,5.7.62,1.128-1.145,1.366-2.02.715a14.293,14.293,0,0,0-2.869-2.038l-.663-.153a44.123,44.123,0,0,0,2.02,4c.684,1.059,1.278,2.817-.779,2.9,0,0-1.384,1.8-2.784.466,0,0-1.092,1.636-2.853-.63,0,0-1.029,1.3-1.453.8s-1.829-1.281-2.238-2.9a58.657,58.657,0,0,0-2.121-5.554Z" transform="translate(-96.486 -142.247)" fill="#ffbf9d"/>
      <path id="Path_49672" data-name="Path 49672" d="M297.85,162.3c.366,0,15.42-1.588,15.42-1.588a62.962,62.962,0,0,0,1.209-7.7c-.069-1.588-1.14-12.1-1.14-12.1l5.637-2.647s7.535,25.37,5.891,27.477a16.481,16.481,0,0,1-5,4.008c-.265.011-14.587,6.353-24.551,3.055S297.85,162.3,297.85,162.3Z" transform="translate(-159.399 -80.446)" fill="#ffbf9d"/>
      <path id="Path_49673" data-name="Path 49673" d="M278.63,190.124c2.216,2.2,6.034,4.024,12.408,2.435,12.6-3.145,22.043-5.824,25.8-7.835s2.291-11,2.609-11.409c.949-1.228-.1-3.865-1.448-4.278-3.855-1.165-10.563-.7-10.9-.355-1.978,2.075-.175,4.6-.175,4.6l-16.613,2.176a27.848,27.848,0,0,0-6.1.386" transform="translate(-153.372 -94.573)" fill="#d5dbe8"/>
      <path id="Path_49674" data-name="Path 49674" d="M284.2,175.723l.4-.085c.265-.048.658-.116,1.177-.18a27.354,27.354,0,0,1,4.534-.191h0l16.608-2.224-.08.185a4.437,4.437,0,0,1-.764-2.727,3.173,3.173,0,0,1,.477-1.408,4.5,4.5,0,0,1,.456-.6.859.859,0,0,1,.217-.116l.191-.048c.127-.032.249-.042.371-.069a32.985,32.985,0,0,1,6.2-.127,21.342,21.342,0,0,1,3.224.445c.265.058.53.138.806.206a2,2,0,0,1,.758.445,3.706,3.706,0,0,1,.939,1.44,3.632,3.632,0,0,1,.217,1.721,2.116,2.116,0,0,1-.334.847c-.048.053-.042.2-.048.334v.424c.037,1.138.09,2.3.058,3.462a14.7,14.7,0,0,1-.8,4.86,4.813,4.813,0,0,1-1.379,2.028,4.738,4.738,0,0,1-1.061.625c-.35.185-.721.328-1.061.5-1.453.619-2.911,1.128-4.348,1.588s-2.848.905-4.242,1.313c-5.547,1.588-10.605,2.875-14.816,3.928a28.555,28.555,0,0,1-3.054.63,16.412,16.412,0,0,1-2.784.148,11.623,11.623,0,0,1-4.343-.942,10,10,0,0,1-2.386-1.482,6.213,6.213,0,0,1-.711-.672s.244.233.748.63a10.39,10.39,0,0,0,2.4,1.429,11.74,11.74,0,0,0,4.3.884,16.153,16.153,0,0,0,2.752-.169,28.968,28.968,0,0,0,3.033-.646c4.242-1.059,9.258-2.361,14.789-3.981,1.384-.408,2.794-.842,4.242-1.318s2.885-.979,4.322-1.588c.35-.164.716-.307,1.061-.492a4.642,4.642,0,0,0,.992-.593,4.5,4.5,0,0,0,1.3-1.911,14.564,14.564,0,0,0,.769-4.791c.032-1.159,0-2.308-.058-3.452v-.662a.638.638,0,0,1,0-.127.739.739,0,0,1,.042-.1l.026-.042a1.74,1.74,0,0,0,.286-.725,3.309,3.309,0,0,0-.207-1.588,3.43,3.43,0,0,0-.859-1.334,1.739,1.739,0,0,0-.658-.386c-.265-.069-.53-.143-.79-.206a21.177,21.177,0,0,0-3.182-.439,32.29,32.29,0,0,0-6.135.116,1.393,1.393,0,0,0-.361.064l-.17.037a.659.659,0,0,0-.106.053,3.944,3.944,0,0,0-.429.561,2.834,2.834,0,0,0-.445,1.3,4.23,4.23,0,0,0,.711,2.568l.106.164h-.186l-16.618,2.118h0a28.68,28.68,0,0,0-4.512.127c-.53.053-.917.111-1.183.148A1.48,1.48,0,0,0,284.2,175.723Z" transform="translate(-153.367 -94.456)" fill="#263238"/>
      <path id="Path_49675" data-name="Path 49675" d="M.1.009,14,0l-.1,146.425a6.368,6.368,0,0,1-6.36,6.365H6.347A6.348,6.348,0,0,1,0,146.434L.094.009Z" transform="translate(85.891 98.6) rotate(-119.1)" fill="#5971a3"/>
      <path id="Path_49676" data-name="Path 49676" d="M.007.021,32.192,0a1.185,1.185,0,0,1,1.186,1.187l-.006,8.227A1.189,1.189,0,0,1,32.185,10.6L0,10.622.007.021Z" transform="translate(193.16 34.329) rotate(-119.1)" fill="#5971a3"/>
      <path id="Path_71453" data-name="Path 71453" d="M3.241.013,23.658,0a3.232,3.232,0,0,1,3.234,3.237l0,4.124A3.243,3.243,0,0,1,23.65,10.6l-20.417.014A3.232,3.232,0,0,1,0,7.378L0,3.254A3.243,3.243,0,0,1,3.241.013Z" transform="translate(174.592 43.222) rotate(-119.1)" fill="#5971a3"/>
      <path id="Path_71454" data-name="Path 71454" d="M.011.009,14.533,0l-.011,16.464L0,16.473Z" transform="translate(179.498 32.725) rotate(-119.1)" fill="#5971a3"/>
      <path id="Path_49677" data-name="Path 49677" d="M329.909,59.86c.037.064-25.081,14.093-56.091,31.331s-56.208,31.162-56.208,31.093,25.076-14.093,56.1-31.337S329.872,59.791,329.909,59.86Z" transform="translate(-124.708 -43.548)" fill="#263238"/>
      <path id="Path_49678" data-name="Path 49678" d="M102.221,215.48c9.439,16.942,29.339,23.824,44.452,15.433S166.4,201.98,156.96,185.059s-29.334-23.824-44.452-15.433S92.788,198.56,102.221,215.48Zm46.552-25.868c6.612,11.859,3.383,26.244-7.212,32.126s-24.535,1.059-31.148-10.811-3.383-26.244,7.206-32.131S142.16,177.753,148.773,189.612Z" transform="translate(-68.205 -93.522)" fill="#5971a3"/>
      <path id="Path_71455" data-name="Path 71455" d="M3.779.009,17.475,0a3.779,3.779,0,0,1-.005,7.559l-13.7.009A3.779,3.779,0,0,1,3.779.009Z" transform="translate(109.284 89.802) rotate(-119.1)" fill="#5971a3"/>
      <path id="Path_71456" data-name="Path 71456" d="M3.779.009,17.475,0a3.779,3.779,0,0,1-.005,7.559l-13.7.009A3.779,3.779,0,0,1,3.779.009Z" transform="translate(122.696 82.348) rotate(-119.1)" fill="#5971a3"/>
      <path id="Path_49679" data-name="Path 49679" d="M244.358,162c.069-.037,1.686,2.806,3.622,6.353s3.447,6.438,3.378,6.475-1.686-2.8-3.622-6.353S244.289,162,244.358,162Z" transform="translate(-137.272 -91.613)" fill="#263238"/>
      <path id="Path_49680" data-name="Path 49680" d="M232.748,170.25c.069-.037,1.649,2.679,3.537,6.057s3.357,6.157,3.293,6.194-1.649-2.679-3.516-6.03S232.685,170.287,232.748,170.25Z" transform="translate(-131.818 -95.495)" fill="#263238"/>
      <path id="Path_49681" data-name="Path 49681" d="M269.808,148.07c.069-.037,1.718,2.79,3.685,6.316s3.505,6.422,3.436,6.459-1.713-2.8-3.68-6.321S269.745,148.107,269.808,148.07Z" transform="translate(-149.227 -85.058)" fill="#263238"/>
      <path id="Path_49682" data-name="Path 49682" d="M257.6,155.44c.064-.037,1.681,2.774,3.6,6.279s3.431,6.353,3.362,6.411-1.676-2.774-3.6-6.279S257.529,155.477,257.6,155.44Z" transform="translate(-143.491 -88.526)" fill="#263238"/>
      <path id="Path_49683" data-name="Path 49683" d="M318.446,108.163a2.5,2.5,0,0,0,1.061-4.86,2.6,2.6,0,0,0-2.264-4.394,3.123,3.123,0,0,0-4.7-2.562,3.515,3.515,0,0,0-4.322-.1,2.494,2.494,0,0,0-2.211,4.235" transform="translate(-165.879 -60.346)" fill="#263238"/>
      <path id="Path_49684" data-name="Path 49684" d="M302.274,101.53h.53a10.63,10.63,0,0,1,10.595,9.778c.4,5.13.769,10.8.726,13.553-.1,5.718-5.8,6.565-5.8,6.565l.461,6.851-13.856-.45L293.785,113C293.3,107.073,296.336,101.858,302.274,101.53Z" transform="translate(-160.467 -63.157)" fill="#ffbf9d"/>
      <path id="Path_49685" data-name="Path 49685" d="M314.731,156.038a13.871,13.871,0,0,1-7.471-2.208s1.835,4.315,7.53,3.817Z" transform="translate(-166.82 -87.768)" fill="#ff9a6c"/>
      <path id="Path_49693" data-name="Path 49693" d="M311.658,108.12s-1.5-3.574-3.219-4.41c-2.084-1.017-2.985,1.265-4.974.7s-3.977-1.53-6.013,0c-2.227,1.673-1.188,2.854-1.336,5.384-.583,10.25-2.471,13.14-2.985,8.312-.058-.529-1.527-.953-1.739-3.177-.276-2.9-.376-6.417.281-8.471a7.977,7.977,0,0,1,3.319-4.235c2.81-2.075,6.66-2.118,9.274-1.837S311.907,103.652,311.658,108.12Z" transform="translate(-159.266 -62.563)" fill="#263238"/>
      <path id="Path_49694" data-name="Path 49694" d="M292.123,132.334a1.547,1.547,0,0,0-1.665-1.5c-1.061.1-2.254.7-2.19,2.9.111,3.9,4.009,2.981,4.014,2.864S292.186,133.965,292.123,132.334Z" transform="translate(-157.898 -76.946)" fill="#ffbf9d"/>
      <path id="Path_49695" data-name="Path 49695" d="M292.568,136.284a.861.861,0,0,1-.18.106.685.685,0,0,1-.5.026,1.672,1.672,0,0,1-.822-1.488,2.23,2.23,0,0,1,.159-.974.779.779,0,0,1,.5-.529.345.345,0,0,1,.408.175c.053.106.032.185.053.191s.08-.069.042-.228a.392.392,0,0,0-.159-.238.5.5,0,0,0-.376-.09.954.954,0,0,0-.695.625,2.284,2.284,0,0,0-.207,1.091,1.755,1.755,0,0,0,1.06,1.657.717.717,0,0,0,.615-.122C292.568,136.379,292.584,136.284,292.568,136.284Z" transform="translate(-159.08 -78.073)" fill="#ff9a6c"/>
      <path id="Path_49696" data-name="Path 49696" d="M292.4,109.195a3.714,3.714,0,0,0,1.649.768,1.273,1.273,0,0,0,1.416-.889c.048-.27,0-.588.159-.794s.61-.169.933-.132a3.106,3.106,0,0,0,2.757-2.229,1.014,1.014,0,0,0,1.357.286,3.625,3.625,0,0,0,.944-.831,1.618,1.618,0,0,1,1.342-.662,3.717,3.717,0,0,0,.848.185c.53-.042.764-.641.843-1.149s.143-1.1.578-1.371a2.055,2.055,0,0,1,1.395-.037c.472.074,1.061-.037,1.2-.5a.931.931,0,0,0-.175-.7,2.526,2.526,0,0,0-2.98-.964,3.422,3.422,0,0,0-6.294-.683,3.476,3.476,0,0,0-5.562,1.249,2.516,2.516,0,0,0-2.853,3.648,2.388,2.388,0,0,0-1.32,1.9,1.386,1.386,0,0,0,1.548,1.4,1.394,1.394,0,0,0,2.407,1.4" transform="translate(-158.074 -61.356)" fill="#263238"/>
      <path id="Path_49697" data-name="Path 49697" d="M305.271,104.53v.074a.6.6,0,0,1-.026.206,2.534,2.534,0,0,1-.286.752,2.824,2.824,0,0,1-.864.916,2.612,2.612,0,0,1-1.591.45l.064-.085a1.39,1.39,0,0,1-.08,1.059,4.017,4.017,0,0,1-.668.953,2.925,2.925,0,0,1-.44.45,1.46,1.46,0,0,1-1.872-.228l.143-.042a2.917,2.917,0,0,1-1.246,2.017,2.123,2.123,0,0,1-1.283.418,3.951,3.951,0,0,1-1.262-.281l.106-.048a3.087,3.087,0,0,1-.928,1.2,1.635,1.635,0,0,1-1.358.365,2.151,2.151,0,0,1-1.654-1.684l.09.042a2.055,2.055,0,0,1-1.342.191,2.213,2.213,0,0,1-.933-.418,1.945,1.945,0,0,1-.435-.476.7.7,0,0,1-.1-.206,2.289,2.289,0,0,0,.567.63,2.123,2.123,0,0,0,.912.376,1.9,1.9,0,0,0,1.267-.2l.074-.042V111a2.013,2.013,0,0,0,1.559,1.557,1.492,1.492,0,0,0,1.236-.344,2.923,2.923,0,0,0,.87-1.138l.032-.069h.074a3.743,3.743,0,0,0,1.2.265,1.969,1.969,0,0,0,1.188-.386,2.768,2.768,0,0,0,1.177-1.9V108.8l.122.143a1.263,1.263,0,0,0,1.108.4,1.241,1.241,0,0,0,.53-.2,2.58,2.58,0,0,0,.414-.418,3.882,3.882,0,0,0,.658-.911,1.263,1.263,0,0,0,.085-.974l-.032-.1h.1a2.506,2.506,0,0,0,1.532-.408,2.776,2.776,0,0,0,.859-.874A2.92,2.92,0,0,0,305.271,104.53Z" transform="translate(-158.389 -64.569)" fill="#d5dbe8"/>
      <path id="Path_49699" data-name="Path 49699" d="M362.709,423.12l3.765,12.807s14.317.477,15.234,2.779l-24.636,8.174L350.38,427.16Z" transform="translate(-187.076 -214.489)" fill="#263238"/>
      <path id="Path_49700" data-name="Path 49700" d="M365.315,449.944a1.058,1.058,0,0,0-.313,1.377,1.019,1.019,0,0,0,1.363.323,1.116,1.116,0,0,0,.323-1.461,1.062,1.062,0,0,0-1.458-.18" transform="translate(-193.882 -227.04)" fill="#e0e0e0"/>
      <path id="Path_49701" data-name="Path 49701" d="M385.721,450.8s1.257.111,1.389.926L362.474,459.9l-.594-2.017L385.7,450.79" transform="translate(-192.478 -227.51)" fill="#263238"/>
      <path id="Path_49702" data-name="Path 49702" d="M379.783,446.784c.037.122-.53.376-1.008.958s-.61,1.191-.737,1.181-.175-.762.4-1.456S379.772,446.667,379.783,446.784Z" transform="translate(-200.029 -225.606)" fill="#fff"/>
      <path id="Path_49703" data-name="Path 49703" d="M385.9,447.19c.069.111-.382.487-.626,1.128s-.175,1.223-.3,1.255-.424-.619-.111-1.414S385.865,447.078,385.9,447.19Z" transform="translate(-203.212 -225.805)" fill="#fff"/>
      <path id="Path_49704" data-name="Path 49704" d="M391.3,450.008c-.1.064-.467-.482-.376-1.239s.562-1.212.647-1.128-.148.529-.212,1.175S391.421,449.944,391.3,450.008Z" transform="translate(-206.116 -226.024)" fill="#fff"/>
      <path id="Path_49705" data-name="Path 49705" d="M376.94,441.343c0,.127-.62.143-1.283.413s-1.124.662-1.22.582.27-.678,1.061-.99S376.971,441.227,376.94,441.343Z" transform="translate(-198.369 -222.987)" fill="#fff"/>
      <path id="Path_49706" data-name="Path 49706" d="M247.924,419.067l-5.361,12.23s10.653,9.53,9.884,11.9l-24.127-9.53,7.567-19.4Z" transform="translate(-129.739 -210.325)" fill="#263238"/>
      <path id="Path_49707" data-name="Path 49707" d="M240.888,438.9a1.06,1.06,0,0,0-1.124.852,1.022,1.022,0,0,0,.838,1.122,1.124,1.124,0,0,0,1.188-.911c0-.529-.483-1.133-1-1.059" transform="translate(-135.112 -221.912)" fill="#e0e0e0"/>
      <path id="Path_49708" data-name="Path 49708" d="M251.975,457.123s.891.895.472,1.588l-24.127-9.53.843-1.922,22.8,9.847" transform="translate(-129.739 -225.849)" fill="#263238"/>
      <path id="Path_49709" data-name="Path 49709" d="M253.585,446.15c-.048.116-.658-.064-1.389.085s-1.236.529-1.326.434.355-.7,1.241-.863S253.659,446.049,253.585,446.15Z" transform="translate(-140.326 -225.147)" fill="#fff"/>
      <path id="Path_49710" data-name="Path 49710" d="M257.958,450.21c0,.122-.6.122-1.2.461s-.917.821-1.061.773.074-.746.822-1.154S258,450.1,257.958,450.21Z" transform="translate(-142.578 -227.163)" fill="#fff"/>
      <path id="Path_49711" data-name="Path 49711" d="M260.418,455.624c-.117,0-.048-.667.53-1.191s1.209-.566,1.22-.45-.467.328-.917.768S260.54,455.661,260.418,455.624Z" transform="translate(-144.794 -228.987)" fill="#fff"/>
      <path id="Path_49712" data-name="Path 49712" d="M255.465,440.049c-.09.085-.567-.286-1.251-.529s-1.283-.212-1.3-.334.642-.349,1.442-.085S255.561,439.964,255.465,440.049Z" transform="translate(-141.29 -221.952)" fill="#fff"/>
      <path id="Path_49713" data-name="Path 49713" d="M259.04,296.43l-8.452,34.233s-15.245,25.624-17.827,38.447l13.946,5.474s10.144-24.7,13.119-29.23a36.5,36.5,0,0,1,4.592-5.649,8.812,8.812,0,0,0,2.317-4l6.4-24.422Z" transform="translate(-131.825 -154.872)" fill="#263238"/>
      <path id="Path_49714" data-name="Path 49714" d="M275.53,276.213s1.177,9.17,10.017,13.236l18.623,30.283a123.671,123.671,0,0,0,4.242,18.143c2.784,8.3,8.41,24.285,8.41,24.285l15.319-5.718-9.762-33.322-1.591-11.557-15.2-38.648L292.535,265.1Z" transform="translate(-151.916 -140.129)" fill="#263238"/>
      <path id="Path_49715" data-name="Path 49715" d="M275.53,276.142l.281-.191.843-.561,3.309-2.181,12.546-8.233.042-.026.042.026,13.066,7.8h0v.032l15.229,38.611v.026c.5,3.653,1.061,7.565,1.591,11.557h0c2.651,9,5.462,18.63,8.368,28.552q.705,2.4,1.4,4.765l.037.122-.122.042L316.843,362.2l-.133.048-.042-.132c-2.651-7.682-5.218-15.078-7.641-22.093-.61-1.752-1.209-3.489-1.707-5.225s-.949-3.462-1.357-5.167c-.806-3.41-1.453-6.74-1.962-9.969v.042l-18.517-30.294.032.026A17.288,17.288,0,0,1,279.682,285a18.339,18.339,0,0,1-2.863-4.585,18.844,18.844,0,0,1-1.061-3.177c-.09-.36-.143-.641-.175-.831s-.037-.286-.037-.286a1.056,1.056,0,0,0,.058.281c.058.185.09.466.191.831a19.359,19.359,0,0,0,1.092,3.134,18.469,18.469,0,0,0,2.874,4.537,17.311,17.311,0,0,0,5.833,4.384h0l18.66,30.262h0v.026c.53,3.219,1.167,6.544,1.973,9.948.408,1.7.854,3.42,1.357,5.151s1.1,3.457,1.707,5.21c2.434,7.015,5,14.411,7.657,22.088l-.175-.079,15.319-5.718-.085.164q-.689-2.367-1.4-4.765l-8.357-28.557h0c-.53-3.992-1.092-7.9-1.591-11.557v.032L305.49,272.844l.042.048-13.044-7.83h.079l-12.546,8.2-3.341,2.15-.859.556Z" transform="translate(-151.916 -140.059)" fill="#d5dbe8"/>
      <path id="Path_49716" data-name="Path 49716" d="M281.521,159.41s-4.465,3.431-6.634,7.264c-2.6,4.59-2.879,11.393-2.959,21.961-.08,9.773,1.384,12.489.822,16.174-1.108,7.195-1.93,31.342-1.93,31.342s14.317-5.49,17.1-7.941l2.794-2.425,17.917,5.914-3.616-21.982-2.482-27.4-3.182-14.533-.53-5.7L283.43,155.91Z" transform="translate(-149.703 -88.747)" fill="#d5dbe8"/>
      <path id="Path_49717" data-name="Path 49717" d="M307.808,164.68c.186.037-.44,1.292-1.543,3.134l-.048.074-.085-.032c-1.554-.6-3.611-1.361-5.859-2.181-2.535-.921-4.825-1.779-6.464-2.446-.822-.334-1.479-.614-1.93-.821a4.356,4.356,0,0,1-.689-.339,3.777,3.777,0,0,1,.732.244l1.957.736,6.49,2.367c2.248.821,4.3,1.588,5.833,2.245l-.127.042A15.153,15.153,0,0,0,307.808,164.68Z" transform="translate(-159.272 -91.646)" fill="#263238"/>
      <path id="Path_49718" data-name="Path 49718" d="M350.938,128.753s-1.135-1.763-2.206-3.388-2.694-2.425-2.954-3.272-1.686-4.622-1.914-5.559a12.049,12.049,0,0,1-.276-2.764s1.172-.5,1.734,1.175a42.511,42.511,0,0,0,1.654,4.59c.233.169.53-.079.53-.079a40.067,40.067,0,0,1-1.246-3.9c-.053-.619.164-4.728.164-4.728a1.241,1.241,0,0,1,1.41.789,11.578,11.578,0,0,1,.578,3.706l.843,2.954-.3-2.922.424-5.374a2.024,2.024,0,0,1,1.7,1.588c.355,1.451-.117,3.473.122,3.9a18.673,18.673,0,0,1,.5,3.023s.292-6.3.965-6.48,1.225.487,1.129,1.758a19.793,19.793,0,0,0,.228,5.146c.35,1.186,3.94,5.824,3.648,7.857a34.066,34.066,0,0,0-.334,3.706h-6.151Z" transform="translate(-183.885 -67.134)" fill="#ffbf9d"/>
      <path id="Path_49719" data-name="Path 49719" d="M309.2,161.712c.345.132,15.038,3.764,15.038,3.764a62.227,62.227,0,0,0,3.765-6.83c.483-1.535,3.065-11.764,3.065-11.764l6.209-.582s-1.591,26.413-3.839,27.837a16.466,16.466,0,0,1-6.066,2.065c-.233-.079-15.881,1.006-24.127-5.48S309.2,161.712,309.2,161.712Z" transform="translate(-163.727 -84.225)" fill="#ffbf9d"/>
      <g id="Group_53268" data-name="Group 53268" transform="translate(134.718 91.379)" opacity="0.3">
        <path id="Path_49720" data-name="Path 49720" d="M296.7,201.74a11.224,11.224,0,0,0,6.008,3.526c3.9.858,12.2,2.377,12.2,2.377l-.4-4.066L296.47,201.65" transform="translate(-296.47 -201.65)"/>
      </g>
      <path id="Path_49721" data-name="Path 49721" d="M284.56,181.011c1.336,2.817,4.306,5.824,10.833,6.507,12.922,1.334,22.706,2.044,26.932,1.408s5.907-9.567,6.363-9.842c1.315-.826,1.23-3.664.1-4.511-3.224-2.409-9.688-4.235-10.123-4.04-2.572,1.276-1.734,4.262-1.734,4.262l-16.385-3.611a27.606,27.606,0,0,0-5.87-1.7" transform="translate(-156.157 -95.133)" fill="#d5dbe8"/>
      <path id="Path_49722" data-name="Path 49722" d="M294.7,169.48a2.313,2.313,0,0,1,.4.053c.265.053.663.116,1.172.228a27.344,27.344,0,0,1,4.327,1.366h0l16.375,3.558-.138.148a4.393,4.393,0,0,1,.212-2.822,3.13,3.13,0,0,1,.923-1.165,4.274,4.274,0,0,1,.642-.413.9.9,0,0,1,.239-.037h.2a2.236,2.236,0,0,1,.376.064,32.912,32.912,0,0,1,5.87,1.985,22.033,22.033,0,0,1,2.879,1.514c.228.148.456.312.684.471a1.959,1.959,0,0,1,.562.672,3.748,3.748,0,0,1,.392,1.673,3.585,3.585,0,0,1-.382,1.694,2.013,2.013,0,0,1-.6.683c-.064.032-.106.169-.159.3l-.138.4c-.35,1.059-.7,2.192-1.124,3.282a14.875,14.875,0,0,1-2.407,4.32,4.244,4.244,0,0,1-3.182,1.662c-.4.058-.8.069-1.188.1-1.591.1-3.118.074-4.629.032s-2.991-.122-4.428-.212c-5.764-.371-10.934-.895-15.272-1.345a27.9,27.9,0,0,1-3.086-.445,16.457,16.457,0,0,1-2.651-.8,11.7,11.7,0,0,1-3.76-2.361,10.009,10.009,0,0,1-1.739-2.208,6.244,6.244,0,0,1-.44-.874s.148.3.488.847A10.48,10.48,0,0,0,286.884,184a11.584,11.584,0,0,0,3.744,2.3,16.839,16.839,0,0,0,2.651.778,28.787,28.787,0,0,0,3.076.418c4.337.429,9.508.932,15.261,1.292,1.442.085,2.916.159,4.422.2s3.049.058,4.608-.032c.387-.037.785-.048,1.172-.106a4.248,4.248,0,0,0,1.135-.217,4.539,4.539,0,0,0,1.877-1.355,14.58,14.58,0,0,0,2.354-4.235c.424-1.059.769-2.176,1.119-3.267l.148-.413a.655.655,0,0,1,.085-.206.731.731,0,0,1,.069-.116.423.423,0,0,1,.069-.069l.037-.032a1.722,1.722,0,0,0,.53-.588,3.288,3.288,0,0,0,.35-1.588,3.5,3.5,0,0,0-.355-1.546,1.726,1.726,0,0,0-.482-.582c-.228-.154-.445-.318-.673-.461a21.141,21.141,0,0,0-2.842-1.5,32.586,32.586,0,0,0-5.806-1.98c-.122,0-.244-.053-.361-.064h-.292a4.076,4.076,0,0,0-.594.386,2.865,2.865,0,0,0-.864,1.059,4.229,4.229,0,0,0-.207,2.647l.048.185-.186-.042-16.348-3.653h0a29.008,29.008,0,0,0-4.285-1.419c-.53-.122-.9-.206-1.161-.259A2.4,2.4,0,0,0,294.7,169.48Z" transform="translate(-156.19 -95.133)" fill="#263238"/>
      <path id="Path_49723" data-name="Path 49723" d="M350.881,184.413a3.476,3.476,0,0,1-1.061-.461,10.477,10.477,0,0,1-2.227-1.662,11.125,11.125,0,0,1-1.739-2.171,3.829,3.829,0,0,1-.5-1.059,23.457,23.457,0,0,0,2.434,3.012A21.7,21.7,0,0,0,350.881,184.413Z" transform="translate(-184.713 -99.641)" fill="#263238"/>
      <path id="Path_49724" data-name="Path 49724" d="M134.852,271.53a13.175,13.175,0,0,1,5.3,1.451c2.015,1.276,5.3,3.245,6.655,5.7.62,1.128-1.145,1.366-2.015.709a14.159,14.159,0,0,0-2.874-2.038l-.663-.148a43.511,43.511,0,0,0,2.02,4c.684,1.059,1.278,2.817-.774,2.9,0,0-1.389,1.8-2.789.466,0,0-1.092,1.631-2.853-.63,0,0-1.023,1.292-1.453.8s-1.829-1.281-2.238-2.9a56.623,56.623,0,0,0-2.121-5.554Z" transform="translate(-84.048 -143.155)" fill="#ffbf9d"/>
      <path id="Path_49725" data-name="Path 49725" d="M80.545,190a7.91,7.91,0,0,0-4.131,3.1c-1.262,1.938-1.649,5.294-1.289,7.793.764,5.268,3.182,14.157,4.544,19.864.467,1.969,1.426,5.5,4.242,7.364L104,240.147l5.372-7.941L91.06,217.3l-3.622-20.425Z" transform="translate(-57.718 -104.789)" fill="#d5dbe8"/>
      <path id="Path_49726" data-name="Path 49726" d="M78.91,219.69a1.169,1.169,0,0,1,.064.206l.17.619c.143.561.345,1.366.61,2.4.53,2.118,1.283,5.125,2.222,8.868a10.38,10.38,0,0,0,3.309,5.231,19.9,19.9,0,0,0,2.938,1.948l3.229,1.948,14.471,8.725-.186.042,1.935-2.864,3.436-5.1.027.185L92.983,226.975h-.032v-.037c-1.2-5.035-2.068-9.159-2.619-12.029-.27-1.435-.461-2.552-.583-3.314-.053-.371-.1-.662-.127-.868s-.037-.3-.037-.3a2.489,2.489,0,0,1,.069.291c.037.206.09.492.154.863.143.757.35,1.874.647,3.3.578,2.859,1.479,6.973,2.7,12l-.037-.058L111.3,241.687l.1.079-.069.1-3.436,5.1-1.935,2.864-.069.106-.117-.064-14.45-8.751L88.1,239.167a20.3,20.3,0,0,1-2.959-1.964,10.517,10.517,0,0,1-3.346-5.353c-.907-3.754-1.633-6.787-2.121-8.889-.239-1.059-.43-1.848-.562-2.409l-.154-.651a1.541,1.541,0,0,1-.048-.212Z" transform="translate(-59.555 -114.403)" fill="#263238"/>
      <path id="Path_49727" data-name="Path 49727" d="M79.53,194.867a1.269,1.269,0,0,1,.408-.175,7.752,7.752,0,0,1,1.177-.265,6.983,6.983,0,0,1,3.919.529,7.811,7.811,0,0,1,2.927,2.647,4.763,4.763,0,0,1,.53,1.085,1.248,1.248,0,0,1,.1.429,11.147,11.147,0,0,0-.79-1.4,8.306,8.306,0,0,0-2.885-2.494,7.334,7.334,0,0,0-3.775-.582C80.145,194.719,79.546,194.915,79.53,194.867Z" transform="translate(-59.847 -106.834)" fill="#263238"/>
    </g>
  </g>
</svg>
