<svg xmlns="http://www.w3.org/2000/svg" width="16" height="16" viewBox="0 0 16 16">
  <path id="icons8-close" d="M6.182,4a.724.724,0,0,0-.514.213L4.213,5.667a.726.726,0,0,0,0,1.028l5.3,5.3-5.3,5.3a.726.726,0,0,0,0,1.028l1.455,1.455a.726.726,0,0,0,1.028,0l5.3-5.3,5.3,5.3a.726.726,0,0,0,1.028,0l1.455-1.455a.726.726,0,0,0,0-1.028l-5.3-5.3,5.3-5.3a.726.726,0,0,0,0-1.028L18.332,4.213a.726.726,0,0,0-1.028,0L12,9.517l-5.3-5.3A.725.725,0,0,0,6.182,4Z" transform="translate(-4 -4)" fill="#c8cfd8"/>
</svg>
