<svg xmlns="http://www.w3.org/2000/svg" width="32" height="32" viewBox="0 0 32 32">
  <g id="cloud" transform="translate(-60.5 -805)">
    <rect id="Rectangle_16587" data-name="Rectangle 16587" width="32" height="32" transform="translate(60.5 805)" fill="#fff" opacity="0"/>
    <path id="icons8-onedrive" d="M17.532,9.594a6.271,6.271,0,0,0-3.039.7,7.212,7.212,0,0,0-2.4,1.979c-.18.24-.347.46-.46.6a6.256,6.256,0,0,0-4.018-.18A5.872,5.872,0,0,0,3.638,18.05a3.457,3.457,0,0,1-.02.38c-.022.007-.055.012-.08.02A4.766,4.766,0,0,0,.4,20.908a2.886,2.886,0,0,0-.4,2,3.248,3.248,0,0,0,.38,2.059,5.1,5.1,0,0,0,3.159,2.659,25.589,25.589,0,0,0,3.179.14,6.653,6.653,0,0,1-.96-3.578,5.043,5.043,0,0,1,.4-2.219,5.945,5.945,0,0,1,4.078-3.278c.037-.122.072-.26.12-.38a7.49,7.49,0,0,1,3.258-4.138l.02-.02h.02a6.87,6.87,0,0,1,3.618-.84,6.274,6.274,0,0,1,5.078,2.1,6.826,6.826,0,0,1,1.719-.24c.2,0,.39.022.58.04-.057-.19-.115-.385-.18-.58A7.315,7.315,0,0,0,17.532,9.594Zm-.26,5a5.683,5.683,0,0,0-3.059.7,6.283,6.283,0,0,0-2.659,3.478,3.323,3.323,0,0,0-.24.92,2.591,2.591,0,0,1-.44.16,4.787,4.787,0,0,0-3.538,2.6,3.891,3.891,0,0,0-.3,1.739,4.552,4.552,0,0,0,3.338,4.778.747.747,0,0,0,.08.02c.492.07,2.469.06,9.815.06h9.156a.6.6,0,0,0,.28-.06l.4-.2a3.751,3.751,0,0,0,1.879-3.159,3.867,3.867,0,0,0-2.739-4.3l-.18-.06-.02-.34a4.881,4.881,0,0,0-4.978-4.478,5.607,5.607,0,0,0-1.879.34l-.2.06-.42-.4A5.076,5.076,0,0,0,17.272,14.591Z" transform="translate(60.5 801.407)" fill="#3f97f6"/>
  </g>
</svg>
