<svg xmlns="http://www.w3.org/2000/svg" xmlns:xlink="http://www.w3.org/1999/xlink" width="81" height="81" viewBox="0 0 81 81">
  <defs>
    <filter id="Rectangle_950" x="0" y="0" width="81" height="81" filterUnits="userSpaceOnUse">
      <feOffset dx="6" dy="6" input="SourceAlpha"/>
      <feGaussianBlur stdDeviation="7.5" result="blur"/>
      <feFlood flood-color="#4b4e6d" flood-opacity="0.161"/>
      <feComposite operator="in" in2="blur"/>
      <feComposite in="SourceGraphic"/>
    </filter>
  </defs>
  <g id="coupons" transform="translate(-158.5 -1166.5)">
    <g transform="matrix(1, 0, 0, 1, 158.5, 1166.5)" filter="url(#Rectangle_950)">
      <rect id="Rectangle_950-2" data-name="Rectangle 950" width="36" height="36" rx="4" transform="translate(16.5 16.5)" fill="#274268"/>
    </g>
    <path id="icons8_coupon_1" d="M4.344,2.014A2.652,2.652,0,0,0,2.014,4.342,2.613,2.613,0,0,0,4.632,7.263a3.074,3.074,0,0,0,.948-.21L6.842,8.316,5.579,9.578a3.074,3.074,0,0,0-.948-.21,2.611,2.611,0,0,0-2.617,2.919,2.652,2.652,0,0,0,2.327,2.329A2.613,2.613,0,0,0,7.263,12a3.738,3.738,0,0,0-.21-1.053L8.211,9.79l2.954,3.129a2.109,2.109,0,0,0,1.532.66h1.195a.316.316,0,0,0,.228-.535L7.053,5.684a3.738,3.738,0,0,0,.21-1.053A2.611,2.611,0,0,0,4.344,2.014Zm8.363,1.038a2.107,2.107,0,0,0-1.542.67L8.947,6.106,10.316,7.58l3.808-3.993a.316.316,0,0,0-.228-.535Zm-8.076.526A1.132,1.132,0,0,1,5.684,4.632,1.132,1.132,0,0,1,4.632,5.684,1.132,1.132,0,0,1,3.579,4.632,1.132,1.132,0,0,1,4.632,3.579Zm10,3.684a1.053,1.053,0,1,0,1.053,1.053A1.053,1.053,0,0,0,14.631,7.263Zm4.21,0a1.053,1.053,0,1,0,0,2.105h1.053v1.053a1.053,1.053,0,1,0,2.105,0V9.368a2.1,2.1,0,0,0-2.105-2.105Zm-10.73.724a.329.329,0,1,1-.329.329A.328.328,0,0,1,8.112,7.987Zm-3.481,2.96A1.132,1.132,0,0,1,5.684,12a1.132,1.132,0,0,1-1.053,1.053A1.132,1.132,0,0,1,3.579,12,1.132,1.132,0,0,1,4.632,10.947Zm16.316,2.632A1.053,1.053,0,1,0,22,14.631,1.053,1.053,0,0,0,20.947,13.579ZM4.105,17.789a1.053,1.053,0,0,0-1.053,1.053v1.053A2.1,2.1,0,0,0,5.158,22H6.21a1.053,1.053,0,1,0,0-2.105H5.158V18.842A1.053,1.053,0,0,0,4.105,17.789Zm16.842,0a1.053,1.053,0,0,0-1.053,1.053v1.053H18.842a1.053,1.053,0,1,0,0,2.105h1.053A2.1,2.1,0,0,0,22,19.894V18.842A1.053,1.053,0,0,0,20.947,17.789ZM10.421,19.894a1.053,1.053,0,1,0,1.053,1.053A1.053,1.053,0,0,0,10.421,19.894Zm4.21,0a1.053,1.053,0,1,0,1.053,1.053A1.053,1.053,0,0,0,14.631,19.894Z" transform="translate(181 1189)" fill="#fff"/>
  </g>
</svg>
