<svg xmlns="http://www.w3.org/2000/svg" width="24" height="24" viewBox="0 0 24 24">
  <g id="delete" transform="translate(-1111 -2774)">
    <rect id="Rectangle_11291" data-name="Rectangle 11291" width="24" height="24" transform="translate(1111 2774)" fill="#92a1b6" opacity="0"/>
    <path id="icons8_remove" d="M10.807,2a1.944,1.944,0,0,0-1.377.57L9,3H4A1,1,0,1,0,4,5H20a1,1,0,1,0,0-2H15l-.43-.43A1.942,1.942,0,0,0,13.193,2ZM4.365,7,5.893,20.264A2.007,2.007,0,0,0,7.875,22h8.248a2.008,2.008,0,0,0,1.984-1.744L19.635,7Z" transform="translate(1111 2774)" fill="#92a1b6"/>
  </g>
</svg>
