<svg id="devices" xmlns="http://www.w3.org/2000/svg" width="24" height="24" viewBox="0 0 24 24">
  <rect id="Rectangle_16471" data-name="Rectangle 16471" width="24" height="24" rx="4" fill="#fff" opacity="0"/>
  <path id="icons8_multiple_devices_1" d="M3.333,4A1.666,1.666,0,0,0,1.667,5.667V14a1.666,1.666,0,0,0,1.667,1.667H.833a.833.833,0,1,0,0,1.667h10V14H4.167a.834.834,0,0,1-.833-.833V6.5a.834.834,0,0,1,.833-.833H18.333A1.668,1.668,0,0,0,16.667,4ZM14.167,7.333A1.668,1.668,0,0,0,12.5,9v8.333A1.668,1.668,0,0,0,14.167,19h4.167A1.668,1.668,0,0,0,20,17.333V9a1.668,1.668,0,0,0-1.667-1.667ZM15,9h2.5a.834.834,0,0,1,.833.833v5.833a.834.834,0,0,1-.833.833H15a.834.834,0,0,1-.833-.833V9.833A.834.834,0,0,1,15,9Z" transform="translate(2 1)" fill="#5d718d"/>
</svg>
