<svg id="dexef_one" xmlns="http://www.w3.org/2000/svg" width="20" height="20" viewBox="0 0 20 20">
  <rect id="Rectangle_5530" data-name="Rectangle 5530" width="20" height="20" rx="4" fill="#2e8b57"/>
  <path id="icons8_business_report" d="M4.909,2A.912.912,0,0,0,4,2.909v7.273a.912.912,0,0,0,.909.909H7.947a3.164,3.164,0,0,1,3.326-4.509V5.1a.909.909,0,0,0-.266-.643L8.812,2.266A.909.909,0,0,0,8.169,2Zm3.182.682,2.5,2.5h-2.5Zm2.727,4.773a2.273,2.273,0,1,0,2.273,2.273A2.28,2.28,0,0,0,10.818,7.455Zm0,.909V9.727h1.364a1.364,1.364,0,1,1-1.364-1.364Z" transform="translate(1.833 3)" fill="#fff"/>
</svg>
