<svg id="dexef_one" xmlns="http://www.w3.org/2000/svg" width="20" height="20" viewBox="0 0 20 20">
  <rect id="Rectangle_5530" data-name="Rectangle 5530" width="20" height="20" rx="4" fill="#274268"/>
  <path id="icons8_receipt_approved" d="M3.818,3a.909.909,0,0,0-.909.909V8.455H2.455A.455.455,0,0,0,2,8.909v.909a1.364,1.364,0,0,0,1.364,1.364H6.68a3.165,3.165,0,0,1,.439-2.727h-3.3V3.909H9.727V6.636a.455.455,0,1,0,.909,0V3.909A.909.909,0,0,0,9.727,3ZM4.955,4.818a.227.227,0,0,0-.227.227V5.5a.227.227,0,0,0,.227.227h.455A.227.227,0,0,0,5.636,5.5V5.045a.227.227,0,0,0-.227-.227Zm1.818,0a.227.227,0,0,0-.227.227V5.5a.227.227,0,0,0,.227.227H8.591A.227.227,0,0,0,8.818,5.5V5.045a.227.227,0,0,0-.227-.227ZM4.955,6.636a.227.227,0,0,0-.227.227v.455a.227.227,0,0,0,.227.227h.455a.227.227,0,0,0,.227-.227V6.864a.227.227,0,0,0-.227-.227Zm1.818,0a.227.227,0,0,0-.227.227v.455a.227.227,0,0,0,.227.227H8.591a.227.227,0,0,0,.227-.227V6.864a.227.227,0,0,0-.227-.227ZM9.727,8A2.273,2.273,0,1,0,12,10.273,2.273,2.273,0,0,0,9.727,8Zm.932,1.391a.45.45,0,0,1,.318.768L9.818,11.319a.449.449,0,0,1-.636,0l-.7-.7a.45.45,0,1,1,.637-.637l.386.386.841-.841A.449.449,0,0,1,10.659,9.391Z" transform="translate(3 2)" fill="#fff"/>
</svg>
