<svg id="dexef_one" xmlns="http://www.w3.org/2000/svg" width="20" height="20" viewBox="0 0 20 20">
  <rect id="Rectangle_5530" data-name="Rectangle 5530" width="20" height="20" rx="4" fill="#5d718d"/>
  <path id="icons8_tax" d="M5,2A1.5,1.5,0,1,0,6.16,4.436l.235.373L5.623,6H2.5a.5.5,0,0,0-.5.5v5a.5.5,0,0,0,.5.5h9a.5.5,0,0,0,.5-.5v-5a.5.5,0,0,0-.5-.5H8A.5.5,0,0,0,8,7h2.545A.748.748,0,0,0,11,7.454v3.092a.748.748,0,0,0-.454.454H3.454A.748.748,0,0,0,3,10.546V7.454A.748.748,0,0,0,3.454,7H4.975l-.155.239a.493.493,0,0,0,.827.537L7.832,4.426a1.493,1.493,0,1,0-.214-1.5l-.624.961L6.4,2.947l-.011.007A1.506,1.506,0,0,0,5,2ZM5,3a.5.5,0,1,1-.5.5A.493.493,0,0,1,5,3ZM9,3a.5.5,0,1,1-.5.5A.493.493,0,0,1,9,3ZM7.2,7.515a.291.291,0,0,0-.275.137L6.368,8.5a.97.97,0,0,1-.612.47.3.3,0,0,0-.223.344A1.5,1.5,0,1,0,7.2,7.515ZM4.5,8.5A.5.5,0,1,0,5,9,.5.5,0,0,0,4.5,8.5Zm5,0A.5.5,0,1,0,10,9,.5.5,0,0,0,9.5,8.5Z" transform="translate(3 3)" fill="#fff"/>
</svg>
