<svg xmlns="http://www3.org/2000/svg" width="91" height="19" viewBox="0 0 91 19">
  <g id="dexef_logo_body" transform="translate(0 -0.051)">
    <g id="Layer_1" data-name="Layer 1" transform="translate(0 0.051)">
      <path id="Path_285" data-name="Path 285" d="M385.39.23H375.65a1.922,1.922,0,0,0-1.95,1.893V17.27a1.953,1.953,0,0,0,3.9,0V11.589h5.845a1.894,1.894,0,1,0,0-3.786H377.6V4.016h7.793a1.919,1.919,0,0,0,1.943-1.893A1.919,1.919,0,0,0,385.39.23Z" transform="translate(-296.333 -0.196)" fill="#0075f4"/>
      <path id="Path_286" data-name="Path 286" d="M305.39,15.375H297.6V11.589h5.845a1.894,1.894,0,1,0,0-3.786H297.6V4.016h7.793a1.919,1.919,0,0,0,1.943-1.893A1.919,1.919,0,0,0,305.39.23H295.65a1.972,1.972,0,0,0-1.378.553,1.871,1.871,0,0,0-.572,1.34V17.27a1.871,1.871,0,0,0,.572,1.34,1.972,1.972,0,0,0,1.378.553h9.741a1.894,1.894,0,1,0,0-3.786Z" transform="translate(-233.222 -0.196)" fill="#0075f4"/>
      <path id="Path_287" data-name="Path 287" d="M111.69,15.376H103.9V11.589h5.845a1.894,1.894,0,1,0,0-3.786H103.9V4.016h7.793a1.919,1.919,0,0,0,1.943-1.893A1.919,1.919,0,0,0,111.69.23H101.95A1.922,1.922,0,0,0,100,2.123V17.27a1.922,1.922,0,0,0,1.95,1.893h9.741a1.894,1.894,0,1,0,0-3.786Z" transform="translate(-79.214 -0.196)" fill="#0075f4"/>
      <path id="Path_288" data-name="Path 288" d="M13.638,2.125a9.743,9.743,0,0,0-1.95-1.106A9.313,9.313,0,0,0,10.519.609,9.971,9.971,0,0,0,7.793.23H1.95A1.922,1.922,0,0,0,0,2.123V17.27a1.922,1.922,0,0,0,1.95,1.893H7.793a9.971,9.971,0,0,0,2.727-.379,9.314,9.314,0,0,0,1.169-.411A9.484,9.484,0,0,0,17.468,10.8,9.349,9.349,0,0,0,13.64,2.127ZM7.793,15.379H3.9V4.016h3.9A5.756,5.756,0,0,1,13.622,9.7a5.756,5.756,0,0,1-5.829,5.679Z" transform="translate(0 -0.196)" fill="#0075f4"/>
      <g id="Group_318" data-name="Group 318" transform="translate(36.681 0)">
        <path id="Path_289" data-name="Path 289" d="M189,2.678l-.04-.036-.04-.038-.038-.036-.04-.038c-.012-.013-.026-.024-.04-.038l-.038-.036-.04-.038-.038-.036-.04-.038-.04-.038-.038-.036-.04-.038-.038-.036-.04-.038c-.012-.013-.026-.024-.04-.038l-.038-.036-.04-.038-.038-.036-.04-.038c-.012-.013-.026-.024-.04-.038l-.038-.045-.04-.038-.038-.036-.04-.038-.04-.038L187.97,1.7l-.04-.038-.038-.038-.04-.036-.04-.038-.038-.036-.04-.031-.04-.038-.038-.036-.04-.038-.038-.036-.04-.038c-.012-.013-.026-.024-.04-.038l-.038-.036-.04-.038-.038-.036-.04-.038-.04-.038-.03-.028-.04-.038-.038-.036-.04-.038L187.109.9,187.066.86l-.04-.038c-1.811-1.812-4.772.971-2.845,2.675l.038.038.04.038.04.036.038.038.04.036a.368.368,0,0,0,.04.038l.038.038.04.036.038.038.04.036a.367.367,0,0,0,.04.038l.038.038.04.036.038.038.04.036.04.038.038.038.04.036.038.038.04.038.04.036.038.038.04.036.038.038.04.038.04.036.038.038.04.036.038.038.04.038.04.036.038.038.04.036.04.038.038.038.04.036.038.038.04.036a.37.37,0,0,0,.04.038l.038.038.04.036.038.038.04.038.04.036.038.038.04.036.038.038.04.038.04.036.038.038C187.966,7.167,190.922,4.384,189,2.678Z" transform="translate(-182.85 -0.198)" fill="#f60"/>
        <path id="Path_290" data-name="Path 290" d="M259,72.681l-.02-.019a.092.092,0,0,1-.02-.019l-.02-.019-.02-.019-.02-.017-.06-.057-.02-.019-.018-.019-.02-.019a.092.092,0,0,1-.02-.019l-.04-.038-.02-.017-.06-.057-.02-.019L258.6,72.3l-.02-.019a.091.091,0,0,1-.02-.019.177.177,0,0,1-.02-.019l-.02-.019-.02-.017-.06-.057-.02-.019-.021-.017-.02-.019-.04-.038-.02-.019-.02-.017-.04-.038a.092.092,0,0,0-.02-.019l-.02-.019-.019-.019-.02-.019-.04-.038-.02-.017-.02-.019-.02-.019-.04-.038-.02-.019L258,71.742l-.02-.019-.04-.038-.02-.019-.02-.017-.02-.019-.04-.038-.02-.019-.018-.019-.02-.019-.04-.038-.02-.019-.02-.017-.02-.019-.04-.038-.02-.019-.018-.019-.02-.019-.04-.038-.02-.019-.02-.017-.02-.019-.04-.038-.02-.019-.018-.019-.02-.019-.04-.038-.02-.019-.02-.017-.02-.019-.04-.038a.092.092,0,0,0-.02-.019l-.018-.019-.02-.019-.04-.038-.02-.019-.02-.017-.02-.019-.04-.038a.091.091,0,0,0-.02-.019l-.018-.019c-1.811-1.789-4.749.971-2.847,2.677l.02.019.02.019.018.017.02.019.02.019.02.019.02.019.02.019.02.019.02.019.02.019.02.019.018.017.02.019.02.019.02.019.02.019.02.019.02.019.02.019.02.019.02.019.018.017.02.019.02.019.02.019.02.019.02.019.02.019.02.019.02.019.02.019.02.017.018.019.02.019.02.019.02.019.02.019.02.019.02.019.02.019.02.019.02.019.018.017.02.019.02.019.02.019.02.019.02.019.02.019.02.019.02.019.02.019.018.017.02.019.02.019.02.019.02.019.02.019.02.019.02.019.02.019.02.019.018.017.02.019.02.019.02.019.02.019.02.019.02.019.02.019.02.019.02.019.018.017.02.019.02.019.02.019.02.019.02.019.02.019.02.019.02.019.02.019.018.017.02.019.02.019.02.019.02.019.02.019.02.019.02.019.02.019.02.019.018.017.02.019.02.019.02.019.02.019.02.019.02.019C257.963,77.147,260.9,74.387,259,72.681Z" transform="translate(-238.744 -56.939)" fill="#f60"/>
        <path id="Path_291" data-name="Path 291" d="M196.943,1.935C197.007.256,194.607-.6,193.46.646c-.038.021-2.154,2.014-2.193,2.046s-.066.062-.1.095-.068.061-.1.093-.066.062-.1.095-.068.061-.1.093-.066.062-.1.095-.068.061-.1.093-.066.062-.1.095-.068.061-.1.093-.066.062-.1.095-.068.061-.1.093-.066.062-.1.095-.068.061-.1.093-.066.062-.1.095-.068.061-.1.093-.068.063-.1.1-.068.061-.1.093-.066.062-.1.095-.068.061-.1.093-.066.062-.1.095-.068.061-.1.093-.066.062-.1.095-.068.061-.1.093-.066.062-.1.095-.068.061-.1.093-.066.062-.1.095-.068.061-.1.093-.066.062-.1.095-.068.061-.1.093-.066.062-.1.095-.068.061-.1.093-.066.062-.1.095-.068.061-.1.093-.066.062-.1.095-.068.061-.1.093-.066.062-.1.095-.068.061-.1.093-.066.062-.1.095-.068.061-.1.093-.066.062-.1.095-.068.061-.1.093-.066.062-.1.095-.068.061-.1.093-.066.062-.1.095-.068.061-.1.093-.066.062-.1.095-.068.061-.1.095-.066.061-.1.093-.068.061-.1.095-.066.061-.1.093-.068.061-.1.095-.066.061-.1.093-.068.061-.1.095-.066.061-.1.093-.068.061-.1.095-.066.061-.1.093-.068.061-.1.095-.066.061-.1.093-.068.061-.1.095-.066.061-.1.093-.068.061-.1.095-.066.061-.1.093-.068.061-.1.095-.066.061-.1.093l-.1.095-.1.093-.1.095-.1.093c-.034.03-.068.062-.1.095s-.066.061-.1.093l-.1.095-.1.093-.1.095-.1.093c-.034.03-.068.062-.1.095s-.066.061-.1.093-.068.062-.1.095l-.1.093-.1.095-.1.093c-.034.03-.068.062-.1.095s-.066.061-.1.093-.068.062-.1.095-.066.061-.1.093-.068.062-.1.095l-.1.093c-.036.03-.068.062-.1.095s-.066.061-.1.093-.068.062-.1.095-.068.061-.1.093-.068.062-.1.095-.068.061-.1.093-.068.062-.1.095-.068.061-.1.093-.068.062-.1.095-.068.061-.1.093-.068.062-.1.095-.068.061-.1.093-.068.062-.1.095-.779.729-.806.757c-2,1.7,1.031,4.557,2.843,2.673.034-.03.779-.729.806-.757s.066-.062.1-.095.068-.061.1-.093.066-.062.1-.095.068-.061.1-.093.066-.062.1-.095.068-.061.1-.093.066-.062.1-.095.068-.061.1-.093.066-.062.1-.095.068-.061.1-.093.066-.062.1-.095.068-.061.1-.093.066-.062.1-.095.068-.061.1-.093.068-.062.1-.095.068-.061.1-.093.068-.062.1-.095.068-.061.1-.093.068-.062.1-.095.068-.061.1-.093.068-.062.1-.095a1.159,1.159,0,0,0,.1-.095,1.11,1.11,0,0,0,.1-.093,1.153,1.153,0,0,0,.1-.095c.034-.028.068-.061.1-.093s.066-.061.1-.095.068-.061.1-.093.066-.061.1-.095.068-.061.1-.093.066-.061.1-.095.068-.061.1-.093.066-.061.1-.095.068-.061.1-.093.066-.061.1-.095.068-.061.1-.093.066-.061.1-.095.068-.061.1-.093.066-.061.1-.095.068-.061.1-.093.066-.062.1-.095.068-.061.1-.093.066-.062.1-.095.068-.061.1-.093.066-.062.1-.095.068-.061.1-.093.066-.062.1-.095.068-.061.1-.093.066-.062.1-.095.068-.061.1-.093.066-.062.1-.095.068-.061.1-.093.066-.062.1-.095.068-.061.1-.093.066-.062.1-.095.068-.061.1-.093.066-.062.1-.095.068-.061.1-.093.066-.062.1-.095.068-.061.1-.093.066-.062.1-.095.068-.061.1-.093.066-.062.1-.095.068-.061.1-.093.066-.062.1-.095.068-.061.1-.093.066-.062.1-.095.068-.061.1-.093.066-.062.1-.095.068-.061.1-.093.066-.062.1-.095.068-.061.1-.093.066-.062.1-.095.068-.061.1-.093.066-.062.1-.095.068-.061.1-.093.066-.062.1-.095.068-.061.1-.093.066-.062.1-.095.068-.061.1-.093.066-.062.1-.095.068-.061.1-.093.066-.062.1-.095.068-.061.1-.093.066-.062.1-.095.068-.061.1-.093.066-.062.1-.095.068-.061.1-.093.066-.062.1-.095.068-.061.1-.093.066-.062.1-.095.068-.061.1-.093.066-.062.1-.095.068-.061.1-.093.066-.062.1-.095.068-.061.1-.093.066-.062.1-.095.068-.061.1-.093.066-.062.1-.095,2.156-2.024,2.189-2.056a1.844,1.844,0,0,0,.644-1.374Z" transform="translate(-180.041 -0.051)" fill="#f60"/>
        <path id="Path_292" data-name="Path 292" d="M216.652,18.182c.062-1.681-2.337-2.539-3.485-1.289-.034.03-2.154,2.024-2.186,2.056s-.068.062-.1.095-.066.061-.1.093-.068.062-.1.095l-.1.093c-.034.03-.068.062-.1.095s-.066.061-.1.093-.068.062-.1.095-.066.061-.1.093-.068.062-.1.095-.068.061-.1.093-.068.062-.1.095-.068.061-.1.093-.068.062-.1.095-.068.061-.1.093-.068.062-.1.095-.068.061-.1.093-.068.062-.1.095-.068.061-.1.093-.068.062-.1.095-.068.061-.1.093-.068.062-.1.095-.068.061-.1.093-.068.062-.1.095-.068.061-.1.093-.066.062-.1.095-.068.061-.1.093-.066.062-.1.095-.068.061-.1.093-.066.062-.1.095-.068.061-.1.093-.066.062-.1.095-.068.061-.1.093-.066.062-.1.095-.068.061-.1.093-.066.062-.1.095-.068.061-.1.093-.066.062-.1.095-.068.061-.1.093-.066.062-.1.095-.068.061-.1.093-.066.062-.1.095-.068.061-.1.093-.066.062-.1.095-.068.061-.1.093-.066.062-.1.095-.068.061-.1.093-.066.062-.1.095-.068.061-.1.093-.066.062-.1.095-.068.061-.1.093-.066.062-.1.095-.068.061-.1.093-.066.062-.1.095-.068.061-.1.093-.066.062-.1.095-.068.061-.1.093-.066.062-.1.095-.068.061-.1.093-.066.062-.1.095-.068.061-.1.093-.066.062-.1.095-.068.061-.1.093-.066.062-.1.095-.068.061-.1.093-.066.062-.1.095-.068.061-.1.093-.066.062-.1.095-.068.061-.1.093-.066.062-.1.095-.068.061-.1.093-.066.062-.1.095-.068.061-.1.093-.066.062-.1.095-.068.061-.1.093-.066.062-.1.095-.068.061-.1.095-.066.061-.1.093-.068.061-.1.095-.066.061-.1.093-.068.061-.1.095-.066.061-.1.093-.068.061-.1.095-.066.061-.1.093-.068.061-.1.095-.066.061-.1.093-.068.061-.1.095-.066.061-.1.093-.068.061-.1.095-.066.061-.1.093-.068.061-.1.095-.066.061-.1.093l-.1.095-.1.093c-.034.03-.068.062-.1.095s-.066.061-.1.093-.068.062-.1.095l-.1.093-.1.095c-.034.03-.779.729-.806.757-2,1.7,1.031,4.557,2.843,2.673.034-.03.779-.729.806-.757a1.11,1.11,0,0,0,.1-.093,1.151,1.151,0,0,0,.1-.095,1.1,1.1,0,0,0,.1-.093,1.152,1.152,0,0,0,.1-.095,1.1,1.1,0,0,0,.1-.093,1.147,1.147,0,0,0,.1-.095c.034-.03.068-.061.1-.093s.066-.061.1-.095.068-.061.1-.093.066-.061.1-.095.068-.061.1-.093.066-.061.1-.095.068-.061.1-.093.066-.062.1-.095.068-.061.1-.093.066-.062.1-.095.068-.061.1-.093.066-.062.1-.095.068-.061.1-.093.066-.062.1-.095.068-.061.1-.093.066-.062.1-.095.068-.061.1-.093.066-.062.1-.095.068-.061.1-.093.066-.062.1-.095.068-.061.1-.093.066-.062.1-.095.068-.061.1-.093.066-.062.1-.095.068-.061.1-.093.066-.062.1-.095.068-.061.1-.093.066-.062.1-.095.068-.061.1-.093.066-.062.1-.095.068-.061.1-.093.066-.062.1-.095.068-.061.1-.093.066-.062.1-.095.068-.061.1-.093.066-.062.1-.095.068-.061.1-.093.066-.062.1-.095.068-.061.1-.093.066-.062.1-.095.068-.061.1-.093.066-.062.1-.095.068-.061.1-.093.066-.062.1-.095.068-.061.1-.093.066-.062.1-.095.068-.061.1-.093.066-.062.1-.095.068-.061.1-.093.066-.062.1-.095.068-.061.1-.093.066-.062.1-.095.068-.061.1-.093.066-.062.1-.095.068-.061.1-.093.066-.062.1-.095.068-.061.1-.093.066-.062.1-.095.068-.061.1-.093.066-.062.1-.095.068-.061.1-.093.066-.062.1-.095.068-.061.1-.093.066-.062.1-.095.068-.061.1-.093.066-.062.1-.095.068-.061.1-.093.066-.062.1-.095.068-.061.1-.093.066-.062.1-.095.068-.061.1-.093.066-.062.1-.095.068-.061.1-.093.066-.062.1-.095.068-.061.1-.093.066-.062.1-.095.068-.061.1-.093.066-.062.1-.095.068-.061.1-.093.066-.062.1-.095.068-.061.1-.093.066-.062.1-.095.068-.061.1-.093.066-.062.1-.095.068-.061.1-.093.066-.062.1-.095.068-.061.1-.093.066-.062.1-.095a1.151,1.151,0,0,0,.1-.095,1.106,1.106,0,0,0,.1-.093,1.159,1.159,0,0,0,.1-.095,1.108,1.108,0,0,0,.1-.093c.036-.03,2.156-2.024,2.189-2.056A1.843,1.843,0,0,0,216.652,18.182Z" transform="translate(-195.785 -13.222)" fill="#f60"/>
      </g>
    </g>
  </g>
</svg>
