<svg xmlns="http://www.w3.org/2000/svg" xmlns:xlink="http://www.w3.org/1999/xlink" width="38" height="38" viewBox="0 0 38 38">
  <defs>
    <filter id="Rectangle_5530" x="0" y="0" width="38" height="38" filterUnits="userSpaceOnUse">
      <feOffset dy="3" input="SourceAlpha"/>
      <feGaussianBlur stdDeviation="3" result="blur"/>
      <feFlood flood-opacity="0.161"/>
      <feComposite operator="in" in2="blur"/>
      <feComposite in="SourceGraphic"/>
    </filter>
  </defs>
  <g id="dexef_one" transform="translate(9 6)">
    <g transform="matrix(1, 0, 0, 1, -9, -6)" filter="url(#Rectangle_5530)">
      <rect id="Rectangle_5530-2" data-name="Rectangle 5530" width="20" height="20" rx="4" transform="translate(9 6)" fill="#2e8b57"/>
    </g>
    <path id="icons8_management" d="M2.778,5a1.667,1.667,0,0,0,0,3.333A1.667,1.667,0,0,0,2.778,5ZM6.667,5A1.667,1.667,0,1,0,8.333,6.667,1.649,1.649,0,0,0,6.667,5Zm3.889,0a1.667,1.667,0,1,0,1.667,1.667A1.649,1.649,0,0,0,10.556,5ZM6.667,9.444c-1.963,0-3.333.735-3.333,1.788v.99a.556.556,0,0,0,.556.556H9.444A.556.556,0,0,0,10,12.222v-.99C10,10.18,8.629,9.444,6.667,9.444Zm3.626.007a2.36,2.36,0,0,1,.818,1.782v.99a.556.556,0,0,0,.556.556h1.111a.556.556,0,0,0,.556-.556v-.99C13.333,10.233,12.1,9.521,10.293,9.451Zm-7.253,0c-1.8.069-3.04.781-3.04,1.781v.99a.556.556,0,0,0,.556.556H1.667a.556.556,0,0,0,.556-.556v-.99A2.358,2.358,0,0,1,3.04,9.452Z" transform="translate(3.333 1.667)" fill="#fff"/>
  </g>
</svg>
