<svg id="file_download_black_24dp" xmlns="http://www.w3.org/2000/svg" width="24" height="24" viewBox="0 0 24 24">
  <g id="Group_7800" data-name="Group 7800">
    <rect id="Rectangle_11716" data-name="Rectangle 11716" width="24" height="24" fill="none"/>
  </g>
  <g id="Group_7801" data-name="Group 7801">
    <path id="Path_47127" data-name="Path 47127" d="M18,16v2H6V16a.945.945,0,0,0-1-1H5a.945.945,0,0,0-1,1v2a2.006,2.006,0,0,0,2,2H18a2.006,2.006,0,0,0,2-2V16a.945.945,0,0,0-1-1h0A.945.945,0,0,0,18,16Zm-1.7-5.7h0a.967.967,0,0,0-1.4,0L13,12.2V5a.945.945,0,0,0-1-1h0a.945.945,0,0,0-1,1v7.2L9.1,10.3a.967.967,0,0,0-1.4,0h0a.967.967,0,0,0,0,1.4l3.6,3.6a.967.967,0,0,0,1.4,0l3.6-3.6A.967.967,0,0,0,16.3,10.3Z" fill="#0074d7"/>
  </g>
</svg>
