<svg xmlns="http://www.w3.org/2000/svg" width="16" height="16" viewBox="0 0 16 16">
  <g id="download" transform="translate(-620 -505)">
    <rect id="Rectangle_16458" data-name="Rectangle 16458" width="16" height="16" rx="4" transform="translate(620 505)" fill="#274268" opacity="0"/>
    <path id="icons8_download" d="M8,2a.667.667,0,0,0-.667.667V8H5a.333.333,0,0,0-.236.569l.021.02,3.4,3.21.022.021a.664.664,0,0,0,.911,0l.009-.008.006-.008L12.54,8.6l.02-.018.005,0,0,0A.333.333,0,0,0,12.333,8H10V2.667A.667.667,0,0,0,9.333,2H8ZM2.667,14a.667.667,0,1,0,0,1.333h12a.667.667,0,1,0,0-1.333Z" transform="translate(619.333 504.333)" fill="#274268"/>
  </g>
</svg>
