<svg id="amotion" xmlns="http://www.w3.org/2000/svg" width="24" height="24" viewBox="0 0 24 24">
  <rect id="Rectangle_13660" data-name="Rectangle 13660" width="24" height="24" rx="4" fill="#fff" opacity="0"/>
  <path id="icons8_happy" d="M10.4,2a8.4,8.4,0,1,0,8.4,8.4A8.4,8.4,0,0,0,10.4,2Zm2.94,5.04A1.26,1.26,0,1,1,12.08,8.3,1.258,1.258,0,0,1,13.34,7.04Zm-5.88,0A1.26,1.26,0,1,1,6.2,8.3,1.258,1.258,0,0,1,7.46,7.04Zm2.94,7.98a4.617,4.617,0,0,1-4.292-2.94h8.585A4.617,4.617,0,0,1,10.4,15.02Z" transform="translate(1.601 1.6)" fill="#5d718d"/>
</svg>
