<svg xmlns="http://www.w3.org/2000/svg" width="273" height="220" viewBox="0 0 273 220">
  <g id="empty_subscription" transform="translate(0.031 -0.282)">
    <g id="Group_60879" data-name="Group 60879" transform="translate(-0.031 -0.15)">
      <g id="Group_60878" data-name="Group 60878" transform="translate(0 0)">
        <rect id="Rectangle_16531" data-name="Rectangle 16531" width="273" height="220" transform="translate(0 0.433)" fill="#fff" opacity="0"/>
      </g>
    </g>
    <g id="Group_60881" data-name="Group 60881" transform="translate(16.272 1.262)" opacity="0.2">
      <path id="Path_73331" data-name="Path 73331" d="M819.572,447.07A160.811,160.811,0,0,0,807.846,464.6a82.586,82.586,0,0,0-10.194,31.759c-2.49-.112-5.224-.217-8.181-.317-17.51-.591-42.789-.961-70.9-.961-31.955,0-60.253.479-77.637,1.216q-.9.038-1.756.077c-21.7-25.583-65.406-70.154-25.188-88.49a77.879,77.879,0,0,0,7.364-2.687c13.981-5.8,42.71-21.419,39.515-50.862a74.708,74.708,0,0,1-1.089-13.139c0-17.876,5.951-47.507,45.677-46.155,24.057.82,46.213,12.463,59.608,31.1,13.139,18.278,34.147,40.767,51.255,27.928a16.461,16.461,0,0,1,14.046-2.76C842.685,354.6,856.674,371.631,819.572,447.07Z" transform="translate(-597.59 -295.001)" fill="#b9d8fb" opacity="0.6"/>
    </g>
    <path id="Path_73332" data-name="Path 73332" d="M638.69,3606.538c0,1.1-51.3,1.985-114.582,1.985-35.706,0-67.6-.283-88.612-.726-4.84-.1-9.1-.213-12.7-.33-2.371-.078-4.454-.159-6.225-.242-4.556-.213-7.044-.445-7.044-.687,0-.308,4.039-.6,11.247-.858,2.952-.106,6.435-.208,10.39-.3,20.811-.5,54.689-.824,92.945-.824,33.651,0,63.914.251,84.877.652C627.442,3605.557,638.69,3606.025,638.69,3606.538Z" transform="translate(-387.782 -3407.251)" fill="#040c2b" opacity="0.15"/>
    <g id="Group_60884" data-name="Group 60884" transform="translate(89.552 131.999)">
      <g id="Group_60882" data-name="Group 60882" transform="translate(0 11.543)">
        <path id="Path_73333" data-name="Path 73333" d="M1732.343,2891.873l91.525.228,2.382,32.523-96.135-2.612Z" transform="translate(-1725.541 -2877.176)" fill="#829cf8"/>
        <path id="Path_73334" data-name="Path 73334" d="M1659.578,2883.449l-4.255.032-6.068,1.315a3.353,3.353,0,0,0-2.6,3.268l.546,33.417a2.3,2.3,0,0,0,2.276,2.294l1.875-.014Z" transform="translate(-1646.657 -2869.214)" fill="#274268"/>
        <path id="Path_73335" data-name="Path 73335" d="M1735.448,2883.449l-6.463,1.86a2.893,2.893,0,0,0-2.058,2.822l.147,16.153,8.6,9.331Z" transform="translate(-1722.527 -2869.214)" fill="#274268"/>
        <path id="Path_73336" data-name="Path 73336" d="M3356.323,2861.841l6.433,2.278a4.88,4.88,0,0,1,2.339,4.156l.25,32.719a3.175,3.175,0,0,1-3.1,3.247l-2.079.015-4.516-40.287Z" transform="translate(-3261.981 -2848.79)" fill="#274268"/>
        <path id="Path_73337" data-name="Path 73337" d="M3284.857,2900.636l2.369,1.861a4.275,4.275,0,0,1,1.617,3.334l.116,15.057-8.508-9.088Z" transform="translate(-3190.9 -2885.459)" fill="#274268"/>
        <path id="Path_73338" data-name="Path 73338" d="M1865.6,2644.043l32.674,1.188a3.252,3.252,0,0,1,3.083,3.271l.165,21.56-40.633-1.247,1.413-21.7A3.233,3.233,0,0,1,1865.6,2644.043Z" transform="translate(-1849.146 -2642.928)" fill="#edeff2"/>
        <path id="Path_73339" data-name="Path 73339" d="M2606.91,2625.462l34.964-1.721a3.233,3.233,0,0,1,3.337,3.027l1.847,23.236-43,2.749-.184-23.972A3.253,3.253,0,0,1,2606.91,2625.462Z" transform="translate(-2551.403 -2623.737)" fill="#edeff2"/>
        <path id="Path_73340" data-name="Path 73340" d="M1776.977,3079.909l-2.3,2.751.006.85a9.136,9.136,0,0,1-9.172,9.355l-28.439-.594a9.154,9.154,0,0,1-8.817-9.217l-.011-1.381.057-.023,7.315-3.45Z" transform="translate(-1723.778 -3053.291)" fill="#edeff2"/>
        <path id="Path_73341" data-name="Path 73341" d="M2622.565,3089.433l.013,1.767a9.169,9.169,0,0,1-8.334,9.332c-8.5.642-21.426.491-29.961.285a9.156,9.156,0,0,1-8.787-9.217l0-.462.562-.918,1.726-2.821,42.23-1.275Z" transform="translate(-2524.581 -3060.781)" fill="#edeff2"/>
        <path id="Path_73342" data-name="Path 73342" d="M1671.915,3331.26l100.369.6-2.075,16.052-96.494-.823Z" transform="translate(-1670.53 -3292.479)" fill="#274268"/>
        <path id="Path_73343" data-name="Path 73343" d="M2622.565,3146.775l.052,6.714a3.731,3.731,0,0,1-2.982,3.729c-8.991,1.695-34.16,1-41.826.738a2.381,2.381,0,0,1-2.262-2.4l-.054-7.1h0a1.492,1.492,0,0,1,1.51-.707C2585.076,3149.051,2622.565,3146.775,2622.565,3146.775Z" transform="translate(-2524.581 -3118.106)" fill="#edeff2"/>
        <path id="Path_73344" data-name="Path 73344" d="M1774.963,3143.852l.012,4.648a2.769,2.769,0,0,1-2.78,2.835l-41.045-.856a2.7,2.7,0,0,1-2.6-2.722l-.046-2.866c0-.03,0-4.888.031-4.9h0c.008,0,11.788-.073,11.8-.073l34.522,1.077C1774.887,3141,1774.962,3143.813,1774.963,3143.852Z" transform="translate(-1724.014 -3111.626)" fill="#edeff2"/>
        <path id="Path_73345" data-name="Path 73345" d="M3202.722,2787.351l3.36-1.157a.518.518,0,0,1,.676.421c.188,1.178.373,3.8-1.257,5.548a4.057,4.057,0,0,0-2.723,2.559l.505,1.1s.333,9.492-2.323,8.438l-9.117,1,3.693-17.846Z" transform="translate(-3107.15 -2777.263)" fill="#edeff2"/>
      </g>
      <g id="Group_60883" data-name="Group 60883" transform="translate(44.171)">
        <path id="Path_73346" data-name="Path 73346" d="M3192.836,2546.332l-2.937,5.392-7-.825,1.243-2.895,1.405-3.276,6.623-5.616-.124,4.072-.065,2.129Z" transform="translate(-3142.864 -2532.208)" fill="#cc8b5b"/>
        <path id="Path_73347" data-name="Path 73347" d="M2465.41,3062.383l-4.542-.552-4.311-1.778a1.767,1.767,0,0,0-.7-.132l-2.214.038s-1.892-.132-.74,2.056c0,0,.208,2.537,2.286,2.229l1.04-.008s1.141.239,2.1.552a8.379,8.379,0,0,0,3.317.381,21.715,21.715,0,0,0,3.007-.363l.377-.2Z" transform="translate(-2452.532 -3024.469)" fill="#de995f"/>
        <path id="Path_73348" data-name="Path 73348" d="M3213.584,2539.112l-.124,4.072c-1.163,1.936-3.439,4.881-6.544,4.937a5.972,5.972,0,0,1-1.361-.116l1.406-3.276Z" transform="translate(-3164.282 -2532.208)" opacity="0.15"/>
        <path id="Path_73349" data-name="Path 73349" d="M2731.743,2907.155l-.572,11.72,3.02-.756.975-8.6Z" transform="translate(-2715.898 -2880.078)" fill="#de995f"/>
        <path id="Path_73350" data-name="Path 73350" d="M2998.482,2668.333s-3.082,13.343-8.293,14.021l-2.014-4.8S2992.569,2667.793,2998.482,2668.333Z" transform="translate(-2958.816 -2654.326)" fill="#b9d8fb"/>
        <path id="Path_73351" data-name="Path 73351" d="M2742.262,2594.777l.024,3.124-.921.311-9.595,3.235c-.431-.278-.742-1.687-.959-3.247-.309-2.221-.426-4.748-.426-4.748l-.952,5.378-4.7-2.454,1.915-15.489c.487-4.251,2.278-4.948,2.278-4.948,3.956-2.08,5.136,4.012,5.136,4.012a91.9,91.9,0,0,1,2.837,12.329l.233.108Z" transform="translate(-2709.815 -2566.607)" fill="#040c2b"/>
        <path id="Path_73352" data-name="Path 73352" d="M2838.762,2905.689l-3.993-2.9a10.925,10.925,0,0,0-3.267-.658,5.5,5.5,0,0,0-3.3,1.441l-.832-3.752.365,4.342.009-.009.194,1.911.993-.056,11.646,2.205-2.124-5.7Z" transform="translate(-2806.825 -2873.145)" opacity="0.15"/>
        <path id="Path_73353" data-name="Path 73353" d="M2680.65,2960.45s-1.645.356-3.41.663a19.011,19.011,0,0,1-3.909.418s-5.148.577-5.763.678l-1.388.011a2.07,2.07,0,0,1-1.109-.311l-.817-.5-2.42.78a1.5,1.5,0,0,1-.454.071c-1.379,0-8.444-.019-9.019-.553,0,0-1.79-2.975.564-4.165l8.243-3.969a7.83,7.83,0,0,1,.62-.72c.991-1.035,3.059-2.732,5.363-1.912l4.722.746,1.383.219,3.03.478Z" transform="translate(-2640.792 -2921.255)" fill="#040c2b"/>
        <path id="Path_73354" data-name="Path 73354" d="M2961.97,2896.934s-1.646.356-3.41.662a35.659,35.659,0,0,0-2.887-5.081c-.536.054-1.35-1.578-2.011-3.171-.169-.4-.326-.806-.468-1.177-.382-1-.641-1.779-.641-1.779-3.39-.157-3.348-1.982-3.123-2.868l5.128,2.389.019,2.476,3.029.479Z" transform="translate(-2922.111 -2857.739)" opacity="0.15"/>
        <path id="Path_73355" data-name="Path 73355" d="M3018.369,2654.748l-4.146.055-9.108,13.2s2.062,6.892,3.247,7.322c0,0,2.626,3.334,3.114,5.314a6.549,6.549,0,0,0,5.752-2.111l8.475-16.809,1.228-3.207-1.833-1.67s.358-2.639-1.109-2.823c0,0,1,1.555-3.758,3.153l-1.733,2.161-.067-2.587Z" transform="translate(-2974.828 -2640.819)" fill="#b9d8fb"/>
        <path id="Path_73356" data-name="Path 73356" d="M3018.135,2707.05s2.57-.294,3.332-1.89a2.176,2.176,0,0,0,.1-.244c.6-1.811,2.454-6.707,2.385-9.537,0,0,.745,2.95-2.655,10.529C3021.3,2705.907,3020.882,2706.99,3018.135,2707.05Z" transform="translate(-2987.134 -2679.909)" opacity="0.15"/>
        <path id="Path_73357" data-name="Path 73357" d="M3122.9,2997.419s-6.062-2.125-6.742-4.513A8.666,8.666,0,0,0,3122.9,2997.419Z" transform="translate(-3079.781 -2961.129)" opacity="0.15"/>
        <path id="Path_73358" data-name="Path 73358" d="M2989.907,2838.693l-.417,1.174s.973,2.254.313,3.057l-1.5-3.389Z" transform="translate(-2958.94 -2815.368)" opacity="0.15"/>
        <path id="Path_73359" data-name="Path 73359" d="M2946.523,2835.512l.9.579a1.693,1.693,0,0,0,.166,2.673,2.447,2.447,0,0,0,2.081.564.806.806,0,0,0,.445-.385,2.119,2.119,0,0,0,.226-1.784c-.117-.373-.3-.9-.607-1.624l.276-1.076-2.891-.378Z" transform="translate(-2919.446 -2811.01)" fill="#cc8b5b"/>
        <path id="Path_73360" data-name="Path 73360" d="M2937.166,2651.833l8.9,1.641,1.065,9.413-8.8-.568Z" transform="translate(-2910.602 -2638.75)" fill="#274268"/>
        <path id="Path_73361" data-name="Path 73361" d="M2933.986,2757.084s-1.618-1.452-2.084-.57c0,0-.108,5.273.818,5.437,0,0,2.06.106,2.577-.338,0,0,.828-2.984-.357-3.414l-1.516-.281S2934.42,2758.2,2933.986,2757.084Z" transform="translate(-2905.623 -2737.426)" fill="#de995f"/>
        <path id="Path_73362" data-name="Path 73362" d="M3207.265,2685.833l.012,1.585-.2-1.136-1.363,1.134s-1.659-.671-.259-2.976c0,0-1.118,2.108.351,2.536Z" transform="translate(-3163.652 -2669.57)" opacity="0.15"/>
        <path id="Path_73363" data-name="Path 73363" d="M3251.789,2706.133s-.086,2.359.481,2.4l4.61-3.013-4.655,3.355s-.523-.435-.583-2.144l-1.3,1.208Z" transform="translate(-3206.609 -2689.497)" fill="none" stroke="#000" stroke-width="1.998" opacity="0.15"/>
        <path id="Path_73364" data-name="Path 73364" d="M3198.733,2465.1a10.462,10.462,0,0,1-2.063,4.725,7.592,7.592,0,0,1-4.037,2.629,1.261,1.261,0,0,1-1.508-.838l-.073-.219c-.746-2.25-2.027-6.969-.831-9.944a4.886,4.886,0,0,1,.254-.536l5.376-1.6S3198.923,2459.046,3198.733,2465.1Z" transform="translate(-3149.325 -2456.781)" fill="#de995f"/>
        <path id="Path_73365" data-name="Path 73365" d="M3195.923,2422.707c-.594,1.8,0,.1,0,.1l-.061,1.991-.222-.172-.089-1.085-.044-.891s1.062-3.23-.354-3.024a1.811,1.811,0,0,0-1.073,1.863s-.089.635-.134,1.074c0,0,.549,2.675.1,3.634a7.586,7.586,0,0,1-4.037,2.629,1.26,1.26,0,0,1-1.507-.838l-.074-.218c.7.1,2.07-.031,3.649-1.824,0,0,.848-.4,1.156-3.328l-.16-2.391a.867.867,0,0,0-1-.676,4.213,4.213,0,0,1-1.909-2.328s-1.633,1.042-2.57.6c-.521-.243-.827-.944-.518-2.532a2.081,2.081,0,0,1,2.027-.8,4.6,4.6,0,0,1,5.383-.773,6.127,6.127,0,0,1,2.021,4.671A16.47,16.47,0,0,1,3195.923,2422.707Z" transform="translate(-3146.701 -2413.15)"/>
        <path id="Path_73366" data-name="Path 73366" d="M3072.923,2870.6s1.683,2.284,2.958,2.079c0,0,3.8,7.043,4.982,7.525l2.6.423-7.03-10.539-3.078-.709Z" transform="translate(-3038.918 -2844.375)" opacity="0.15"/>
        <path id="Path_73367" data-name="Path 73367" d="M3069.35,2787.055a12.715,12.715,0,0,1-7.128-4.827l-2.008-2.914-.393-2.522a1.586,1.586,0,0,0-.279-.687c-.433-.6-1.884-2.211-2.748-1.915h0a2.193,2.193,0,0,0,.391,1.5l.836,1.222a.091.091,0,0,1-.108.138,6.336,6.336,0,0,1-2.527-2.229.459.459,0,0,0-.6-.143c-.487.282-1.091,1.247-.1,4.528,0,0,1.06,2.53,3.049,3.052l.8.091s3.022,6.06,5.977,9.2a5.135,5.135,0,0,0,4.934,1.524c.935-.226,1.727-.7,1.638-1.687Z" transform="translate(-3021.174 -2754.367)" fill="#de995f"/>
        <path id="Path_73368" data-name="Path 73368" d="M3288.649,2734.83s3.088,1.929,1.769,8.773c0,0-2.03.455-1.912,3.432,0,0,.282,2.854-2.185,7.949,0,0-2.31-5.352-4.286-6.2C3282.035,2748.788,3282.638,2733.9,3288.649,2734.83Z" transform="translate(-3236.569 -2717.158)" fill="#b9d8fb"/>
        <path id="Path_73369" data-name="Path 73369" d="M2827.806,2719.946s1.78-8.361,1.291-10.457C2829.1,2709.489,2829.972,2712.7,2827.806,2719.946Z" transform="translate(-2807.236 -2693.246)" opacity="0.15"/>
        <path id="Path_73370" data-name="Path 73370" d="M2843.572,2615.47a46.39,46.39,0,0,1-.32-4.781S2843.423,2614.544,2843.572,2615.47Z" transform="translate(-2821.811 -2599.862)" opacity="0.15"/>
        <path id="Path_73371" data-name="Path 73371" d="M2855.274,2728.814s2.027-7,2.012-8.949A22.309,22.309,0,0,1,2855.274,2728.814Z" transform="translate(-2833.199 -2703.054)" opacity="0.15"/>
        <path id="Path_73372" data-name="Path 73372" d="M3061.338,3080.352a14.163,14.163,0,0,0,.5-3.884s.92,2.824-.961,4.157" transform="translate(-3027.537 -3040.111)" opacity="0.15"/>
        <path id="Path_73373" data-name="Path 73373" d="M2886.2,3096.737a7.535,7.535,0,0,0,1.938-3.038S2887.739,3096.528,2886.2,3096.737Z" transform="translate(-2862.434 -3056.396)" opacity="0.15"/>
        <path id="Path_73374" data-name="Path 73374" d="M2875.949,3100.941s-.333-.242-.255-2.439Z" transform="translate(-2852.488 -3060.936)" opacity="0.15"/>
        <path id="Path_73375" data-name="Path 73375" d="M2906.56,3122.438a11.2,11.2,0,0,0,2.2-2.214A4.266,4.266,0,0,1,2906.56,3122.438Z" transform="translate(-2881.674 -3081.469)" opacity="0.15"/>
        <path id="Path_73376" data-name="Path 73376" d="M2931.771,2881.1a1.621,1.621,0,0,1-.839,1.471S2931.261,2882.371,2931.771,2881.1Z" transform="translate(-2904.71 -2855.449)" opacity="0.15"/>
        <path id="Path_73377" data-name="Path 73377" d="M3280.916,2766.141l-.4-.118s-1-7.315,3.445-13.109C3283.958,2752.914,3279.111,2760.725,3280.916,2766.141Z" transform="translate(-3235.039 -2734.291)" opacity="0.15"/>
        <path id="Path_73378" data-name="Path 73378" d="M3350.9,2880.662s-2.516-1.347-4.451-.991a22.729,22.729,0,0,1,5.015.547Z" transform="translate(-3297.449 -2854.044)" opacity="0.15"/>
        <path id="Path_73379" data-name="Path 73379" d="M3044.431,2918.611a6.839,6.839,0,0,1,2.69,2.47A3.663,3.663,0,0,0,3044.431,2918.611Z" transform="translate(-3011.989 -2890.906)" opacity="0.15"/>
        <path id="Path_73380" data-name="Path 73380" d="M3355.566,2943.873a4.858,4.858,0,0,0-2.608-1.005S3355.085,2942.705,3355.566,2943.873Z" transform="translate(-3303.604 -2913.826)" opacity="0.15"/>
        <path id="Path_73381" data-name="Path 73381" d="M3316.548,3009.487a7.079,7.079,0,0,0-2.688-5.113S3317.055,3006.784,3316.548,3009.487Z" transform="translate(-3266.649 -2971.968)" opacity="0.15"/>
        <path id="Path_73382" data-name="Path 73382" d="M3121.444,3078.3s-3.886-1.065-4.654-2.573C3116.79,3075.729,3120.124,3078.334,3121.444,3078.3Z" transform="translate(-3080.381 -3039.412)" opacity="0.15"/>
        <path id="Path_73383" data-name="Path 73383" d="M2958.364,2952.375l3.55,2.6-3.546-2.061-.885-.678Z" transform="translate(-2929.806 -2922.685)" opacity="0.15"/>
        <path id="Path_73384" data-name="Path 73384" d="M2824.719,2991.858s0-.488,3.02-.706A21.2,21.2,0,0,1,2824.719,2991.858Z" transform="translate(-2804.318 -2959.47)" opacity="0.15"/>
      </g>
    </g>
    <g id="Group_60888" data-name="Group 60888" transform="translate(79.734 183.076)">
      <path id="Path_73385" data-name="Path 73385" d="M1500.469,3351.6h0c0-.013-.005-.026-.008-.039-.007-.036-.013-.072-.02-.108l0-.02c-.01-.048-.02-.1-.031-.145v0c-.017-.077-.035-.154-.055-.23,0-.017-.009-.034-.014-.051l-.014-.053c-.024-.091-.05-.182-.077-.272v0l-.023-.073c-.023-.072-.047-.144-.071-.214l-.01-.03c-.015-.042-.03-.084-.045-.126q-.054-.146-.114-.29c-.04-.1-.082-.19-.125-.283l-.033-.07-.034-.07c-.033-.07-.068-.138-.1-.207l-.024-.044-.036-.065c-.036-.066-.073-.132-.11-.2l-.032-.055c-.044-.073-.088-.146-.133-.217l-.017-.027c-.053-.082-.106-.163-.161-.242s-.116-.162-.175-.242l-.025-.033c-.051-.068-.1-.135-.157-.2l-.027-.034q-.188-.23-.392-.446h0c-.066-.07-.133-.138-.2-.2l-.013-.013h0a8.029,8.029,0,0,0-11.154-.075l-.056.054-.033.032-.033.032-.034.034-.03.032-.063.064-.071.073-.043.046-.032.035-.038.042-.047.052-.054.061-.041.047-.033.039-.092.111,0,0-.038.047-.012.015-.037.047-.014.019c-.041.054-.083.107-.123.163l-.042.056,0,0-.042.059-.042.06-.039.056,0,.007-.04.059v0q-.062.092-.12.185l-.031.051-.015.024-.031.051c-.026.042-.051.085-.075.128l-.027.047-.019.034-.025.044-.016.031-.053.1-.017.033-.013.024-.016.031-.024.046-.013.026-.061.124,0,0-.014.031-.027.057c-.031.066-.061.132-.089.2l-.026.06q-.109.256-.2.521l-.013.039q-.041.122-.078.244l-.009.029c-.055.186-.1.375-.146.566l0,.013h0c-.019.085-.036.17-.052.257h0c0,.01,0,.02-.005.03-.008.045-.016.09-.023.135l-.006.036h0a8.116,8.116,0,0,0-.1,1.261,8.029,8.029,0,1,0,15.931-1.429Z" transform="translate(-1483.607 -3345)" opacity="0.1"/>
      <g id="Group_60887" data-name="Group 60887">
        <g id="Group_60886" data-name="Group 60886">
          <path id="Path_73386" data-name="Path 73386" d="M1483.6,3353.028a8.029,8.029,0,1,1-15.267-3.477l0,0,.061-.124.013-.026.053-.1.017-.033.053-.1.017-.031c.023-.042.047-.084.071-.125s.05-.086.075-.128l.078-.126c.039-.063.08-.125.121-.187l.04-.059,0-.007.039-.056.042-.06.043-.061.044-.059c.044-.06.088-.119.134-.177l.04-.052.012-.015.039-.047,0,0c.03-.037.06-.074.091-.111l.033-.039.041-.047.054-.061c.039-.044.078-.087.117-.129l.042-.046c.054-.057.108-.114.163-.169l.034-.034.033-.032.033-.032.056-.054a8.034,8.034,0,0,1,12.658,2.1c.036.068.071.137.1.207l.033.07.033.07c.044.094.085.188.125.283s.078.192.114.29q.068.182.127.37l.024.074c.038.125.073.252.106.378.019.077.037.154.055.231.011.048.021.1.031.145l0,.02A8.058,8.058,0,0,1,1483.6,3353.028Z" transform="translate(-1467.539 -3345)" fill="#acbcf8"/>
          <g id="Group_60885" data-name="Group 60885" transform="translate(0.099 1.075)">
            <path id="Path_73387" data-name="Path 73387" d="M1641.276,3382.343a.123.123,0,0,0-.164.007l-.056.045c-.011.009-.025.019-.039.013-.062-.028-.134-.021-.194-.05a1.732,1.732,0,0,0-.358-.1,1.1,1.1,0,0,1-.169-.058.684.684,0,0,0-.178-.07,1.667,1.667,0,0,0-.254-.018h-.183c-.022,0-.047,0-.062.012-.054.058-.128.047-.194.06-.019,0-.038,0-.055.013a1.733,1.733,0,0,0-.278.245.225.225,0,0,1-.031.03.887.887,0,0,0-.166.168.269.269,0,0,1-.067.065.662.662,0,0,1-.169.093c-.053.018-.089.064-.141.084-.117.043-.113.039-.106.182a.552.552,0,0,0,.025.1c.006.021.013.041.017.062a.113.113,0,0,0,.11.1.194.194,0,0,0,.135-.038l.05-.041a.052.052,0,0,1,.071,0,.922.922,0,0,1,.156.177c.022.028.013.054-.017.073a.54.54,0,0,0-.06.04.04.04,0,0,0-.01.046.032.032,0,0,0,.037.027.494.494,0,0,0,.193-.051.156.156,0,0,1,.092-.034c.036,0,.052-.02.06-.05a.487.487,0,0,0,.029-.14.062.062,0,0,1,.048-.07.148.148,0,0,0,.044-.023c.074-.053.078-.1.013-.165l-.027-.023a.107.107,0,0,1,.019-.19l.063-.035a.286.286,0,0,0,.14-.139.112.112,0,0,1,.1-.07c.031,0,.063,0,.094,0a.033.033,0,0,1,.031.015c.009.018-.008.025-.018.034a.785.785,0,0,1-.146.115.13.13,0,0,0-.085.143.228.228,0,0,0,.165.217l.014,0a.1.1,0,0,1,.063.094c0,.052-.025.082-.077.089a.12.12,0,0,0-.112.111c0,.016-.006.033-.01.049-.021.093-.075.142-.159.132a.44.44,0,0,0-.071.007,1.3,1.3,0,0,0-.233.069c-.021.006-.04.015-.057-.008a.111.111,0,0,0-.164-.026.07.07,0,0,1-.074,0c-.063-.032-.081-.058-.059-.125a.306.306,0,0,0,.008-.135.044.044,0,0,0-.048-.043.168.168,0,0,0-.121.1.371.371,0,0,0-.015.168.068.068,0,0,1-.045.079c-.035.014-.069.034-.1.047a.262.262,0,0,0-.137.1.454.454,0,0,1-.167.13c-.029.018-.057.032-.069.067-.021.054-.082.052-.121.082-.021.016-.045,0-.068-.008s-.072-.015-.091.02a.124.124,0,0,1-.128.062.283.283,0,0,0-.1.015c-.014.006-.027.012-.028.029s.04.081.068.082c.1.007.146.076.195.144a.142.142,0,0,1,.02.143.314.314,0,0,0-.018.077c-.008.063-.021.073-.083.072a.34.34,0,0,1-.05,0c-.127-.02-.257-.017-.385-.027a.059.059,0,0,0-.041.008c-.047.034-.115.052-.085.137.011.032-.017.071-.007.106a.188.188,0,0,1-.012.118.886.886,0,0,1-.048.1c-.008.018-.023.039-.008.054.041.04.032.088.033.135s.02.052.054.052a.173.173,0,0,0,.036,0,.185.185,0,0,1,.158.049.126.126,0,0,0,.134.027.2.2,0,0,1,.111-.02.275.275,0,0,0,.224-.108c.03-.028.042-.077.072-.112a.038.038,0,0,0,0-.035c-.017-.032,0-.054.018-.077a.779.779,0,0,0,.055-.075.1.1,0,0,1,.078-.054.26.26,0,0,0,.125-.082c.026-.023.015-.058.017-.089a.085.085,0,0,1,.1-.084.87.87,0,0,1,.1.021c.023,0,.05.021.07.007.047-.032.1-.051.148-.081s.065-.042.116,0a.149.149,0,0,1,.043.057.282.282,0,0,0,.079.1.815.815,0,0,0,.231.154.425.425,0,0,1,.15.131.079.079,0,0,1-.049.126.609.609,0,0,1-.178.012c-.02,0-.041,0-.048.024s.01.035.027.045c.052.031.107.052.159.083a.04.04,0,0,0,.064-.038.075.075,0,0,1,.063-.081c.051-.015.061-.062.082-.1a.078.078,0,0,0-.008-.08c-.015-.031,0-.05.038-.048s.038.02.057.027.041,0,.042-.028a.074.074,0,0,0-.041-.064c-.051-.035-.1-.068-.155-.1a.256.256,0,0,0-.075-.038.174.174,0,0,1-.121-.092.226.226,0,0,0-.073-.094.11.11,0,0,1-.029-.032.082.082,0,0,1,.008-.093.058.058,0,0,1,.079-.01.5.5,0,0,1,.133.118.159.159,0,0,0,.1.072.133.133,0,0,1,.073.042.176.176,0,0,0,.051.039.212.212,0,0,1,.116.2c0,.021,0,.044.011.062a1.833,1.833,0,0,0,.141.207.1.1,0,0,1,.032.07c0,.072.05.085.1.1s.055,0,.07-.039a.335.335,0,0,0,.023-.274.046.046,0,0,1,0-.014c0-.042.036-.109.07-.114a.114.114,0,0,1,.13.094.589.589,0,0,1,0,.086.265.265,0,0,0,.049.163.139.139,0,0,0,.122.075.288.288,0,0,1,.13.037c.034.017.063.023.092,0a.06.06,0,0,1,.066-.01.592.592,0,0,1,.1.035.13.13,0,0,0,.142-.006.154.154,0,0,1,.052-.024.084.084,0,0,1,.106.061.347.347,0,0,1,0,.164.881.881,0,0,0-.047.15.548.548,0,0,1-.038.123.193.193,0,0,0-.011.146,1.708,1.708,0,0,0,.072.178,1.157,1.157,0,0,0,.162.278.418.418,0,0,1,.07.125.117.117,0,0,0,.047.062.339.339,0,0,1,.1.122.5.5,0,0,1,.042.151.211.211,0,0,0,.108.161.141.141,0,0,1,.048.043,1.252,1.252,0,0,1,.159.293c.039.113.1.216.141.328a.163.163,0,0,0,.09.089c.038.018.063-.008.092-.026a.13.13,0,0,1,.02-.006,2.5,2.5,0,0,0,.38-.164.26.26,0,0,1,.075-.021.171.171,0,0,0,.126-.086.171.171,0,0,1,.072-.07,1.886,1.886,0,0,0,.236-.13c.085-.059.174-.109.2-.222a.168.168,0,0,1,.032-.063.612.612,0,0,0,.089-.171.067.067,0,0,0-.006-.068c-.027-.033-.053-.068-.081-.1a.087.087,0,0,0-.081-.04.083.083,0,0,1-.088-.048c-.01-.016-.023-.031-.034-.047-.059-.088-.123-.092-.185-.01a.134.134,0,0,1-.073.056.477.477,0,0,1-.172,0,.03.03,0,0,1-.029-.04c.029-.116-.036-.179-.127-.228a.4.4,0,0,1-.2-.225.077.077,0,0,1,.088-.1c.085.012.118.075.142.145.011.032.017.071.049.084a1.726,1.726,0,0,0,.247.129.2.2,0,0,0,.137,0c.018-.008.036-.013.053-.022.036-.02.048-.015.067.023a.175.175,0,0,1,.014.033.1.1,0,0,0,.087.074c.062.01.122.026.183.037a.953.953,0,0,0,.385.005.612.612,0,0,1,.082-.012,8.006,8.006,0,0,0-2.286-4.307l-.028.007A.163.163,0,0,1,1641.276,3382.343Z" transform="translate(-1627.912 -3381.151)" fill="#e3e9f7"/>
            <path id="Path_73388" data-name="Path 73388" d="M1628.06,3444.847a.642.642,0,0,1-.186.048c-.1.026-.2.068-.3.085a.136.136,0,0,1-.166-.107.2.2,0,0,0-.068-.136,1.29,1.29,0,0,1-.1-.118.172.172,0,0,0-.092-.072.191.191,0,0,1-.142-.185.247.247,0,0,0-.068-.156.424.424,0,0,1-.122-.259.331.331,0,0,0-.082-.2.643.643,0,0,1-.136-.217c-.011-.032-.03-.061-.04-.092-.03-.085-.106-.148-.1-.255a.74.74,0,0,0-.042-.187.276.276,0,0,0-.166-.185.151.151,0,0,0-.174.026.09.09,0,0,1-.106.009.332.332,0,0,0-.089-.025,1.287,1.287,0,0,1-.276-.075.526.526,0,0,1-.12-.058.162.162,0,0,0-.138-.022.317.317,0,0,1-.055.014c-.047,0-.068.041-.094.072s-.01.052,0,.08c.015.045-.008.074-.056.077a.1.1,0,0,1-.072-.028.243.243,0,0,0-.158-.06.085.085,0,0,1-.092-.065.129.129,0,0,0-.125-.091.286.286,0,0,0-.079,0,.263.263,0,0,1-.169-.05.1.1,0,0,1-.037-.146.12.12,0,0,0,.017-.069.42.42,0,0,1,0-.114.066.066,0,0,0-.054-.081.185.185,0,0,0-.114,0,.192.192,0,0,1-.09.013c-.068,0-.139-.019-.2.026a.045.045,0,0,1-.048,0,.208.208,0,0,0-.126-.006,1.011,1.011,0,0,1-.241.035.129.129,0,0,0-.106.053.11.11,0,0,1-.045.033.98.98,0,0,1-.265.056.157.157,0,0,1-.128-.029.07.07,0,0,0-.1.029.372.372,0,0,0-.044.073.173.173,0,0,1-.092.094.413.413,0,0,0-.208.251.481.481,0,0,1-.093.184c-.05.059-.092.128-.176.15a.088.088,0,0,0-.06.057c-.015.034-.032.079-.062.094a.183.183,0,0,0-.091.136.209.209,0,0,1-.023.052c-.045.081-.1.154-.143.239a.3.3,0,0,0-.021.259.4.4,0,0,1,.03.291.287.287,0,0,0-.009.05.157.157,0,0,1-.049.093.192.192,0,0,0-.061.147.522.522,0,0,0,.106.292c.018.027.051.034.074.055.042.037.068.086.109.123a.2.2,0,0,1,.058.089.541.541,0,0,0,.244.315,1.475,1.475,0,0,1,.2.144.163.163,0,0,0,.2.027.268.268,0,0,1,.06-.023.379.379,0,0,1,.237-.02.23.23,0,0,0,.174.012c.076-.034.156-.062.23-.1a.5.5,0,0,1,.228-.049.168.168,0,0,1,.178.126c.028.083.049.1.138.081a.275.275,0,0,1,.187.028c.074.042.087.069.072.157a.619.619,0,0,0-.03.132.393.393,0,0,1-.032.175.083.083,0,0,0-.007.07.459.459,0,0,0,.054.109c.051.061.1.125.148.185a.319.319,0,0,1,.082.171.292.292,0,0,0,.047.12.227.227,0,0,1,.04.136.531.531,0,0,0,.05.243.205.205,0,0,1-.044.251.186.186,0,0,0-.056.113c-.011.071-.039.138-.056.207a1.1,1.1,0,0,0-.021.206.11.11,0,0,0,.026.067.758.758,0,0,1,.074.147.62.62,0,0,0,.1.2.208.208,0,0,1,.053.171.326.326,0,0,0,.005.135.5.5,0,0,1,.024.142.3.3,0,0,0,.07.207.551.551,0,0,1,.161.309.025.025,0,0,0,0,.007.254.254,0,0,1,.025.156c-.017.049.025.1.034.165a.034.034,0,0,0,.014.023.256.256,0,0,0,.153.052,1.115,1.115,0,0,0,.274-.049.086.086,0,0,1,.035-.005.759.759,0,0,0,.265-.051.451.451,0,0,0,.215-.146.514.514,0,0,1,.069-.073.364.364,0,0,0,.1-.129.389.389,0,0,1,.1-.132.294.294,0,0,0,.094-.147.4.4,0,0,0,.023-.076.248.248,0,0,1,.148-.2.146.146,0,0,0,.074-.076.41.41,0,0,0,.022-.293.3.3,0,0,1-.015-.056.2.2,0,0,1,.082-.207.348.348,0,0,0,.075-.076.188.188,0,0,1,.083-.066.535.535,0,0,0,.214-.154.292.292,0,0,0,.077-.23.667.667,0,0,1,.006-.2.264.264,0,0,0-.037-.219.255.255,0,0,1-.059-.158,1.058,1.058,0,0,0-.031-.284.128.128,0,0,1,.02-.11.282.282,0,0,0,.036-.07.554.554,0,0,1,.164-.247.2.2,0,0,0,.037-.044c.044-.06.085-.122.133-.179a.487.487,0,0,1,.145-.138.7.7,0,0,0,.312-.327c.081-.152.147-.311.219-.468a.442.442,0,0,0,.011-.049c.021-.065-.005-.133.011-.2C1628.123,3444.866,1628.083,3444.833,1628.06,3444.847Z" transform="translate(-1613.445 -3437.951)" fill="#e3e9f7"/>
            <path id="Path_73389" data-name="Path 73389" d="M1471.011,3382.452a.083.083,0,0,0,.041.084.4.4,0,0,1,.13.16.888.888,0,0,0,.062.113.16.16,0,0,1,.011.164.154.154,0,0,0,.079.213c.009,0,.02.007.024.015a.26.26,0,0,0,.158.1.066.066,0,0,1,.028.021.305.305,0,0,0,.119.078c.091.038.182.074.274.109a.183.183,0,0,0,.127,0c.022-.008.046-.012.069-.02a.089.089,0,0,1,.088.014.206.206,0,0,1,.059.052.627.627,0,0,0,.446.241.141.141,0,0,1,.1.066.365.365,0,0,1,.058.137.18.18,0,0,0,.123.161.172.172,0,0,1,.107.09.1.1,0,0,0,.091.061.158.158,0,0,1,.118.058c.021.027.053.02.08.013s.03-.029.028-.052a.077.077,0,0,1,.014-.054.056.056,0,0,0,0-.067c-.016-.022-.046-.017-.067-.011a.153.153,0,0,1-.151-.042c-.014-.013-.028-.026-.044-.038a.152.152,0,0,1-.052-.181,1.775,1.775,0,0,1,.072-.27.175.175,0,0,0,0-.093.047.047,0,0,0-.023-.034.289.289,0,0,0-.241-.063.506.506,0,0,1-.1,0,.05.05,0,0,1-.052-.04.154.154,0,0,1,.02-.143.717.717,0,0,0,.078-.153c.025-.062.016-.136.07-.192.024-.024,0-.056-.039-.064a.48.48,0,0,0-.272.039.064.064,0,0,0-.045.06.454.454,0,0,1-.046.143.1.1,0,0,1-.118.071.543.543,0,0,0-.15,0,.228.228,0,0,1-.223-.13.7.7,0,0,1-.051-.292.263.263,0,0,1,.005-.042.75.75,0,0,1,.079-.245.258.258,0,0,0,.03-.124.13.13,0,0,1,.055-.119.78.78,0,0,1,.144-.093.782.782,0,0,0,.147-.074.141.141,0,0,1,.136-.013,1.424,1.424,0,0,0,.26.042c.023,0,.033-.012.045-.029a.142.142,0,0,1,.083-.065c.044-.01.088-.021.133-.03a.09.09,0,0,1,.105.042.062.062,0,0,0,.076.035c.082-.011.126.035.115.117a.254.254,0,0,0,0,.093.589.589,0,0,0,.087.211c.032.046.054.053.095.015a.213.213,0,0,0,.07-.153.74.74,0,0,0-.036-.219.314.314,0,0,1,.122-.349,1.874,1.874,0,0,1,.3-.19.327.327,0,0,0,.16-.12.5.5,0,0,0,.064-.125.432.432,0,0,1,.1-.182c.054-.063.11-.126.167-.187a.358.358,0,0,1,.224-.127.466.466,0,0,0,.121-.042.055.055,0,0,0,.039-.062.107.107,0,0,1,.045-.092,1.153,1.153,0,0,1,.141-.08.266.266,0,0,1,.17-.032.06.06,0,0,1,.064.045c.017.043.049.048.085.018s.041-.04.062-.061.032-.033.055-.031c.071.007.133-.037.2-.034a.15.15,0,0,0,.049-.011.045.045,0,0,0,.019-.079.073.073,0,0,0-.045-.021c-.026,0-.052-.009-.078-.014a.1.1,0,0,1-.087-.135.163.163,0,0,1,.049-.086.112.112,0,0,0,.042-.121c-.008-.033.01-.045.033-.054a.306.306,0,0,1,.17-.018.429.429,0,0,0,.205-.01c.037-.012.064.024.047.061a.212.212,0,0,1-.057.074.216.216,0,0,0-.057.1c-.01.029-.007.045.027.051a.322.322,0,0,0,.135.005.167.167,0,0,1,.139.016.355.355,0,0,0,.136.043.077.077,0,0,0,.089-.109.139.139,0,0,1,0-.118c.03-.061.029-.062-.032-.086s-.062-.045-.059-.1c0-.073.044-.135.054-.207a.09.09,0,0,0-.033-.1c-.016-.011-.031-.023-.03-.045,0-.041-.025-.055-.057-.063-.08-.02-.1-.08-.1-.152,0-.043,0-.086,0-.129a.314.314,0,0,0-.071-.2c-.037-.044-.049-.046-.094-.012a1.868,1.868,0,0,1-.178.121.1.1,0,0,1-.12-.007c-.031-.027-.034-.054-.013-.1,0-.011.011-.021.016-.032.02-.044.017-.063-.021-.084a.363.363,0,0,1-.086-.075.174.174,0,0,0-.093-.063,1.793,1.793,0,0,0-.229-.017.1.1,0,0,0-.073.026.786.786,0,0,0-.1.165.137.137,0,0,1-.112.153.155.155,0,0,0-.02.008c-.037.021-.041.04-.015.074.042.057.043.073.006.134a.309.309,0,0,1-.1.1,2.184,2.184,0,0,1-.2.088c-.031.016-.054.032-.051.069,0,.059-.038.107-.037.166,0,.023-.024.041-.045.053l-.058.029c-.048.024-.075.015-.1-.033a.116.116,0,0,1,0-.116,1.059,1.059,0,0,1,.084-.142c.018-.02.009-.037-.013-.045a.353.353,0,0,0-.12-.022.323.323,0,0,1-.219-.1.384.384,0,0,0-.178-.1.075.075,0,0,1-.062-.068.18.18,0,0,0-.021-.083c-.027-.037-.01-.067.014-.1a.618.618,0,0,1,.106-.086.674.674,0,0,1,.329-.15.282.282,0,0,0,.155-.083.159.159,0,0,1,.1-.043.218.218,0,0,1,.173.054.055.055,0,0,0,.072.007l.108-.056a.066.066,0,0,1,.074,0,.119.119,0,0,0,.074.024.048.048,0,0,0,.047-.027.036.036,0,0,0-.014-.045.129.129,0,0,1-.046-.078c-.016-.057-.005-.077.053-.08a.2.2,0,0,0,.105-.041c.053-.039.116-.066.146-.132.007-.016.026-.028.04-.041a.236.236,0,0,0,.049-.061.093.093,0,0,1,.107-.052.526.526,0,0,0,.107,0,.151.151,0,0,1,.133.056.189.189,0,0,0,.074.064c.046.023.049.054.01.09a.4.4,0,0,1-.1.069c-.021.01-.046.02-.053.045-.012.045-.048.049-.084.054a.28.28,0,0,1-.12-.016.12.12,0,0,0-.149.075c-.009.025,0,.042.027.045a.728.728,0,0,0,.236.007.059.059,0,0,1,.068.027.194.194,0,0,1,.03.057.126.126,0,0,0,.088.086l.141.053a.11.11,0,0,0,.119-.016c.044-.033.084-.07.132-.1a.112.112,0,0,0,.039-.162c-.011-.021-.022-.042-.032-.064s-.01-.034.007-.045.032,0,.047.008a.741.741,0,0,1,.066.075.075.075,0,0,0,.114.007l.1-.076a.08.08,0,0,0,.03-.112.115.115,0,0,0-.057-.07.159.159,0,0,1-.106-.169.1.1,0,0,0-.045-.093.352.352,0,0,0-.162-.073.168.168,0,0,1-.136-.115.094.094,0,0,0-.077-.065.83.83,0,0,0-.293-.011,1.778,1.778,0,0,1-.2.014c-.046,0-.091,0-.137,0a.245.245,0,0,0-.13.034c-.046.035-.092.069-.136.107s-.061.068-.036.138c.006.016.016.031.006.047a.1.1,0,0,1-.084.059c-.036,0-.073,0-.095-.035a.371.371,0,0,1-.046-.135c-.006-.044-.038-.072-.071-.062a.5.5,0,0,0-.166.065c-.053.039-.109.078-.082.163.015.049,0,.057-.044.084a.116.116,0,0,1-.1,0,.271.271,0,0,0-.155,0,.3.3,0,0,1-.111.019.877.877,0,0,0-.129.01.172.172,0,0,1-.165-.045.128.128,0,0,0-.12-.034c-.075.015-.152.021-.226.041a.339.339,0,0,1-.334-.036.108.108,0,0,0-.072-.023,8.013,8.013,0,0,0-2.305,4.094c.041.058.05.133.092.192A.055.055,0,0,1,1471.011,3382.452Z" transform="translate(-1470.83 -3376.99)" fill="#e3e9f7"/>
            <path id="Path_73390" data-name="Path 73390" d="M1469.464,3465.036a.086.086,0,0,0-.019-.087.366.366,0,0,1-.056-.113.328.328,0,0,1-.01-.038c-.012.066-.024.133-.034.2l.046.053A.04.04,0,0,0,1469.464,3465.036Z" transform="translate(-1469.346 -3459.306)" fill="#e3e9f7"/>
            <path id="Path_73391" data-name="Path 73391" d="M1518.183,3491.707a.25.25,0,0,1-.164-.094.361.361,0,0,0-.057-.055.234.234,0,0,0-.2-.072.424.424,0,0,1-.284-.083,4.1,4.1,0,0,0-.438-.2.185.185,0,0,1-.117-.132.147.147,0,0,0-.022-.067.328.328,0,0,1-.071-.162.159.159,0,0,0-.057-.113.45.45,0,0,1-.1-.092.079.079,0,0,0-.041-.028.713.713,0,0,0-.237-.046.25.25,0,0,1-.246-.142.227.227,0,0,0-.13-.116.112.112,0,0,1-.073-.083c-.009-.027.01-.051.015-.076s.017-.059-.019-.075a.15.15,0,0,0-.1-.021.422.422,0,0,1-.128.013.126.126,0,0,0-.087.026.111.111,0,0,1-.134.01.266.266,0,0,0-.115-.034.229.229,0,0,1-.118-.048,1.048,1.048,0,0,0-.163-.088.483.483,0,0,0-.139-.028.055.055,0,0,0-.052.017.307.307,0,0,1-.176.086.2.2,0,0,0-.173.148.157.157,0,0,1-.176.1.266.266,0,0,0-.079,0c-.012,0-.026.006-.026.02,0,.029-.019.063.019.083a.033.033,0,0,1,.02.034.123.123,0,0,0,.027.073.33.33,0,0,1,.046.228.426.426,0,0,1-.054.2.755.755,0,0,1-.086.085c-.033.036-.049.085-.087.113a.321.321,0,0,0-.113.209.212.212,0,0,0,.012.155.135.135,0,0,1-.024.181.1.1,0,0,0-.032.079.274.274,0,0,0,.106.225.324.324,0,0,1,.123.2.242.242,0,0,0,.06.113.825.825,0,0,1,.145.213c.033.065.071.129.1.2a.674.674,0,0,0,.164.2s.013,0,.02.008c.051.021.1.04.152.064a.8.8,0,0,1,.242.189.158.158,0,0,1,.028.065,1.377,1.377,0,0,1,.037.348c.008.167.013.335.031.5a.269.269,0,0,1,0,.086.69.69,0,0,0,0,.221c.009.089.046.17.061.258a.687.687,0,0,1,0,.27,2.044,2.044,0,0,0-.026.22.085.085,0,0,0,.006.05.939.939,0,0,1,.082.288.39.39,0,0,0,.085.194.579.579,0,0,1,.128.337.222.222,0,0,0,.033.1.268.268,0,0,1,.04.115.417.417,0,0,0,.071.207c.009.011.011.027.019.039a1.268,1.268,0,0,0,.178.284c.054.053.11.1.2.065a.14.14,0,0,1,.17.093.072.072,0,0,0,.076.06.309.309,0,0,1,.092.011.424.424,0,0,0,.17.021c.029,0,.055,0,.06-.038s-.021-.046-.043-.059a.058.058,0,0,0-.028-.006.2.2,0,0,1-.1-.03.32.32,0,0,1-.165-.143.257.257,0,0,0-.075-.1c-.086-.077-.071-.1-.037-.173a.055.055,0,0,0,.009-.027c-.007-.054.03-.082.062-.115a.09.09,0,0,0-.031-.16.12.12,0,0,1-.051-.173.142.142,0,0,0,.029-.128.064.064,0,0,1,.021-.065.2.2,0,0,0,.05-.109.246.246,0,0,1,.047-.111.254.254,0,0,0,.048-.111.133.133,0,0,1,.09-.1c.017-.007.037-.011.054-.018.084-.031.158-.071.161-.176a.1.1,0,0,1,.008-.028.39.39,0,0,1,.126-.2.277.277,0,0,0,.089-.1c.029-.06.055-.123.08-.184a.306.306,0,0,1,.093-.158c.057-.038.043-.116.089-.159.01-.01.02-.021.031-.03a.1.1,0,0,0,.038-.082.371.371,0,0,0-.011-.113.209.209,0,0,1,.116-.293.321.321,0,0,1,.072-.031.208.208,0,0,0,.066-.028.312.312,0,0,1,.174-.058c.057,0,.123,0,.147-.075,0-.007.014-.013.022-.018a.07.07,0,0,0,.035-.073.156.156,0,0,1,.033-.107.227.227,0,0,0,.052-.139.2.2,0,0,1,.032-.142.094.094,0,0,0,.009-.056.284.284,0,0,1,0-.072.245.245,0,0,0-.006-.147.251.251,0,0,1,.032-.24,3.3,3.3,0,0,1,.218-.309.061.061,0,0,0,.014-.017.484.484,0,0,0,.057-.419A.138.138,0,0,0,1518.183,3491.707Z" transform="translate(-1511.551 -3483.036)" fill="#e3e9f7"/>
            <path id="Path_73392" data-name="Path 73392" d="M1581.36,3365.709c.109-.022.146-.081.12-.192-.016-.068,0-.088.061-.112a.382.382,0,0,0,.247-.23.117.117,0,0,1,.025-.051.131.131,0,0,0,.038-.111.07.07,0,0,1,.04-.078,1.333,1.333,0,0,1,.232-.093.6.6,0,0,0,.193-.053c.013-.007.025-.014.022-.032s-.016-.017-.027-.021a.4.4,0,0,0-.135-.008.717.717,0,0,1-.256-.025,2.2,2.2,0,0,0-.278-.065,1.263,1.263,0,0,0-.464,0,.642.642,0,0,1-.184.014,1.037,1.037,0,0,0-.265,0,3.1,3.1,0,0,1-.456.05.577.577,0,0,1-.121.009,3.75,3.75,0,0,0-.456.025.069.069,0,0,0-.028.007.528.528,0,0,1-.152.038c-.088.009-.169.052-.259.056-.022,0-.052,0-.062.03s-.043.037-.069.046a1.163,1.163,0,0,1-.241.033,1.254,1.254,0,0,0-.141.026.049.049,0,0,0-.042.057.154.154,0,0,0,.1.13.25.25,0,0,0,.148.015.8.8,0,0,1,.306.015.164.164,0,0,1,.14.158.2.2,0,0,1-.027.117.111.111,0,0,0,0,.122.888.888,0,0,0,.065.112c.038.045.026.069-.034.08a.211.211,0,0,0-.194.229c-.008.054.02.109.014.166a.341.341,0,0,0,.032.175c.016.035.035.068.053.1.025.049.033.054.09.041a.126.126,0,0,1,.129.041c.083.09.13.058.181,0a.623.623,0,0,0,.133-.158.1.1,0,0,1,.037-.044.335.335,0,0,0,.118-.132.211.211,0,0,1,.188-.122,1.209,1.209,0,0,0,.156-.019.677.677,0,0,0,.305-.135.208.208,0,0,1,.12-.061,2.529,2.529,0,0,0,.262-.042.611.611,0,0,0,.184-.058A.711.711,0,0,1,1581.36,3365.709Z" transform="translate(-1572.708 -3364.614)" fill="#e3e9f7"/>
            <path id="Path_73393" data-name="Path 73393" d="M1723.1,3536.687a.526.526,0,0,0-.052-.141c-.016-.033-.04-.036-.06-.006a1.132,1.132,0,0,0-.1.159.34.34,0,0,1-.252.222c-.031.006-.069.012-.085.047a.3.3,0,0,0-.055.167.891.891,0,0,0,.012.107.257.257,0,0,1-.058.227.2.2,0,0,0-.045.146.691.691,0,0,0,.028.2.172.172,0,0,0,.169.129.756.756,0,0,0,.128-.044.059.059,0,0,0,.031-.029.887.887,0,0,0,.064-.144,3.489,3.489,0,0,1,.116-.331,1.332,1.332,0,0,0,.093-.278.372.372,0,0,1,.054-.153.217.217,0,0,0,.027-.185A.823.823,0,0,1,1723.1,3536.687Z" transform="translate(-1708.537 -3527.096)" fill="#e3e9f7"/>
            <path id="Path_73394" data-name="Path 73394" d="M1645.111,3403.224a.369.369,0,0,0,.1.073.1.1,0,0,1,.054.087c0,.038-.038.035-.066.04a.065.065,0,0,0-.06.061c0,.017-.007.033-.009.05a1.127,1.127,0,0,1-.043.158c-.013.049.014.073.064.059l.02-.009a.428.428,0,0,1,.24-.056.385.385,0,0,0,.13-.037c.016-.007.031-.017.031-.036s.02-.042.037-.058c.049-.051.045-.085-.02-.1a.094.094,0,0,1-.071-.078.12.12,0,0,0-.055-.088.07.07,0,0,1-.023-.026.438.438,0,0,1-.071-.228.138.138,0,0,0-.152-.137.115.115,0,0,0-.122.063.174.174,0,0,0-.044.142A.227.227,0,0,0,1645.111,3403.224Z" transform="translate(-1635.422 -3400.793)" fill="#e3e9f7"/>
            <path id="Path_73395" data-name="Path 73395" d="M1624.769,3389.537c-.035,0-.071,0-.106.009a.518.518,0,0,1-.275,0,.163.163,0,0,0-.176.046c-.023.02-.025.04,0,.059a.176.176,0,0,1,.059.087.085.085,0,0,0,.078.063.574.574,0,0,1,.183.03.092.092,0,0,0,.019,0,.135.135,0,0,0,.03-.01,1.214,1.214,0,0,1,.274-.1.14.14,0,0,0,.068-.049.044.044,0,0,0,0-.064A.175.175,0,0,0,1624.769,3389.537Z" transform="translate(-1615.706 -3388.169)" fill="#e3e9f7"/>
            <path id="Path_73396" data-name="Path 73396" d="M1512.043,3469.349a.588.588,0,0,0,.133.1.07.07,0,0,1,.035.05c.012.05.023.061.067.048a.129.129,0,0,1,.115.019.1.1,0,0,0,.109-.006c.041-.026.042-.049,0-.075-.024-.017-.051-.027-.075-.043-.047-.032-.109-.044-.147-.087a.566.566,0,0,0-.238-.141.362.362,0,0,0-.17-.038.42.42,0,0,0-.143.026.219.219,0,0,0-.117.066c-.017.017-.047.039-.032.066s.047,0,.07,0c.045-.007.082-.042.129-.04a1.643,1.643,0,0,1,.238.044A.05.05,0,0,1,1512.043,3469.349Z" transform="translate(-1509.262 -3463.438)" fill="#e3e9f7"/>
            <path id="Path_73397" data-name="Path 73397" d="M1638.789,3408.933a.2.2,0,0,0-.2.01.213.213,0,0,1-.1.06c-.048.009-.055.016-.048.067a.147.147,0,0,1-.026.115.06.06,0,0,0,0,.079c.017.025.035.046.067.042a.1.1,0,0,0,.062-.021.254.254,0,0,1,.139-.052.048.048,0,0,0,.043-.032.186.186,0,0,0,.026-.081.083.083,0,0,1,.035-.073A.068.068,0,0,0,1638.789,3408.933Z" transform="translate(-1629.144 -3406.484)" fill="#e3e9f7"/>
            <path id="Path_73398" data-name="Path 73398" d="M1528.089,3475.745c-.031,0-.061.009-.092.015a.028.028,0,0,0-.026.029.026.026,0,0,0,.023.023.873.873,0,0,0,.276.031l.2-.039c.022,0,.044-.008.048-.034s-.016-.041-.036-.056c-.055-.039-.126-.041-.179-.084-.011-.008-.033,0-.049,0l-.051,0a.19.19,0,0,0-.042,0c-.027.005-.06-.023-.079.008s.019.044.029.066S1528.119,3475.742,1528.089,3475.745Z" transform="translate(-1524.757 -3469.537)" fill="#e3e9f7"/>
          </g>
        </g>
        <path id="Path_73399" data-name="Path 73399" d="M1538.691,3412.785a8.03,8.03,0,0,1-12.863,6.412q.539.013,1.044-.011c.173-.008.343-.019.509-.033a9.788,9.788,0,0,0,6.523-2.977,11.722,11.722,0,0,0,2.388-3.886c.04-.105.08-.21.117-.315a16.623,16.623,0,0,0,.859-3.754h0a7.962,7.962,0,0,1,.513.848c.036.069.071.138.1.207l.034.07.033.071c.044.093.085.188.125.283s.078.192.114.29c.045.121.088.245.127.369l.023.075c.039.125.074.251.106.378.02.077.038.154.055.231.01.049.021.1.031.146l0,.02A8.047,8.047,0,0,1,1538.691,3412.785Z" transform="translate(-1522.633 -3404.756)" fill="#0f31ac" opacity="0.1"/>
        <path id="Path_73400" data-name="Path 73400" d="M1619.109,3391.261a.068.068,0,0,0-.064,0,.07.07,0,0,1-.031.02c-.016,0-.018,0-.016.022a.048.048,0,0,1-.009.038.02.02,0,0,0,0,.026c.006.008.012.015.022.014a.032.032,0,0,0,.02-.007.087.087,0,0,1,.046-.017.016.016,0,0,0,.015-.011.062.062,0,0,0,.009-.026.028.028,0,0,1,.011-.024A.023.023,0,0,0,1619.109,3391.261Z" transform="translate(-1610.683 -3388.719)" fill="#e3e9f7"/>
      </g>
    </g>
    <g id="Group_60891" data-name="Group 60891" transform="translate(82.381 94.807)">
      <path id="Path_73401" data-name="Path 73401" d="M1411.211,1713.849a7.4,7.4,0,0,1-2.737,5.633,10.188,10.188,0,0,1-6.609,2.333H1300.346c-5.162,0-9.346-3.567-9.346-7.966a7.4,7.4,0,0,1,2.737-5.633,10.187,10.187,0,0,1,6.609-2.333h101.518C1407.026,1705.883,1411.211,1709.449,1411.211,1713.849Z" transform="translate(-1291 -1705.205)" opacity="0.15"/>
      <path id="Path_73402" data-name="Path 73402" d="M1411.211,1697.846a7.4,7.4,0,0,1-2.737,5.633,10.189,10.189,0,0,1-6.609,2.333H1300.346c-5.162,0-9.346-3.566-9.346-7.966a7.4,7.4,0,0,1,2.737-5.633,10.187,10.187,0,0,1,6.609-2.333h101.518C1407.026,1689.88,1411.211,1693.446,1411.211,1697.846Z" transform="translate(-1291 -1689.88)" fill="#edeff2"/>
      <path id="Path_73403" data-name="Path 73403" d="M3350.742,1697.908a7.414,7.414,0,0,1-2.737,5.571,10.189,10.189,0,0,1-6.609,2.333h-.083c-5.143,0-9.313-3.554-9.313-7.937v-.057c0-4.384,4.169-7.937,9.313-7.937h0C3346.493,1689.88,3350.781,1693.493,3350.742,1697.908Z" transform="translate(-3230.531 -1689.88)" fill="#fff"/>
      <g id="Group_60889" data-name="Group 60889" transform="translate(105.695 3.475)">
        <path id="Path_73404" data-name="Path 73404" d="M3427.091,1779.776l-4.162-3.532a2.852,2.852,0,0,0,.36-1.388,3.138,3.138,0,1,0-3.134,2.977,3.227,3.227,0,0,0,1.932-.633l4.131,3.5a.679.679,0,0,0,.925-.049h0A.6.6,0,0,0,3427.091,1779.776Zm-6.936-2.484a2.439,2.439,0,1,1,2.564-2.435A2.506,2.506,0,0,1,3420.155,1777.292Z" transform="translate(-3417.021 -1771.88)" fill="#5d718d"/>
      </g>
      <g id="Group_60890" data-name="Group 60890" transform="translate(9.854 5.51)">
        <path id="Path_73406" data-name="Path 73406" d="M1492.688,1828.6a1.112,1.112,0,0,1-.519.968,2.54,2.54,0,0,1-1.444.354,3.9,3.9,0,0,1-1.507-.273v-.894a7.013,7.013,0,0,0,.912.289,3.147,3.147,0,0,0,.683.083,1.1,1.1,0,0,0,.57-.121.4.4,0,0,0,.2-.36.36.36,0,0,0-.087-.238.934.934,0,0,0-.257-.2,7.118,7.118,0,0,0-.69-.307,3.413,3.413,0,0,1-.732-.375,1.471,1.471,0,0,1-.389-.419,1.052,1.052,0,0,1-.146-.558,1.1,1.1,0,0,1,.479-.947,2.231,2.231,0,0,1,1.323-.344,3.645,3.645,0,0,1,.792.083,6.18,6.18,0,0,1,.788.236l-.364.748a6.036,6.036,0,0,0-.7-.208,2.653,2.653,0,0,0-.548-.059.815.815,0,0,0-.492.127.4.4,0,0,0-.171.332.368.368,0,0,0,.069.222.722.722,0,0,0,.22.183,7.356,7.356,0,0,0,.715.318,2.884,2.884,0,0,1,1.023.61A1.075,1.075,0,0,1,1492.688,1828.6Z" transform="translate(-1489.218 -1825.029)" fill="#274268"/>
        <path id="Path_73407" data-name="Path 73407" d="M1573.78,1854.048a2.326,2.326,0,0,1-1.537-.462,1.611,1.611,0,0,1-.553-1.31,1.751,1.751,0,0,1,.512-1.348,2.352,2.352,0,0,1,2.758-.058,1.455,1.455,0,0,1,.481,1.158v.459h-2.626a.842.842,0,0,0,.281.63,1.09,1.09,0,0,0,.736.227,3.568,3.568,0,0,0,.7-.065,3.916,3.916,0,0,0,.685-.208v.732a2.93,2.93,0,0,1-.623.185A4.6,4.6,0,0,1,1573.78,1854.048Zm-.157-2.923a.769.769,0,0,0-.553.191.812.812,0,0,0-.229.542h1.559a.721.721,0,0,0-.215-.542A.8.8,0,0,0,1573.623,1851.124Z" transform="translate(-1567.59 -1849.157)" fill="#274268"/>
        <path id="Path_73408" data-name="Path 73408" d="M1662.728,1853.846l-.215-.472h-.029a1.6,1.6,0,0,1-.577.417,2.151,2.151,0,0,1-.774.116,1.382,1.382,0,0,1-.923-.286,1.008,1.008,0,0,1-.337-.813.875.875,0,0,1,.453-.814,2.983,2.983,0,0,1,1.367-.29l.706-.019v-.152q0-.528-.634-.528a3.3,3.3,0,0,0-1.147.251l-.368-.639a3.787,3.787,0,0,1,1.559-.313,2.188,2.188,0,0,1,1.256.3,1.051,1.051,0,0,1,.437.925v2.312Zm-.328-1.608-.43.013a1.564,1.564,0,0,0-.721.149.448.448,0,0,0-.236.416q0,.4.539.4a.944.944,0,0,0,.617-.19.616.616,0,0,0,.231-.5Z" transform="translate(-1651.389 -1849.017)" fill="#274268"/>
        <path id="Path_73409" data-name="Path 73409" d="M1758.165,1850.451a2.117,2.117,0,0,1,.375.027l-.084.888a1.5,1.5,0,0,0-.328-.031,1.312,1.312,0,0,0-.828.233.781.781,0,0,0-.3.651v1.766h-1.11v-3.47h.841l.164.584h.055a1.45,1.45,0,0,1,1.213-.648Z" transform="translate(-1742.635 -1849.157)" fill="#274268"/>
        <path id="Path_73410" data-name="Path 73410" d="M1820.927,1854.048q-1.9,0-1.9-1.778a1.728,1.728,0,0,1,.517-1.352,2.136,2.136,0,0,1,1.482-.467,3.243,3.243,0,0,1,1.267.236l-.328.732q-.262-.09-.488-.148a1.826,1.826,0,0,0-.451-.057q-.866,0-.866,1.049,0,1.018.866,1.018a2.182,2.182,0,0,0,1.14-.3v.81a1.973,1.973,0,0,1-.544.2A3.579,3.579,0,0,1,1820.927,1854.048Z" transform="translate(-1802.63 -1849.157)" fill="#274268"/>
        <path id="Path_73411" data-name="Path 73411" d="M1904.891,1824.737h-1.111v-2.026q0-.751-.655-.751a.8.8,0,0,0-.674.27,1.449,1.449,0,0,0-.208.875v1.632h-1.11v-4.829h1.11v.984c0,.077-.008.256-.026.54l-.025.279h.058a1.363,1.363,0,0,1,1.18-.509,1.6,1.6,0,0,1,1.089.329,1.194,1.194,0,0,1,.371.944Z" transform="translate(-1880.654 -1819.908)" fill="#274268"/>
        <path id="Path_73412" data-name="Path 73412" d="M1996.567,1911.477a.479.479,0,0,1,.164-.394.741.741,0,0,1,.477-.134.718.718,0,0,1,.468.137.537.537,0,0,1,0,.777.7.7,0,0,1-.466.141.726.726,0,0,1-.473-.138A.477.477,0,0,1,1996.567,1911.477Z" transform="translate(-1971.344 -1907.091)" fill="#274268"/>
        <path id="Path_73413" data-name="Path 73413" d="M2039.341,1911.477a.479.479,0,0,1,.164-.394.741.741,0,0,1,.477-.134.717.717,0,0,1,.468.137.536.536,0,0,1,0,.777.7.7,0,0,1-.466.141.727.727,0,0,1-.474-.138A.478.478,0,0,1,2039.341,1911.477Z" transform="translate(-2011.992 -1907.091)" fill="#274268"/>
        <path id="Path_73414" data-name="Path 73414" d="M2082.114,1911.477a.478.478,0,0,1,.164-.394.739.739,0,0,1,.477-.134.717.717,0,0,1,.468.137.536.536,0,0,1,0,.777.7.7,0,0,1-.466.141.726.726,0,0,1-.473-.138A.478.478,0,0,1,2082.114,1911.477Z" transform="translate(-2052.638 -1907.091)" fill="#274268"/>
      </g>
    </g>
  </g>
</svg>
