<svg xmlns="http://www.w3.org/2000/svg" xmlns:xlink="http://www.w3.org/1999/xlink" width="480" height="389" viewBox="0 0 480 389">
  <defs>
    <clipPath id="clip-path">
      <rect id="Rectangle_18731" data-name="Rectangle 18731" width="480" height="389" transform="translate(393 127)" fill="#fff" stroke="#707070" stroke-width="1"/>
    </clipPath>
  </defs>
  <g id="Mask_Group_79" data-name="Mask Group 79" transform="translate(-393 -127)" clip-path="url(#clip-path)">
    <g id="Group_235130" data-name="Group 235130" transform="translate(0 39.825)">
      <g id="Group_235129" data-name="Group 235129">
        <path id="Path_36241" data-name="Path 36241" d="M75.5-112.3c27.2,45.2,57.6,64.4,81.6,99.6,24.1,35.1,41.7,86.4,23.6,116.3s-72,38.3-116.4,40.2C20,145.7-14.8,141-56.4,134.6c-41.6-6.3-90-14.2-103.4-40.7s8.2-71.7,17.7-117.8c9.6-46,7.1-93,28.7-139.2,21.7-46.2,67.5-91.5,102.5-78.6,35,13,59.1,84.2,86.4,129.4" transform="translate(603.532 302.089) rotate(121)" fill="#b9d8fb" opacity="0.16"/>
        <g id="Group_235101" data-name="Group 235101" transform="translate(448 115.991)">
          <g id="Background_Complete" data-name="Background Complete" transform="translate(0 54.953)">
            <g id="Group_235084" data-name="Group 235084">
              <g id="Group_235082" data-name="Group 235082">
                <rect id="Rectangle_18717" data-name="Rectangle 18717" width="383.856" height="0.192" transform="translate(0 251.384)" fill="#ebebeb"/>
                <path id="Path_82591" data-name="Path 82591" d="M190.833,272.1H42.589a4.387,4.387,0,0,1-4.382-4.382V59.334a4.387,4.387,0,0,1,4.382-4.381H190.833a4.387,4.387,0,0,1,4.381,4.381V267.716A4.387,4.387,0,0,1,190.833,272.1ZM42.589,55.145a4.194,4.194,0,0,0-4.19,4.189V267.716a4.194,4.194,0,0,0,4.19,4.19H190.833a4.194,4.194,0,0,0,4.189-4.19V59.334a4.194,4.194,0,0,0-4.189-4.189Z" transform="translate(-8.875 -54.953)" fill="#ebebeb"/>
                <path id="Path_82592" data-name="Path 82592" d="M407.13,272.1H258.886a4.387,4.387,0,0,1-4.381-4.382V59.334a4.386,4.386,0,0,1,4.381-4.381H407.13a4.387,4.387,0,0,1,4.383,4.381V267.716A4.388,4.388,0,0,1,407.13,272.1ZM258.886,55.145a4.194,4.194,0,0,0-4.189,4.189V267.716a4.194,4.194,0,0,0,4.189,4.19H407.13a4.2,4.2,0,0,0,4.191-4.19V59.334a4.2,4.2,0,0,0-4.191-4.189Z" transform="translate(-59.119 -54.953)" fill="#ebebeb"/>
              </g>
              <g id="Group_235083" data-name="Group 235083" transform="translate(39.367 256.612)">
                <rect id="Rectangle_18718" data-name="Rectangle 18718" width="19.958" height="0.192" transform="translate(0 2.083)" fill="#ebebeb"/>
                <rect id="Rectangle_18719" data-name="Rectangle 18719" width="34.568" height="0.192" transform="translate(72.068 0)" fill="#ebebeb"/>
                <rect id="Rectangle_18720" data-name="Rectangle 18720" width="46.671" height="0.192" transform="translate(20.727 9.212)" fill="#ebebeb"/>
                <rect id="Rectangle_18721" data-name="Rectangle 18721" width="14.767" height="0.192" transform="translate(290.354 7.922)" fill="#ebebeb"/>
                <rect id="Rectangle_18722" data-name="Rectangle 18722" width="42.448" height="0.192" transform="translate(241.071 7.922)" fill="#ebebeb"/>
                <rect id="Rectangle_18723" data-name="Rectangle 18723" width="57.169" height="0.192" transform="translate(157.97 4.681)" fill="#ebebeb"/>
              </g>
            </g>
            <g id="Group_235088" data-name="Group 235088" transform="translate(37.206 21.529)">
              <g id="Group_235085" data-name="Group 235085" transform="translate(86.4 101.679)">
                <path id="Path_82593" data-name="Path 82593" d="M187.893,215.44l-9.715,128.177h93.645l9.715-128.177Zm58.888,90.6a20.772,20.772,0,0,1-20.367,18.932,17.3,17.3,0,0,1-17.5-18.932l3.416-45.065A20.779,20.779,0,0,1,232.7,242.034a17.309,17.309,0,0,1,17.5,18.939Z" transform="translate(-164.994 -215.44)" fill="#e6e6e6"/>
                <path id="Path_82594" data-name="Path 82594" d="M297.558,379.854H161.005l.787-8.41H298.344Z" transform="translate(-161.005 -251.678)" fill="#e6e6e6"/>
              </g>
              <g id="Group_235087" data-name="Group 235087">
                <path id="Path_82595" data-name="Path 82595" d="M406.812,319.386H418.9a1.186,1.186,0,0,0,1.193-1.256l-.043-.858a1.339,1.339,0,0,0-1.319-1.256H406.644a1.186,1.186,0,0,0-1.193,1.256l.043.858A1.339,1.339,0,0,0,406.812,319.386Z" transform="translate(-131.387 -137.124)" fill="#e0e0e0"/>
                <path id="Path_82596" data-name="Path 82596" d="M380.473,319.386h12.092a1.186,1.186,0,0,0,1.193-1.256l-.043-.858a1.339,1.339,0,0,0-1.319-1.256H380.3a1.187,1.187,0,0,0-1.193,1.256l.043.858A1.339,1.339,0,0,0,380.473,319.386Z" transform="translate(-125.269 -137.124)" fill="#e0e0e0"/>
                <path id="Path_82597" data-name="Path 82597" d="M345.385,264.308H63.155a6.265,6.265,0,0,1-6.189-5.894L48.471,88.89A5.551,5.551,0,0,1,54.069,83H336.3a6.265,6.265,0,0,1,6.189,5.894l8.5,169.525A5.551,5.551,0,0,1,345.385,264.308Z" transform="translate(-48.463 -82.996)" fill="#e0e0e0"/>
                <path id="Path_82598" data-name="Path 82598" d="M349.89,264.308H67.66a6.265,6.265,0,0,1-6.189-5.894L52.976,88.89A5.551,5.551,0,0,1,58.574,83H340.8a6.265,6.265,0,0,1,6.189,5.894l8.5,169.525A5.551,5.551,0,0,1,349.89,264.308Z" transform="translate(-49.51 -82.996)" fill="#e6e6e6"/>
                <path id="Path_82599" data-name="Path 82599" d="M71.864,254.94l-7.9-157.65A3.479,3.479,0,0,1,67.471,93.6H337.827a3.925,3.925,0,0,1,3.878,3.693l7.9,157.65a3.478,3.478,0,0,1-3.508,3.693H75.743A3.925,3.925,0,0,1,71.864,254.94Z" transform="translate(-52.063 -85.458)" fill="#f5f5f5"/>
                <path id="Path_82600" data-name="Path 82600" d="M83.684,103.114a3.078,3.078,0,0,1-3.1,3.267,3.474,3.474,0,0,1-3.431-3.267,3.077,3.077,0,0,1,3.1-3.267A3.473,3.473,0,0,1,83.684,103.114Z" transform="translate(-55.126 -86.91)" fill="#fff"/>
                <path id="Path_82601" data-name="Path 82601" d="M102.956,103.114a3.078,3.078,0,0,1-3.1,3.267,3.474,3.474,0,0,1-3.431-3.267,3.077,3.077,0,0,1,3.1-3.267A3.473,3.473,0,0,1,102.956,103.114Z" transform="translate(-59.602 -86.91)" fill="#fff"/>
                <path id="Path_82602" data-name="Path 82602" d="M122.229,103.114a3.078,3.078,0,0,1-3.1,3.267,3.474,3.474,0,0,1-3.431-3.267,3.077,3.077,0,0,1,3.1-3.267A3.473,3.473,0,0,1,122.229,103.114Z" transform="translate(-64.079 -86.91)" fill="#fff"/>
                <g id="Group_235086" data-name="Group 235086" transform="translate(47.915 8.138)" opacity="0.6">
                  <path id="Path_82603" data-name="Path 82603" d="M110.875,258.633h38.961L185.459,93.6H146.5Z" transform="translate(-110.875 -93.596)" fill="#fff"/>
                  <path id="Path_82604" data-name="Path 82604" d="M329.284,258.633h9.861L374.767,93.6h-9.861Z" transform="translate(-161.609 -93.596)" fill="#fff"/>
                  <path id="Path_82605" data-name="Path 82605" d="M172.908,258.633h55.277L263.807,93.6H208.53Z" transform="translate(-125.285 -93.596)" fill="#fff"/>
                </g>
              </g>
            </g>
          </g>
          <g id="Shadow" transform="translate(43.077 323.623)">
            <ellipse id="_Path_" data-name="&lt;Path&gt;" cx="148.851" cy="8.693" rx="148.851" ry="8.693" transform="translate(0 0)" fill="#f5f5f5"/>
          </g>
          <g id="Character" transform="translate(76.097 96.935)">
            <g id="Group_235100" data-name="Group 235100">
              <g id="Group_235094" data-name="Group 235094" transform="translate(0 0.346)">
                <path id="Path_82606" data-name="Path 82606" d="M349.669,250.39c-.094,0-.187,0-.28-.012-20.446-1.674-34.522-19.152-35.111-19.9a3.429,3.429,0,0,1,5.372-4.264c.165.206,12.209,15.055,28.886,17.175,5.409-5.367,9.965-19.564,9.467-23.858q-.007-.059-.012-.12c-.111-1.383-.369-6.114.99-8.939a3.429,3.429,0,1,1,6.181,2.973,15.93,15.93,0,0,0-.338,5.368c.763,7.064-5.361,24.892-13.053,30.852A3.425,3.425,0,0,1,349.669,250.39Z" transform="translate(-148.927 -132.956)" fill="#263238"/>
                <path id="Path_82607" data-name="Path 82607" d="M137.279,218.334a50.534,50.534,0,0,1-37.284-17.1,3.432,3.432,0,0,1-.2-4.333c5.54-7.452,15.324-25.058,16.848-30.8a8.35,8.35,0,0,0-3.18-3.323,3.429,3.429,0,0,1-1.955-2.766l-.555-5.623a3.429,3.429,0,1,1,6.825-.675l.386,3.908a17.053,17.053,0,0,1,5.224,6.636,3.416,3.416,0,0,1,.249,1.734c-.706,6.094-10.587,23.722-16.666,32.636a42.918,42.918,0,0,0,31.905,12.792,3.429,3.429,0,0,1,.626,6.83C139.347,218.268,138.559,218.334,137.279,218.334Z" transform="translate(-99.122 -119.504)" fill="#263238"/>
                <path id="Path_82608" data-name="Path 82608" d="M288.491,396.538H279.3a3.43,3.43,0,0,1-3.3-4.349,128.679,128.679,0,0,0,4.464-26.644c-3.252-15.316-6.317-29.336-6.347-29.478a3.429,3.429,0,0,1,6.7-1.465c.031.144,3.165,14.48,6.46,30.005a3.4,3.4,0,0,1,.064.981,141.442,141.442,0,0,1-3.59,24.091h4.742a3.429,3.429,0,1,1,0,6.859Z" transform="translate(-139.752 -161.614)" fill="#263238"/>
                <path id="Path_82609" data-name="Path 82609" d="M197.716,396.537h-5.19a3.429,3.429,0,0,1-3.4-3.9c.879-6.3,5.4-17.761,10.207-29.284,1.714-15.2,3.115-28.252,3.129-28.383a3.429,3.429,0,0,1,6.82.732c-.015.132-1.448,13.478-3.188,28.905a3.444,3.444,0,0,1-.243.937c-3.406,8.159-7.286,17.769-9.061,24.137h.922a3.429,3.429,0,1,1,0,6.859Z" transform="translate(-120.022 -161.613)" fill="#263238"/>
                <g id="Group_235089" data-name="Group 235089" transform="translate(38.585)">
                  <path id="Path_82610" data-name="Path 82610" d="M191.68,110.98l-39.971,39.972c-2.011,44.308-1.846,90.844,0,139.1H283.88c-2.616-62.267-2.865-122.2,0-179.071Z" transform="translate(-149.586 -110.295)" fill="#fff"/>
                  <path id="Path_82611" data-name="Path 82611" d="M283.676,290.529H151.5a.686.686,0,0,1-.685-.659c-1.916-50.1-1.916-96.921,0-139.156a.685.685,0,0,1,.2-.454l39.972-39.971a.683.683,0,0,1,.484-.2h92.2a.685.685,0,0,1,.684.719c-2.76,54.772-2.76,113.327,0,179.007a.683.683,0,0,1-.684.714Zm-131.512-1.37h130.8c-2.72-65.147-2.722-123.29-.006-177.7h-91.2l-39.582,39.583C150.282,192.983,150.278,239.447,152.164,289.158Z" transform="translate(-149.382 -110.088)" fill="#263238"/>
                </g>
                <g id="Group_235091" data-name="Group 235091" transform="translate(66.532 128.065)">
                  <g id="Group_235090" data-name="Group 235090" transform="translate(0 0)">
                    <path id="Path_82612" data-name="Path 82612" d="M202.854,284.965l1.44-.126a3.343,3.343,0,0,0,.547,1.427,2.792,2.792,0,0,0,1.209.9,4.54,4.54,0,0,0,1.795.344,4.182,4.182,0,0,0,1.536-.26,2.018,2.018,0,0,0,.967-.716,1.6,1.6,0,0,0,.28-.993,1.575,1.575,0,0,0-.362-.952,2.5,2.5,0,0,0-1.076-.684,21.346,21.346,0,0,0-2.09-.566,10.97,10.97,0,0,1-2.271-.722,3.354,3.354,0,0,1-1.289-1.079,2.748,2.748,0,0,1-.476-1.443,2.839,2.839,0,0,1,.419-1.639,2.88,2.88,0,0,1,1.4-1.158,5.366,5.366,0,0,1,2.107-.4,5.966,5.966,0,0,1,2.292.415,3.507,3.507,0,0,1,1.572,1.221,3.647,3.647,0,0,1,.656,1.826l-1.465.111a2.508,2.508,0,0,0-.881-1.661,3.243,3.243,0,0,0-2.047-.561,3.134,3.134,0,0,0-2,.51,1.453,1.453,0,0,0-.577,1.23,1.388,1.388,0,0,0,.5,1.027,6.391,6.391,0,0,0,2.352.826,15.866,15.866,0,0,1,2.6.739,3.768,3.768,0,0,1,1.55,1.181,3,3,0,0,1,.561,1.648,3.049,3.049,0,0,1-.447,1.744,3.263,3.263,0,0,1-1.46,1.272,5.154,5.154,0,0,1-2.212.454,6.833,6.833,0,0,1-2.658-.458,3.95,3.95,0,0,1-1.733-1.38A4.076,4.076,0,0,1,202.854,284.965Z" transform="translate(-189.75 -276.902)" fill="#263238"/>
                    <path id="Path_82613" data-name="Path 82613" d="M223,286.953l1.479.183a3.366,3.366,0,0,1-1.192,2,3.726,3.726,0,0,1-2.369.712,4.02,4.02,0,0,1-2.975-1.134,4.634,4.634,0,0,1-1.231-3.181,4.456,4.456,0,0,1,.934-3.288,3.519,3.519,0,0,1,2.774-1.171,3.768,3.768,0,0,1,2.806,1.146,4.759,4.759,0,0,1,1.221,3.226c0,.084.008.21.011.379H218.2a3.376,3.376,0,0,0,.884,2.118,2.445,2.445,0,0,0,1.79.735,2.09,2.09,0,0,0,1.317-.412A2.553,2.553,0,0,0,223,286.953Zm-4.781-2.3h4.687a2.978,2.978,0,0,0-.613-1.588,2.294,2.294,0,0,0-1.8-.821,2.154,2.154,0,0,0-1.617.656A2.473,2.473,0,0,0,218.223,284.653Z" transform="translate(-192.968 -277.871)" fill="#263238"/>
                    <path id="Path_82614" data-name="Path 82614" d="M229.179,289.657l-.4-8.395h1.281l.061,1.274a3.248,3.248,0,0,1,.848-1.178,1.522,1.522,0,0,1,.9-.285,2.883,2.883,0,0,1,1.485.459l-.428,1.32a2.1,2.1,0,0,0-1.058-.309,1.3,1.3,0,0,0-.825.282,1.424,1.424,0,0,0-.492.778,5.462,5.462,0,0,0-.158,1.659l.21,4.4Z" transform="translate(-195.772 -277.871)" fill="#263238"/>
                    <path id="Path_82615" data-name="Path 82615" d="M238.292,289.714l-3.6-8.395h1.5l2.044,5.027q.331.815.618,1.692.158-.663.453-1.6l1.621-5.122H242.4l-2.776,8.395Z" transform="translate(-197.147 -277.928)" fill="#263238"/>
                    <path id="Path_82616" data-name="Path 82616" d="M246.252,278.8l-.078-1.636H247.6l.078,1.636Zm.476,9.952-.4-8.395h1.423l.4,8.395Z" transform="translate(-199.813 -276.962)" fill="#263238"/>
                    <path id="Path_82617" data-name="Path 82617" d="M256.707,286.582l1.408.182a3.437,3.437,0,0,1-1.066,2.264,3.278,3.278,0,0,1-2.282.818,3.777,3.777,0,0,1-2.824-1.126,4.777,4.777,0,0,1-1.2-3.229,5.686,5.686,0,0,1,.337-2.379,2.933,2.933,0,0,1,1.3-1.529,3.936,3.936,0,0,1,1.98-.511,3.622,3.622,0,0,1,2.269.692,3.372,3.372,0,0,1,1.209,1.964l-1.373.214a2.447,2.447,0,0,0-.76-1.273,1.888,1.888,0,0,0-1.234-.426,2.1,2.1,0,0,0-1.71.77,3.531,3.531,0,0,0-.554,2.439,3.927,3.927,0,0,0,.765,2.458,2.217,2.217,0,0,0,1.728.767,1.9,1.9,0,0,0,1.374-.514A2.427,2.427,0,0,0,256.707,286.582Z" transform="translate(-200.872 -277.871)" fill="#263238"/>
                    <path id="Path_82618" data-name="Path 82618" d="M267.526,286.953l1.479.183a3.37,3.37,0,0,1-1.192,2,3.727,3.727,0,0,1-2.369.712,4.018,4.018,0,0,1-2.975-1.134,4.631,4.631,0,0,1-1.231-3.181,4.456,4.456,0,0,1,.933-3.288,3.52,3.52,0,0,1,2.774-1.171,3.769,3.769,0,0,1,2.807,1.146,4.771,4.771,0,0,1,1.221,3.226c0,.084.007.21.009.379h-6.26a3.384,3.384,0,0,0,.884,2.118,2.446,2.446,0,0,0,1.789.735,2.088,2.088,0,0,0,1.317-.412A2.549,2.549,0,0,0,267.526,286.953Zm-4.782-2.3h4.688a2.984,2.984,0,0,0-.613-1.588,2.3,2.3,0,0,0-1.8-.821,2.152,2.152,0,0,0-1.616.656A2.47,2.47,0,0,0,262.744,284.653Z" transform="translate(-203.31 -277.871)" fill="#263238"/>
                    <path id="Path_82619" data-name="Path 82619" d="M191.72,310.8l-.059-1.234a2.908,2.908,0,0,1-2.6,1.423,3.477,3.477,0,0,1-1.4-.284,2.439,2.439,0,0,1-.99-.716,2.816,2.816,0,0,1-.49-1.055,7.332,7.332,0,0,1-.15-1.327l-.249-5.2h1.423l.223,4.656a8.375,8.375,0,0,0,.158,1.5,1.58,1.58,0,0,0,.612.881,1.83,1.83,0,0,0,1.09.319,2.262,2.262,0,0,0,1.185-.327,1.7,1.7,0,0,0,.752-.894,4.393,4.393,0,0,0,.154-1.639l-.216-4.5h1.423l.4,8.4Z" transform="translate(-185.785 -282.826)" fill="#263238"/>
                    <path id="Path_82620" data-name="Path 82620" d="M197.956,310.744l-.4-8.4h1.281l.057,1.195a2.86,2.86,0,0,1,2.606-1.383,3.6,3.6,0,0,1,1.408.273,2.356,2.356,0,0,1,.987.715,2.908,2.908,0,0,1,.493,1.052,8.261,8.261,0,0,1,.145,1.383l.247,5.162h-1.423l-.244-5.107a3.919,3.919,0,0,0-.228-1.3,1.464,1.464,0,0,0-.622-.687,1.939,1.939,0,0,0-1-.257,2.2,2.2,0,0,0-1.542.577,2.736,2.736,0,0,0-.555,2.19l.219,4.585Z" transform="translate(-188.519 -282.769)" fill="#263238"/>
                    <path id="Path_82621" data-name="Path 82621" d="M215.054,309.707a4.988,4.988,0,0,1-1.476.95,4.3,4.3,0,0,1-1.556.276,3.175,3.175,0,0,1-2.159-.676,2.347,2.347,0,0,1-.826-1.727,2.232,2.232,0,0,1,.227-1.126,2.154,2.154,0,0,1,.7-.818,3.267,3.267,0,0,1,1-.467,10.165,10.165,0,0,1,1.254-.213,12.707,12.707,0,0,0,2.514-.49c0-.2-.008-.319-.011-.372a1.645,1.645,0,0,0-.461-1.226,2.48,2.48,0,0,0-1.644-.481,2.436,2.436,0,0,0-1.465.351,2.032,2.032,0,0,0-.649,1.246l-1.4-.19a3.282,3.282,0,0,1,.555-1.443,2.573,2.573,0,0,1,1.217-.845,5.488,5.488,0,0,1,1.891-.3,5.163,5.163,0,0,1,1.759.253,2.458,2.458,0,0,1,1.018.636,2.382,2.382,0,0,1,.49.969,8.274,8.274,0,0,1,.134,1.313l.091,1.9a20.366,20.366,0,0,0,.211,2.509,3.315,3.315,0,0,0,.408,1.009h-1.486A3.139,3.139,0,0,1,215.054,309.707Zm-.271-3.177a10.091,10.091,0,0,1-2.3.537,5.16,5.16,0,0,0-1.228.285,1.157,1.157,0,0,0-.539.461,1.178,1.178,0,0,0-.165.676,1.278,1.278,0,0,0,.476.949,1.931,1.931,0,0,0,1.279.379,2.843,2.843,0,0,0,1.446-.359,2.066,2.066,0,0,0,.893-.984,3.37,3.37,0,0,0,.162-1.423Z" transform="translate(-191.186 -282.769)" fill="#263238"/>
                    <path id="Path_82622" data-name="Path 82622" d="M223.481,310.8l-3.6-8.4h1.5l2.043,5.028q.331.814.618,1.691.159-.663.453-1.6l1.621-5.123h1.462l-2.776,8.4Z" transform="translate(-193.706 -282.826)" fill="#263238"/>
                    <path id="Path_82623" data-name="Path 82623" d="M237.325,309.707a4.976,4.976,0,0,1-1.476.95,4.3,4.3,0,0,1-1.556.276,3.174,3.174,0,0,1-2.159-.676,2.347,2.347,0,0,1-.826-1.727,2.232,2.232,0,0,1,.227-1.126,2.154,2.154,0,0,1,.7-.818,3.267,3.267,0,0,1,1-.467,10.166,10.166,0,0,1,1.254-.213,12.707,12.707,0,0,0,2.514-.49c0-.2-.008-.319-.011-.372a1.645,1.645,0,0,0-.461-1.226,2.48,2.48,0,0,0-1.644-.481,2.441,2.441,0,0,0-1.466.351,2.035,2.035,0,0,0-.648,1.246l-1.4-.19a3.272,3.272,0,0,1,.555-1.443,2.573,2.573,0,0,1,1.217-.845,5.488,5.488,0,0,1,1.891-.3,5.163,5.163,0,0,1,1.759.253,2.467,2.467,0,0,1,1.019.636,2.38,2.38,0,0,1,.488.969,8.157,8.157,0,0,1,.134,1.313l.091,1.9a20.2,20.2,0,0,0,.211,2.509,3.315,3.315,0,0,0,.408,1.009h-1.486A3.14,3.14,0,0,1,237.325,309.707Zm-.27-3.177a10.092,10.092,0,0,1-2.3.537,5.149,5.149,0,0,0-1.228.285,1.154,1.154,0,0,0-.539.461,1.178,1.178,0,0,0-.165.676,1.278,1.278,0,0,0,.476.949,1.931,1.931,0,0,0,1.279.379,2.843,2.843,0,0,0,1.446-.359,2.062,2.062,0,0,0,.893-.984,3.37,3.37,0,0,0,.162-1.423Z" transform="translate(-196.359 -282.769)" fill="#263238"/>
                    <path id="Path_82624" data-name="Path 82624" d="M243.169,299.883l-.078-1.637h1.423l.078,1.637Zm.477,9.952-.4-8.4h1.423l.4,8.4Z" transform="translate(-199.097 -281.86)" fill="#263238"/>
                    <path id="Path_82625" data-name="Path 82625" d="M248.278,309.835l-.554-11.589h1.423l.555,11.589Z" transform="translate(-200.173 -281.86)" fill="#263238"/>
                    <path id="Path_82626" data-name="Path 82626" d="M258.422,309.707a4.979,4.979,0,0,1-1.476.95,4.293,4.293,0,0,1-1.555.276,3.174,3.174,0,0,1-2.159-.676,2.35,2.35,0,0,1-.826-1.727,2.24,2.24,0,0,1,.227-1.126,2.161,2.161,0,0,1,.7-.818,3.267,3.267,0,0,1,1-.467,10.139,10.139,0,0,1,1.254-.213,12.7,12.7,0,0,0,2.514-.49c0-.2-.006-.319-.009-.372a1.645,1.645,0,0,0-.462-1.226,2.481,2.481,0,0,0-1.644-.481,2.44,2.44,0,0,0-1.465.351,2.035,2.035,0,0,0-.647,1.246l-1.4-.19a3.282,3.282,0,0,1,.556-1.443,2.569,2.569,0,0,1,1.217-.845,5.488,5.488,0,0,1,1.891-.3,5.166,5.166,0,0,1,1.759.253,2.472,2.472,0,0,1,1.019.636,2.391,2.391,0,0,1,.489.969,8.189,8.189,0,0,1,.134,1.313l.091,1.9a20.346,20.346,0,0,0,.211,2.509,3.332,3.332,0,0,0,.408,1.009h-1.486A3.14,3.14,0,0,1,258.422,309.707Zm-.269-3.177a10.113,10.113,0,0,1-2.3.537,5.148,5.148,0,0,0-1.228.285,1.154,1.154,0,0,0-.539.461,1.178,1.178,0,0,0-.165.676,1.275,1.275,0,0,0,.476.949,1.929,1.929,0,0,0,1.279.379,2.843,2.843,0,0,0,1.446-.359,2.068,2.068,0,0,0,.894-.984,3.372,3.372,0,0,0,.161-1.423Z" transform="translate(-201.259 -282.769)" fill="#263238"/>
                    <path id="Path_82627" data-name="Path 82627" d="M266.042,309.835h-1.319l-.555-11.589h1.422l.2,4.134a2.67,2.67,0,0,1,2.246-1.13,3.642,3.642,0,0,1,1.482.312,3.219,3.219,0,0,1,1.18.878,4.521,4.521,0,0,1,.765,1.363,5.789,5.789,0,0,1,.336,1.707,4.619,4.619,0,0,1-.908,3.336,3.171,3.171,0,0,1-2.5,1.177,2.82,2.82,0,0,1-2.391-1.241Zm-.22-4.261a4.49,4.49,0,0,0,.515,2.182,2.169,2.169,0,0,0,1.871,1.1,1.937,1.937,0,0,0,1.574-.811,3.555,3.555,0,0,0,.565-2.414,3.9,3.9,0,0,0-.768-2.427,2.094,2.094,0,0,0-1.615-.782,1.94,1.94,0,0,0-1.573.81A3.434,3.434,0,0,0,265.822,305.574Z" transform="translate(-203.992 -281.86)" fill="#263238"/>
                    <path id="Path_82628" data-name="Path 82628" d="M276.418,309.835l-.554-11.589h1.423l.554,11.589Z" transform="translate(-206.709 -281.86)" fill="#263238"/>
                    <path id="Path_82629" data-name="Path 82629" d="M286.724,308.04l1.479.183a3.371,3.371,0,0,1-1.193,2,3.721,3.721,0,0,1-2.369.712,4.02,4.02,0,0,1-2.975-1.134,4.634,4.634,0,0,1-1.231-3.181,4.457,4.457,0,0,1,.933-3.288,3.519,3.519,0,0,1,2.774-1.17,3.765,3.765,0,0,1,2.805,1.145,4.761,4.761,0,0,1,1.221,3.226c0,.084.007.211.01.38h-6.26a3.383,3.383,0,0,0,.883,2.117,2.442,2.442,0,0,0,1.791.736,2.092,2.092,0,0,0,1.316-.411A2.56,2.56,0,0,0,286.724,308.04Zm-4.781-2.3h4.688a2.979,2.979,0,0,0-.614-1.588,2.293,2.293,0,0,0-1.8-.822,2.159,2.159,0,0,0-1.617.656A2.473,2.473,0,0,0,281.942,305.739Z" transform="translate(-207.769 -282.769)" fill="#263238"/>
                  </g>
                </g>
                <path id="Path_82630" data-name="Path 82630" d="M288.922,319.151H274.507a.513.513,0,1,1,0-1.026h14.415a.513.513,0,0,1,0,1.026Z" transform="translate(-139.743 -158.413)" fill="#407bff"/>
                <path id="Path_82631" data-name="Path 82631" d="M247.249,319.151H182.862a.513.513,0,0,1,0-1.026h64.386a.513.513,0,1,1,0,1.026Z" transform="translate(-118.455 -158.413)" fill="#407bff"/>
                <g id="Group_235092" data-name="Group 235092" transform="translate(66.376 51.235)">
                  <path id="Path_82632" data-name="Path 82632" d="M211.873,217.4c-.151-3.342-2.053-5.987-4.246-5.908s-3.849,2.852-3.7,6.194,2.052,5.987,4.245,5.908S212.024,220.739,211.873,217.4Z" transform="translate(-189.841 -184.876)" fill="#407bff"/>
                  <path id="Path_82633" data-name="Path 82633" d="M272.243,216.037c-.152-3.343-2.053-5.987-4.246-5.909s-3.849,2.853-3.7,6.195,2.053,5.987,4.246,5.908S272.395,219.378,272.243,216.037Z" transform="translate(-203.864 -184.56)" fill="#407bff"/>
                  <path id="Path_82634" data-name="Path 82634" d="M227.973,236.5a28.01,28.01,0,0,1,21.977,1,.974.974,0,0,1,.378,1.332.994.994,0,0,1-1.345.375,26.98,26.98,0,0,0-24.111.779,1,1,0,0,1-1.335-.417.974.974,0,0,1,.418-1.321A32.989,32.989,0,0,1,227.973,236.5Z" transform="translate(-194.372 -190.282)" fill="#407bff"/>
                  <path id="Path_82635" data-name="Path 82635" d="M200.981,178.339a1.982,1.982,0,0,1,1.67,2.969,19.408,19.408,0,0,1-15,9.8,1.988,1.988,0,0,1-2.066-1.884,1.949,1.949,0,0,1,1.868-2.038h0a15.5,15.5,0,0,0,11.793-7.89A1.959,1.959,0,0,1,200.981,178.339Z" transform="translate(-185.581 -177.176)" fill="#407bff"/>
                  <path id="Path_82636" data-name="Path 82636" d="M265.574,176.861a1.992,1.992,0,0,1,1.79.548,15.814,15.814,0,0,0,13.45,4.853,2,2,0,0,1,2.328,1.543,1.942,1.942,0,0,1-1.522,2.3,19.818,19.818,0,0,1-17.05-5.944,1.95,1.95,0,0,1,1-3.3Z" transform="translate(-203.795 -176.825)" fill="#407bff"/>
                </g>
                <path id="Path_82637" data-name="Path 82637" d="M316.342,190.9l-5.607.527a4.008,4.008,0,0,1-4.285-3.117l-7.776-34.84a4.007,4.007,0,0,1,2.893-4.749l15.039-3.947Z" transform="translate(-144.453 -116.146)" opacity="0.2"/>
                <path id="Path_82638" data-name="Path 82638" d="M195.806,154.519c-3.908-10.67-7.815-27.736-3.688-43.539l-39.971,39.972C163.442,154.73,181.452,156.376,195.806,154.519Z" transform="translate(-111.439 -110.295)" opacity="0.2"/>
                <g id="Group_235093" data-name="Group 235093" transform="translate(40.022 0)">
                  <path id="Path_82639" data-name="Path 82639" d="M192.118,150.952c-4.382-12.944-2.6-30.539,0-39.972l-39.971,39.972C164.248,153.154,177.765,152.808,192.118,150.952Z" transform="translate(-151.461 -110.295)" fill="#fff"/>
                  <path id="Path_82640" data-name="Path 82640" d="M170.218,152.955a102.665,102.665,0,0,1-18.4-1.536.685.685,0,0,1-.362-1.158l39.972-39.971a.685.685,0,0,1,1.145.666c-2.416,8.782-4.413,26.567-.012,39.57a.684.684,0,0,1-.561.9A170.409,170.409,0,0,1,170.218,152.955Zm-16.86-2.659c10.619,1.76,22.958,1.718,37.644-.126-3.613-11.464-2.8-26.641-.364-37.155Z" transform="translate(-151.254 -110.088)" fill="#263238"/>
                </g>
              </g>
              <g id="Group_235099" data-name="Group 235099" transform="translate(155.006)">
                <path id="Path_82641" data-name="Path 82641" d="M378.5,222.188a1.147,1.147,0,0,1-1.109-.856l-14.078-53.647a1.146,1.146,0,0,1,2.218-.582l14.078,53.647a1.147,1.147,0,0,1-.818,1.4A1.122,1.122,0,0,1,378.5,222.188Z" transform="translate(-315.488 -122.787)" fill="#263238"/>
                <rect id="Rectangle_18724" data-name="Rectangle 18724" width="0.768" height="4.231" transform="matrix(0.967, -0.254, 0.254, 0.967, 88.006, 26.023)" fill="#407bff"/>
                <path id="Path_82642" data-name="Path 82642" d="M408.619,126.11l-2.957-11.269a5.937,5.937,0,0,0-7.256-4.24l-7.731,2.028-.195-.742,7.73-2.028a6.705,6.705,0,0,1,8.195,4.787l2.957,11.269Z" transform="translate(-321.807 -104.637)" fill="#407bff"/>
                <rect id="Rectangle_18725" data-name="Rectangle 18725" width="83.719" height="44.548" rx="5.242" transform="matrix(0.967, -0.254, 0.254, 0.967, 0, 28.048)" fill="#407bff"/>
                <rect id="Rectangle_18726" data-name="Rectangle 18726" width="55.792" height="12.165" rx="5.242" transform="translate(25.221 64.146) rotate(-14.703)" fill="#407bff"/>
                <text id="Opps" transform="translate(46.55 44.842) rotate(-16)" fill="#fff" stroke="rgba(0,0,0,0)" stroke-width="1" font-size="24" font-family="Tajawal-Bold, Tajawal" font-weight="700"><tspan x="-25.98" y="0">Opps</tspan></text>
              </g>
            </g>
          </g>
        </g>
      </g>
    </g>
  </g>
</svg>
