<svg id="icons8-google" xmlns="http://www.w3.org/2000/svg" width="22" height="22" viewBox="0 0 22 22">
  <path id="Path_8" data-name="Path 8" d="M25.786,12.846H24.9V12.8H15v4.4h6.217a6.605,6.605,0,1,1-1.838-7.129L22.49,6.96A10.989,10.989,0,1,0,26,15,11.075,11.075,0,0,0,25.786,12.846Z" transform="translate(-4 -4)" fill="#ffc107"/>
  <path id="Path_9" data-name="Path 9" d="M6.306,9.88,9.92,12.53a6.587,6.587,0,0,1,10.5-2.459L23.528,6.96A10.978,10.978,0,0,0,6.306,9.88Z" transform="translate(-5.038 -4)" fill="#ff3d00"/>
  <path id="Path_10" data-name="Path 10" d="M15.988,36.824a10.949,10.949,0,0,0,7.375-2.856l-3.4-2.881A6.583,6.583,0,0,1,9.782,28.054L6.2,30.818A10.991,10.991,0,0,0,15.988,36.824Z" transform="translate(-4.988 -14.824)" fill="#4caf50"/>
  <path id="Path_11" data-name="Path 11" d="M34.786,20.046H33.9V20H24v4.4h6.217a6.622,6.622,0,0,1-2.248,3.064h0l3.4,2.881A10.641,10.641,0,0,0,35,22.2,11.075,11.075,0,0,0,34.786,20.046Z" transform="translate(-13 -11.2)" fill="#1976d2"/>
</svg>
