<svg xmlns="http://www.w3.org/2000/svg" width="17.454" height="16" viewBox="0 0 17.454 16">
  <g id="Group_60638" data-name="Group 60638" transform="translate(-498 -323)">
    <path id="icons8-monitor" d="M4.455,4A1.454,1.454,0,0,0,3,5.455V15.636a1.454,1.454,0,0,0,1.455,1.455H19a1.454,1.454,0,0,0,1.455-1.455V5.455A1.454,1.454,0,0,0,19,4Zm0,1.455H19v8.727H4.455Zm7.273,9.455a.727.727,0,1,1-.727.727A.728.728,0,0,1,11.727,14.909ZM8.091,18.545a.727.727,0,1,0,0,1.455h7.273a.727.727,0,1,0,0-1.455Z" transform="translate(495 319)" fill="#929fb2"/>
    <path id="icons8-checkmark" d="M6.142,3A3.148,3.148,0,1,0,8.863,4.577L5.918,7.521a.262.262,0,0,1-.37,0L4.382,6.355a.262.262,0,0,1,.37-.37l.981.981L8.561,4.138A3.134,3.134,0,0,0,6.142,3ZM8.561,4.138a3.173,3.173,0,0,1,.3.438l.605-.605A.262.262,0,1,0,9.1,3.6Z" transform="translate(500.818 322.647)" fill="#929fb2"/>
  </g>
</svg>
