<svg id="Group_229155" data-name="Group 229155" xmlns="http://www.w3.org/2000/svg" width="20" height="20" viewBox="0 0 20 20">
  <circle id="Ellipse_261" data-name="Ellipse 261" cx="10" cy="10" r="10" fill="#fff"/>
  <path id="icons8-camera" d="M4.77,5a.633.633,0,0,0-.527.309L3.9,5.842H2.042A1.048,1.048,0,0,0,1,6.895v5.053A1.048,1.048,0,0,0,2.042,13H9.958A1.048,1.048,0,0,0,11,11.947V6.895A1.048,1.048,0,0,0,9.958,5.842H8.07L7.738,5.3A.633.633,0,0,0,7.211,5ZM2.875,6.895a.421.421,0,1,1-.417.421A.42.42,0,0,1,2.875,6.895ZM6,7.105A2.316,2.316,0,1,1,3.708,9.421,2.306,2.306,0,0,1,6,7.105Zm0,.421A1.895,1.895,0,1,0,7.875,9.421,1.888,1.888,0,0,0,6,7.526Z" transform="translate(4.048 1)" fill="#5d718d"/>
</svg>
