<svg xmlns="http://www.w3.org/2000/svg" width="30" height="30" viewBox="0 0 30 30">
  <g id="help" transform="translate(1105 7097)">
    <rect id="Rectangle_16473" data-name="Rectangle 16473" width="30" height="30" rx="4" transform="translate(-1105 -7097)" fill="#fff" opacity="0"/>
    <path id="icons8_help_1" d="M12,2A10,10,0,1,0,22,12,10.015,10.015,0,0,0,12,2Zm0,2a8,8,0,1,1-8,8A7.985,7.985,0,0,1,12,4Zm0,2a4,4,0,0,0-4,4h2a2,2,0,0,1,4,0c0,2-3,2.367-3,5h2c0-1.651,3-2.5,3-5A4,4,0,0,0,12,6ZM11,16v2h2V16Z" transform="translate(-1102 -7094)" fill="#5d718d"/>
  </g>
</svg>
