<svg xmlns="http://www.w3.org/2000/svg" width="17.684" height="16" viewBox="0 0 17.684 16">
  <path id="icons8-multiple_devices" d="M16.579,8a1.686,1.686,0,0,0-1.684,1.684v.842h1.684V9.684H25V20.632H21.632a.842.842,0,0,1-1.684,0h-.842v2.526H25a1.686,1.686,0,0,0,1.684-1.684V9.684A1.686,1.686,0,0,0,25,8Zm-5.895,4.211A1.684,1.684,0,0,0,9,13.895v8.421A1.684,1.684,0,0,0,10.684,24h5.053a1.684,1.684,0,0,0,1.684-1.684V13.895a1.684,1.684,0,0,0-1.684-1.684Zm0,1.684h5.053v8.421H14.053a.842.842,0,1,1-1.684,0H10.684Z" transform="translate(-9 -8)" fill="#929fb2"/>
</svg>
