<svg xmlns="http://www.w3.org/2000/svg" width="18.654" height="10" viewBox="0 0 18.654 10">
  <path id="icons8-double_tick" d="M14.978,7.99a.666.666,0,0,0-.458.2L8.328,14.383,6.141,12.2l-.007-.007a.666.666,0,1,0-.942.942l2.194,2.194L6.33,16.382,2.137,12.189a.666.666,0,1,0-.942.942l4.664,4.663a.666.666,0,0,0,.942,0l8.661-8.661a.666.666,0,0,0-.484-1.144ZM18.988,8a.666.666,0,0,0-.471.2l-8.19,8.19-.2-.2-.942.942.666.666a.666.666,0,0,0,.942,0L19.452,9.14A.666.666,0,0,0,18.988,8Z" transform="translate(-1 -7.99)" fill="#2e8b57"/>
</svg>
