<svg xmlns="http://www.w3.org/2000/svg" width="17.11" height="16.36" viewBox="0 0 17.11 16.36">
  <path id="icons8-star_half_empty" d="M18.351,7.8,13.378,7.38,11.432,2.786a.891.891,0,0,0-1.64,0L7.847,7.38,2.874,7.8a.891.891,0,0,0-.508,1.561l3.778,3.276L5.009,17.507a.891.891,0,0,0,1.328.965l4.275-2.582,4.275,2.582a.891.891,0,0,0,1.328-.965L15.08,12.639l3.778-3.276A.891.891,0,0,0,18.351,7.8Zm-4.4,3.535-.785.68L13.4,13.03l.687,2.95L11.5,14.416l-.889-.537V5.264l1.181,2.789.405.957,1.034.088,3.011.256Z" transform="translate(-2.057 -2.243)" fill="#fc6620"/>
</svg>
