<svg xmlns="http://www.w3.org/2000/svg" width="33.555" height="32" viewBox="0 0 33.555 32">
  <path id="icons8-chat" d="M12.775,0C5.8,0,0,5.037,0,11.367a10.746,10.746,0,0,0,3.572,7.879,5.25,5.25,0,0,1-1.744,2.311c-.41.334-.809.62-1.135.9a2.243,2.243,0,0,0-.441.462,1.1,1.1,0,0,0-.168.861l.084.252.231.147a4.279,4.279,0,0,0,2.437.378,14.683,14.683,0,0,0,2.794-.525,30.307,30.307,0,0,0,3.341-1.156c1.875,4.349,6.548,7.249,11.871,7.249a18.053,18.053,0,0,0,2.668-.252c.919.407,4.93,2.122,7.711,2.122a3.82,3.82,0,0,0,1.912-.42l.252-.147.063-.252c.2-.72-.412-1.224-1.2-1.849a6.788,6.788,0,0,1-2.29-2.626,10.847,10.847,0,0,0,3.593-7.942c0-4.838-3.53-9.208-8.615-10.758C23.336,3.343,18.461,0,12.775,0Zm0,1.345c5.121,0,9.395,2.957,10.842,7,.005.016.016.026.021.042s.013.042.021.063c.092.265.165.525.231.8.047.189.071.373.105.567.008.05.013.1.021.147.029.179.066.365.084.546,0,.026,0,.058,0,.084.021.255.042.517.042.777a8.557,8.557,0,0,1-.063,1.009,9.178,9.178,0,0,1-.168,1.009,9.026,9.026,0,0,1-.672,1.87,9.582,9.582,0,0,1-1.051,1.7c-.2.265-.439.531-.672.777s-.475.489-.735.714-.52.449-.8.651A12.175,12.175,0,0,1,15,21.179a12.85,12.85,0,0,1-2.29.21c-.454,0-.906-.024-1.345-.063-.021,0-.042,0-.063,0-.058-.005-.113-.016-.168-.021-.155-.018-.315-.039-.462-.063-.2-.032-.383-.063-.567-.105l-.21-.063-.21.084a37.077,37.077,0,0,1-4.412,1.6,13.926,13.926,0,0,1-2.542.483A2.965,2.965,0,0,1,2,23.133c.215-.168.4-.3.672-.525a6.193,6.193,0,0,0,2.353-3.362l.084-.4-.294-.273a9.465,9.465,0,0,1-3.467-7.207C1.345,5.862,6.44,1.345,12.775,1.345Z" fill="#5d718d"/>
</svg>
