<svg xmlns="http://www.w3.org/2000/svg" width="17.11" height="16.36" viewBox="0 0 17.11 16.36">
  <path id="Path_46294" data-name="Path 46294" d="M19.644,9.038l-4.838-.42L12.916,4.17a1,1,0,0,0-1.839,0L9.188,8.628l-4.828.41a1,1,0,0,0-.57,1.749l3.669,3.179-1.1,4.718a1,1,0,0,0,1.489,1.08L12,17.265l4.148,2.509a1,1,0,0,0,1.489-1.08l-1.1-4.728L20.2,10.787a1,1,0,0,0-.56-1.749ZM12,15.4,8.238,17.665l1-4.278L5.919,10.508l4.378-.38L12,6.1l1.709,4.039,4.378.38L14.765,13.4l1,4.278Z" transform="translate(-3.443 -3.563)" fill="#f60"/>
</svg>
