<svg xmlns="http://www.w3.org/2000/svg" width="28.39" height="32" viewBox="0 0 28.39 32">
  <g id="android" transform="translate(-8 -5.931)">
    <path id="Path_72989" data-name="Path 72989" d="M11.549,27.759a1.774,1.774,0,1,1-3.549,0V19.774a1.774,1.774,0,1,1,3.549,0Zm24.841,0a1.774,1.774,0,1,1-3.549,0V19.774a1.774,1.774,0,1,1,3.549,0Zm-15.97,9.759a1.774,1.774,0,1,1-3.549,0V29.534a1.774,1.774,0,1,1,3.549,0Zm7.1,0a1.774,1.774,0,1,1-3.549,0V29.534a1.774,1.774,0,1,1,3.549,0Z" transform="translate(0 -1.361)" fill="#7cb342"/>
    <path id="Path_72990" data-name="Path 72990" d="M14,16.872V30.18a1.78,1.78,0,0,0,1.774,1.774h14.2a1.78,1.78,0,0,0,1.774-1.774V16.872ZM22.872,8C17.549,8,14.266,11.194,14,15.1H31.744C31.478,11.194,28.2,8,22.872,8Zm-3.549,4.968a.887.887,0,1,1,.887-.887A.889.889,0,0,1,19.323,12.968Zm7.1,0a.887.887,0,1,1,.887-.887A.889.889,0,0,1,26.421,12.968Z" transform="translate(-0.677 -0.233)" fill="#7cb342"/>
    <path id="Path_72991" data-name="Path 72991" d="M27.029,9.985a1.261,1.261,0,0,1-.532-.177.873.873,0,0,1-.266-1.242l1.508-2.218a.9.9,0,0,1,1.508.976L27.739,9.541A.7.7,0,0,1,27.029,9.985ZM19.044,9.63a.79.79,0,0,1-.71-.444L17.181,7.323a.9.9,0,1,1,1.508-.976L19.843,8.21a.873.873,0,0,1-.266,1.242A1.261,1.261,0,0,1,19.044,9.63Z" transform="translate(-1.019)" fill="#7cb342"/>
  </g>
</svg>
