<svg id="icons8-facebook" xmlns="http://www.w3.org/2000/svg" width="22" height="22" viewBox="0 0 22 22">
  <path id="Path_12" data-name="Path 12" d="M28,24.944A3.055,3.055,0,0,1,24.944,28H9.056A3.055,3.055,0,0,1,6,24.944V9.056A3.055,3.055,0,0,1,9.056,6H24.944A3.055,3.055,0,0,1,28,9.056Z" transform="translate(-6 -6)" fill="#929fb2"/>
  <path id="Path_13" data-name="Path 13" d="M29.947,20.333H27.889v7.944H24.833V20.333H23V17.889h1.833V16.416c0-2.144.892-3.416,3.417-3.416h2.083v2.444h-1.4c-.983,0-1.047.367-1.047,1.053v1.392h2.444Z" transform="translate(-12.611 -8.722)" fill="#fafcfe"/>
</svg>
