<svg xmlns="http://www.w3.org/2000/svg" width="24.001" height="24" viewBox="0 0 24.001 24">
  <path id="icons8_windows_10" d="M13.059,6.15,4.487,7.435A.572.572,0,0,0,4,8v6.857a.571.571,0,0,0,.571.571h8.572a.571.571,0,0,0,.571-.571V6.715a.572.572,0,0,0-.2-.433A.579.579,0,0,0,13.059,6.15ZM27.8,4.139a.579.579,0,0,0-.458-.132l-12,1.8a.572.572,0,0,0-.486.565v8.486a.571.571,0,0,0,.571.571h12A.571.571,0,0,0,28,14.858V4.572A.572.572,0,0,0,27.8,4.139ZM13.143,16.572H4.571A.571.571,0,0,0,4,17.144V24a.572.572,0,0,0,.487.565l8.572,1.286a.608.608,0,0,0,.085.006.572.572,0,0,0,.571-.571V17.144A.571.571,0,0,0,13.143,16.572Zm14.286,0h-12a.571.571,0,0,0-.571.571V25.63a.572.572,0,0,0,.487.565l12,1.8a.6.6,0,0,0,.085.006A.572.572,0,0,0,28,27.43V17.144A.571.571,0,0,0,27.429,16.572Z" transform="translate(-4 -4.001)" fill="#3f97f6"/>
</svg>
