<svg xmlns="http://www.w3.org/2000/svg" width="37.895" height="40" viewBox="0 0 37.895 40">
  <path id="icons8_factory_1" d="M32.474,2a2.105,2.105,0,0,0,0,4.211h6.316a2.105,2.105,0,0,0,0-4.211Zm0,8.421a2.106,2.106,0,0,0-2.105,2.105v6.316a2.106,2.106,0,0,1-2.105,2.105H25.57a2.105,2.105,0,0,1-2-1.439l-.7-2.105a2.106,2.106,0,0,0-3.261-1.02L15.862,19.2a2.105,2.105,0,0,1-3.261-1.02l-.255-.773a2.107,2.107,0,0,0-3.261-1.02L3.843,20.314A2.108,2.108,0,0,0,3,22V42H40.895V12.526a2.106,2.106,0,0,0-2.105-2.105ZM8.263,25.158h2.105a1.053,1.053,0,0,1,1.053,1.053v2.105a1.053,1.053,0,0,1-1.053,1.053H8.263a1.053,1.053,0,0,1-1.053-1.053V26.211A1.053,1.053,0,0,1,8.263,25.158Zm8.421,0h2.105a1.053,1.053,0,0,1,1.053,1.053v2.105a1.053,1.053,0,0,1-1.053,1.053H16.684a1.053,1.053,0,0,1-1.053-1.053V26.211A1.053,1.053,0,0,1,16.684,25.158Zm8.421,0h2.105a1.053,1.053,0,0,1,1.053,1.053v2.105a1.053,1.053,0,0,1-1.053,1.053H25.105a1.053,1.053,0,0,1-1.053-1.053V26.211A1.053,1.053,0,0,1,25.105,25.158Zm8.421,0h2.105a1.053,1.053,0,0,1,1.053,1.053v2.105a1.053,1.053,0,0,1-1.053,1.053H33.526a1.053,1.053,0,0,1-1.053-1.053V26.211A1.053,1.053,0,0,1,33.526,25.158ZM8.263,33.579h2.105a1.053,1.053,0,0,1,1.053,1.053v2.105a1.053,1.053,0,0,1-1.053,1.053H8.263a1.053,1.053,0,0,1-1.053-1.053V34.632A1.053,1.053,0,0,1,8.263,33.579Zm8.421,0h2.105a1.053,1.053,0,0,1,1.053,1.053v2.105a1.053,1.053,0,0,1-1.053,1.053H16.684a1.053,1.053,0,0,1-1.053-1.053V34.632A1.053,1.053,0,0,1,16.684,33.579Zm8.421,0h2.105a1.053,1.053,0,0,1,1.053,1.053v2.105a1.053,1.053,0,0,1-1.053,1.053H25.105a1.053,1.053,0,0,1-1.053-1.053V34.632A1.053,1.053,0,0,1,25.105,33.579Zm8.421,0h2.105a1.053,1.053,0,0,1,1.053,1.053v2.105a1.053,1.053,0,0,1-1.053,1.053H33.526a1.053,1.053,0,0,1-1.053-1.053V34.632A1.053,1.053,0,0,1,33.526,33.579Z" transform="translate(-3 -2)" fill="#5d718d"/>
</svg>
