<svg xmlns="http://www.w3.org/2000/svg" width="24" height="24" viewBox="0 0 24 24">
  <g id="info" transform="translate(-633)">
    <rect id="Rectangle_16467" data-name="Rectangle 16467" width="24" height="24" rx="4" transform="translate(633)" fill="#fff" opacity="0"/>
    <path id="icons8_info" d="M8,0a8,8,0,1,0,8,8A8,8,0,0,0,8,0ZM8,1.333A6.667,6.667,0,1,1,1.333,8,6.666,6.666,0,0,1,8,1.333ZM8,3.875a1.54,1.54,0,0,0-.333.021.751.751,0,0,0-.292.146.653.653,0,0,0-.187.25.882.882,0,0,0-.063.375.9.9,0,0,0,.063.375.634.634,0,0,0,.187.25.757.757,0,0,0,.292.125A1.375,1.375,0,0,0,8,5.458a1.553,1.553,0,0,0,.354-.042.682.682,0,0,0,.271-.125.635.635,0,0,0,.188-.25A.877.877,0,0,0,8.9,4.667a.868.868,0,0,0-.083-.375.654.654,0,0,0-.188-.25A.684.684,0,0,0,8.354,3.9,1.74,1.74,0,0,0,8,3.875ZM7.188,6.1v5.979H8.813V6.1Z" transform="translate(637 4)" fill="#5d718d"/>
  </g>
</svg>
