<svg xmlns="http://www.w3.org/2000/svg" width="36" height="36" viewBox="0 0 36 36">
  <g id="ios" transform="translate(-1036 -405)">
    <rect id="Rectangle_16545" data-name="Rectangle 16545" width="36" height="36" rx="4" transform="translate(1036 405)" fill="#0075f4" opacity="0"/>
    <path id="icons8_ios_logo" d="M10.064,2.977a7.1,7.1,0,0,0-7.087,7.087V23.889a7.1,7.1,0,0,0,7.087,7.087H23.889a7.1,7.1,0,0,0,7.087-7.087V10.064a7.1,7.1,0,0,0-7.087-7.087Zm0,3.111H23.889a3.923,3.923,0,0,1,3.977,3.977V23.889a3.923,3.923,0,0,1-3.977,3.977H10.064a3.923,3.923,0,0,1-3.977-3.977V10.064A3.923,3.923,0,0,1,10.064,6.087ZM8.457,12.345a.778.778,0,1,0,.778.778A.778.778,0,0,0,8.457,12.345Zm6.222,0c-2.394,0-3.888,1.792-3.888,4.666s1.467,4.666,3.888,4.666,3.888-1.8,3.888-4.666S17.083,12.345,14.678,12.345Zm8.555,0A3.2,3.2,0,0,0,21,13.169a2.975,2.975,0,0,0-.878,2.175,2.136,2.136,0,0,0,1.13,1.811,7.77,7.77,0,0,0,1.777.608,7.971,7.971,0,0,1,1.437.471c.294.161.322.166.322.447a1.36,1.36,0,0,1-.395,1.051,1.615,1.615,0,0,1-1.16.392,1.447,1.447,0,0,1-1.583-.984.778.778,0,1,0-1.5.413,3.079,3.079,0,0,0,3.083,2.127,3.2,3.2,0,0,0,2.233-.82,2.981,2.981,0,0,0,.878-2.178,2.135,2.135,0,0,0-1.13-1.811,7.788,7.788,0,0,0-1.777-.608A7.959,7.959,0,0,1,22,15.79c-.294-.161-.322-.167-.322-.447a1.361,1.361,0,0,1,.395-1.051,1.615,1.615,0,0,1,1.16-.392,1.447,1.447,0,0,1,1.583.984.778.778,0,1,0,1.5-.413A3.079,3.079,0,0,0,23.233,12.345ZM14.678,13.9c2.03,0,2.333,1.949,2.333,3.111s-.3,3.111-2.333,3.111c-1.929,0-2.333-1.692-2.333-3.111C12.345,15.85,12.649,13.9,14.678,13.9ZM8.457,15.456a.78.78,0,0,0-.778.778V20.9a.778.778,0,1,0,1.555,0V16.234A.78.78,0,0,0,8.457,15.456Z" transform="translate(1037.023 406.023)" fill="#0075f4"/>
  </g>
</svg>
