<svg xmlns="http://www.w3.org/2000/svg" width="32" height="32" viewBox="0 0 32 32">
  <g id="ios_logo" transform="translate(-6 -6)">
    <path id="Path_72980" data-name="Path 72980" d="M14.889,38H29.111A8.889,8.889,0,0,0,38,29.111V14.889A8.889,8.889,0,0,0,29.111,6H14.889A8.889,8.889,0,0,0,6,14.889V29.111A8.889,8.889,0,0,0,14.889,38Z" fill="#eceff1"/>
    <path id="Path_72981" data-name="Path 72981" d="M12.7,17.974a.677.677,0,1,0,.677.677.677.677,0,0,0-.677-.677Z" transform="translate(-0.669 -1.33)" fill="#ffc107"/>
    <path id="Path_72982" data-name="Path 72982" d="M15.57,21.418l1.284-.542a3.239,3.239,0,0,1,2.962-1.713,3.775,3.775,0,0,1,.855.1l1.22-.515a4.634,4.634,0,0,0-2.075-.468A4.2,4.2,0,0,0,15.57,21.418Zm-2.387,1.008V21.031h-.91v1.78Z" transform="translate(-0.697 -1.365)" fill="#ff5722"/>
    <path id="Path_72983" data-name="Path 72983" d="M13.183,24.929V22.45l-.91.385v2.478Zm3.062-1.409a5.347,5.347,0,0,1,.608-2.62l-1.284.542a7.051,7.051,0,0,0-.3,2.078c0,.179.025.34.036.51l.944-.4C16.253,23.593,16.245,23.56,16.245,23.52ZM28.4,18.5a3.571,3.571,0,0,0-.688.291Zm-6.515.273-1.22.515a3.158,3.158,0,0,1,2.089,1.6l.908-.384A4,4,0,0,0,21.89,18.773Z" transform="translate(-0.697 -1.389)" fill="#f44336"/>
    <path id="Path_72984" data-name="Path 72984" d="M13.183,27.383V24.905l-.91.384v2.478ZM28.4,18.476l-.688.291a2.575,2.575,0,0,0-1.4,2.293,2.68,2.68,0,0,0,.1.733l.917-.388a1.479,1.479,0,0,1-.05-.373c0-1.091.993-1.882,2.43-1.882a2.884,2.884,0,0,1,1.74.515l.932-.394a3.718,3.718,0,0,0-2.644-.989A4.52,4.52,0,0,0,28.4,18.476ZM16.253,23.608l-.944.4a6.243,6.243,0,0,0,.531,2.254l.892-.377A5.556,5.556,0,0,1,16.253,23.608Zm7.415-3.132-.908.384a5.158,5.158,0,0,1,.585,2.231l.943-.4A5.937,5.937,0,0,0,23.668,20.477Z" transform="translate(-0.697 -1.365)" fill="#e91e63"/>
    <g id="Group_60339" data-name="Group 60339" transform="translate(11.576 17.906)">
      <path id="Path_72985" data-name="Path 72985" d="M24.127,25.362a7.309,7.309,0,0,0,.215-1.742,7.756,7.756,0,0,0-.056-.8l-.943.4c.008.136.027.263.027.405a5.686,5.686,0,0,1-.428,2.243Zm-7.395.645-.892.377A4.094,4.094,0,0,0,17.42,28.2l1.118-.472A3.232,3.232,0,0,1,16.733,26.007Zm-3.549,1.5-.91.384v.743h.91Zm14.154-5.979-.917.388a2.59,2.59,0,0,0,1.892,1.679l1.422-.6-.3-.076C28.139,22.595,27.5,22.179,27.337,21.528Zm4.888-.464h.958a2.573,2.573,0,0,0-.794-1.67l-.932.394A1.905,1.905,0,0,1,32.225,21.064Z" transform="translate(-12.273 -19.394)" fill="#9c27b0"/>
    </g>
    <g id="Group_60340" data-name="Group 60340" transform="translate(16.722 21.507)">
      <path id="Path_72986" data-name="Path 72986" d="M24.77,25.812l-1.185.5a3.248,3.248,0,0,1-3.128,2.1,3.581,3.581,0,0,1-1.277-.237l-1.118.472a4.518,4.518,0,0,0,2.4.647A4.211,4.211,0,0,0,24.77,25.812Zm2.861.668h-.958a2.754,2.754,0,0,0,.235.908l.879-.372A1.838,1.838,0,0,1,27.632,26.48Zm3.437-2.86-.692-.174-1.422.6c.208.072.433.139.677.2l1.146.292a4.633,4.633,0,0,1,1.475.595l1.071-.452A4.848,4.848,0,0,0,31.069,23.619Z" transform="translate(-18.062 -23.445)" fill="#3f51b5"/>
    </g>
    <g id="Group_60341" data-name="Group 60341" transform="translate(25.568 22.74)">
      <path id="Path_72987" data-name="Path 72987" d="M28.893,27.171l-.879.372a3.08,3.08,0,0,0,1.925,1.665l1.5-.635A2.721,2.721,0,0,1,28.893,27.171Zm6.143-.116a2.951,2.951,0,0,0,.056-.532,2.226,2.226,0,0,0-.662-1.691l-1.071.452a1.54,1.54,0,0,1,.761,1.342,1.642,1.642,0,0,1-.309.945Z" transform="translate(-28.014 -24.833)" fill="#03a9f4"/>
    </g>
    <path id="Path_72988" data-name="Path 72988" d="M35.277,27.333l-1.226.518a2.69,2.69,0,0,1-2.267,1.006c-.035,0-.066-.005-.1-.006l-1.5.635a4.8,4.8,0,0,0,1.52.239C33.663,29.724,35.011,28.783,35.277,27.333Z" transform="translate(-2.687 -2.37)" fill="#009688"/>
  </g>
</svg>
