<svg xmlns="http://www.w3.org/2000/svg" xmlns:xlink="http://www.w3.org/1999/xlink" width="81" height="81" viewBox="0 0 81 81">
  <defs>
    <filter id="Rectangle_950" x="0" y="0" width="81" height="81" filterUnits="userSpaceOnUse">
      <feOffset dx="6" dy="6" input="SourceAlpha"/>
      <feGaussianBlur stdDeviation="7.5" result="blur"/>
      <feFlood flood-color="#4b4e6d" flood-opacity="0.161"/>
      <feComposite operator="in" in2="blur"/>
      <feComposite in="SourceGraphic"/>
    </filter>
  </defs>
  <g id="items_discount" transform="translate(-176.5 -1166.5)">
    <g transform="matrix(1, 0, 0, 1, 176.5, 1166.5)" filter="url(#Rectangle_950)">
      <rect id="Rectangle_950-2" data-name="Rectangle 950" width="36" height="36" rx="4" transform="translate(16.5 16.5)" fill="#2e8b57"/>
    </g>
    <path id="icons8_sale" d="M8.994,2a3.077,3.077,0,0,0-2.6,1.674l-.918,1.8-1.8.918A3.078,3.078,0,0,0,2.15,10.08L2.771,12,2.15,13.92a3.078,3.078,0,0,0,1.527,3.688l1.8.918.918,1.8a3.074,3.074,0,0,0,3.686,1.527L12,21.229l1.92.621a3.078,3.078,0,0,0,3.688-1.527l.918-1.8,1.8-.918a3.074,3.074,0,0,0,1.527-3.686L21.229,12l.621-1.92a3.078,3.078,0,0,0-1.527-3.688l-1.8-.918-.918-1.8A3.074,3.074,0,0,0,13.922,2.15L12,2.771,10.08,2.15A3.071,3.071,0,0,0,8.994,2ZM6.666,9.5a1.371,1.371,0,0,1,1.389.85A.473.473,0,0,1,7.619,11a.461.461,0,0,1-.445-.314.505.505,0,0,0-.525-.385.52.52,0,0,0-.545.563c0,.884,2.086.585,2.086,2.283a1.329,1.329,0,0,1-1.5,1.352,1.535,1.535,0,0,1-1.576-.984.468.468,0,0,1,.451-.617h.008a.485.485,0,0,1,.459.359.608.608,0,0,0,.658.441.482.482,0,0,0,.516-.545c0-1.038-2.08-.635-2.08-2.3A1.4,1.4,0,0,1,6.666,9.5Zm3.828.066a.612.612,0,0,1,.584.428l1.2,3.807a.488.488,0,0,1-.465.635H11.8a.488.488,0,0,1-.473-.363l-.164-.633H9.824l-.166.633a.487.487,0,1,1-.936-.269L9.91,9.994A.611.611,0,0,1,10.494,9.564Zm2.926,0a.49.49,0,0,1,.49.49v3.561h1.318a.408.408,0,0,1,0,.816H13.338a.409.409,0,0,1-.408-.408V10.057A.49.49,0,0,1,13.42,9.566Zm3.182,0H18.6a.4.4,0,0,1,.4.4v.025a.4.4,0,0,1-.4.4H17.188v1.15H18.32a.4.4,0,1,1,0,.791H17.188v1.291H18.6a.4.4,0,0,1,.4.4v.023a.4.4,0,0,1-.394.4h-2a.4.4,0,0,1-.4-.4V9.963A.4.4,0,0,1,16.6,9.566Zm-6.109,1.316-.455,1.736h.91Z" transform="translate(198.999 1189)" fill="#fff"/>
  </g>
</svg>
