<svg xmlns="http://www.w3.org/2000/svg" width="30" height="30" viewBox="0 0 30 30">
  <g id="language" transform="translate(1105 7097)">
    <rect id="Rectangle_16473" data-name="Rectangle 16473" width="30" height="30" rx="4" transform="translate(-1105 -7097)" fill="#fff" opacity="0"/>
    <path id="icons8_ITranslate" d="M12,2A10,10,0,1,0,22,12,10.011,10.011,0,0,0,12,2Zm7.931,9h-1.96a15.228,15.228,0,0,0-.722-3.907,4.767,4.767,0,0,0,.716-.405A7.96,7.96,0,0,1,19.931,11ZM13,4.3A4.448,4.448,0,0,1,14.457,5.8,13.613,13.613,0,0,1,13,5.968Zm-2,0V5.968A13.875,13.875,0,0,1,9.543,5.8,4.448,4.448,0,0,1,11,4.3Zm0,3.674V11H8.035A12.987,12.987,0,0,1,8.67,7.687,15.878,15.878,0,0,0,11,7.971ZM11,13v3.029a15.876,15.876,0,0,0-2.33.285A13,13,0,0,1,8.035,13Zm0,5.032V19.7a4.448,4.448,0,0,1-1.457-1.508A13.613,13.613,0,0,1,11,18.032ZM13,19.7V18.032a13.875,13.875,0,0,1,1.457.163A4.448,4.448,0,0,1,13,19.7Zm0-3.674V13h2.965a12.987,12.987,0,0,1-.635,3.313A15.878,15.878,0,0,0,13,16.029ZM13,11V7.971a15.876,15.876,0,0,0,2.33-.285A13,13,0,0,1,15.965,11ZM6.035,6.688a4.817,4.817,0,0,0,.716.405A15.228,15.228,0,0,0,6.029,11H4.069A7.96,7.96,0,0,1,6.035,6.688ZM4.069,13h1.96a15.228,15.228,0,0,0,.722,3.907,4.767,4.767,0,0,0-.716.405A7.96,7.96,0,0,1,4.069,13Zm13.9,4.312a4.817,4.817,0,0,0-.716-.405A15.228,15.228,0,0,0,17.971,13h1.96A7.96,7.96,0,0,1,17.965,17.312Z" transform="translate(-1102 -7094)" fill="#5d718d"/>
  </g>
</svg>
