<svg xmlns="http://www.w3.org/2000/svg" width="36" height="36" viewBox="0 0 36 36">
  <g id="local" transform="translate(-1036 -403)">
    <rect id="Rectangle_16545" data-name="Rectangle 16545" width="36" height="36" rx="4" transform="translate(1036 403)" fill="#0075f4" opacity="0"/>
    <path id="icons8-server_windows" d="M12.75,2a2.581,2.581,0,0,0-1.8.82.75.75,0,0,0-.119.152L9.33,5.541A1.511,1.511,0,0,0,9,6.5V35a1.451,1.451,0,0,0,1.5,1.5H27.948L38.9,37.993a.75.75,0,0,0,.851-.743V30.626a.75.75,0,0,0,0-.245V23.75a.743.743,0,0,0-.851-.743L30,24.221V6.5a1.5,1.5,0,0,0-.4-1.043L29.6,5.445,28.1,2.9a.75.75,0,0,0-.047-.07A2.1,2.1,0,0,0,26.325,2Zm0,1.5H26.325a.928.928,0,0,1,.519.223L27.595,5H11.382l.665-1.14C12.317,3.6,12.456,3.5,12.75,3.5ZM13.5,8.75h12a.709.709,0,0,1,.75.75v3a.709.709,0,0,1-.75.75h-12a.709.709,0,0,1-.75-.75v-3A.709.709,0,0,1,13.5,8.75Zm0,6h12a.709.709,0,0,1,.75.75v3a.709.709,0,0,1-.75.75h-12a.709.709,0,0,1-.75-.75v-3A.709.709,0,0,1,13.5,14.75Zm6,8.25A1.5,1.5,0,1,1,18,24.5,1.5,1.5,0,0,1,19.5,23ZM38.25,24.609V29.75h-6V25.428Zm-7.5,1.024V29.75H25.5v-3.4ZM19.5,29A1.5,1.5,0,1,1,18,30.5,1.5,1.5,0,0,1,19.5,29Zm6,2.25h5.25v4.118l-5.25-.716Zm6.75,0h6v5.142l-6-.819Z" transform="translate(1030 401)" fill="#5d718d"/>
  </g>
</svg>
