<svg xmlns="http://www.w3.org/2000/svg" width="30" height="30" viewBox="0 0 30 30">
  <g id="Group_54627" data-name="Group 54627" transform="translate(0 -466)">
    <rect id="Rectangle_14687" data-name="Rectangle 14687" width="30" height="30" rx="4" transform="translate(0 466)" fill="#5d718d" opacity="0"/>
    <path id="icons8_Logout_Rounded" d="M12.6,3a9.6,9.6,0,1,0,0,19.19,9.5,9.5,0,0,0,5.48-1.744.8.8,0,1,0-.92-1.309,7.877,7.877,0,0,1-4.56,1.454A8,8,0,1,1,12.6,4.6a7.878,7.878,0,0,1,4.56,1.454.8.8,0,0,0,.92-1.309A9.5,9.5,0,0,0,12.6,3Zm6.389,5.589a.8.8,0,0,0-.557,1.373L20.26,11.8H11.8a.8.8,0,1,0,0,1.6H20.26l-1.833,1.833a.8.8,0,1,0,1.131,1.131l3.128-3.128a.8.8,0,0,0,0-1.273L19.557,8.831A.8.8,0,0,0,18.984,8.589Z" transform="translate(2 468.405)" fill="#5d718d"/>
  </g>
</svg>
