<svg xmlns="http://www.w3.org/2000/svg" width="24" height="24" viewBox="0 0 24 24">
  <g id="logo" transform="translate(-618.625)">
    <rect id="Rectangle_16433" data-name="Rectangle 16433" width="24" height="24" rx="4" transform="translate(618.625)" fill="#dc3545" opacity="0"/>
    <g id="Group_318" data-name="Group 318" transform="translate(619.75 1.5)">
      <path id="Path_289" data-name="Path 289" d="M189.423,2.869l-.044-.039-.044-.041-.041-.039-.044-.041c-.013-.014-.028-.026-.044-.041l-.041-.039-.044-.041-.041-.039-.043-.04L189,2.468l-.041-.039-.044-.041-.041-.039-.043-.041c-.013-.014-.028-.026-.044-.041l-.041-.039-.044-.041-.041-.039-.044-.041c-.013-.014-.028-.026-.044-.041l-.041-.049-.044-.041-.041-.039L188.4,1.9l-.044-.041-.041-.039-.044-.041-.041-.041-.044-.039-.044-.041-.041-.039-.043-.033-.044-.041-.041-.039-.044-.041-.041-.039-.044-.041c-.013-.014-.028-.026-.044-.041l-.041-.039-.044-.041-.041-.039-.044-.041-.044-.041-.033-.031-.044-.041-.041-.039L187.43.987l-.043-.04-.046-.039L187.3.868c-1.952-1.953-5.145,1.047-3.067,2.884l.041.041.044.041.044.039.041.041.044.039a.4.4,0,0,0,.044.041l.041.041.044.039.041.041.044.039a.394.394,0,0,0,.044.041l.041.041.044.039.041.041.044.039.044.041.041.041.044.039.041.041.043.041.044.039.041.041.044.039.041.041.044.041.044.039.041.041.044.039.041.041.044.041L185.55,5l.041.041.044.039.044.041.041.041.044.039.041.041.044.039a.4.4,0,0,0,.044.041l.041.041.044.039.041.041.044.041.044.039.041.041.044.039.041.041.044.041.044.039.041.041C188.311,7.709,191.5,4.708,189.423,2.869Z" transform="translate(-182.795 -0.195)" fill="#ff8000"/>
      <path id="Path_290" data-name="Path 290" d="M259.422,72.873l-.022-.02a.1.1,0,0,1-.021-.02l-.022-.02a.206.206,0,0,1-.022-.021l-.021-.019-.065-.061-.022-.02-.019-.02-.022-.02a.1.1,0,0,1-.022-.02l-.044-.041-.021-.019-.065-.061a.2.2,0,0,0-.022-.021l-.02-.02-.022-.02a.1.1,0,0,1-.022-.02.192.192,0,0,1-.021-.02l-.022-.02-.021-.019-.065-.061-.022-.02-.023-.018a.207.207,0,0,1-.022-.02l-.044-.041-.022-.02-.022-.019-.043-.041a.1.1,0,0,0-.022-.02.2.2,0,0,0-.022-.02l-.02-.021a.2.2,0,0,1-.022-.02L258.5,72l-.021-.019a.209.209,0,0,0-.022-.02l-.022-.02-.044-.041a.2.2,0,0,0-.021-.021l-.02-.02a.19.19,0,0,1-.021-.02l-.044-.041a.2.2,0,0,1-.022-.02l-.022-.019a.192.192,0,0,0-.021-.02l-.044-.041-.021-.02-.02-.021-.021-.02-.044-.041a.189.189,0,0,1-.022-.02l-.022-.019a.2.2,0,0,0-.022-.02l-.044-.041-.021-.02-.02-.02-.021-.02-.044-.041a.193.193,0,0,1-.022-.021l-.022-.019a.2.2,0,0,0-.022-.02l-.043-.041a.2.2,0,0,0-.022-.021l-.02-.02a.2.2,0,0,1-.022-.02l-.044-.041-.022-.021-.021-.019-.022-.02-.044-.041a.1.1,0,0,0-.022-.021l-.02-.02a.2.2,0,0,1-.021-.02l-.044-.041-.022-.021-.021-.018-.022-.02-.044-.041a.1.1,0,0,0-.022-.021l-.02-.02c-1.952-1.929-5.121,1.047-3.07,2.886l.022.02.022.02.02.019.022.021.021.02.022.02.021.02.022.021.022.02.021.02.022.021.022.02.02.019.022.02.022.02.021.021a.2.2,0,0,0,.022.02l.022.021.021.02.022.02.022.02.022.02.019.019.022.02.022.02.021.021a.194.194,0,0,0,.022.02l.022.021.022.02.022.02.022.02.022.02.021.019.02.02.021.02.022.02a.194.194,0,0,0,.022.02l.021.02.021.021.022.02.022.02.021.02.022.02.02.019.022.02.022.02.021.02.022.02.021.02.022.02.021.02.022.02.021.02.02.019.021.02.022.02.022.021.021.02.022.02.022.02.022.02.022.02.021.02.02.019.021.021.022.02.021.021.022.02.022.02.022.02.021.02.022.021.022.02.019.019.022.02.022.02.021.02.022.02.022.02.021.02.022.02.022.02.022.02.02.019.022.02.021.021.021.02.022.02.022.021.022.02.021.02.021.021.022.02.02.019.021.02.022.02.021.02.022.02.022.02.021.02C258.308,77.688,261.471,74.713,259.422,72.873Z" transform="translate(-237.587 -55.901)" fill="#ff8000"/>
      <path id="Path_291" data-name="Path 291" d="M198.264,2.082c.07-1.81-2.518-2.737-3.755-1.39-.041.022-2.323,2.172-2.364,2.206s-.072.067-.106.1-.074.065-.109.1-.072.067-.106.1-.074.065-.109.1-.072.067-.106.1-.074.065-.109.1-.072.067-.106.1-.074.065-.109.1-.072.067-.106.1-.074.065-.109.1-.072.067-.106.1-.074.065-.109.1-.072.067-.106.1-.074.065-.109.1-.074.068-.109.1-.074.065-.109.1-.072.067-.106.1-.074.065-.109.1-.072.067-.106.1-.074.065-.109.1-.072.067-.106.1-.074.065-.109.1-.072.067-.106.1-.074.065-.109.1-.072.067-.106.1-.074.065-.109.1-.072.067-.106.1-.074.065-.109.1-.072.067-.106.1-.074.065-.109.1-.072.067-.106.1-.074.065-.109.1-.072.067-.106.1-.074.065-.109.1-.072.067-.106.1-.074.065-.109.1-.072.067-.106.1-.074.065-.109.1-.072.067-.106.1-.074.065-.109.1-.072.067-.106.1-.074.065-.109.1-.072.067-.106.1-.074.065-.109.1-.072.067-.106.1-.074.065-.109.1-.072.065-.106.1-.074.065-.109.1-.072.065-.106.1-.074.065-.109.1-.072.065-.106.1-.074.065-.109.1-.072.065-.106.1-.074.065-.109.1-.072.065-.106.1-.074.065-.109.1-.072.065-.106.1-.074.065-.109.1-.072.065-.106.1-.074.065-.109.1-.072.065-.106.1-.074.065-.109.1-.072.065-.106.1l-.109.1-.106.1-.109.1-.106.1c-.037.033-.074.067-.109.1s-.072.065-.106.1l-.109.1-.106.1-.109.1-.106.1c-.037.033-.074.067-.109.1s-.072.065-.106.1-.074.067-.109.1l-.106.1-.109.1-.106.1c-.037.033-.074.067-.109.1s-.072.065-.106.1-.074.067-.109.1-.072.065-.106.1-.074.067-.109.1l-.106.1c-.039.033-.074.067-.109.1s-.072.065-.106.1-.074.067-.109.1-.074.065-.106.1-.074.067-.109.1-.074.065-.106.1-.074.067-.109.1-.074.065-.106.1-.074.067-.109.1-.074.065-.106.1-.074.067-.109.1-.074.065-.106.1-.074.067-.109.1-.84.786-.869.816c-2.158,1.837,1.111,4.913,3.065,2.882.037-.033.84-.786.869-.816s.072-.067.106-.1.074-.065.109-.1.072-.067.106-.1.074-.065.109-.1.072-.067.106-.1.074-.065.109-.1.072-.067.106-.1.074-.065.109-.1.072-.067.106-.1.074-.065.109-.1.072-.067.106-.1.074-.065.109-.1.072-.067.106-.1.074-.065.109-.1.074-.067.106-.1.074-.065.109-.1.074-.067.106-.1.074-.065.109-.1.074-.067.106-.1.074-.065.109-.1.074-.067.106-.1a1.243,1.243,0,0,0,.109-.1,1.2,1.2,0,0,0,.106-.1,1.252,1.252,0,0,0,.109-.1c.037-.031.074-.065.109-.1s.072-.065.106-.1.074-.065.109-.1.072-.065.106-.1.074-.065.109-.1.072-.065.106-.1.074-.065.109-.1.072-.065.106-.1.074-.065.109-.1.072-.065.106-.1.074-.065.109-.1.072-.065.106-.1.074-.065.109-.1.072-.065.106-.1.074-.065.109-.1.072-.067.106-.1.074-.065.109-.1.072-.067.106-.1.074-.065.109-.1.072-.067.106-.1.074-.065.109-.1.072-.067.106-.1.074-.065.109-.1.072-.067.106-.1.074-.065.109-.1.072-.067.106-.1.074-.065.109-.1.072-.067.106-.1.074-.065.109-.1.072-.067.106-.1.074-.065.109-.1.072-.067.106-.1.074-.065.109-.1.072-.067.106-.1.074-.065.109-.1.072-.067.106-.1.074-.065.109-.1.072-.067.106-.1.074-.065.109-.1.072-.067.106-.1.074-.065.109-.1.072-.067.106-.1.074-.065.109-.1.072-.067.106-.1.074-.065.109-.1.072-.067.106-.1.074-.065.109-.1.072-.067.106-.1.074-.065.109-.1.072-.067.106-.1.074-.065.109-.1.072-.067.106-.1.074-.065.109-.1.072-.067.106-.1.074-.065.109-.1.072-.067.106-.1.074-.065.109-.1.072-.067.106-.1.074-.065.109-.1.072-.067.106-.1.074-.065.109-.1.072-.067.106-.1.074-.065.109-.1.072-.067.106-.1.074-.065.109-.1.072-.067.106-.1.074-.065.109-.1.072-.067.106-.1.074-.065.109-.1.072-.067.106-.1.074-.065.109-.1.072-.067.106-.1.074-.065.109-.1.072-.067.106-.1,2.325-2.182,2.36-2.217a1.988,1.988,0,0,0,.695-1.482Z" transform="translate(-180.041 -0.051)" fill="#ff8000"/>
      <path id="Path_292" data-name="Path 292" d="M217.973,18.33c.067-1.812-2.52-2.737-3.758-1.39-.037.033-2.323,2.182-2.357,2.217s-.074.067-.109.1-.072.065-.106.1-.074.067-.109.1l-.106.1c-.037.033-.074.067-.109.1s-.072.065-.106.1-.074.067-.109.1-.072.065-.106.1-.074.067-.109.1-.074.065-.106.1-.074.067-.109.1-.074.065-.106.1-.074.067-.109.1-.073.065-.106.1-.074.067-.109.1-.074.065-.106.1-.074.067-.109.1-.074.065-.106.1-.074.067-.109.1-.074.065-.106.1-.074.067-.109.1-.074.065-.106.1-.074.067-.109.1-.074.065-.109.1-.072.067-.106.1-.074.065-.109.1-.072.067-.106.1-.074.065-.109.1-.072.067-.106.1-.074.065-.109.1-.072.067-.106.1-.074.065-.109.1-.072.067-.106.1-.074.065-.109.1-.072.067-.106.1-.074.065-.109.1-.072.067-.106.1-.074.065-.109.1-.072.067-.106.1-.074.065-.109.1-.072.067-.106.1-.074.065-.109.1-.072.067-.106.1-.074.065-.109.1-.072.067-.106.1-.074.065-.109.1-.072.067-.106.1-.073.065-.109.1-.072.067-.106.1-.074.065-.109.1-.072.067-.106.1-.074.065-.109.1-.072.067-.106.1-.074.065-.109.1-.072.067-.106.1-.074.065-.109.1-.072.067-.106.1-.074.065-.109.1-.072.067-.106.1-.074.065-.109.1-.072.067-.106.1-.074.065-.109.1-.072.067-.106.1-.074.065-.109.1-.072.067-.106.1-.074.065-.109.1-.072.067-.106.1-.074.065-.109.1-.072.067-.106.1-.074.065-.109.1-.072.067-.106.1-.074.065-.109.1-.072.067-.106.1-.074.065-.109.1-.072.067-.106.1-.074.065-.109.1-.072.065-.106.1-.074.065-.109.1-.072.065-.106.1-.074.065-.109.1-.072.065-.106.1-.074.065-.109.1-.072.065-.106.1-.074.065-.109.1-.072.065-.106.1-.074.065-.109.1-.072.065-.106.1-.074.065-.109.1-.072.065-.106.1-.074.065-.109.1-.072.065-.106.1l-.109.1-.106.1c-.037.033-.074.067-.109.1s-.072.065-.106.1-.074.067-.109.1l-.106.1-.109.1c-.037.033-.84.786-.869.816-2.158,1.837,1.111,4.913,3.065,2.882.037-.033.84-.786.869-.816a1.193,1.193,0,0,0,.106-.1,1.239,1.239,0,0,0,.109-.1,1.193,1.193,0,0,0,.106-.1,1.238,1.238,0,0,0,.109-.1,1.2,1.2,0,0,0,.106-.1,1.231,1.231,0,0,0,.109-.1c.037-.033.074-.065.109-.1s.072-.065.106-.1.074-.065.109-.1.072-.065.106-.1.074-.065.109-.1.072-.065.106-.1.074-.065.109-.1.072-.067.106-.1.074-.065.109-.1.072-.067.106-.1.074-.065.109-.1.072-.067.106-.1.074-.065.109-.1.072-.067.106-.1.074-.065.109-.1.072-.067.106-.1.074-.065.109-.1.072-.067.106-.1.074-.065.109-.1.072-.067.106-.1.074-.065.109-.1.072-.067.106-.1.074-.065.109-.1.072-.067.106-.1.073-.065.109-.1.072-.067.106-.1.074-.065.109-.1.072-.067.106-.1.074-.065.109-.1.072-.067.106-.1.074-.065.109-.1.072-.067.106-.1.074-.065.109-.1.072-.067.106-.1.074-.065.109-.1.072-.067.106-.1.074-.065.109-.1.072-.067.106-.1.074-.065.109-.1.072-.067.106-.1.074-.065.109-.1.072-.067.106-.1.074-.065.109-.1.072-.067.106-.1.074-.065.109-.1.072-.067.106-.1.074-.065.109-.1.072-.067.106-.1.074-.065.109-.1.072-.067.106-.1.074-.065.109-.1.072-.067.106-.1.074-.065.109-.1.072-.067.106-.1.074-.065.109-.1.072-.067.106-.1.074-.065.109-.1.072-.067.106-.1.073-.065.109-.1.072-.067.106-.1.074-.065.109-.1.072-.067.106-.1.074-.065.109-.1.072-.067.106-.1.074-.065.109-.1.072-.067.106-.1.074-.065.109-.1.072-.067.106-.1.074-.065.109-.1.072-.067.106-.1.074-.065.109-.1.072-.067.106-.1.074-.065.109-.1.072-.067.106-.1.074-.065.109-.1.072-.067.106-.1.074-.065.109-.1.072-.067.106-.1.074-.065.109-.1.072-.067.106-.1.074-.065.109-.1.072-.067.106-.1.074-.065.109-.1.072-.067.106-.1.074-.065.109-.1.072-.067.106-.1.074-.065.109-.1.072-.067.106-.1a1.24,1.24,0,0,0,.109-.1,1.177,1.177,0,0,0,.106-.1,1.243,1.243,0,0,0,.109-.1,1.194,1.194,0,0,0,.106-.1c.039-.033,2.325-2.182,2.36-2.217A1.987,1.987,0,0,0,217.973,18.33Z" transform="translate(-195.475 -12.982)" fill="#ff8000"/>
    </g>
  </g>
</svg>
