<svg xmlns="http://www.w3.org/2000/svg" width="32" height="30.704" viewBox="0 0 32 30.704">
  <path id="icons8_Logout_Rounded" d="M18.352,3a15.352,15.352,0,0,0,0,30.7,15.2,15.2,0,0,0,8.768-2.791,1.28,1.28,0,1,0-1.472-2.094,12.6,12.6,0,0,1-7.3,2.326,12.794,12.794,0,0,1,0-25.587,12.6,12.6,0,0,1,7.3,2.326A1.28,1.28,0,0,0,27.12,5.791,15.194,15.194,0,0,0,18.352,3Zm10.222,8.943a1.279,1.279,0,0,0-.892,2.2l2.933,2.934H17.073a1.279,1.279,0,1,0,0,2.559H30.616l-2.933,2.934a1.279,1.279,0,1,0,1.809,1.809l5-5a1.279,1.279,0,0,0,0-2.036l-5-5A1.279,1.279,0,0,0,28.575,11.943Z" transform="translate(-3 -3)" fill="#5d718d"/>
</svg>
