<svg xmlns="http://www.w3.org/2000/svg" width="36" height="36" viewBox="0 0 36 36">
  <g id="on_cloud" transform="translate(-1036 -403)">
    <rect id="Rectangle_16545" data-name="Rectangle 16545" width="36" height="36" rx="4" transform="translate(1036 403)" fill="#0075f4" opacity="0"/>
    <path id="icons8-onedrive" d="M19.723,9.594a7.055,7.055,0,0,0-3.418.787,8.113,8.113,0,0,0-2.7,2.226c-.2.27-.391.517-.517.675a7.038,7.038,0,0,0-4.52-.2,6.606,6.606,0,0,0-4.475,6.027,3.889,3.889,0,0,1-.022.427c-.025.008-.062.014-.09.022A5.362,5.362,0,0,0,.45,22.323,3.246,3.246,0,0,0,0,24.572a3.654,3.654,0,0,0,.427,2.316,5.732,5.732,0,0,0,3.553,2.991,28.786,28.786,0,0,0,3.576.157,7.485,7.485,0,0,1-1.079-4.026,5.673,5.673,0,0,1,.45-2.5,6.688,6.688,0,0,1,4.588-3.688c.042-.138.082-.292.135-.427a8.426,8.426,0,0,1,3.666-4.655l.022-.022h.022a7.728,7.728,0,0,1,4.071-.945,7.058,7.058,0,0,1,5.712,2.361,7.679,7.679,0,0,1,1.934-.27c.222,0,.439.025.652.045-.065-.214-.129-.433-.2-.652A8.229,8.229,0,0,0,19.723,9.594Zm-.292,5.622A6.394,6.394,0,0,0,15.99,16,7.068,7.068,0,0,0,13,19.916a3.739,3.739,0,0,0-.27,1.035,2.914,2.914,0,0,1-.495.18,5.385,5.385,0,0,0-3.981,2.924,4.377,4.377,0,0,0-.337,1.957c0,2.755,1.361,4.712,3.756,5.375a.84.84,0,0,0,.09.022c.554.079,2.777.067,11.042.067H33.1a.677.677,0,0,0,.315-.067l.45-.225a4.22,4.22,0,0,0,2.114-3.553A4.35,4.35,0,0,0,32.9,22.8l-.2-.067-.022-.382a5.491,5.491,0,0,0-5.6-5.038,6.308,6.308,0,0,0-2.114.382l-.225.067-.472-.45A5.711,5.711,0,0,0,19.431,15.216Z" transform="translate(1036 400.405)" fill="#5d718d"/>
  </g>
</svg>
