<svg xmlns="http://www.w3.org/2000/svg" width="30.476" height="40" viewBox="0 0 30.476 40">
  <path id="icons8-password" d="M19.238,1A11.4,11.4,0,0,0,7.81,12.429v1.9A3.821,3.821,0,0,0,4,18.143V37.19A3.821,3.821,0,0,0,7.81,41H30.667a3.821,3.821,0,0,0,3.81-3.81V18.143a3.821,3.821,0,0,0-3.81-3.81v-1.9A11.4,11.4,0,0,0,19.238,1Zm0,3.81a7.461,7.461,0,0,1,7.619,7.619v1.9H11.619v-1.9A7.461,7.461,0,0,1,19.238,4.81ZM11.619,25.762a1.9,1.9,0,1,1-1.9,1.9A1.91,1.91,0,0,1,11.619,25.762Zm7.619,0a1.9,1.9,0,1,1-1.9,1.9A1.91,1.91,0,0,1,19.238,25.762Zm7.619,0a1.9,1.9,0,1,1-1.9,1.9A1.91,1.91,0,0,1,26.857,25.762Z" transform="translate(-4 -1)" fill="#5d718d"/>
</svg>
