<svg xmlns="http://www.w3.org/2000/svg" xmlns:xlink="http://www.w3.org/1999/xlink" width="263" height="196" viewBox="0 0 263 196">
  <defs>
    <clipPath id="clip-path">
      <rect id="Rectangle_17956" data-name="Rectangle 17956" width="263" height="196" transform="translate(124 616.287)" fill="#fff" stroke="#707070" stroke-width="1"/>
    </clipPath>
    <linearGradient id="linear-gradient" x1="0.872" y1="-0.007" x2="0.141" y2="0.967" gradientUnits="objectBoundingBox">
      <stop offset="0" stop-color="#f2f2f2"/>
      <stop offset="0.079" stop-color="#f6f6f6"/>
      <stop offset="0.322" stop-color="#fdfdfd"/>
      <stop offset="1" stop-color="#fff"/>
    </linearGradient>
  </defs>
  <g id="payment_faild" transform="translate(-124 -616.287)" clip-path="url(#clip-path)">
    <g id="Group_60137" data-name="Group 60137" transform="translate(102.047 579.287)">
      <g id="Group_60136" data-name="Group 60136" transform="translate(303.166 269.471) rotate(-180)">
        <g id="Group_229425" data-name="Group 229425">
          <g id="Group_60134" data-name="Group 60134" transform="translate(303.166 86.044) rotate(110)" opacity="0.05">
            <path id="Path_72836" data-name="Path 72836" d="M134.574,65.915c16.244,18.957,39.148,22.1,50.656,35.621,11.463,13.57,11.486,37.567,7.763,63.386-3.723,25.769-11.148,53.359-27.689,69.823-16.5,16.463-42.064,21.75-61.109,11.824-19.045-9.876-31.568-35.013-48-51.264S19.409,171.639,8.936,155.709c-10.429-15.88-11.029-40.275-5.4-63.4C9.156,69.239,21,47.488,37.957,28.517S76.924-6.643,92.768,2.747c15.844,9.34,25.518,44.161,41.807,63.168" transform="translate(0 0)" fill="#f23d3d"/>
          </g>
          <g id="Group_60135" data-name="Group 60135" transform="translate(284.734 88.069) rotate(110)" opacity="0.1">
            <path id="Path_72836-2" data-name="Path 72836" d="M121.441,59.033c14.652,16.977,35.316,19.785,45.7,31.893,10.339,12.153,10.353,33.652,6.985,56.784-3.367,23.088-10.075,47.809-25,62.565-14.89,14.756-37.961,19.5-55.142,10.616-17.181-8.84-28.473-31.356-43.3-45.909S17.5,153.794,8.052,139.527c-9.405-14.223-9.939-36.078-4.857-56.8C8.277,62.058,18.974,42.567,34.276,25.565S69.446-5.95,83.738,2.457c14.293,8.362,23.011,39.554,37.7,56.576" transform="translate(0 0)" fill="#c13131" opacity="0.4"/>
          </g>
        </g>
      </g>
      <g id="Group_232311" data-name="Group 232311" transform="translate(-590.961 -521.382)">
        <path id="Path_82145" data-name="Path 82145" d="M808.36,822.537a70.122,70.122,0,0,1-66.039,70.031q-1.995.115-4.018.118h-.093a70.15,70.15,0,1,1,70.15-70.15Z" transform="translate(0 -159.771)" fill="#7bc7ff" opacity="0"/>
        <path id="Path_82146" data-name="Path 82146" d="M919.093,903.952a5.816,5.816,0,0,0-7.9-2.289l-1.157.637-1.714-3.109a4.455,4.455,0,0,0-6.052-1.753l-.745.41a52.827,52.827,0,0,1-.576-7.54,29.53,29.53,0,0,1,.473-5.585,105.551,105.551,0,0,0,1.831-14.3,20.742,20.742,0,0,0-1.724-9.991c-1.79-4.375-5.977-14.956-7.027-19.185-.313-1.263-.608-2.473-.873-3.64q-.209-.917-.395-1.8c-.315-1.5-.574-2.924-.757-4.29-.066-.492-.123-.978-.168-1.457-.022-.222-.054-.436-.094-.643a5.422,5.422,0,0,0-1.192-2.532h0a4.027,4.027,0,0,0-3.185-1.516l-.146.014-.115.014q-.048.006-.1.014l-.016,0,.016,0-.1.017-.05.009a5.381,5.381,0,0,0-2.917,1.647,6.968,6.968,0,0,0-1.183,1.661l-.224-2.051-.021-.194-2.961-27.1-37.072,4.049a27.07,27.07,0,0,0-2.039-2.835,70.367,70.367,0,0,0-40.676,35.956,27.317,27.317,0,0,0,2.135,2.011l.006.005.243.2.03.024c.074.061.148.121.222.181l.046.037.208.165.058.046.2.153.07.053.189.143.078.058.182.134.087.063.175.126.094.067.171.12.1.069.166.114.108.072.161.107.115.075.156.1.121.077.152.1.126.078.149.092.132.08.144.086.139.082.139.082.145.083.135.076.152.085.13.071.159.086.124.066.166.087.052.027.041.021c.139.072.279.143.419.213q.258.128.519.251.829.389,1.686.723l.342,3.13,5.88,53.838,2.6,2.434,2.015-2.939,2.6,2.434,2.015-2.938,2.6,2.434,2.015-2.938,2.6,2.434,2.015-2.939,2.6,2.434,2.015-2.938,2.6,2.434,1.161-1.694.347.276,1.427,1.131.129.1c.657.519,1.317,1.037,1.967,1.546,1.714,1.34,3.366,2.611,4.764,3.653,1,.742,1.864,1.369,2.531,1.818,3.505,2.357,5.78,3.521,8.9,6.528.1.1.2.2.307.3l.018.018.043.042.024.025.091.09.021.022c.175.174.352.354.532.541q.184.19.373.39l.185.2c.131.139.263.281.4.429l.047.051c.441.482.9,1,1.385,1.565l-.741.408a4.456,4.456,0,0,0-1.754,6.052l1.714,3.108h0l-1.159.638a5.816,5.816,0,0,0-2.289,7.9l1.128,2.048q2.023,0,4.018-.118a63.141,63.141,0,0,0,52.974-30.572Zm-75.249-6.642.144-.21.186.174Zm4.616-.5.144-.21.186.174Zm4.616-.5.144-.21.186.174Zm4.616-.5.144-.21.186.174Z" transform="translate(-125.218 -204.305)" fill="#ccc" style="mix-blend-mode: multiply;isolation: isolate"/>
        <g id="Group_232310" data-name="Group 232310" transform="translate(670.162 583.734)">
          <path id="Path_82147" data-name="Path 82147" d="M1705.8,1287.413a105.562,105.562,0,0,1-1.831,14.3c-1.037,5.26-.072,12,.1,13.125l.026.163-34.823,19.174-.1-.121c-.484-.563-.944-1.083-1.385-1.565l-.047-.051c-.134-.147-.266-.29-.4-.429l-.186-.2q-.189-.2-.373-.39c-.18-.187-.357-.366-.532-.541l-.021-.021-.091-.09-.024-.025-.043-.042-.018-.018c-.1-.1-.206-.2-.306-.3-3.12-3.006-5.394-4.17-8.9-6.528-.667-.448-1.534-1.075-2.531-1.817-1.4-1.042-3.051-2.313-4.764-3.653-.651-.509-1.311-1.027-1.967-1.546l-.129-.1-1.427-1.131c-.475-.377-.944-.751-1.4-1.118l17.911-1.956-3.179-29.107,27.546-3.009-.916-8.387,2.525-1.241-.123-.883-.625-4.525-2.161-15.629a11.2,11.2,0,0,1,.26-3.245l.006-.022a5.258,5.258,0,0,1,.523-1.321,5.1,5.1,0,0,1,3.634-2.768c.032-.006.064-.011.1-.015l.115-.014.146-.015a4.027,4.027,0,0,1,3.185,1.516,5.61,5.61,0,0,1,1.287,3.176,59.534,59.534,0,0,0,1.32,7.543c.265,1.166.56,2.376.873,3.64,1.05,4.229,5.237,14.81,7.027,19.185A20.736,20.736,0,0,1,1705.8,1287.413Z" transform="translate(-1595.299 -1207.665)" fill="#fcb89d"/>
          <path id="Path_82148" data-name="Path 82148" d="M1687.923,1676.995l4.068,37.248a7.155,7.155,0,0,1-1.946,5.735l-.584.547-23.4,21.912c-.1-.1-.206-.2-.306-.3-3.12-3.006-5.394-4.17-8.9-6.528-.667-.448-1.534-1.075-2.531-1.817-1.4-1.042-3.051-2.313-4.764-3.653-.651-.509-1.311-1.027-1.967-1.546l-.129-.1c-.479-.378-.955-.756-1.427-1.131s-.944-.751-1.4-1.118l17.911-1.956-2.332-21.347,1.754-1.643,7.74-7.247,18.065-16.915Z" transform="translate(-1595.299 -1619.416)" fill="#e6e6e6" style="mix-blend-mode: multiply;isolation: isolate"/>
          <g id="Group_232309" data-name="Group 232309" transform="translate(0 0)">
            <path id="Path_82149" data-name="Path 82149" d="M962.834,757.469l10.121,92.66,2.6,2.434,2.015-2.938,2.6,2.434,2.015-2.938,2.6,2.434,2.014-2.938,2.6,2.434,2.014-2.938,2.6,2.434,2.014-2.938,2.6,2.434,2.015-2.938,2.6,2.434,2.015-2.938,2.6,2.434,2.014-2.938,2.6,2.434,2.015-2.938,2.6,2.434,2.014-2.938,2.6,2.434,2.015-2.939,2.6,2.434,2.015-2.938,2.6,2.434,2.015-2.938,2.6,2.434,2.014-2.938,2.6,2.434,2.015-2.938,2.6,2.434,2.015-2.938-10.121-92.66Z" transform="translate(-949.411 -740.676)" fill="url(#linear-gradient)"/>
            <path id="Path_82150" data-name="Path 82150" d="M962.834,834.991l4.24,38.822a26.948,26.948,0,0,0,5.393,1.272,27.17,27.17,0,0,0,24.765-43.851Z" transform="translate(-949.411 -818.199)" fill="#e6e6e6" style="mix-blend-mode: multiply;isolation: isolate"/>
            <path id="Path_82151" data-name="Path 82151" d="M2130.847,2017.848a5.132,5.132,0,0,1-4.538,5.65l-.7.076.2,1.935-2.514.262-.2-1.923-4.472.489-.274-2.512,4.485-.49-.546-5.172-.666.073a5.128,5.128,0,0,1-1.114-10.195l.7-.077-.2-1.929,2.513-.268.2,1.923,4.466-.488.274,2.512-4.479.489.546,5.171.66-.072A5.133,5.133,0,0,1,2130.847,2017.848Zm-9.369-9.369-.691.075a2.6,2.6,0,0,0,.565,5.169l.672-.073Zm6.856,9.644a2.6,2.6,0,0,0-2.864-2.306l-.666.073.546,5.171.685-.074A2.6,2.6,0,0,0,2128.334,2018.123Z" transform="translate(-2041.79 -1928.979)" fill="#f23d3d"/>
            <path id="Path_82152" data-name="Path 82152" d="M1498.033,2410.618l-12.273,1.341a1.743,1.743,0,0,0-1.543,1.922h0a1.743,1.743,0,0,0,1.922,1.544l12.273-1.34a1.743,1.743,0,0,0,1.543-1.922h0A1.743,1.743,0,0,0,1498.033,2410.618Z" transform="translate(-1443.324 -2314.391)" fill="#ccc"/>
            <path id="Path_82153" data-name="Path 82153" d="M1277.968,2260.926l-23.6,2.578a1.743,1.743,0,0,0-1.543,1.922h0a1.743,1.743,0,0,0,1.922,1.544l23.6-2.578a1.743,1.743,0,0,0,1.543-1.922h0A1.743,1.743,0,0,0,1277.968,2260.926Z" transform="translate(-1224.12 -2172.583)" fill="#ccc"/>
            <path id="Path_82154" data-name="Path 82154" d="M1832.875,905.54l-20.254,2.212a1.5,1.5,0,0,0-1.325,1.65h0a1.5,1.5,0,0,0,1.65,1.325l20.254-2.212a1.5,1.5,0,0,0,1.325-1.65h0A1.5,1.5,0,0,0,1832.875,905.54Z" transform="translate(-1753.178 -888.582)" fill="#ccc"/>
            <path id="Path_82155" data-name="Path 82155" d="M1894.946,1473.807l-20.254,2.212a1.5,1.5,0,0,0-1.325,1.65h0a1.5,1.5,0,0,0,1.65,1.325l20.254-2.212a1.5,1.5,0,0,0,1.325-1.65h0A1.5,1.5,0,0,0,1894.946,1473.807Z" transform="translate(-1811.979 -1426.921)" fill="#ccc"/>
            <path id="Path_82156" data-name="Path 82156" d="M1847.586,1040.226l-20.254,2.212a1.5,1.5,0,0,0-1.325,1.65h0a1.5,1.5,0,0,0,1.65,1.325l20.254-2.212a1.5,1.5,0,0,0,1.325-1.65h0A1.5,1.5,0,0,0,1847.586,1040.226Z" transform="translate(-1767.114 -1016.175)" fill="#ccc"/>
            <rect id="Rectangle_18118" data-name="Rectangle 18118" width="60.425" height="11.384" rx="5.692" transform="translate(86.685 67.153) rotate(173.766)" fill="#e6e6e6"/>
            <g id="Group_232308" data-name="Group 232308">
              <path id="Path_82157" data-name="Path 82157" d="M708.13,613.847a27.107,27.107,0,0,0,14.494,21.164q.483.252.978.484a27,27,0,0,0,7.345,2.246q.338.052.677.1a27.165,27.165,0,1,0-23.505-24.085C708.123,613.783,708.126,613.815,708.13,613.847Z" transform="translate(-707.967 -583.734)" fill="#f23d3d"/>
              <g id="Group_232307" data-name="Group 232307" transform="translate(17.965 9.902)" style="mix-blend-mode: multiply;isolation: isolate">
                <path id="Path_82158" data-name="Path 82158" d="M1165.134,1280.456a3.994,3.994,0,1,0-3.149,4.74A3.861,3.861,0,0,0,1165.134,1280.456Z" transform="translate(-1151.514 -1250.518)" fill="#ccc"/>
                <path id="Path_82159" data-name="Path 82159" d="M1060.317,793.788l-2.976-20.481a1.832,1.832,0,0,0-2.164-1.535l-4.617.9a1.832,1.832,0,0,0-1.428,2.236l4.951,20.1a1.988,1.988,0,0,0,2.312,1.476l2.336-.456A1.989,1.989,0,0,0,1060.317,793.788Z" transform="translate(-1049.078 -771.738)" fill="#ccc"/>
              </g>
              <path id="Path_82160" data-name="Path 82160" d="M735.845,792.04l20.33-25.315a1.822,1.822,0,0,1,1.136-.567l4.676-.511a1.832,1.832,0,0,1,2.028,1.711l1.245,20.659a1.98,1.98,0,0,1-.341,1.238l-.2.244-2.4,2.993h0c.077-.012.155-.023.235-.032a3.861,3.861,0,0,1,4.416,3.617,4.078,4.078,0,0,1-.732,2.928l-8.88,11.058a27,27,0,0,1-7.345-2.246q-.228-.107-.453-.218l-.066-.033A27.193,27.193,0,0,1,735.845,792.04Z" transform="translate(-734.377 -756.056)" fill="#ccc" style="mix-blend-mode: multiply;isolation: isolate"/>
              <path id="Path_82161" data-name="Path 82161" d="M1175.59,1278.93a3.842,3.842,0,0,0,4.4,3.591,3.986,3.986,0,0,0,2.635-1.32c.059-.068.115-.138.168-.21a4.078,4.078,0,0,0,.732-2.928,3.861,3.861,0,0,0-4.416-3.617,3.951,3.951,0,0,0-2.61,1.286c-.064.073-.125.149-.182.227l0,0A4.23,4.23,0,0,0,1175.59,1278.93Z" transform="translate(-1150.937 -1238.041)" fill="#fff"/>
              <path id="Path_82162" data-name="Path 82162" d="M1112.421,768.266l3.245,20.44a1.989,1.989,0,0,0,2.18,1.665l2.365-.258a1.989,1.989,0,0,0,1.769-2.1l-1.245-20.659a1.832,1.832,0,0,0-2.028-1.711l-4.676.511a1.822,1.822,0,0,0-1.136.567,1.8,1.8,0,0,0-.178.222A1.825,1.825,0,0,0,1112.421,768.266Z" transform="translate(-1091.098 -756.056)" fill="#fff"/>
            </g>
          </g>
          <path id="Path_82163" data-name="Path 82163" d="M2073.3,2801.1l-18.193,10.017a4.456,4.456,0,0,0-1.754,6.052l1.846,3.347,22.1-12.167Z" transform="translate(-1981.973 -2684.318)" fill="#f2f2f2"/>
          <path id="Path_82164" data-name="Path 82164" d="M2468.136,2606.037l-22.1,12.167h0l-3.995-7.25,18.194-10.018a4.456,4.456,0,0,1,6.052,1.754Z" transform="translate(-2350.716 -2494.171)" fill="#fff"/>
          <path id="Path_82165" data-name="Path 82165" d="M2051.5,2949.85a69.737,69.737,0,0,1-31.629,9.656l-2.513-4.563a5.816,5.816,0,0,1,2.289-7.9l1.159-.639h0l22.1-12.167h0Z" transform="translate(-1947.71 -2810.442)" fill="#4a6684"/>
          <path id="Path_82166" data-name="Path 82166" d="M2547.945,2682.989a70.5,70.5,0,0,1-23.979,23.55l-8.6-15.613,22.1-12.166h0l1.158-.638a5.816,5.816,0,0,1,7.9,2.289Z" transform="translate(-2420.179 -2567.131)" fill="#547593"/>
          <path id="Path_82167" data-name="Path 82167" d="M2518.551,1281.915a8.265,8.265,0,0,1-1.8-.139,4.014,4.014,0,0,1-2.44-1.837c-.786-.978-1.21-3.826-1.436-4.865a3.678,3.678,0,0,1,.3-2.86c.551-.965,2.739-1.023,2.739-1.023l.035.006a5.6,5.6,0,0,1,1.285,3.175A59.951,59.951,0,0,0,2518.551,1281.915Z" transform="translate(-2417.67 -1234.984)" fill="#666" style="mix-blend-mode: screen;isolation: isolate"/>
          <path id="Path_82168" data-name="Path 82168" d="M2400.03,1243.307c-.553.086-1.164,1.136-1.712,2.414a17.6,17.6,0,0,0-1.336,8.484l1.47,16.654c-1.82-1.349-3.6-5.954-4.2-11.509a32.371,32.371,0,0,1,.969-11.236,7.146,7.146,0,0,1,1.746-3.134A5.345,5.345,0,0,1,2400.03,1243.307Z" transform="translate(-2305.298 -1208.569)" fill="#fcb89d"/>
          <path id="Path_82169" data-name="Path 82169" d="M2369.093,1267.7a7.408,7.408,0,0,1,.564-1.473l-.245-2.245a8.683,8.683,0,0,0-1.723,3.345c-.11.414-.25.98-.394,1.667a33.131,33.131,0,0,0-.615,10.1,32.692,32.692,0,0,0,1.729,7.68,17.683,17.683,0,0,0,1.092,2.419q.122.219.247.423a6.967,6.967,0,0,0,1.715,2l1.053.781-.215-1.969c-1.325-1-2.623-3.73-3.461-7.286a34.972,34.972,0,0,1-.715-4.2,26.638,26.638,0,0,1-.137-3.6A34.339,34.339,0,0,1,2369.093,1267.7Z" transform="translate(-2279.172 -1228.152)" fill="#ccc" style="mix-blend-mode: multiply;isolation: isolate"/>
        </g>
      </g>
    </g>
  </g>
</svg>
