<svg xmlns="http://www.w3.org/2000/svg" xmlns:xlink="http://www.w3.org/1999/xlink" width="437.439" height="326" viewBox="0 0 437.439 326">
  <defs>
    <clipPath id="clip-path">
      <rect id="Rectangle_17956" data-name="Rectangle 17956" width="437.439" height="326" transform="translate(124 616.287)" fill="#fff" stroke="#707070" stroke-width="1"/>
    </clipPath>
    <linearGradient id="linear-gradient" x1="0.872" y1="-0.007" x2="0.141" y2="0.967" gradientUnits="objectBoundingBox">
      <stop offset="0" stop-color="#f2f2f2"/>
      <stop offset="0.079" stop-color="#f6f6f6"/>
      <stop offset="0.322" stop-color="#fdfdfd"/>
      <stop offset="1" stop-color="#fff"/>
    </linearGradient>
  </defs>
  <g id="payment_faild" transform="translate(-124 -616.287)" clip-path="url(#clip-path)">
    <g id="Group_60137" data-name="Group 60137" transform="translate(87.487 554.748)">
      <g id="Group_60136" data-name="Group 60136" transform="translate(504.245 448.199) rotate(180)">
        <g id="Group_229425" data-name="Group 229425" transform="translate(0 0)">
          <g id="Group_60134" data-name="Group 60134" transform="matrix(-0.342, 0.94, -0.94, -0.342, 504.245, 143.114)" opacity="0.05">
            <path id="Path_72836" data-name="Path 72836" d="M223.831,109.634c27.018,31.531,65.114,36.758,84.254,59.247,19.066,22.571,19.1,62.484,12.912,105.428-6.192,42.861-18.542,88.75-46.054,116.134C247.5,417.826,204.979,426.619,173.3,410.11c-31.677-16.426-52.506-58.236-79.837-85.266s-61.185-39.363-78.6-65.859C-2.485,232.573-3.483,192,5.88,153.535c9.348-38.372,29.047-74.549,57.251-106.1S127.943-11.049,154.3,4.569c26.353,15.535,42.443,73.451,69.536,105.065" transform="translate(0 0)" fill="#f23d3d"/>
          </g>
          <g id="Group_60135" data-name="Group 60135" transform="matrix(-0.342, 0.94, -0.94, -0.342, 473.588, 146.481)" opacity="0.1">
            <path id="Path_72836-2" data-name="Path 72836" d="M201.988,98.188c24.37,28.237,58.74,32.908,76.011,53.047,17.2,20.214,17.22,55.972,11.618,94.447-5.6,38.4-16.757,79.519-41.582,104.062C223.27,374.287,184.9,382.177,156.32,367.4c-28.577-14.7-47.358-52.153-72.019-76.359S29.107,255.8,13.392,232.071C-2.251,208.414-3.139,172.064,5.314,137.6c8.453-34.378,26.245-66.8,51.7-95.076S115.507-9.9,139.278,4.087c23.773,13.908,38.273,65.789,62.705,94.1" transform="translate(0 0)" fill="#c13131" opacity="0.4"/>
          </g>
        </g>
      </g>
      <g id="Group_232311" data-name="Group 232311" transform="translate(128.235 103.713)">
        <path id="Path_82145" data-name="Path 82145" d="M901.416,869.066a116.631,116.631,0,0,1-109.84,116.48q-3.318.192-6.683.2h-.155A116.678,116.678,0,1,1,901.416,869.064Z" transform="translate(-668.06 -737.621)" fill="#7bc7ff" opacity="0"/>
        <path id="Path_82146" data-name="Path 82146" d="M997.928,973.3a9.673,9.673,0,0,0-13.14-3.807l-1.924,1.06-2.851-5.171a7.41,7.41,0,0,0-10.066-2.916l-1.239.682a87.835,87.835,0,0,1-.958-12.541,49.121,49.121,0,0,1,.787-9.289,175.544,175.544,0,0,0,3.046-23.785,34.5,34.5,0,0,0-2.867-16.618c-2.978-7.277-9.942-24.876-11.688-31.91-.521-2.1-1.011-4.113-1.452-6.054q-.348-1.525-.657-2.994c-.524-2.495-.955-4.863-1.259-7.135-.11-.818-.2-1.627-.28-2.423-.037-.369-.09-.725-.156-1.07a9.019,9.019,0,0,0-1.983-4.211h0a6.7,6.7,0,0,0-5.3-2.521l-.243.023-.191.023-.166.023h0l-.166.028-.083.015a8.95,8.95,0,0,0-4.852,2.739,11.581,11.581,0,0,0-1.968,2.763L937.9,844.8l-.035-.323L932.941,799.4l-61.661,6.735a44.99,44.99,0,0,0-3.391-4.715,117.038,117.038,0,0,0-67.655,59.8,45.44,45.44,0,0,0,3.551,3.345l.01.008.4.333.05.04c.123.1.246.2.369.3l.076.062.346.274.1.077.333.255.116.088.314.238.13.1.3.223.145.1.291.209.156.111.284.2.166.115.276.19.18.12.268.178.191.125.259.166.2.128.253.166.209.13.248.153.219.133.24.143.231.136.231.136.241.138.224.126.253.141.216.118.265.143.206.11.276.145.087.045.068.035q.347.18.7.354.429.213.863.417,1.379.647,2.8,1.2l.569,5.206,9.78,89.547,4.324,4.048,3.351-4.888,4.325,4.048,3.351-4.887,4.324,4.048,3.351-4.887,4.325,4.048,3.351-4.888,4.324,4.048,3.351-4.887,4.325,4.048,1.931-2.817.577.459,2.373,1.881.215.166c1.093.863,2.191,1.725,3.272,2.572,2.851,2.229,5.6,4.343,7.924,6.076,1.663,1.234,3.1,2.277,4.21,3.024,5.83,3.92,9.614,5.856,14.8,10.858.166.166.333.333.511.5l.03.03.072.07.04.042.151.15.035.036q.436.434.885.9.306.316.62.649l.308.333c.218.231.438.467.665.714l.078.085c.734.8,1.5,1.663,2.3,2.6l-1.232.679a7.411,7.411,0,0,0-2.917,10.066l2.851,5.169h0l-1.928,1.061a9.674,9.674,0,0,0-3.807,13.14l1.876,3.406q3.365,0,6.683-.2a105.02,105.02,0,0,0,88.11-50.85ZM872.769,962.25l.239-.349.309.289Zm7.678-.832.24-.349.309.289Zm7.678-.832.239-.349.309.29Zm7.678-.832.239-.349.309.289Z" transform="translate(-788.664 -780.51)" fill="#ccc"/>
        <g id="Group_232310" data-name="Group 232310" transform="translate(3.498 0)">
          <path id="Path_82147" data-name="Path 82147" d="M1746.374,1317.3a175.589,175.589,0,0,1-3.046,23.785c-1.725,8.749-.12,19.959.167,21.83l.043.271-57.92,31.891-.166-.2c-.8-.937-1.57-1.8-2.3-2.6l-.078-.085c-.223-.244-.442-.482-.665-.714l-.31-.333q-.314-.333-.62-.649c-.3-.311-.594-.609-.885-.9l-.035-.035-.151-.15-.04-.042-.071-.07-.03-.03c-.167-.166-.343-.333-.509-.5-5.189-5-8.972-6.936-14.8-10.858-1.109-.745-2.552-1.788-4.21-3.022-2.329-1.733-5.075-3.847-7.924-6.076-1.083-.847-2.18-1.708-3.271-2.571l-.215-.166-2.373-1.881c-.79-.627-1.57-1.249-2.329-1.86l29.791-3.253-5.287-48.413,45.816-5-1.523-13.95,4.2-2.064-.2-1.469-1.04-7.526-3.594-26a18.623,18.623,0,0,1,.433-5.4l.01-.036a8.722,8.722,0,0,1,.87-2.2,8.483,8.483,0,0,1,6.044-4.6c.053-.01.106-.018.166-.025l.191-.023.243-.025a6.7,6.7,0,0,1,5.3,2.521,9.333,9.333,0,0,1,2.141,5.283,99,99,0,0,0,2.2,12.546c.441,1.94.931,3.952,1.452,6.055,1.747,7.034,8.711,24.633,11.688,31.91a34.488,34.488,0,0,1,2.858,16.634Z" transform="translate(-1562.583 -1184.667)" fill="#fcb89d"/>
          <path id="Path_82148" data-name="Path 82148" d="M1716.63,1676.99l6.766,61.953a11.9,11.9,0,0,1-3.237,9.539l-.971.91-38.92,36.445c-.166-.166-.343-.333-.509-.5-5.189-5-8.972-6.936-14.8-10.858-1.109-.745-2.552-1.788-4.21-3.022-2.329-1.733-5.075-3.847-7.924-6.076-1.083-.847-2.18-1.708-3.272-2.571l-.215-.167q-1.195-.943-2.374-1.881c-.785-.624-1.57-1.249-2.328-1.859l29.791-3.254-3.879-35.506,2.917-2.733,12.874-12.053,30.047-28.134Z" transform="translate(-1562.579 -1581.236)" fill="#e6e6e6"/>
          <g id="Group_232309" data-name="Group 232309" transform="translate(0)">
            <path id="Path_82149" data-name="Path 82149" d="M962.834,762.818l16.834,154.118,4.324,4.048,3.351-4.887,4.325,4.048,3.351-4.887,4.324,4.048,3.35-4.887,4.324,4.048,3.35-4.887,4.325,4.048,3.35-4.887,4.324,4.049,3.352-4.887,4.324,4.048,3.351-4.887,4.325,4.048,3.35-4.887,4.324,4.049,3.352-4.887,4.324,4.048,3.35-4.887,4.325,4.048,3.351-4.888,4.325,4.048,3.351-4.887,4.324,4.048,3.351-4.887,4.324,4.048,3.35-4.887,4.324,4.048,3.352-4.887,4.324,4.049,3.352-4.887L1085.639,749.4Z" transform="translate(-940.51 -734.893)" fill="url(#linear-gradient)"/>
            <path id="Path_82150" data-name="Path 82150" d="M962.834,837.483l7.052,64.571a45.188,45.188,0,0,0,50.161-70.82Z" transform="translate(-940.51 -809.56)" fill="#e6e6e6"/>
            <path id="Path_82151" data-name="Path 82151" d="M2140.74,2027.189a8.536,8.536,0,0,1-7.548,9.4l-1.165.126.333,3.218-4.182.436-.332-3.2-7.438.814-.456-4.178,7.46-.815-.908-8.6-1.108.121a8.529,8.529,0,1,1-1.853-16.957l1.164-.128-.333-3.208,4.18-.446.333,3.2,7.428-.812.456,4.178-7.45.813.908,8.6,1.1-.12a8.538,8.538,0,0,1,9.413,7.562Zm-15.583-15.583-1.149.125a4.324,4.324,0,1,0,.94,8.6l1.118-.122Zm11.4,16.04a4.324,4.324,0,0,0-4.764-3.836l-1.108.122.908,8.6,1.139-.123a4.325,4.325,0,0,0,3.813-4.772Z" transform="translate(-1992.611 -1879.38)" fill="#f23d3d"/>
            <path id="Path_82152" data-name="Path 82152" d="M1507.2,2410.627l-20.413,2.231a2.9,2.9,0,0,0-2.566,3.2h0a2.9,2.9,0,0,0,3.2,2.568l20.413-2.229a2.9,2.9,0,0,0,2.566-3.2h0A2.9,2.9,0,0,0,1507.2,2410.627Z" transform="translate(-1416.212 -2250.579)" fill="#ccc"/>
            <path id="Path_82153" data-name="Path 82153" d="M1294.654,2260.938l-39.253,4.288a2.9,2.9,0,0,0-2.566,3.2h0a2.9,2.9,0,0,0,3.2,2.568l39.253-4.288a2.9,2.9,0,0,0,2.567-3.2h0a2.9,2.9,0,0,0-3.2-2.568Z" transform="translate(-1205.089 -2113.999)" fill="#ccc"/>
            <path id="Path_82154" data-name="Path 82154" d="M1847.2,905.546l-33.688,3.679a2.5,2.5,0,0,0-2.2,2.745h0a2.5,2.5,0,0,0,2.745,2.2l33.688-3.679a2.494,2.494,0,0,0,2.2-2.744h0A2.5,2.5,0,0,0,1847.2,905.546Z" transform="translate(-1714.635 -877.346)" fill="#ccc"/>
            <path id="Path_82155" data-name="Path 82155" d="M1909.268,1473.816l-33.688,3.679a2.5,2.5,0,0,0-2.2,2.745h0a2.5,2.5,0,0,0,2.745,2.2l33.688-3.679a2.494,2.494,0,0,0,2.2-2.744h0a2.5,2.5,0,0,0-2.744-2.2Z" transform="translate(-1771.267 -1395.833)" fill="#ccc"/>
            <path id="Path_82156" data-name="Path 82156" d="M1861.908,1040.236l-33.688,3.679a2.5,2.5,0,0,0-2.2,2.745h0a2.5,2.5,0,0,0,2.744,2.2l33.688-3.679a2.5,2.5,0,0,0,2.2-2.744h0A2.5,2.5,0,0,0,1861.908,1040.236Z" transform="translate(-1728.057 -1000.232)" fill="#ccc"/>
            <rect id="Rectangle_18118" data-name="Rectangle 18118" width="100.503" height="18.935" rx="5.692" transform="translate(144.178 111.687) rotate(173.766)" fill="#e6e6e6"/>
            <g id="Group_232308" data-name="Group 232308">
              <path id="Path_82157" data-name="Path 82157" d="M708.237,633.817a45.086,45.086,0,0,0,24.107,35.2q.8.419,1.627.805a44.909,44.909,0,0,0,12.217,3.735q.562.087,1.126.166a45.183,45.183,0,1,0-39.1-40.06C708.226,633.711,708.231,633.764,708.237,633.817Z" transform="translate(-707.968 -583.738)" fill="#f23d3d"/>
              <g id="Group_232307" data-name="Group 232307" transform="translate(29.885 16.464)">
                <path id="Path_82158" data-name="Path 82158" d="M1170.372,1282.566a6.643,6.643,0,1,0-5.238,7.884,6.423,6.423,0,0,0,5.238-7.884Z" transform="translate(-1147.732 -1232.765)" fill="#ccc"/>
                <path id="Path_82159" data-name="Path 82159" d="M1067.774,808.413l-4.95-34.065a3.047,3.047,0,0,0-3.6-2.553l-7.679,1.5a3.047,3.047,0,0,0-2.375,3.719l8.235,33.432a3.306,3.306,0,0,0,3.845,2.455l3.886-.758a3.309,3.309,0,0,0,2.637-3.726Z" transform="translate(-1049.082 -771.738)" fill="#ccc"/>
              </g>
              <path id="Path_82161" data-name="Path 82161" d="M1175.614,1281.931a6.39,6.39,0,0,0,7.318,5.973,6.629,6.629,0,0,0,4.382-2.2q.147-.169.279-.349a6.784,6.784,0,0,0,1.218-4.87,6.422,6.422,0,0,0-7.345-6.016,6.571,6.571,0,0,0-4.341,2.139c-.106.121-.208.248-.3.377h0a7.036,7.036,0,0,0-1.209,4.941Z" transform="translate(-1134.611 -1213.928)" fill="#fff"/>
              <path id="Path_82162" data-name="Path 82162" d="M1112.436,770.013l5.4,34a3.309,3.309,0,0,0,3.626,2.77l3.933-.429a3.308,3.308,0,0,0,2.942-3.493l-2.071-34.361a3.047,3.047,0,0,0-3.373-2.846l-7.778.85a3.03,3.03,0,0,0-1.889.943,3,3,0,0,0-.3.369,3.035,3.035,0,0,0-.493,2.2Z" transform="translate(-1076.974 -749.711)" fill="#fff"/>
            </g>
          </g>
          <path id="Path_82163" data-name="Path 82163" d="M2086.9,2801.1l-30.26,16.661a7.411,7.411,0,0,0-2.917,10.066l3.071,5.567,36.758-20.237Z" transform="translate(-1934.998 -2606.867)" fill="#f2f2f2"/>
          <path id="Path_82164" data-name="Path 82164" d="M2485.448,2609.791l-36.759,20.237h0l-6.645-12.059,30.262-16.663a7.412,7.412,0,0,1,10.066,2.917Z" transform="translate(-2290.143 -2423.728)" fill="#fff"/>
          <path id="Path_82165" data-name="Path 82165" d="M2074.625,2960.206a115.989,115.989,0,0,1-52.607,16.061l-4.18-7.59a9.674,9.674,0,0,1,3.807-13.14l1.928-1.062h0l36.758-20.237h0Z" transform="translate(-1901.996 -2728.339)" fill="#4a6684"/>
          <path id="Path_82166" data-name="Path 82166" d="M2569.559,2686.7a117.262,117.262,0,0,1-39.884,39.17l-14.3-25.969,36.759-20.235h0l1.926-1.061a9.674,9.674,0,0,1,13.14,3.807Z" transform="translate(-2357.043 -2494)" fill="#547593"/>
          <path id="Path_82167" data-name="Path 82167" d="M2522.422,1289.033a13.757,13.757,0,0,1-2.993-.231,6.677,6.677,0,0,1-4.058-3.055c-1.308-1.627-2.013-6.364-2.389-8.092a6.118,6.118,0,0,1,.5-4.757c.917-1.605,4.556-1.7,4.556-1.7l.058.01a9.31,9.31,0,0,1,2.137,5.281A99.72,99.72,0,0,0,2522.422,1289.033Z" transform="translate(-2354.633 -1210.972)" fill="#666"/>
          <path id="Path_82168" data-name="Path 82168" d="M2403.948,1243.31c-.92.143-1.936,1.889-2.848,4.015a29.273,29.273,0,0,0-2.222,14.111l2.445,27.7c-3.027-2.244-5.988-9.9-6.986-19.143a53.838,53.838,0,0,1,1.612-18.688,11.885,11.885,0,0,1,2.9-5.213,8.891,8.891,0,0,1,5.094-2.783Z" transform="translate(-2246.385 -1185.533)" fill="#fcb89d"/>
          <path id="Path_82169" data-name="Path 82169" d="M2370.785,1270.166a12.322,12.322,0,0,1,.938-2.45l-.408-3.734a14.442,14.442,0,0,0-2.866,5.564c-.183.688-.416,1.63-.656,2.772a55.124,55.124,0,0,0-1.023,16.8,54.363,54.363,0,0,0,2.876,12.774,29.44,29.44,0,0,0,1.817,4.023q.2.364.411.7a11.594,11.594,0,0,0,2.852,3.326l1.752,1.3-.358-3.275c-2.2-1.663-4.363-6.2-5.756-12.119a58.027,58.027,0,0,1-1.189-6.986,44.184,44.184,0,0,1-.229-5.988,57.123,57.123,0,0,1,1.837-12.711Z" transform="translate(-2221.23 -1204.394)" fill="#ccc"/>
        </g>
      </g>
    </g>
  </g>
</svg>
