<svg xmlns="http://www.w3.org/2000/svg" width="24" height="24" viewBox="0 0 24 24">
  <g id="Group_60380" data-name="Group 60380" transform="translate(-620)">
    <rect id="Rectangle_16474" data-name="Rectangle 16474" width="24" height="24" rx="4" transform="translate(620)" fill="#929fb2" opacity="0"/>
    <path id="icons8_name" d="M20.778,3H5.222A2.222,2.222,0,0,0,3,5.222V20.778A2.222,2.222,0,0,0,5.222,23H20.778A2.222,2.222,0,0,0,23,20.778V5.222A2.222,2.222,0,0,0,20.778,3ZM13,6.333a3.274,3.274,0,0,1,3.333,3.333,3.333,3.333,0,1,1-6.667,0A3.274,3.274,0,0,1,13,6.333Zm6.667,13.333H6.333V18.556c0-1.746,3.024-3.333,6.667-3.333s6.667,1.588,6.667,3.333Z" transform="translate(619 -1)" fill="#929fb2"/>
  </g>
</svg>
