<svg xmlns="http://www.w3.org/2000/svg" width="40" height="40" viewBox="0 0 40 40">
  <path id="icons8-phone" d="M39.085,30.265l-5.611-.646a4.433,4.433,0,0,0-3.652,1.269L25.7,35.008A33.509,33.509,0,0,1,11.028,20.334l4.119-4.119a4.433,4.433,0,0,0,1.269-3.652l-.646-5.611A4.456,4.456,0,0,0,11.34,3.01H7.488A4.419,4.419,0,0,0,3.035,7.619,37.709,37.709,0,0,0,14.041,32,37.709,37.709,0,0,0,38.417,43a4.419,4.419,0,0,0,4.609-4.453V34.7A4.456,4.456,0,0,0,39.085,30.265Z" transform="translate(-3.026 -3.01)" fill="#5d718d"/>
</svg>
