<svg xmlns="http://www.w3.org/2000/svg" width="388" height="264.923" viewBox="0 0 388 264.923">
    <g id="password_reset_successful" transform="translate(-2512 1010)">
        <g id="Group_53381" data-name="Group 53381" transform="translate(2516.735 -1010)">
            <path id="Path_49997" data-name="Path 49997" d="M318.234,122.885c-25.091-7.982-54.7-11.782-80.983-13.077a239.338,239.338,0,0,0-136.7,35.259c-21.777,13.473-41.818,31.089-53.2,54.027-28.564,57.561,16.335,110.315,72.664,121.527,28.405,5.655,57.706,3.3,86.611,1.466,37.563-2.379,75.274-3.83,112.824-1.265,14.322.978,28.886,2.523,42.9-.6,32.811-7.3,55.792-40.139,58.97-73.6a104.421,104.421,0,0,0-25.11-77.709,120.232,120.232,0,0,0-27.77-22.982A228.255,228.255,0,0,0,318.234,122.885Z" transform="translate(-38.495 -95.653)" fill="#f0f4f7"/>
            <path id="Path_49998" data-name="Path 49998" d="M433.89,126.487a5.788,5.788,0,0,0,2.612-.53,4.829,4.829,0,0,0,1.624-1.739,9.231,9.231,0,0,0,1.489-6.625,5.461,5.461,0,0,0-4.713-4.432c-2.317-.119-4.592,2.176-4.04,4.429a5.429,5.429,0,0,0-4.255-1.363,3.391,3.391,0,0,0-2.884,3.107,7.558,7.558,0,1,0-14.582,2.737,7.085,7.085,0,0,0-3.633-1.211c-1.292.061-2.626,1.143-2.453,2.424-.487-3.6-7.69-2.088-8.048,1.2-.424,3.893,5.759,2.967,8.157,2.929Q418.533,127.162,433.89,126.487Z" transform="translate(-75.981 -95.886)" fill="#edf0f3"/>
            <path id="Path_50000" data-name="Path 50000" d="M127.31,114.391c2.751-.049,5.684-.157,7.938-1.733s3.268-5.208,1.264-7.092a3.667,3.667,0,0,0-5.727,1.551c.433-1.835-2.362-3.367-3.676-2.013a14.164,14.164,0,0,0-2.48-8.027,6.612,6.612,0,0,0-3.867-2.966,6.292,6.292,0,0,0-4.863,1.414,11.708,11.708,0,0,0-4.473,11.076,3.653,3.653,0,0,0-6.539,1.564A7.576,7.576,0,0,0,100.9,105.9c-1.545-.166-3.32,1.034-3.135,2.578a12.458,12.458,0,0,0-6.979-4.085c-2.717-.4-5.775.741-7.03,3.185a5.586,5.586,0,0,0,3.01,7.327c3.315,1.182,8.489.068,11.962,0Z" transform="translate(-43.204 -94.022)" fill="#edf0f3"/>
        </g>
        <g id="Group_53382" data-name="Group 53382" transform="translate(2512 -835.042)">
            <g id="Group_53296" data-name="Group 53296" transform="translate(0 13.31)">
                <path id="Path_50001" data-name="Path 50001" d="M42.58,347.619a24.087,24.087,0,0,1-4.707-2.039,9.433,9.433,0,0,1-3.12-2.57,4.287,4.287,0,0,1-.707-3.855c.916-2.525,3.541-2.563,5.749-2.882a13.4,13.4,0,0,1,7.741,1.124,16.878,16.878,0,0,1-4.486-4.3,2.566,2.566,0,0,1-.626-2.352,1.818,1.818,0,0,1,1.742-.982,4.612,4.612,0,0,1,2,.66,7.017,7.017,0,0,0,1.885.964c-2.166-2.417-5.157-4.327-7.488-6.654a29.131,29.131,0,0,1-5.645-7.261c-1.561-3.083-2.9-8.524-.028-11.224,2.713-2.548,7.289-2.25,10.249-.319a19.826,19.826,0,0,1,5.366,5.781c3.671,5.471,6.347,11.535,9,17.564.527-1.193,1.3-2.566,2.6-2.641a2.419,2.419,0,0,1,1.981,1.064,7.152,7.152,0,0,1,.954,2.129c.334-1.691,1.076-3.684,2.775-3.974,1.548-.264,2.909,1.137,3.485,2.6a9.912,9.912,0,0,1-1.079,8.539c-2.11,3.536-5.757,6-9.029,8.367a17.6,17.6,0,0,1-3.248,1.985,13.905,13.905,0,0,1-2.287.736A24.679,24.679,0,0,1,42.58,347.619Z" transform="translate(-33.203 -304.414)" fill="#1ec769"/>
                <path id="Path_50002" data-name="Path 50002" d="M39.014,308.478S56.172,324.795,61.1,343.736" transform="translate(-33.814 -304.841)" fill="none" stroke="#e4e5e8" stroke-linecap="round" stroke-linejoin="round" stroke-width="0.567" opacity="0.55"/>
                <path id="Path_50003" data-name="Path 50003" d="M72.057,331.232s-2.627,8.558-8.872,13.265" transform="translate(-36.356 -307.234)" fill="#e0e0e0" stroke="#929fb2" stroke-linecap="round" stroke-linejoin="round" stroke-width="0.567"/>
                <path id="Path_50004" data-name="Path 50004" d="M35.664,343.967s16.268,5.272,23.951-.254" transform="translate(-33.462 -308.546)" fill="none" stroke="#e4e5e8" stroke-linecap="round" stroke-linejoin="round" stroke-width="0.567" opacity="0.63"/>
                <path id="Path_50005" data-name="Path 50005" d="M46.086,335.283s8.489,5.48,13.264,4.01" transform="translate(-34.558 -307.66)" fill="none" stroke="#e4e5e8" stroke-linecap="round" stroke-linejoin="round" stroke-width="0.567" opacity="0.63"/>
                <path id="Path_50006" data-name="Path 50006" d="M38.462,317.783s9.17,10.938,14.595,9.068" transform="translate(-33.756 -305.819)" fill="none" stroke="#e4e5e8" stroke-linecap="round" stroke-linejoin="round" stroke-width="0.567" opacity="0.63"/>
                <path id="Path_50007" data-name="Path 50007" d="M46.575,309.7c.14.2,3.579,6.892,2.924,9.995" transform="translate(-34.609 -304.97)" fill="none" stroke="#e4e5e8" stroke-linecap="round" stroke-linejoin="round" stroke-width="0.567" opacity="0.63"/>
                <path id="Path_50008" data-name="Path 50008" d="M65.177,332.286s-.549,6.245-3.4,8.623" transform="translate(-36.208 -307.344)" fill="#e0e0e0" stroke="#929fb2" stroke-linecap="round" stroke-linejoin="round" stroke-width="0.567"/>
                <path id="Path_50009" data-name="Path 50009" d="M55.293,346.131s-4.19,3.211-8.119,3.793" transform="translate(-34.672 -308.8)" fill="none" stroke="#e4e5e8" stroke-linecap="round" stroke-linejoin="round" stroke-width="0.567" opacity="0.63"/>
                <path id="Path_50010" data-name="Path 50010" d="M55.153,339.576A5.541,5.541,0,0,1,51.6,341.8" transform="translate(-35.138 -308.111)" fill="none" stroke="#e4e5e8" stroke-linecap="round" stroke-linejoin="round" stroke-width="0.567" opacity="0.63"/>
            </g>
            <g id="Group_53297" data-name="Group 53297" transform="translate(16.764 0.971)">
                <path id="Path_50011" data-name="Path 50011" d="M52.012,321.144c-.311-2.341.305-5.413,2.63-5.828,2.258-.4,3.873,2.06,4.823,4.147A34.544,34.544,0,0,1,57.8,300.043c.328-1.6,1.07-3.462,2.681-3.726,1.626-.267,2.931,1.3,3.722,2.744a28.635,28.635,0,0,1,3.491,14.166,3.858,3.858,0,0,1,3.171-4.253l.76,1.542a38.8,38.8,0,0,1-.3-11.575,13.43,13.43,0,0,1,1.563-5.3,5.319,5.319,0,0,1,9.221-.649,12.99,12.99,0,0,1,2.236,5.033,34.505,34.505,0,0,1-2.2,22.939c1.985-1.013,4.56.3,5.55,2.3a9.094,9.094,0,0,1,.114,6.527A18.536,18.536,0,0,1,77.7,341.606C64.105,347.459,53.607,333.155,52.012,321.144Z" transform="translate(-51.937 -290.625)" fill="#1ec769"/>
                <path id="Path_50012" data-name="Path 50012" d="M79.823,294.321s5.189,24.25-9.647,44.787" transform="translate(-53.855 -291.014)" fill="#ebebeb" stroke="#e4e5e8" stroke-linecap="round" stroke-linejoin="round" stroke-width="0.85" opacity="0.74"/>
                <path id="Path_50013" data-name="Path 50013" d="M61.668,299.849s-.478,22.543,11,34.5" transform="translate(-52.96 -291.595)" fill="none" stroke="#e4e5e8" stroke-linecap="round" stroke-linejoin="round" stroke-width="0.85" opacity="0.8"/>
                <path id="Path_50014" data-name="Path 50014" d="M55.029,321.942a55.527,55.527,0,0,0,5.813,10.383c2.209,3.091,5.276,6.379,8.868,8.06" transform="translate(-51.262 -293.918)" fill="none" stroke="#e4e5e8" stroke-linecap="round" stroke-linejoin="round" stroke-width="0.85" opacity="0.73"/>
                <path id="Path_50015" data-name="Path 50015" d="M87.324,328.976s-3.935,10.427-14.6,10.335" transform="translate(-54.123 -294.658)" fill="#ebebeb" stroke="#244e80" stroke-linecap="round" stroke-linejoin="round" stroke-width="0.85"/>
                <path id="Path_50016" data-name="Path 50016" d="M76.77,330.133a32.377,32.377,0,0,1-3.73-11.866" transform="translate(-54.156 -293.532)" fill="#ebebeb" stroke="#244e80" stroke-linecap="round" stroke-linejoin="round" stroke-width="0.85"/>
                <path id="Path_50017" data-name="Path 50017" d="M81.5,313.65s3.664-.759,4.309-7.844" transform="translate(-55.045 -292.221)" fill="#ebebeb" stroke="#244e80" stroke-linecap="round" stroke-linejoin="round" stroke-width="0.85"/>
                <path id="Path_50018" data-name="Path 50018" d="M64.282,318.635a25.071,25.071,0,0,0,1.534-9.656" transform="translate(-53.235 -292.555)" fill="none" stroke="#e4e5e8" stroke-linecap="round" stroke-linejoin="round" stroke-width="0.85" opacity="0.8"/>
                <path id="Path_50019" data-name="Path 50019" d="M60.889,331.926s1.187-1.366,1.3-6.1" transform="translate(-52.878 -294.327)" fill="#ebebeb" stroke="#e4e5e8" stroke-linecap="round" stroke-linejoin="round" stroke-width="0.85" opacity="0.74"/>
                <path id="Path_50020" data-name="Path 50020" d="M78.439,339.572s-.3,2.7,3.756,2.261" transform="translate(-54.723 -295.772)" fill="#ebebeb" stroke="#244e80" stroke-linecap="round" stroke-linejoin="round" stroke-width="0.85"/>
            </g>
            <g id="Group_53298" data-name="Group 53298" transform="translate(340.585 0)">
                <path id="Path_50021" data-name="Path 50021" d="M450.515,326.856c1.038-2.122,1.429-5.23-.644-6.362-2.013-1.1-4.326.724-5.89,2.4a34.54,34.54,0,0,0,7.744-17.885c.2-1.62.084-3.623-1.359-4.385s-3.192.3-4.4,1.42a28.653,28.653,0,0,0-7.808,12.326,3.857,3.857,0,0,0-1.656-5.04l-1.211,1.221a38.8,38.8,0,0,0,3.957-10.881,13.443,13.443,0,0,0,.2-5.522,5.319,5.319,0,0,0-8.538-3.543,13,13,0,0,0-3.718,4.063,34.51,34.51,0,0,0-5.2,22.451c-1.561-1.591-4.42-1.163-5.992.415a9.091,9.091,0,0,0-2.179,6.154,18.533,18.533,0,0,0,5.838,14.419C430.694,347.97,445.19,337.739,450.515,326.856Z" transform="translate(-413.81 -289.54)" fill="#bdedd8"/>
                <path id="Path_50022" data-name="Path 50022" d="M436.163,293.219s-12.618,21.349-5.068,45.533" transform="translate(-415.374 -289.926)" fill="none" stroke="#244e80" stroke-linecap="round" stroke-linejoin="round" stroke-width="0.85"/>
                <path id="Path_50023" data-name="Path 50023" d="M451.066,304.583s-6.7,21.529-21.381,29.225" transform="translate(-415.479 -291.121)" fill="none" stroke="#244e80" stroke-linecap="round" stroke-linejoin="round" stroke-width="0.85"/>
                <path id="Path_50024" data-name="Path 50024" d="M450.537,327.642s-9.927,11.693-19.777,12.829" transform="translate(-415.592 -293.546)" fill="none" stroke="#244e80" stroke-linecap="round" stroke-linejoin="round" stroke-width="0.85"/>
                <path id="Path_50025" data-name="Path 50025" d="M418.377,323.516s.421,11.136,10.562,14.435" transform="translate(-414.29 -293.112)" fill="none" stroke="#244e80" stroke-linecap="round" stroke-linejoin="round" stroke-width="0.85"/>
                <path id="Path_50026" data-name="Path 50026" d="M428.787,328.508a32.384,32.384,0,0,0,7.3-10.069" transform="translate(-415.385 -292.578)" fill="none" stroke="#244e80" stroke-linecap="round" stroke-linejoin="round" stroke-width="0.85"/>
                <path id="Path_50027" data-name="Path 50027" d="M429.86,311.216s-3.234-1.883-1.6-8.806" transform="translate(-415.281 -290.893)" fill="none" stroke="#244e80" stroke-linecap="round" stroke-linejoin="round" stroke-width="0.85"/>
                <path id="Path_50028" data-name="Path 50028" d="M444.774,321.512a25.073,25.073,0,0,1,1.612-9.644" transform="translate(-417.065 -291.887)" fill="none" stroke="#244e80" stroke-linecap="round" stroke-linejoin="round" stroke-width="0.85"/>
                <path id="Path_50029" data-name="Path 50029" d="M443.887,335.2s-.692-1.672.7-6.2" transform="translate(-416.955 -293.689)" fill="none" stroke="#244e80" stroke-linecap="round" stroke-linejoin="round" stroke-width="0.85"/>
                <path id="Path_50030" data-name="Path 50030" d="M424.561,336.929s-.572,2.651-4.279.952" transform="translate(-414.49 -294.523)" fill="none" stroke="#244e80" stroke-linecap="round" stroke-linejoin="round" stroke-width="0.85"/>
            </g>
        </g>
        <g id="Group_53383" data-name="Group 53383" transform="translate(2545.606 -960.476)">
            <g id="Group_53304" data-name="Group 53304" transform="translate(0 0)">
                <rect id="Rectangle_13504" data-name="Rectangle 13504" width="310.512" height="179.818" rx="10.029" fill="#383838"/>
                <rect id="Rectangle_13505" data-name="Rectangle 13505" width="290.297" height="161.027" transform="translate(10.108 9.395)" fill="#fff"/>
                <rect id="Rectangle_13506" data-name="Rectangle 13506" width="290.297" height="12.648" transform="translate(10.108 9.395)" fill="#f1f2f3"/>
                <rect id="Rectangle_13507" data-name="Rectangle 13507" width="58.828" height="144.395" transform="translate(11.931 23.862)" fill="#bfc2c7" opacity="0.3"/>
                <rect id="Rectangle_13508" data-name="Rectangle 13508" width="46.111" height="4.011" transform="translate(18.289 66.04)" fill="#fff"/>
                <rect id="Rectangle_13509" data-name="Rectangle 13509" width="46.111" height="4.011" transform="translate(18.289 95.914)" fill="#fff"/>
                <rect id="Rectangle_13510" data-name="Rectangle 13510" width="43.18" height="4.011" transform="translate(18.289 105.109)" fill="#fff"/>
                <rect id="Rectangle_13511" data-name="Rectangle 13511" width="14.674" height="4.011" transform="translate(18.289 114.304)" fill="#fff"/>
                <rect id="Rectangle_13512" data-name="Rectangle 13512" width="30.841" height="4.011" transform="translate(18.289 123.498)" fill="#fff"/>
                <g id="Group_53300" data-name="Group 53300" transform="translate(15.615 13.588)">
                    <path id="Path_50031" data-name="Path 50031" d="M92.472,166.682a2.132,2.132,0,1,1-2.132-2.132A2.132,2.132,0,0,1,92.472,166.682Z" transform="translate(-88.208 -164.55)" fill="#e54c64"/>
                    <path id="Path_50032" data-name="Path 50032" d="M101.277,166.682a2.132,2.132,0,1,1-2.132-2.132A2.132,2.132,0,0,1,101.277,166.682Z" transform="translate(-89.134 -164.55)" fill="#fbb040"/>
                    <path id="Path_50033" data-name="Path 50033" d="M110.082,166.682a2.132,2.132,0,1,1-2.132-2.132A2.132,2.132,0,0,1,110.082,166.682Z" transform="translate(-90.06 -164.55)" fill="#8dc63f"/>
                </g>
                <path id="Path_50034" data-name="Path 50034" d="M369.506,168.631H142.363a2.92,2.92,0,0,1-2.912-2.912h0a2.92,2.92,0,0,1,2.912-2.912H369.506a2.92,2.92,0,0,1,2.912,2.912h0A2.92,2.92,0,0,1,369.506,168.631Z" transform="translate(-77.982 -150.779)" fill="#fff"/>
                <g id="Group_53301" data-name="Group 53301" transform="translate(18.289 30.977)">
                    <path id="Path_50035" data-name="Path 50035" d="M114.862,198.6a1.266,1.266,0,0,1-1.242-.013l-21.9-12.6a3.6,3.6,0,0,0-.527,1.857v19.279a3.662,3.662,0,0,0,3.65,3.651h38.81a3.662,3.662,0,0,0,3.651-3.651V187.845a3.622,3.622,0,0,0-.284-1.4Z" transform="translate(-91.197 -184.194)" fill="#fff"/>
                    <path id="Path_50036" data-name="Path 50036" d="M114.588,195.819l20.931-11.481a3.6,3.6,0,0,0-1.542-.355H95.168a3.574,3.574,0,0,0-.923.134Z" transform="translate(-91.518 -183.983)" fill="#fff"/>
                </g>
                <g id="Group_53303" data-name="Group 53303" transform="translate(58.062 71.201)">
                    <path id="Path_50037" data-name="Path 50037" d="M144.1,211.93a4.229,4.229,0,1,1-4.228-4.229A4.228,4.228,0,0,1,144.1,211.93Z" transform="translate(-135.643 -207.701)" fill="#e54c64"/>
                    <g id="Group_53302" data-name="Group 53302" transform="translate(2.956 1.869)">
                        <path id="Path_50038" data-name="Path 50038" d="M141.131,209.79v5.067h-1.172v-4.125h-1.013v-.941Z" transform="translate(-138.946 -209.79)" fill="#fff"/>
                    </g>
                </g>
                <rect id="Rectangle_13513" data-name="Rectangle 13513" width="220.094" height="15.821" rx="0.5" transform="translate(74.342 23.862)" fill="none" stroke="#ecedee" stroke-miterlimit="10" stroke-width="1"/>
                <rect id="Rectangle_13514" data-name="Rectangle 13514" width="220.094" height="11.265" transform="translate(74.342 45.165)" fill="#ecedee" opacity="0.69"/>
                <rect id="Rectangle_13515" data-name="Rectangle 13515" width="220.094" height="11.265" transform="translate(74.342 60.407)" fill="#d7eff9" opacity="0"/>
                <rect id="Rectangle_13516" data-name="Rectangle 13516" width="220.094" height="11.265" transform="translate(74.342 75.65)" fill="#d7eff9" opacity="0"/>
                <rect id="Rectangle_13517" data-name="Rectangle 13517" width="220.094" height="11.265" transform="translate(74.342 90.892)" fill="#d7eff9" opacity="0"/>
                <rect id="Rectangle_13518" data-name="Rectangle 13518" width="220.094" height="11.265" transform="translate(74.342 106.134)" fill="#d7eff9" opacity="0"/>
                <rect id="Rectangle_13519" data-name="Rectangle 13519" width="220.094" height="11.265" transform="translate(74.342 121.376)" fill="#d7eff9" opacity="0"/>
                <rect id="Rectangle_13520" data-name="Rectangle 13520" width="220.094" height="11.265" transform="translate(74.342 136.618)" fill="#d7eff9" opacity="0"/>
                <rect id="Rectangle_13521" data-name="Rectangle 13521" width="220.094" height="11.265" transform="translate(74.342 151.86)" fill="#d7eff9" opacity="0"/>
            </g>
            <g id="Group_53308" data-name="Group 53308" transform="translate(62.044 79.621)">
                <g id="Group_53306" data-name="Group 53306">
                    <rect id="Rectangle_13522" data-name="Rectangle 13522" width="181.59" height="39.463" rx="5.702" fill="#fff" stroke="#1f74c2" stroke-miterlimit="10" stroke-width="1"/>
                    <rect id="Rectangle_13523" data-name="Rectangle 13523" width="10.246" height="10.246" rx="0.847" transform="translate(3.848 3.835)" fill="#1f74c2"/>
                    <line id="Line_446" data-name="Line 446" x2="20.53" transform="translate(16.261 5.327)" fill="#fff" stroke="#1f74c2" stroke-linecap="round" stroke-linejoin="round" stroke-width="1"/>
                    <line id="Line_447" data-name="Line 447" x2="85.555" transform="translate(16.261 8.365)" fill="#fff" stroke="#1f74c2" stroke-linecap="round" stroke-linejoin="round" stroke-width="1"/>
                    <line id="Line_448" data-name="Line 448" x2="42.778" transform="translate(16.261 11.403)" fill="#fff" stroke="#1f74c2" stroke-linecap="round" stroke-linejoin="round" stroke-width="1"/>
                    <g id="Group_53305" data-name="Group 53305" transform="translate(3.848 19.342)">
                        <line id="Line_449" data-name="Line 449" x2="135.646" fill="#fff" stroke="#1f74c2" stroke-linecap="round" stroke-linejoin="round" stroke-width="1"/>
                        <line id="Line_450" data-name="Line 450" x2="135.646" transform="translate(0 4.367)" fill="#fff" stroke="#1f74c2" stroke-linecap="round" stroke-linejoin="round" stroke-width="1"/>
                        <line id="Line_451" data-name="Line 451" x2="135.646" transform="translate(0 8.734)" fill="#fff" stroke="#1f74c2" stroke-linecap="round" stroke-linejoin="round" stroke-width="1"/>
                        <line id="Line_452" data-name="Line 452" x2="135.646" transform="translate(0 13.101)" fill="#fff" stroke="#1f74c2" stroke-linecap="round" stroke-linejoin="round" stroke-width="1"/>
                    </g>
                </g>
                <g id="Group_53307" data-name="Group 53307" transform="translate(144.197 11.404)">
                    <path id="Path_50039" data-name="Path 50039" d="M318.667,240.618a.934.934,0,0,1-.915-.009l-16.129-9.279a2.657,2.657,0,0,0-.388,1.368v14.2a2.7,2.7,0,0,0,2.689,2.689H332.51a2.7,2.7,0,0,0,2.69-2.689V232.7a2.659,2.659,0,0,0-.209-1.034Z" transform="translate(-301.234 -230.009)" fill="#98c4e5"/>
                    <path id="Path_50040" data-name="Path 50040" d="M318.464,238.572l15.417-8.456a2.645,2.645,0,0,0-1.136-.261H304.159a2.634,2.634,0,0,0-.68.1Z" transform="translate(-301.47 -229.854)" fill="#98c4e5"/>
                </g>
            </g>
        </g>
        <g id="Group_53384" data-name="Group 53384" transform="translate(2789.635 -913.584)">
            <g id="Group_53346" data-name="Group 53346" transform="translate(7.151)">
                <g id="Group_53342" data-name="Group 53342" transform="translate(0)">
                    <circle id="Ellipse_45" data-name="Ellipse 45" cx="16.019" cy="16.019" r="16.019" fill="#40c351"/>
                    <path id="Path_50081" data-name="Path 50081" d="M358.66,230.959l6.949,5.9-1.689-9.768Z" transform="translate(-337.895 -201.257)" fill="#40c351"/>
                </g>
                <g id="Group_53343" data-name="Group 53343" transform="translate(7.564 11.321)">
                    <path id="Path_50082" data-name="Path 50082" d="M352.745,216.33a.469.469,0,0,1-.464,0l-8.178-4.7a1.349,1.349,0,0,0-.2.694v7.2a1.368,1.368,0,0,0,1.364,1.364h14.494a1.368,1.368,0,0,0,1.364-1.364v-7.2a1.352,1.352,0,0,0-.107-.524Z" transform="translate(-343.907 -210.951)" fill="#fff"/>
                    <path id="Path_50083" data-name="Path 50083" d="M352.643,215.293l7.816-4.287a1.339,1.339,0,0,0-.575-.133H345.391a1.33,1.33,0,0,0-.345.05Z" transform="translate(-344.027 -210.872)" fill="#fff"/>
                </g>
                <g id="Group_53345" data-name="Group 53345" transform="translate(21.082 17.562)">
                    <circle id="Ellipse_46" data-name="Ellipse 46" cx="5.587" cy="5.587" r="5.587" fill="#e54c64"/>
                    <g id="Group_53344" data-name="Group 53344" transform="translate(3.905 2.47)">
                        <path id="Path_50084" data-name="Path 50084" d="M366.266,220.607V227.3h-1.549V221.85h-1.339v-1.243Z" transform="translate(-363.378 -220.607)" fill="#fff"/>
                    </g>
                </g>
            </g>
            <g id="freepik--Character--inject-314" transform="translate(0 17.803)">
                <path id="Path_50206" data-name="Path 50206" d="M116.494,380.25H149.35a2.41,2.41,0,0,1,2.41,2.41v37.02a2.41,2.41,0,0,1-2.41,2.41H116.494a6.574,6.574,0,0,1-6.574-6.574v-28.7A6.574,6.574,0,0,1,116.494,380.25Z" transform="translate(-77.612 -276.603)" fill="#999fa7"/>
                <g id="Group_53378" data-name="Group 53378" transform="translate(29.308 93.818)" opacity="0.3">
                    <path id="Path_50207" data-name="Path 50207" d="M116.494,380.25H149.35a2.41,2.41,0,0,1,2.41,2.41v37.02a2.41,2.41,0,0,1-2.41,2.41H116.494a6.574,6.574,0,0,1-6.574-6.574v-28.7A6.574,6.574,0,0,1,116.494,380.25Z" transform="translate(-106.92 -370.25)" fill="#bfc2c7"/>
                </g>
                <rect id="Rectangle_13533" data-name="Rectangle 13533" width="41.841" height="41.841" rx="4.05" transform="translate(24.795 103.647)" fill="#bfc2c7"/>
                <path id="Path_50208" data-name="Path 50208" d="M123.108,424.465,110.75,414.428l3.507-4.312,8.283,6.727,12.348-13.524,4.1,3.744Z" transform="translate(-78.032 -288.278)" fill="#fff"/>
                <path id="Path_50209" data-name="Path 50209" d="M157.2,172.083a2.8,2.8,0,0,1,2.381-.726,1.561,1.561,0,0,0,1.027,0c.222-.119.346-.356.519-.538a1.418,1.418,0,0,1,2.04.044,1.8,1.8,0,0,0,.38.415c.662.385,1.482-.85,2.124-.454a1.6,1.6,0,0,0-.78.558.731.731,0,0,0,.04.9c.608.588,1.709-.608,2.391-.114.365.267.39.919.825,1.047a1.562,1.562,0,0,0,.524,0,1.166,1.166,0,0,1,1.19,1.062c0,.494-.257,1.106.1,1.457a1.082,1.082,0,0,0,.889.173,3.013,3.013,0,0,1-.4,1.314,1.828,1.828,0,0,1,.494,2.47,3.887,3.887,0,0,1,.988,1.126,1.368,1.368,0,0,1-.059,1.437,1.126,1.126,0,0,0-.207.277.657.657,0,0,0,0,.366,6.42,6.42,0,0,1,.222,1.423c-.04.494-.42.988-.894.924a.494.494,0,0,0-.331,0,.3.3,0,0,0-.123.212,3.151,3.151,0,0,0,0,1.032,1.363,1.363,0,0,1-.2.988.588.588,0,0,1-.894.064c.114.543.222,1.082.336,1.625a.988.988,0,0,1-.133.929c-.316.291-.85,0-1.062-.351s-.252-.83-.494-1.2a2.517,2.517,0,0,1-.272-.454c-.044-.128-.054-.286-.158-.38-.207-.188-.553.1-.533.375a1.422,1.422,0,0,0,.39.726.721.721,0,0,1,.138.775c-.074.109-.2.178-.277.3-.247.4.331.82.38,1.284a1.131,1.131,0,0,1-.494.869c-.311.282-.9.494-1.067.1a3.9,3.9,0,0,1-.074-.43,1.052,1.052,0,0,0-.311-.4,2.188,2.188,0,0,1-.593-1.1c.331.454.677,1.047.4,1.541a2.356,2.356,0,0,1-.494.494c-.336.316-.558.741-.889,1.062a1.082,1.082,0,0,1-1.255.282,1.037,1.037,0,0,1-1.788.943c-.084-.094-.153-.212-.272-.262a.707.707,0,0,0-.405,0,2.252,2.252,0,0,1-2.129-.988l.42-.128a5.23,5.23,0,0,1-2.3-.8,1.794,1.794,0,0,1-.657-2.154c.168-.316.494-.627.361-.988-.079-.232-.331-.346-.558-.44l-2.84-1.156a2.746,2.746,0,0,1-1.235-.8.934.934,0,0,1,.138-1.314,2.613,2.613,0,0,0-.948-1.131c-.464-.311-1.017-.469-1.482-.761a1.482,1.482,0,0,1-.845-1.348c.059-.558.854-.953,1.22-.529-.04-.845-1.536-.988-1.625-1.813-.069-.682.815-.988,1.289-1.482-.079-.242-.316-.405-.4-.642-.183-.494.346-.963.84-1.166s1.082-.41,1.225-.924-.282-1.141,0-1.6a.6.6,0,0,1,.8-.158c.435-.948,2.228-.128,2.8-.988a.336.336,0,0,0,.074-.232.356.356,0,0,0-.084-.193,4.3,4.3,0,0,0-.771-.657.815.815,0,0,1-.331-.889c.138-.311.736-.272.711.064a.751.751,0,0,1,1.131.346.8.8,0,0,1,.988-.044,2.366,2.366,0,0,1,.682.854" transform="translate(-96.905 -170.407)" fill="#263238"/>
                <path id="Path_50210" data-name="Path 50210" d="M169.167,191.564a6.136,6.136,0,0,0-2.376-3.457,3.674,3.674,0,0,0-1.571-.835,1.536,1.536,0,0,0-1.581.6l.059.988c-.168,1.581,1.022,2.964,1.571,4.445.237.652.425,1.427,1.052,1.719a1.482,1.482,0,0,0,1.062,0A3.017,3.017,0,0,0,169.167,191.564Z" transform="translate(-104.799 -178.923)" fill="#999fa7"/>
                <path id="Path_50211" data-name="Path 50211" d="M150.65,197.431a3.186,3.186,0,0,0-.242-4.085,2.135,2.135,0,0,0-.193-2.593,6.174,6.174,0,0,0-2.307-1.556,4.292,4.292,0,0,0-4.969-3.186c-1.1-1.645-3.458-1.926-5.364-1.393a5.008,5.008,0,0,1-1.408.3,8.448,8.448,0,0,1-1.052-.158,4.6,4.6,0,0,0-4.623,2.845,3.673,3.673,0,0,1-.42.835,4.766,4.766,0,0,1-.958.751,3.072,3.072,0,0,0-1.205,2.267,5.848,5.848,0,0,1-.128,2.223,10.8,10.8,0,0,0-.578.963c-.37,1.027.761,2.089.538,3.156-.044.217-.143.42-.207.632a1.912,1.912,0,0,0,.1,1.334,2.776,2.776,0,0,1,.41.958,3.021,3.021,0,0,1-.168.775c-.133.637,1.215,3.112,1.763,3.457l16.468.316a3.077,3.077,0,0,0,2.41-2.623,1.151,1.151,0,0,1,.158-.608,1.393,1.393,0,0,1,.454-.286c1.067-.558,1.21-2.015,1.111-3.215a1.537,1.537,0,0,1,0-.494,1.887,1.887,0,0,1,.405-.612Z" transform="translate(-86.321 -177.475)" fill="#263238"/>
                <path id="Path_50212" data-name="Path 50212" d="M147.447,201.709a8.822,8.822,0,0,0-4.6-7.74,10.96,10.96,0,0,0-4.2-1.057,6.683,6.683,0,0,0-3.892.775c-.909.2-4.268,3.215-4.475,6.52a59.114,59.114,0,0,0,.074,10.9c.879,5.507,5.1,6.209,5.1,6.209l-.193,4.361,3.072,5.695,7.9-8.066Z" transform="translate(-87.81 -181.778)" fill="#ffbf9d"/>
                <path id="Path_50217" data-name="Path 50217" d="M140.914,240.326a14.047,14.047,0,0,0,7.374-1.976s-1.946,3.951-7.458,3.457Z" transform="translate(-93.255 -204.791)" fill="#ff9a6c"/>
                <path id="Path_50223" data-name="Path 50223" d="M163.41,219.792c0-.41.494-1.378.879-1.437,1.082-.173,3.033-.084,3.052,2.662,0,3.754-3.749,3-3.759,2.9S163.41,221.21,163.41,219.792Z" transform="translate(-104.682 -194.645)" fill="#ffbf9d"/>
                <path id="Path_50224" data-name="Path 50224" d="M165.836,223.8a1.139,1.139,0,0,0,.178.094.652.652,0,0,0,.494,0,1.61,1.61,0,0,0,.736-1.482,2.1,2.1,0,0,0-.188-.934.756.756,0,0,0-.494-.494.331.331,0,0,0-.385.183c-.049.1-.025.178-.044.183s-.084-.059-.054-.217a.4.4,0,0,1,.148-.232.494.494,0,0,1,.361-.1.919.919,0,0,1,.687.578,2.2,2.2,0,0,1,.232,1.042,1.659,1.659,0,0,1-.943,1.63.7.7,0,0,1-.6-.1C165.841,223.893,165.821,223.809,165.836,223.8Z" transform="translate(-105.908 -195.911)" fill="#ff9a6c"/>
                <path id="Path_50225" data-name="Path 50225" d="M128.77,198.383a2.188,2.188,0,0,0,1.2-2.01c.494.148,1.013-.494,1.3-.934s.657-.657.632-1.18a.563.563,0,0,1,.04-.3c.074-.148.252-.193.41-.242a2.509,2.509,0,0,0,1.655-1.749,5.236,5.236,0,0,0,2.573.425,2.035,2.035,0,0,0,3.457-.148,1.818,1.818,0,0,0,1.22.9,5.285,5.285,0,0,0,1.556.084,2.149,2.149,0,0,0,1.418,2.44c.133.04.286.084.346.207a.553.553,0,0,1-.054.42,1.694,1.694,0,0,0,1.131,2.158,1.264,1.264,0,0,0,.119,1.976c.133.079.311.178.291.336a.346.346,0,0,1-.084.163,2.47,2.47,0,0,0-.593,1.24.9.9,0,0,0,.746.988,1.215,1.215,0,0,0-.494.825c0,.326.326.657.632.538a20.979,20.979,0,0,0,2.079-.529c1.062-1.442-.272-3.033-.38-4.821a11.612,11.612,0,0,0-1.62-5.073,8.579,8.579,0,0,0-1.334-1.813,11.167,11.167,0,0,0-2.065-1.516,10.284,10.284,0,0,0-3.008-1.437c-2.03-.494-4.134.257-6.021,1.131a8.791,8.791,0,0,0-2.04,1.2,7.962,7.962,0,0,0-1.719,2.242,9.879,9.879,0,0,0-1.358,3.843" transform="translate(-87.152 -179.903)" fill="#263238"/>
                <path id="Path_50226" data-name="Path 50226" d="M127.28,194.587a1.334,1.334,0,0,1,.2-.4c.079-.123.193-.272.3-.459a1.729,1.729,0,0,0,.212-.7,5.432,5.432,0,0,0,0-.934,4.045,4.045,0,0,1,.03-1.111,3.122,3.122,0,0,1,.958-1.714,4.852,4.852,0,0,1,.593-.44,2.272,2.272,0,0,0,.573-.494,3.051,3.051,0,0,0,.356-.706,4.94,4.94,0,0,1,.914-1.447,4.831,4.831,0,0,1,1.457-1.116,4.318,4.318,0,0,1,.9-.341,3.888,3.888,0,0,1,.988-.109c.168,0,.336.025.494.04s.336.064.494.094a2.47,2.47,0,0,0,.988,0c.341-.064.667-.188,1.017-.272a6.421,6.421,0,0,1,2.163-.193,5.681,5.681,0,0,1,1.1.2,3.744,3.744,0,0,1,1.887,1.25l.138.188h-.059a4.352,4.352,0,0,1,5.038,3.23l-.03-.04a12.275,12.275,0,0,1,1.314.7,4.021,4.021,0,0,1,1.072.988,2.608,2.608,0,0,1,.494,1.3,1.778,1.778,0,0,1-.361,1.269v-.064a3.082,3.082,0,0,1,.859,1.931,3.171,3.171,0,0,1-.39,1.862,2.867,2.867,0,0,1-.252.37c-.089.114-.183.222-.257.336a.78.78,0,0,0-.133.37,2.011,2.011,0,0,0,0,.385,6.381,6.381,0,0,1-.044,1.427,2.963,2.963,0,0,1-.37,1.082,1.739,1.739,0,0,1-.588.608c-.193.128-.365.178-.459.247a1.327,1.327,0,0,0-.138.114.429.429,0,0,1,.128-.123c.1-.074.267-.128.454-.257a1.892,1.892,0,0,0,.568-.608,3.008,3.008,0,0,0,.351-1.072,6.021,6.021,0,0,0,.03-1.413,2.133,2.133,0,0,1,0-.4.869.869,0,0,1,.143-.4,3.3,3.3,0,0,1,.262-.341,3.487,3.487,0,0,0,.237-.361,3.122,3.122,0,0,0,.375-1.823,3.038,3.038,0,0,0-.84-1.872l-.03-.03.025-.03a1.684,1.684,0,0,0,.336-1.205,2.47,2.47,0,0,0-.494-1.24,3.986,3.986,0,0,0-1.047-.938,12.494,12.494,0,0,0-1.3-.687h0v-.03a4.253,4.253,0,0,0-4.91-3.141h-.035l-.025-.035-.133-.178a3.621,3.621,0,0,0-1.832-1.21,5.824,5.824,0,0,0-1.077-.2,6.587,6.587,0,0,0-1.082,0,6.193,6.193,0,0,0-1.047.183c-.341.084-.672.2-1.017.272a2.7,2.7,0,0,1-.529.054,3.555,3.555,0,0,1-.494-.059c-.173-.03-.336-.069-.494-.094a3.227,3.227,0,0,0-.494-.04,3.878,3.878,0,0,0-.958.1,4.519,4.519,0,0,0-.884.331,4.776,4.776,0,0,0-1.432,1.092,4.939,4.939,0,0,0-.9,1.418,3.052,3.052,0,0,1-.37.726,2.38,2.38,0,0,1-.593.494,5.29,5.29,0,0,0-.588.43,3.2,3.2,0,0,0-.454.519,3.072,3.072,0,0,0-.494,1.151,4.188,4.188,0,0,0-.04,1.1,5.376,5.376,0,0,1,0,.934,1.8,1.8,0,0,1-.227.716c-.109.188-.227.331-.306.449a2.278,2.278,0,0,0-.173.286Z" transform="translate(-86.398 -177.421)" fill="#999fa7"/>
                <path id="Path_50227" data-name="Path 50227" d="M149.8,185.467s-.1-.054-.282-.143a2.469,2.469,0,0,0-.815-.242,2.346,2.346,0,0,0-1.235.178,2.43,2.43,0,0,0-1.126.988,1.891,1.891,0,0,0-.188.425.494.494,0,0,0,.025.4l.094.128-.153-.044a1.546,1.546,0,0,0-1.161.138,1.482,1.482,0,0,0-.637.692,1.61,1.61,0,0,0-.148.617,1.829,1.829,0,0,1,0,.237.2.2,0,0,1,0-.059,1.123,1.123,0,0,1,0-.178,1.481,1.481,0,0,1,.123-.647,1.541,1.541,0,0,1,.652-.746,1.645,1.645,0,0,1,1.24-.158l-.059.084a.573.573,0,0,1-.044-.494,1.916,1.916,0,0,1,.2-.449,2.519,2.519,0,0,1,1.18-1.057,2.435,2.435,0,0,1,1.289-.158,2.331,2.331,0,0,1,.825.282,1.666,1.666,0,0,1,.2.128Z" transform="translate(-94.947 -177.765)" fill="#999fa7"/>
                <path id="Path_50228" data-name="Path 50228" d="M162.743,194.769a.953.953,0,0,1-.128.133,2.471,2.471,0,0,1-.425.291,1.793,1.793,0,0,1-.751.222,1.334,1.334,0,0,1-.934-.282h.084l-.109.158c-.04.049-.084.094-.128.143a2.326,2.326,0,0,1-1.837.691,2.118,2.118,0,0,1-.588-.133.781.781,0,0,1-.2-.1,3.3,3.3,0,0,0,.79.158,2.331,2.331,0,0,0,.859-.128,2.262,2.262,0,0,0,.889-.558l.123-.143.1-.143.04-.049.044.04a1.274,1.274,0,0,0,.854.267,1.882,1.882,0,0,0,.721-.188C162.536,194.936,162.733,194.749,162.743,194.769Z" transform="translate(-101.808 -182.735)" fill="#999fa7"/>
                <path id="Path_50229" data-name="Path 50229" d="M165.984,201.446v.069a.7.7,0,0,1-.084.183.988.988,0,0,1-.608.4,1.892,1.892,0,0,1-1.072-.119c-.193-.069-.39-.138-.593-.232a1.047,1.047,0,0,1-.494-.494v-.059l.084.025a4.228,4.228,0,0,1-1.111.667,1.921,1.921,0,0,1-1.057.1,1.319,1.319,0,0,1-.647-.3,1.189,1.189,0,0,1-.138-.138c0-.035-.04-.054-.035-.054a2.4,2.4,0,0,0,.2.158,1.482,1.482,0,0,0,.637.257,1.976,1.976,0,0,0,.988-.128,4.347,4.347,0,0,0,1.082-.657l.064-.049.025.074v.054a.988.988,0,0,0,.464.42c.193.089.39.163.578.232a1.887,1.887,0,0,0,1.017.143,1.022,1.022,0,0,0,.588-.351A1.111,1.111,0,0,0,165.984,201.446Z" transform="translate(-103.072 -185.93)" fill="#999fa7"/>
                <path id="Path_50230" data-name="Path 50230" d="M175.676,174.7a.787.787,0,0,0-.178.03.894.894,0,0,0-.42.272,1.17,1.17,0,0,0-.282.716,3.269,3.269,0,0,0,.138,1.022v.064h-.064a2.144,2.144,0,0,0-1.3.4,1.66,1.66,0,0,0-.716,1.314,1.551,1.551,0,0,0,.543,1.25l.128.1h-.163a1.941,1.941,0,0,0-1.423.622,1.9,1.9,0,0,0-.494,1.151,2.02,2.02,0,0,0,.128.83c.069.188.128.277.119.282s0,0-.044-.064a.985.985,0,0,1-.109-.2,1.931,1.931,0,0,1,.321-2.06,2.02,2.02,0,0,1,1.482-.667l-.035.1a1.665,1.665,0,0,1-.593-1.343,1.728,1.728,0,0,1,.227-.805,1.827,1.827,0,0,1,.538-.593,2.223,2.223,0,0,1,1.368-.4l-.049.059a3.527,3.527,0,0,1-.123-1.052,1.23,1.23,0,0,1,.321-.751.83.83,0,0,1,.454-.257.494.494,0,0,1,.138,0Z" transform="translate(-108.714 -172.58)" fill="#999fa7"/>
                <path id="Path_50231" data-name="Path 50231" d="M183.332,190.39l-.059.035a1.946,1.946,0,0,1-.188.084,2.633,2.633,0,0,1-.756.173,3.066,3.066,0,0,1-1.18-.143,2.83,2.83,0,0,1-1.264-.835h.084a2.386,2.386,0,0,1-1.689,1.156,1.813,1.813,0,0,1-1.867-.988h.094a1.511,1.511,0,0,1-.449.637,1.975,1.975,0,0,1-.617.346,2.756,2.756,0,0,1-1.146.119,6.381,6.381,0,0,1-.736-.119,1.38,1.38,0,0,1-.257-.074l.262.04c.173.025.42.069.736.089a2.776,2.776,0,0,0,1.111-.133,1.635,1.635,0,0,0,.988-.938l.044-.124.054.119a1.709,1.709,0,0,0,1.758.929,2.287,2.287,0,0,0,1.615-1.1l.04-.064.044.059a2.83,2.83,0,0,0,1.215.815,3.023,3.023,0,0,0,1.146.163,3.457,3.457,0,0,0,1.018-.247Z" transform="translate(-109.687 -180.12)" fill="#999fa7"/>
                <path id="Path_50232" data-name="Path 50232" d="M179.841,198.894s0,.03-.044.069a.356.356,0,0,1-.212.094,1.754,1.754,0,0,1-.83-.138,2.06,2.06,0,0,1-.953-.8,2.094,2.094,0,0,1-.272-1.482h0l.084.064a2.44,2.44,0,0,1-1.506.2,2.726,2.726,0,0,1-1.141-.494,3.052,3.052,0,0,1-.6-.583,1.023,1.023,0,0,1-.168-.257,4.585,4.585,0,0,0,.81.775,2.751,2.751,0,0,0,1.111.454,2.356,2.356,0,0,0,1.437-.2l.1-.049v.114h0a2.02,2.02,0,0,0,.252,1.418,1.976,1.976,0,0,0,.9.78,1.813,1.813,0,0,0,.79.168.385.385,0,0,0,.237-.133Z" transform="translate(-110.143 -183.141)" fill="#999fa7"/>
                <path id="Path_50233" data-name="Path 50233" d="M163.23,174.94a3.225,3.225,0,0,0-.173,1.156,2.662,2.662,0,0,0,.361,1.2,2.6,2.6,0,0,0,2,1.225h.049v.064a3.334,3.334,0,0,0-.143,1.215,3.458,3.458,0,0,0,.212.953,3.164,3.164,0,0,0,.153.336.286.286,0,0,0,.2.153.183.183,0,0,0,.153-.049c.025,0,.03-.044.035-.044s0,.025,0,.059a.193.193,0,0,1-.168.069.306.306,0,0,1-.242-.158,1.976,1.976,0,0,1-.173-.341,3.112,3.112,0,0,1-.242-.988,3.28,3.28,0,0,1,.128-1.25l.049.069a2.612,2.612,0,0,1-2.312-3.388,2.042,2.042,0,0,1,.089-.222Q163.226,174.94,163.23,174.94Z" transform="translate(-104.473 -172.701)" fill="#999fa7"/>
                <path id="Path_50234" data-name="Path 50234" d="M146.438,215.558v-.6l-6.011-1.936h0a8.433,8.433,0,0,0-7,.721l-1.561.04h0a7.382,7.382,0,0,0-7.127-.677l.059.252h0v.1l.049.227a10.4,10.4,0,0,0,1.057,3.235,3.848,3.848,0,0,0,1.773.494c.262.03.494.049.672.059s2.03.128,2.346-.153a14.277,14.277,0,0,0,1.087-3.215l1.6-.035c.188.538.494,2.964,1.284,3.423s4.129.336,4.51-.227a25.342,25.342,0,0,0,1.422-3.5l.035-.064Zm-15.88,1.511c-.336.267-3.976.079-4.411-.375a10.643,10.643,0,0,1-.988-3.1v-.03a7.049,7.049,0,0,1,6.342.657A13.176,13.176,0,0,1,130.558,217.07Zm8.436,0c-.237.356-3.344.637-4.139.138-.548-.341-.84-2.02-1.087-2.964a7.833,7.833,0,0,1,6.653-.543A20.392,20.392,0,0,1,138.995,217.07Z" transform="translate(-85.112 -191.71)" fill="#263238"/>
                <g id="Group_53379" data-name="Group 53379" transform="translate(48.978 21.724)" opacity="0.3">
                    <path id="Path_50235" data-name="Path 50235" d="M143.67,215.378s.326,2.351.988,2.47,1.482-3.458,1.482-3.458S144.095,214.8,143.67,215.378Z" transform="translate(-143.67 -214.39)" fill="#fff"/>
                </g>
                <g id="Group_53380" data-name="Group 53380" transform="translate(40.314 21.555)" opacity="0.3">
                    <path id="Path_50236" data-name="Path 50236" d="M126.13,214.453s.331,2.667.988,2.776,2.04-3.146,2.04-3.146S126.56,213.875,126.13,214.453Z" transform="translate(-126.13 -214.047)" fill="#fff"/>
                </g>
                <path id="Path_50237" data-name="Path 50237" d="M197.828,225.09s-1.2-1.7-1.931-1.432-1.655,1.082-1.7,1.714.207,1.166.494,1.1a4.638,4.638,0,0,0,1.037-.726l1.151,1.225-.193,1.768-.934.657-.741-1.121.049-1.383s-.761-.494-.988.652-.4,3.141.82,3.951a31.573,31.573,0,0,0,3.457,1.788l4.86-1.092.385-5.962s1.689-2.267,1.7-3.1-.222-3.344-.222-3.344a.593.593,0,0,0-.894.375,15.238,15.238,0,0,0-.3,2.8l-1.423,1.813-.331-7.2s-1.077-.494-1.26,1.151-.089,5.66-.286,5.685-.8.109-.825-.726-1.171-7.127-1.171-7.127a1.664,1.664,0,0,0-1.106,1.832c.272,1.339.8,5.517.815,5.833S197.828,225.09,197.828,225.09Z" transform="translate(-120.118 -193.764)" fill="#ffbf9d"/>
                <path id="Path_50238" data-name="Path 50238" d="M203.046,243.811a4.444,4.444,0,0,1-.351-.449,3.27,3.27,0,0,0-2.287-1.225,3.151,3.151,0,0,1-.568-.04,1.027,1.027,0,0,1,.573-.1,2.84,2.84,0,0,1,2.42,1.294C203.026,243.579,203.07,243.8,203.046,243.811Z" transform="translate(-123.118 -206.632)" fill="#ff9a6c"/>
                <path id="Path_50239" data-name="Path 50239" d="M190.008,248.7l1.65,10.832-7.024-6.421a20.286,20.286,0,0,0-4.969-3.171h-.217l-.578,12.8c3.067,2.425,5.9,3.655,9.35,6.051a41.487,41.487,0,0,0,5.152,2.81c1.837.924,4.766,1.442,6.737-.79,2.751-3.122.8-7.409-.82-12.472-1.8-5.626-3.057-11.128-3.057-11.128Z" transform="translate(-112.506 -209.275)" fill="#b9d8fb"/>
                <path id="Path_50240" data-name="Path 50240" d="M206.441,276.8a10.97,10.97,0,0,1-.943-2.435,11.178,11.178,0,0,1-.578-2.549,19.825,19.825,0,0,1,.805,2.47A21.239,21.239,0,0,1,206.441,276.8Z" transform="translate(-125.689 -221.73)" fill="#263238"/>
                <path id="Path_50241" data-name="Path 50241" d="M88.352,442.575l2.079,6.11s-8.787,6.663-8.347,8.525l19.15-5.784L98.087,439.34Z" transform="translate(-63.517 -306.507)" fill="#263238"/>
                <path id="Path_50242" data-name="Path 50242" d="M101.166,462.2l-.41-1.576-18.3,6.159s-.741.632-.464,1.2Z" transform="translate(-63.45 -317.276)" fill="#999fa7"/>
                <path id="Path_50243" data-name="Path 50243" d="M98.327,458.01c.03.094.494,0,1.062.153s.914.494.988.42-.232-.563-.9-.746S98.283,457.931,98.327,458.01Z" transform="translate(-71.744 -315.837)" fill="#999fa7"/>
                <path id="Path_50244" data-name="Path 50244" d="M94.769,461.065c0,.1.459.133.9.435s.652.687.746.657,0-.578-.558-.943S94.744,460.986,94.769,461.065Z" transform="translate(-69.944 -317.455)" fill="#999fa7"/>
                <path id="Path_50245" data-name="Path 50245" d="M92.68,465.286c.094,0,.084-.494-.311-.948s-.894-.494-.909-.425.336.282.652.652S92.586,465.305,92.68,465.286Z" transform="translate(-68.27 -318.929)" fill="#999fa7"/>
                <path id="Path_50246" data-name="Path 50246" d="M97.281,452.866c.064.074.454-.188.988-.311s.988-.079,1.027-.178-.469-.306-1.106-.153S97.212,452.807,97.281,452.866Z" transform="translate(-71.212 -313)" fill="#999fa7"/>
                <path id="Path_50247" data-name="Path 50247" d="M78.576,394.635,67.25,359.4s.543-5.759,1.679-7.537,33.76-11.069,33.76-11.069,8.278-1.635,13.662.568,10.837,4.865,10.135,8.678a10.631,10.631,0,0,1-.494,1.7,13.943,13.943,0,0,1-13.262,8.891l-4.272.3-21.866,3.24a1.665,1.665,0,0,0-1.368,2.06l6.036,23.644A117.982,117.982,0,0,1,78.576,394.635Z" transform="translate(-56.018 -256.339)" fill="#263238"/>
                <path id="Path_50248" data-name="Path 50248" d="M57.125,413l-1.353,6.866s-10.807,2.233-11.212,4.1l19.757,3.013,2.366-12.264Z" transform="translate(-44.535 -293.177)" fill="#263238"/>
                <path id="Path_50249" data-name="Path 50249" d="M64.282,437.307l.193-1.61L45.444,433.41s-.938.247-.934.884Z" transform="translate(-44.51 -303.506)" fill="#999fa7"/>
                <path id="Path_50250" data-name="Path 50250" d="M66.59,426.534c0,.094.464.212.894.6s.617.825.711.8.035-.6-.494-1.057S66.58,426.44,66.59,426.534Z" transform="translate(-55.684 -299.999)" fill="#999fa7"/>
                <path id="Path_50251" data-name="Path 50251" d="M62.127,427.654c-.04.089.356.321.622.775s.291.909.39.919.242-.529-.1-1.092S62.142,427.565,62.127,427.654Z" transform="translate(-53.424 -300.58)" fill="#999fa7"/>
                <path id="Path_50252" data-name="Path 50252" d="M58.46,430.526c.084.035.291-.425.123-.988s-.588-.845-.642-.771.183.4.316.864S58.352,430.507,58.46,430.526Z" transform="translate(-51.303 -301.151)" fill="#999fa7"/>
                <path id="Path_50253" data-name="Path 50253" d="M67.658,421.7c.03.094.494.03,1.032.148s.938.361.988.282-.3-.494-.934-.612S67.624,421.613,67.658,421.7Z" transform="translate(-56.224 -297.468)" fill="#999fa7"/>
                <path id="Path_50254" data-name="Path 50254" d="M73.182,332.507a5.678,5.678,0,0,0-6.293,5.236c-.859,5.9-3.29,35.523-3.29,35.523l12.877,2.341,3.67-30.93,20.7-7.809S76.852,331.9,73.182,332.507Z" transform="translate(-54.171 -252.416)" fill="#263238"/>
                <path id="Path_50255" data-name="Path 50255" d="M125.7,322.423s-3.457,6.614-2.865,7.671,8.935,5.675,8.935,5.675l20.972,9.069a17.846,17.846,0,0,0,2.559-8.738c.222-5.349-6.984-14.64-6.984-14.64Z" transform="translate(-84.116 -246.851)" fill="#263238"/>
                <path id="Path_50256" data-name="Path 50256" d="M159.738,340.852a2.91,2.91,0,0,1-.593-.188l-1.581-.583a35.6,35.6,0,0,0-5.315-1.581,15.727,15.727,0,0,0-5.5-.158,22.334,22.334,0,0,0-2.228.548,2.541,2.541,0,0,1,.563-.257,9.746,9.746,0,0,1,1.635-.454,14.7,14.7,0,0,1,5.576.089,29.559,29.559,0,0,1,5.329,1.655c.662.267,1.19.494,1.556.657a2.964,2.964,0,0,1,.558.272Z" transform="translate(-95.122 -255.199)" fill="#999fa7"/>
                <path id="Path_50257" data-name="Path 50257" d="M157.261,333.381a16.828,16.828,0,0,0-1.862-.089c-.578,0-1.264.074-2.025.133s-1.6.128-2.47.252a11.434,11.434,0,0,0-4.243,1.378,13.787,13.787,0,0,0-1.482,1.106,1.545,1.545,0,0,1,.326-.39,6.711,6.711,0,0,1,1.082-.859,10.7,10.7,0,0,1,4.3-1.482c.879-.133,1.724-.193,2.47-.237s1.452-.089,2.04-.084a7.624,7.624,0,0,1,1.373.119A1.615,1.615,0,0,1,157.261,333.381Z" transform="translate(-95.456 -252.746)" fill="#999fa7"/>
                <path id="Path_50258" data-name="Path 50258" d="M86.6,419.64c.069,0-.336,2.42-.9,5.374s-1.092,5.339-1.161,5.325.336-2.42.9-5.374S86.528,419.63,86.6,419.64Z" transform="translate(-64.76 -296.537)" fill="#999fa7"/>
                <path id="Path_50259" data-name="Path 50259" d="M102.428,340.89a.212.212,0,0,0-.1.049l-.306.128-1.185.464-4.445,1.724L80.9,349.148l.074-.094c-.459,3.25-.958,6.8-1.482,10.481-1.1,7.7-2.119,14.793-2.919,20.35v.109h-.1l-9.385-1.748-2.578-.494-.672-.138a1.342,1.342,0,0,1-.227-.054l.232.025.682.109,2.583.445,9.385,1.66-.119.089c.785-5.567,1.783-12.659,2.87-20.365.524-3.685,1.032-7.226,1.482-10.476v-.074l.064-.025L96.3,343.137l4.485-1.655,1.2-.43.346-.109Z" transform="translate(-54.176 -256.684)" fill="#999fa7"/>
                <path id="Path_50260" data-name="Path 50260" d="M132.687,250.3a8.122,8.122,0,0,0-2.608-2.662l-7.6-1.9-1.126-3.062-7.967,3.67-1.353,4.159v-3.986l-2.376-1.832-1.25,1.329-3.759.924v.035c-.227.064-5.152,1.6-6.209,5.69-1.719,6.628-7.127,25.808-7.127,25.808L80,287.02l5.384,2.736s10.254-2.934,12.842-6.115c2.045-2.529,4.416-8.98,5.186-12.18,0,.81-.282,2.287-.385,4.722-.158,3.65-1.931,7.9.44,7.987s25.3.119,25.3.119,1.976.193.963-5.991C129.23,275.254,132.687,250.3,132.687,250.3Z" transform="translate(-62.471 -206.977)" fill="#b9d8fb"/>
                <path id="Path_50261" data-name="Path 50261" d="M136.92,250.31a8.21,8.21,0,0,1,.6,1.26c.356.78.8,1.9,1.373,3.057l.04.079h-.207c.529-1.166.884-2.277,1.176-3.067a8.146,8.146,0,0,1,.494-1.269,7.269,7.269,0,0,1-.336,1.319,25.01,25.01,0,0,1-1.116,3.112l-.1.217-.114-.2-.049-.089c-.588-1.2-.988-2.307-1.319-3.107A7.9,7.9,0,0,1,136.92,250.31Z" transform="translate(-91.276 -210.844)" fill="#263238"/>
                <path id="Path_50262" data-name="Path 50262" d="M155.165,249a2.38,2.38,0,0,1-.454.356l-1.3.9c-1.1.751-2.633,1.768-4.327,2.889l-2.015,1.289-.168.109v-.188c-.1-1.4-.173-2.6-.217-3.457,0-.39-.03-.721-.044-.988a1.583,1.583,0,0,1,0-.361,1.264,1.264,0,0,1,.064.356c.03.272.069.6.109.988.084.85.188,2.05.3,3.457l-.173-.084,2.005-1.329c1.7-1.116,3.245-2.119,4.371-2.83l1.339-.84a3.292,3.292,0,0,1,.509-.267Z" transform="translate(-96.19 -210.181)" fill="#263238"/>
                <path id="Path_50263" data-name="Path 50263" d="M123.485,293.886a1.41,1.41,0,0,1-.1-.193,3.024,3.024,0,0,1-.173-.6,14,14,0,0,1-.212-2.307c0-.988,0-2.173.064-3.507s.109-2.825.173-4.416l.03.079a10.11,10.11,0,0,1-2.114-3.275,9.513,9.513,0,0,1-.677-2.964,11.893,11.893,0,0,1,.183-2.81,40.1,40.1,0,0,1,1.26-4.589,29.2,29.2,0,0,0,.81-3.087c.143-.736.178-1.156.2-1.151a1.264,1.264,0,0,1,0,.3,8.674,8.674,0,0,1-.1.864,24.245,24.245,0,0,1-.736,3.117,42.8,42.8,0,0,0-1.215,4.574,12.056,12.056,0,0,0-.168,2.761,9.5,9.5,0,0,0,.667,2.889,9.878,9.878,0,0,0,2.065,3.206l.03.035v.049c-.074,1.59-.143,3.077-.207,4.416s-.119,2.514-.114,3.5a16.064,16.064,0,0,0,.143,2.292A5.25,5.25,0,0,0,123.485,293.886Z" transform="translate(-82.944 -218.313)" fill="#263238"/>
                <path id="Path_50264" data-name="Path 50264" d="M140.052,290.462a1.753,1.753,0,0,1-.04-.326l-.059-.934c-.054-.805-.1-1.976-.148-3.428-.089-2.9-.1-6.915.089-11.331s.568-8.421.909-11.3c.168-1.442.326-2.6.449-3.408.059-.38.1-.691.143-.924a2.375,2.375,0,0,1,.064-.321,1.357,1.357,0,0,1,0,.326c-.03.237-.059.543-.1.929-.089.835-.217,1.976-.37,3.413-.3,2.885-.642,6.875-.835,11.3s-.207,8.4-.163,11.316c.03,1.427.054,2.593.074,3.433v.934A1.665,1.665,0,0,1,140.052,290.462Z" transform="translate(-92.705 -214.984)" fill="#263238"/>
                <path id="Path_50265" data-name="Path 50265" d="M158.26,298.53a2.657,2.657,0,0,1-.321.163,6.685,6.685,0,0,1-.934.326,10.649,10.649,0,0,1-6.456-.252,7.321,7.321,0,0,1-.9-.4c-.207-.109-.316-.178-.306-.193s.494.183,1.264.435a11.977,11.977,0,0,0,6.357.247C157.766,298.673,158.245,298.49,158.26,298.53Z" transform="translate(-97.561 -235.069)" fill="#263238"/>
                <path id="Path_50266" data-name="Path 50266" d="M175.8,261.993a2.1,2.1,0,0,1-.282-.331,6.422,6.422,0,0,1-.583-1.017,7.6,7.6,0,0,1-.687-3.8,5.433,5.433,0,0,1,1.61-3.487,2.588,2.588,0,0,1,1.027-.583,1.057,1.057,0,0,1,.43-.059,3.546,3.546,0,0,0-1.334.775,5.547,5.547,0,0,0-1.482,3.378,8.086,8.086,0,0,0,.593,3.7C175.471,261.47,175.832,261.969,175.8,261.993Z" transform="translate(-110.154 -212.061)" fill="#263238"/>
                <path id="Path_50267" data-name="Path 50267" d="M60.838,290.048l27.072,1.343a1.7,1.7,0,0,1,1.8,1.368l2.139,19.866,13.953.578a.815.815,0,1,1-.069,1.625l-13.706-.568-2.6-.109-28.248-1.171L58.991,292a1.778,1.778,0,0,1,1.847-1.951Z" transform="translate(-51.834 -230.954)" fill="#e0e0e0"/>
                <path id="Path_50268" data-name="Path 50268" d="M60.821,290.035a1.417,1.417,0,0,0-.43.025,1.788,1.788,0,0,0-1.432,1.482,4.871,4.871,0,0,0,.054,1.121c.079.8.168,1.724.277,2.766.42,4.159,1.032,10.16,1.783,17.539v.069h.074l43.223,1.818,1.166.049a1.141,1.141,0,0,0,.617-.089.924.924,0,0,0,.064-1.615,1.151,1.151,0,0,0-.608-.138l-.573-.025-4.524-.188-8.688-.361.1.1c-.775-7.117-1.482-13.751-2.139-19.708a1.536,1.536,0,0,0-.459-1.052,2.035,2.035,0,0,0-1.017-.494,9.253,9.253,0,0,0-1.092-.084l-1.062-.049-4.075-.2-7.246-.346-10.313-.494-2.761-.118-.711-.025h-.242l.242.025.711.044,2.756.153,10.313.543,7.241.37,4.08.207,1.062.054a9.34,9.34,0,0,1,1.062.084,1.867,1.867,0,0,1,.929.454,1.344,1.344,0,0,1,.4.943l2.109,19.708v.089h.094l8.683.366,4.529.188.573.025a.86.86,0,0,1,.494.109.7.7,0,0,1-.049,1.23.909.909,0,0,1-.494.069l-1.161-.049-43.228-1.768.079.074c-.78-7.355-1.413-13.351-1.857-17.495q-.163-1.566-.3-2.766a5.088,5.088,0,0,1-.064-1.1,1.719,1.719,0,0,1,.351-.83A1.758,1.758,0,0,1,60.4,290.1,1.461,1.461,0,0,1,60.821,290.035Z" transform="translate(-51.817 -230.94)" fill="#263238"/>
                <path id="Path_50269" data-name="Path 50269" d="M89.07,312.187a1.694,1.694,0,1,1-.445-1.222A1.7,1.7,0,0,1,89.07,312.187Z" transform="translate(-65.341 -241.262)" fill="#fff"/>
                <path id="Path_50270" data-name="Path 50270" d="M120.3,315.4c-.04,0-.691-5.058-1.482-11.306s-1.358-11.321-1.324-11.326.691,5.058,1.482,11.311S120.343,315.4,120.3,315.4Z" transform="translate(-81.447 -232.332)" fill="#263238"/>
            </g>
        </g>
        <g id="Group_53386" data-name="Group 53386" transform="translate(2610.539 -996.444)">
            <g id="Group_53359" data-name="Group 53359" transform="translate(155.024 0)">
                <g id="Group_53358" data-name="Group 53358">
                    <path id="Path_50113" data-name="Path 50113" d="M368.115,109.171l-51.553,15,12.029,3.769Z" transform="translate(-316.562 -109.171)" fill="#3f97f6"/>
                    <path id="Path_50114" data-name="Path 50114" d="M330,127.936l3.387,9.208,36.137-27.973Z" transform="translate(-317.975 -109.171)" fill="#0075f4"/>
                    <path id="Path_50115" data-name="Path 50115" d="M331.033,128.434l38.6-19.263-18.66,22.346Z" transform="translate(-318.084 -109.171)" fill="#3f97f6"/>
                </g>
            </g>
            <path id="Path_50116" data-name="Path 50116" d="M143.321,189.209C166.3,191.692,190.706,187,208.94,172.8c8.088-6.3,15.077-14.942,16.322-25.118.5-4.067-.288-8.819-3.743-11.021a10.307,10.307,0,0,0-5.816-1.321,20.164,20.164,0,0,0-18.541,26.869c2.14,6.063,7.147,10.831,12.911,13.682s12.247,3.946,18.667,4.3c31.437,1.746,63.232-14.884,79.728-41.7" transform="translate(-143.321 -111.922)" fill="none" stroke="#3f97f6" stroke-linecap="round" stroke-linejoin="round" stroke-width="1" stroke-dasharray="2.835"/>
        </g>
    </g>
</svg>
