<svg xmlns="http://www.w3.org/2000/svg" width="117" height="113.999" viewBox="0 0 117 113.999">
  <g id="Pormotion_" data-name="Pormotion " transform="translate(40.677 0)">
    <path id="Subtraction_1" data-name="Subtraction 1" d="M117,114h-.183L0,.076V0H99a18,18,0,0,1,18,18Z" transform="translate(-40.677 0)" fill="#2e8b57"/>
    <g id="Group_60968" data-name="Group 60968" transform="translate(25.323 -446.585)">
      <path id="Path_82471" data-name="Path 82471" d="M6.3,0H5.342a1.914,1.914,0,0,1-.291.8,2.133,2.133,0,0,1-.557.576,2.448,2.448,0,0,1-.735.349,2.939,2.939,0,0,1-.82.117,3.018,3.018,0,0,1-.891-.134,2.353,2.353,0,0,1-.779-.405A2.04,2.04,0,0,1,.72.632,2.037,2.037,0,0,1,.513-.312V-3.867H1.44V-.312a1.089,1.089,0,0,0,.129.54,1.191,1.191,0,0,0,.339.386,1.482,1.482,0,0,0,.479.229,2.024,2.024,0,0,0,.552.076A2.007,2.007,0,0,0,3.486.842,1.482,1.482,0,0,0,3.965.613,1.191,1.191,0,0,0,4.3.227a1.089,1.089,0,0,0,.129-.54V-6.567h.928V-.923H6.3Zm5.7,0H5.894V-.923H7.749a4.786,4.786,0,0,1-.4-.537A3.2,3.2,0,0,1,7.036-2.1a3.2,3.2,0,0,1-.129-.461,2.372,2.372,0,0,1-.046-.466,1.992,1.992,0,0,1,.107-.657,1.336,1.336,0,0,1,.354-.542A1.734,1.734,0,0,1,7.969-4.6a3.151,3.151,0,0,1,.991-.134,3.163,3.163,0,0,1,1,.137,1.736,1.736,0,0,1,.652.371,1.352,1.352,0,0,1,.354.547,2.029,2.029,0,0,1,.107.664,2.359,2.359,0,0,1-.044.454,3.574,3.574,0,0,1-.117.444,2.843,2.843,0,0,1-.31.649,5.432,5.432,0,0,1-.4.542h1.8ZM7.9-2.422a2.712,2.712,0,0,0,.227.469,3.655,3.655,0,0,0,.286.405,3.8,3.8,0,0,0,.3.33q.149.144.266.242.117-.1.266-.239a3.24,3.24,0,0,0,.3-.325,3.649,3.649,0,0,0,.278-.4,2.356,2.356,0,0,0,.215-.469,1.773,1.773,0,0,0,.112-.6.774.774,0,0,0-.061-.305.625.625,0,0,0-.2-.251,1.064,1.064,0,0,0-.366-.171A2.107,2.107,0,0,0,8.96-3.8a2.158,2.158,0,0,0-.557.061,1.035,1.035,0,0,0-.361.166.619.619,0,0,0-.2.247.745.745,0,0,0-.061.3,1.507,1.507,0,0,0,.032.305A2.3,2.3,0,0,0,7.9-2.422ZM11.6,0V-.923h.947V-2.617a2.1,2.1,0,0,1,.166-.84,2.13,2.13,0,0,1,.452-.671,2.063,2.063,0,0,1,.671-.447,2.107,2.107,0,0,1,.82-.161,2.092,2.092,0,0,1,.825.164,2.146,2.146,0,0,1,.674.447,2.129,2.129,0,0,1,.457.664,1.993,1.993,0,0,1,.168.815V-.923h.942V0Zm1.87-.923H15.85V-2.646a1.1,1.1,0,0,0-.1-.457,1.18,1.18,0,0,0-.256-.369,1.2,1.2,0,0,0-.378-.247,1.2,1.2,0,0,0-.466-.09,1.19,1.19,0,0,0-.461.09,1.157,1.157,0,0,0-.378.251,1.19,1.19,0,0,0-.254.378,1.187,1.187,0,0,0-.093.471Zm.713-5.171a.46.46,0,0,1,.037-.183.479.479,0,0,1,.1-.151.479.479,0,0,1,.151-.1.46.46,0,0,1,.183-.037.46.46,0,0,1,.183.037.451.451,0,0,1,.149.1.5.5,0,0,1,.1.151.46.46,0,0,1,.037.183.452.452,0,0,1-.137.332.452.452,0,0,1-.332.137.46.46,0,0,1-.183-.037.5.5,0,0,1-.151-.1.451.451,0,0,1-.1-.149A.46.46,0,0,1,14.18-6.094ZM17.31-.923h1.025a2.135,2.135,0,0,1-.059-.291,2.345,2.345,0,0,1-.02-.305V-2.573a2.13,2.13,0,0,1,.166-.837,2.174,2.174,0,0,1,.454-.686,2.174,2.174,0,0,1,.671-.464,2,2,0,0,1,.823-.171,1.955,1.955,0,0,1,.82.176,2.193,2.193,0,0,1,.674.474,2.242,2.242,0,0,1,.454.688,2.076,2.076,0,0,1,.166.82v1.064a2.088,2.088,0,0,1-.166.825A2.212,2.212,0,0,1,21.865,0a2.214,2.214,0,0,1-.674.471,1.955,1.955,0,0,1-.82.176,2.033,2.033,0,0,1-.837-.171A2.061,2.061,0,0,1,18.862,0H17.31ZM20.371-3.8a1.124,1.124,0,0,0-.466.1,1.217,1.217,0,0,0-.378.264,1.227,1.227,0,0,0-.254.391,1.241,1.241,0,0,0-.093.479v1.055a1.254,1.254,0,0,0,.093.483,1.257,1.257,0,0,0,.254.393,1.2,1.2,0,0,0,.378.266,1.124,1.124,0,0,0,.466.1,1.113,1.113,0,0,0,.461-.1,1.227,1.227,0,0,0,.381-.266,1.235,1.235,0,0,0,.256-.393,1.228,1.228,0,0,0,.093-.474V-2.573a1.21,1.21,0,0,0-.093-.471,1.242,1.242,0,0,0-.256-.391,1.262,1.262,0,0,0-.381-.269A1.09,1.09,0,0,0,20.371-3.8Z" transform="translate(10 497.126)" fill="#fff"/>
      <path id="purshased" d="M20.908,6.99a1.329,1.329,0,0,0-.914.4l-5.1,5.1a1.329,1.329,0,1,0,1.879,1.879l5.1-5.1a1.329,1.329,0,0,0-.965-2.281Zm7.972,0a1.329,1.329,0,0,0-.914.4L15.619,19.741l-4.376-4.375a1.329,1.329,0,1,0-1.879,1.879l5.315,5.315a1.329,1.329,0,0,0,1.879,0L29.846,9.272a1.329,1.329,0,0,0-.965-2.281ZM2.319,14.963a1.329,1.329,0,0,0-.926,2.281l4.321,4.324a1.33,1.33,0,0,0,1.882-1.882L3.271,15.365a1.329,1.329,0,0,0-.952-.4Z" transform="translate(7.009 459.61)" fill="#fff"/>
    </g>
  </g>
</svg>
