<svg xmlns="http://www.w3.org/2000/svg" width="117" height="113.999" viewBox="0 0 117 113.999">
  <g id="Pormotion_" data-name="Pormotion " transform="translate(40.677 0)">
    <path id="Subtraction_1" data-name="Subtraction 1" d="M117,114h-.183L0,.076V0H99a18,18,0,0,1,18,18Z" transform="translate(-40.677 0)" fill="#2e8b57"/>
    <g id="Group_60968" data-name="Group 60968" transform="translate(25.323 -446.585)">
      <text id="Purshased" transform="translate(0 499.558)" fill="#fff" font-size="10" font-family="Dexef-Regular, Dexef"><tspan x="0" y="0">Purshased</tspan></text>
      <path id="purshased-2" data-name="purshased" d="M20.908,6.99a1.329,1.329,0,0,0-.914.4l-5.1,5.1a1.329,1.329,0,1,0,1.879,1.879l5.1-5.1a1.329,1.329,0,0,0-.965-2.281Zm7.972,0a1.329,1.329,0,0,0-.914.4L15.619,19.741l-4.376-4.375a1.329,1.329,0,1,0-1.879,1.879l5.315,5.315a1.329,1.329,0,0,0,1.879,0L29.846,9.272a1.329,1.329,0,0,0-.965-2.281ZM2.319,14.963a1.329,1.329,0,0,0-.926,2.281l4.321,4.324a1.33,1.33,0,0,0,1.882-1.882L3.271,15.365a1.329,1.329,0,0,0-.952-.4Z" transform="translate(7.009 459.61)" fill="#fff"/>
    </g>
  </g>
</svg>
