<svg xmlns="http://www.w3.org/2000/svg" width="24" height="24" viewBox="0 0 24 24">
  <g id="region" transform="translate(-620)">
    <rect id="Rectangle_16521" data-name="Rectangle 16521" width="24" height="24" rx="4" transform="translate(620)" fill="#929fb2" opacity="0"/>
    <path id="icons8_timezone_1" d="M8.688,3.131a1.908,1.908,0,0,0-.651.134L4.2,4.8A1.906,1.906,0,0,0,3,6.57V17.852a1.9,1.9,0,0,0,2.612,1.767l3.132-1.252,1.06.353a7.672,7.672,0,0,1-.138-1.429c0-.209.015-.413.032-.618l-.329-.11a.952.952,0,0,1-.655-.9v-9.3a.952.952,0,0,1,1.25-.9l3.81,1.256a.952.952,0,0,1,.655.9v2.615a7.57,7.57,0,0,1,5.714,0v-4.8a1.9,1.9,0,0,0-2.612-1.769L14.4,4.911,9.347,3.228A1.9,1.9,0,0,0,8.688,3.131Zm8.6,8.447A5.714,5.714,0,1,0,23,17.292,5.72,5.72,0,0,0,17.286,11.578Zm0,1.9a3.81,3.81,0,1,1-3.81,3.81A3.813,3.813,0,0,1,17.286,13.482Zm.779,1.313a.716.716,0,0,0-.7.374l-.952,1.786a.714.714,0,0,0,.126.841l1.19,1.19a.713.713,0,1,0,1.008-1.008l-.815-.817.7-1.319a.712.712,0,0,0-.565-1.047Z" transform="translate(619 -1.13)" fill="#929fb2"/>
  </g>
</svg>
