<svg xmlns="http://www.w3.org/2000/svg" width="40" height="39.752" viewBox="0 0 40 39.752">
  <path id="icons8_timezone_1" d="M14.376,3.132a3.817,3.817,0,0,0-1.3.268L5.4,6.472A3.813,3.813,0,0,0,3,10.01V32.574a3.807,3.807,0,0,0,5.223,3.534l6.265-2.5,2.12.707a15.344,15.344,0,0,1-.275-2.857c0-.417.031-.826.063-1.235L15.738,30a1.9,1.9,0,0,1-1.31-1.808V9.594a1.9,1.9,0,0,1,2.5-1.808L24.548,10.3a1.9,1.9,0,0,1,1.31,1.808v5.231a15.14,15.14,0,0,1,11.429,0V7.726a3.809,3.809,0,0,0-5.223-3.538L25.8,6.692l-10.1-3.367A3.8,3.8,0,0,0,14.376,3.132ZM31.571,20.025A11.429,11.429,0,1,0,43,31.454,11.44,11.44,0,0,0,31.571,20.025Zm0,3.81a7.619,7.619,0,1,1-7.619,7.619A7.627,7.627,0,0,1,31.571,23.835Zm1.559,2.626a1.431,1.431,0,0,0-1.391.748l-1.9,3.571a1.427,1.427,0,0,0,.253,1.682l2.381,2.381a1.426,1.426,0,1,0,2.016-2.016l-1.63-1.633,1.406-2.638a1.424,1.424,0,0,0-1.131-2.094Z" transform="translate(-3 -3.13)" fill="#5d718d"/>
</svg>
