<svg xmlns="http://www.w3.org/2000/svg" width="24" height="24" viewBox="0 0 24 24">
  <g id="region" transform="translate(-620 0.001)">
    <rect id="Rectangle_16521" data-name="Rectangle 16521" width="24" height="24" rx="4" transform="translate(620 -0.001)" fill="#929fb2" opacity="0"/>
    <path id="icons8_mailbox_price" d="M3.75,4A3.761,3.761,0,0,0,0,7.75V14.5A1.511,1.511,0,0,0,1.5,16H7.7A5.98,5.98,0,0,1,15,8.7V7.75A3.75,3.75,0,0,0,11.25,4Zm0,1.5A2.25,2.25,0,0,1,6,7.75V14.5H1.5V7.75A2.239,2.239,0,0,1,3.75,5.5Zm0,2.25a.75.75,0,1,0,.75.75A.75.75,0,0,0,3.75,7.75ZM13.5,10A4.5,4.5,0,1,0,18,14.5,4.511,4.511,0,0,0,13.5,10Zm0,1.5a3,3,0,1,1-3,3A2.989,2.989,0,0,1,13.5,11.5Zm.368,1.2-1.474.583a.633.633,0,0,0-.394.586c.036.3.277.382.592.278l.281-.091v1.632a.612.612,0,1,0,1.225,0V12.7Z" transform="translate(623 1)" fill="#929fb2"/>
  </g>
</svg>
