<svg xmlns="http://www.w3.org/2000/svg" xmlns:xlink="http://www.w3.org/1999/xlink" width="81" height="81" viewBox="0 0 81 81">
  <defs>
    <filter id="Rectangle_950" x="0" y="0" width="81" height="81" filterUnits="userSpaceOnUse">
      <feOffset dx="6" dy="6" input="SourceAlpha"/>
      <feGaussianBlur stdDeviation="7.5" result="blur"/>
      <feFlood flood-color="#4b4e6d" flood-opacity="0.161"/>
      <feComposite operator="in" in2="blur"/>
      <feComposite in="SourceGraphic"/>
    </filter>
  </defs>
  <g id="report" transform="translate(-174.5 -1166.5)">
    <g transform="matrix(1, 0, 0, 1, 174.5, 1166.5)" filter="url(#Rectangle_950)">
      <rect id="Rectangle_950-2" data-name="Rectangle 950" width="36" height="36" rx="4" transform="translate(16.5 16.5)" fill="#f64f64"/>
    </g>
    <path id="icons8_pie_chart_report" d="M13.172,2H6A2.006,2.006,0,0,0,4,4V20a2.006,2.006,0,0,0,2,2H18a2.006,2.006,0,0,0,2-2V8.828a2,2,0,0,0-.586-1.414L14.586,2.586A2,2,0,0,0,13.172,2ZM10,19a3,3,0,0,1,0-6v3h3A3.03,3.03,0,0,1,10,19Zm2-5V11a3.03,3.03,0,0,1,3,3Zm1-5V3.5L18.5,9Z" transform="translate(197 1189)" fill="#fff"/>
  </g>
</svg>
