<svg xmlns="http://www3.org/2000/svg" width="296" height="301.294" viewBox="0 0 296 301.294">
  <g id="reset_password" transform="translate(-119 -110.095)">
    <g id="Group_52417" data-name="Group 52417" transform="translate(119 110.595)">
      <g id="Background_Complete" data-name="Background Complete" transform="translate(11.116 3.637)">
        <g id="Group_51971" data-name="Group 51971" transform="translate(58.948 75.795)">
          <path id="Path_48601" data-name="Path 48601" d="M175.231,208.11a16.4,16.4,0,1,0-.193-25.734l0,0-3.6-2.8-5.341,1.665.611-5.341-4.507-3.5-5.341,1.665.612-5.341-3.874-3.012-3.255,1.015.373-3.255-2.255-1.753-5.113.5-.688,7.857,26.8,20.831A16.4,16.4,0,0,0,175.231,208.11Zm19.521-5.591a4.7,4.7,0,1,1-.827-6.6A4.7,4.7,0,0,1,194.752,202.519Z" transform="translate(-142.661 -161.716)" fill="#ebebeb"/>
        </g>
        <g id="Group_51972" data-name="Group 51972" transform="translate(87.932 45.209)">
          <path id="Path_48602" data-name="Path 48602" d="M209.658,131.921a8.778,8.778,0,1,0-13.777-.231l0,0-1.544,1.889.822,2.881-2.851-.4-1.934,2.366.822,2.88-2.852-.4-1.662,2.034.5,1.756-1.738-.242-.967,1.184.2,2.743,4.2.47,11.5-14.073A8.782,8.782,0,0,0,209.658,131.921ZM206.919,121.4a2.518,2.518,0,1,1-3.543.357A2.518,2.518,0,0,1,206.919,121.4Z" transform="translate(-184.478 -117.589)" fill="#ebebeb"/>
        </g>
        <g id="Group_51990" data-name="Group 51990">
          <g id="Group_51973" data-name="Group 51973" transform="translate(0.347)">
            <path id="Path_48603" data-name="Path 48603" d="M133.808,52.365v50.868H60.747L58.115,52.72Z" transform="translate(-58.115 -52.365)" fill="#e0e0e0"/>
          </g>
          <g id="Group_51974" data-name="Group 51974" transform="translate(0 0.009)">
            <rect id="Rectangle_13399" data-name="Rectangle 13399" width="50.406" height="73.061" transform="translate(0.347 50.752) rotate(-90)" fill="#fff"/>
            <path id="Path_48604" data-name="Path 48604" d="M131.369,103.476H57.615v-51.1h73.754Zm-73.061-.693h72.368V53.071H58.308Z" transform="translate(-57.615 -52.378)" fill="#e0e0e0"/>
          </g>
          <g id="Group_51978" data-name="Group 51978" transform="translate(8.079 6.452)">
            <g id="Group_51975" data-name="Group 51975" transform="translate(0.18 0.166)">
              <rect id="Rectangle_13400" data-name="Rectangle 13400" width="57.235" height="37.881" fill="#fff"/>
            </g>
            <g id="Group_51977" data-name="Group 51977">
              <g id="Group_51976" data-name="Group 51976">
                <path id="Path_48605" data-name="Path 48605" d="M126.686,61.839s-.1.006-.282.01l-.814.01-3.143.02-11.794.044-41.2.082.166-.166c0,11.574.01,24.4.015,37.876v0l-.181-.18,57.235.037-.144.143c.032-11.527.058-20.979.076-27.561.016-3.29.028-5.86.037-7.622q.01-1.306.016-2c.006-.454.016-.7.016-.7s.01.22.015.665.009,1.117.016,1.976c.009,1.754.021,4.313.037,7.589.018,6.6.044,16.085.076,27.65v.144h-.144L69.451,99.9h-.18v-.185c.006-13.479.01-26.3.015-37.876v-.166h.166l41.31.082,11.757.044,3.11.02.8.01C126.6,61.833,126.686,61.839,126.686,61.839Z" transform="translate(-69.271 -61.673)" fill="#e0e0e0"/>
              </g>
            </g>
          </g>
          <g id="Group_51980" data-name="Group 51980" transform="translate(0.345 0.211)">
            <g id="Group_51979" data-name="Group 51979">
              <path id="Path_48606" data-name="Path 48606" d="M58.114,52.673a6.137,6.137,0,0,1,1.256.813c.747.54,1.765,1.306,2.864,2.185s2.066,1.712,2.747,2.335a5.888,5.888,0,0,1,1.046,1.071c-.068.077-1.824-1.372-4.018-3.124A39.789,39.789,0,0,1,58.114,52.673Z" transform="translate(-58.113 -52.669)" fill="#e0e0e0"/>
            </g>
          </g>
          <g id="Group_51982" data-name="Group 51982" transform="translate(65.493 0.353)">
            <g id="Group_51981" data-name="Group 51981">
              <path id="Path_48607" data-name="Path 48607" d="M160.018,52.877a35.377,35.377,0,0,1-3.844,3.272,35.372,35.372,0,0,1-4.069,2.99,35.318,35.318,0,0,1,3.845-3.273A35.371,35.371,0,0,1,160.018,52.877Z" transform="translate(-152.104 -52.873)" fill="#e0e0e0"/>
            </g>
          </g>
          <g id="Group_51986" data-name="Group 51986" transform="translate(65.202 44.164)">
            <g id="Group_51983" data-name="Group 51983" transform="translate(0.002 0.003)">
              <path id="Path_48608" data-name="Path 48608" d="M159.832,122.687l-8.146-6.6" transform="translate(-151.686 -116.085)" fill="#fff"/>
            </g>
            <g id="Group_51985" data-name="Group 51985">
              <g id="Group_51984" data-name="Group 51984">
                <path id="Path_48609" data-name="Path 48609" d="M151.685,116.084a38.156,38.156,0,0,1,4.186,3.161,38.3,38.3,0,0,1,3.96,3.441,38.159,38.159,0,0,1-4.187-3.161A38.381,38.381,0,0,1,151.685,116.084Z" transform="translate(-151.684 -116.081)" fill="#e0e0e0"/>
              </g>
            </g>
          </g>
          <g id="Group_51988" data-name="Group 51988" transform="translate(0.345 44.564)">
            <g id="Group_51987" data-name="Group 51987">
              <path id="Path_48610" data-name="Path 48610" d="M58.114,122.856a34.693,34.693,0,0,1,3.8-3.239,34.616,34.616,0,0,1,4.028-2.956,34.844,34.844,0,0,1-3.8,3.239A34.843,34.843,0,0,1,58.114,122.856Z" transform="translate(-58.113 -116.658)" fill="#e0e0e0"/>
            </g>
          </g>
          <g id="Group_51989" data-name="Group 51989" transform="translate(19.88 18.42)">
            <rect id="Rectangle_13401" data-name="Rectangle 13401" width="12.684" height="36.013" transform="translate(0 12.684) rotate(-90)" fill="#e0e0e0"/>
          </g>
        </g>
      </g>
      <g id="Floor" transform="translate(2.625 292.378)">
        <g id="Group_51992" data-name="Group 51992">
          <g id="Group_51991" data-name="Group 51991">
            <path id="Path_48611" data-name="Path 48611" d="M311.267,469.12c0,.1-59.529.18-132.945.18-73.441,0-132.957-.08-132.957-.18s59.516-.18,132.957-.18C251.739,468.94,311.267,469.02,311.267,469.12Z" transform="translate(-45.365 -468.94)" fill="#263238"/>
          </g>
        </g>
      </g>
      <g id="Character" transform="translate(9.218 116.419)">
        <g id="Group_52159" data-name="Group 52159">
          <g id="Group_52027" data-name="Group 52027" transform="translate(0 34.928)">
            <g id="Group_51993" data-name="Group 51993" transform="translate(203.72 115.555)">
              <path id="Path_48612" data-name="Path 48612" d="M348.789,432.746,365.948,457.7l6.133.144-11.246-25.656Z" transform="translate(-348.789 -432.185)" fill="#263238"/>
            </g>
            <g id="Group_51994" data-name="Group 51994" transform="translate(13.654 117.391)">
              <path id="Path_48613" data-name="Path 48613" d="M83.615,434.835,74.575,458.4H79.1l15.788-23.458Z" transform="translate(-74.575 -434.835)" fill="#263238"/>
            </g>
            <g id="Group_51995" data-name="Group 51995" transform="translate(18.816 1.35)">
              <path id="Path_48614" data-name="Path 48614" d="M82.028,297.835l.663,30.487a8.059,8.059,0,0,0,7.877,7.882L261.211,340a8.058,8.058,0,0,0,8.238-8.056V295.217a21.7,21.7,0,0,0-18.737-21.505c-31.238-4.3-95.668-10.9-147.736-1.514A25.484,25.484,0,0,0,82.028,297.835Z" transform="translate(-82.022 -267.419)" fill="#929fb2"/>
            </g>
            <g id="Group_51996" data-name="Group 51996" transform="translate(0 38.946)">
              <path id="Path_48615" data-name="Path 48615" d="M72.931,325.133s-14.059-6.506-16.934,0,.32,14.494,3.514,18.968,3.143,59.429,3.143,59.429l213.19-2.278,2.526-52.866s10.224-12.591,9.585-18.023-9.266-13.333-19.171-5.229-12.46,25.038-12.46,25.038L86.35,351.449S86.912,327.652,72.931,325.133Z" transform="translate(-54.876 -321.66)" fill="#929fb2"/>
            </g>
            <g id="Group_51998" data-name="Group 51998" transform="translate(30.581 77.835)">
              <g id="Group_51997" data-name="Group 51997">
                <path id="Path_48616" data-name="Path 48616" d="M267.693,377.946c0,.1-37.767.181-84.345.181-46.594,0-84.352-.081-84.352-.181s37.759-.18,84.352-.18C229.926,377.766,267.693,377.847,267.693,377.946Z" transform="translate(-98.996 -377.766)" fill="#263238"/>
              </g>
            </g>
            <g id="Group_52000" data-name="Group 52000" transform="translate(17.051 41.988)">
              <g id="Group_51999" data-name="Group 51999">
                <path id="Path_48617" data-name="Path 48617" d="M93.006,385.345a.58.58,0,0,1-.02-.167c-.006-.132-.012-.293-.021-.491-.017-.432-.03-1.069-.037-1.888,0-1.672-.01-4.035-.017-6.944-.008-5.861.042-13.961-.225-22.9a97.617,97.617,0,0,0-.975-12.534q-.186-.688-.367-1.359c-.174-.435-.342-.868-.525-1.287-.366-.837-.74-1.643-1.149-2.4a25.322,25.322,0,0,0-2.6-3.991A18.648,18.648,0,0,0,84.32,328.6a14.591,14.591,0,0,0-2.492-1.6,25.155,25.155,0,0,0-2.352-.946.616.616,0,0,1,.165.031l.475.125a10.638,10.638,0,0,1,1.773.664,14.13,14.13,0,0,1,2.555,1.571,18.432,18.432,0,0,1,2.827,2.791,25.179,25.179,0,0,1,2.661,4.01c.419.758.8,1.569,1.176,2.411.187.421.359.856.538,1.3q.191.7.389,1.41a94.365,94.365,0,0,1,1.01,12.589c.268,8.947.177,17.048.121,22.909-.041,2.908-.074,5.271-.1,6.942q-.02,1.194-.031,1.887l-.014.491A.6.6,0,0,1,93.006,385.345Z" transform="translate(-79.477 -326.048)" fill="#263238"/>
              </g>
            </g>
            <g id="Group_52002" data-name="Group 52002" transform="translate(14.526 54.33)">
              <g id="Group_52001" data-name="Group 52001">
                <path id="Path_48618" data-name="Path 48618" d="M77.7,344.215a1.022,1.022,0,0,1,.567-.176,2.351,2.351,0,0,1,1.564.436,2.385,2.385,0,0,1,.762.863,2.166,2.166,0,0,1,.2,1.318,2.579,2.579,0,0,1-1.991,2.126,2.634,2.634,0,0,1-2.633-1.256,2.306,2.306,0,0,1-.337-1.286,2.643,2.643,0,0,1,1.477-2.233,1.084,1.084,0,0,1,.575-.145c.008.031-.2.082-.509.269a2.629,2.629,0,0,0-1.006,1.117,2.143,2.143,0,0,0,.084,2.1,2.328,2.328,0,0,0,2.285,1.075,2.272,2.272,0,0,0,1.728-1.824,1.967,1.967,0,0,0-.788-1.921,2.364,2.364,0,0,0-1.406-.5C77.91,344.177,77.709,344.246,77.7,344.215Z" transform="translate(-75.833 -343.855)" fill="#263238"/>
              </g>
            </g>
            <g id="Group_52004" data-name="Group 52004" transform="translate(15.4 59.131)">
              <g id="Group_52003" data-name="Group 52003">
                <path id="Path_48619" data-name="Path 48619" d="M79.053,360.021a3.31,3.31,0,0,1-.963-1.137,6.8,6.8,0,0,1-.083-6.943,3.3,3.3,0,0,1,.937-1.159c.046.037-.316.475-.712,1.28a7.283,7.283,0,0,0,.08,6.7C78.726,359.554,79.1,359.982,79.053,360.021Z" transform="translate(-77.094 -350.781)" fill="#263238"/>
              </g>
            </g>
            <g id="Group_52006" data-name="Group 52006" transform="translate(14.477 47.792)">
              <g id="Group_52005" data-name="Group 52005">
                <path id="Path_48620" data-name="Path 48620" d="M76.416,334.423a6.726,6.726,0,0,1-.212,1.036,6.4,6.4,0,0,0,1.011,4.762c.363.53.655.816.615.86-.024.031-.383-.19-.819-.706a5.6,5.6,0,0,1-1.056-4.973A2.139,2.139,0,0,1,76.416,334.423Z" transform="translate(-75.763 -334.422)" fill="#263238"/>
              </g>
            </g>
            <g id="Group_52008" data-name="Group 52008" transform="translate(10.971 55.455)">
              <g id="Group_52007" data-name="Group 52007">
                <path id="Path_48621" data-name="Path 48621" d="M70.711,345.483c.08-.072.724.579,1.707,1.083s1.88.673,1.866.78a4.078,4.078,0,0,1-3.573-1.863Z" transform="translate(-70.704 -345.477)" fill="#263238"/>
              </g>
            </g>
            <g id="Group_52010" data-name="Group 52010" transform="translate(6.994 101.103)">
              <g id="Group_52009" data-name="Group 52009">
                <path id="Path_48622" data-name="Path 48622" d="M279.766,411.517c0,.1-48.089.18-107.395.18-59.326,0-107.4-.081-107.4-.18s48.078-.181,107.4-.181C231.678,411.336,279.766,411.417,279.766,411.517Z" transform="translate(-64.967 -411.336)" fill="#263238"/>
              </g>
            </g>
            <g id="Group_52012" data-name="Group 52012" transform="translate(198.357 67.632)">
              <g id="Group_52011" data-name="Group 52011">
                <path id="Path_48623" data-name="Path 48623" d="M341.233,363.046c.1,0,.18,7.529.18,16.815s-.081,16.816-.18,16.816-.181-7.527-.181-16.816S341.133,363.046,341.233,363.046Z" transform="translate(-341.052 -363.046)" fill="#263238"/>
              </g>
            </g>
            <g id="Group_52014" data-name="Group 52014" transform="translate(23.64 9.463)">
              <g id="Group_52013" data-name="Group 52013">
                <path id="Path_48624" data-name="Path 48624" d="M192.686,279.135s-.112.015-.33.025l-.969.036-3.726.1-13.707.317-45.223.909c-4.416.107-8.733.094-12.88.367a43.441,43.441,0,0,0-11.729,2.141,20.73,20.73,0,0,0-8.918,5.845,19.416,19.416,0,0,0-2.731,4.038,25.558,25.558,0,0,0-1.7,4.18,39.147,39.147,0,0,0-1.4,7.647c-.212,2.285-.237,4.266-.248,5.883s.028,2.873.047,3.725c.009.414.016.735.021.969,0,.218-.006.331-.006.331s-.017-.111-.031-.329-.033-.555-.057-.968c-.042-.851-.1-2.108-.114-3.728s-.007-3.6.187-5.9a38.9,38.9,0,0,1,1.359-7.7,25.745,25.745,0,0,1,1.693-4.234,19.606,19.606,0,0,1,2.753-4.107,20.991,20.991,0,0,1,9.031-5.962,43.6,43.6,0,0,1,11.817-2.181c4.168-.28,8.482-.268,12.9-.375l45.225-.8,13.709-.2,3.728-.037h.97C192.573,279.125,192.686,279.135,192.686,279.135Z" transform="translate(-88.983 -279.123)" fill="#263238"/>
              </g>
            </g>
            <g id="Group_52016" data-name="Group 52016" transform="translate(70.648 32.996)">
              <g id="Group_52015" data-name="Group 52015">
                <path id="Path_48625" data-name="Path 48625" d="M158.924,313.3c.012.031-.23.117-.587.385a3.183,3.183,0,0,0-1.075,1.5,2.693,2.693,0,0,0,.385,2.576,2.809,2.809,0,0,0,5.067-1.207,2.693,2.693,0,0,0-.819-2.473,3.179,3.179,0,0,0-1.636-.855c-.439-.078-.7-.046-.7-.079a1.449,1.449,0,0,1,.717-.06,3.127,3.127,0,0,1,1.791.807,3.164,3.164,0,0,1,.807,1.128,2.85,2.85,0,0,1,.164,1.592,3.124,3.124,0,0,1-5.659,1.348,2.854,2.854,0,0,1-.571-1.494,3.162,3.162,0,0,1,.211-1.37,3.129,3.129,0,0,1,1.234-1.529A1.455,1.455,0,0,1,158.924,313.3Z" transform="translate(-156.803 -313.075)" fill="#263238"/>
              </g>
            </g>
            <g id="Group_52018" data-name="Group 52018" transform="translate(69.093 39.242)">
              <g id="Group_52017" data-name="Group 52017">
                <path id="Path_48626" data-name="Path 48626" d="M155.314,334.022a8.523,8.523,0,0,1-.527-2.05,11.881,11.881,0,0,1,.109-5.115,7.012,7.012,0,0,1,2.988-4.118,4.677,4.677,0,0,1,1.451-.588,1.447,1.447,0,0,1,.57-.053,8.585,8.585,0,0,0-1.885.857,7.149,7.149,0,0,0-2.777,4,12.965,12.965,0,0,0-.2,4.981C155.205,333.219,155.369,334.01,155.314,334.022Z" transform="translate(-154.559 -322.087)" fill="#263238"/>
              </g>
            </g>
            <g id="Group_52020" data-name="Group 52020" transform="translate(70.273 22.51)">
              <g id="Group_52019" data-name="Group 52019">
                <path id="Path_48627" data-name="Path 48627" d="M158.361,297.948a16.45,16.45,0,0,0-1.021,1.529,6.07,6.07,0,0,0,1.784,7.818,16.17,16.17,0,0,0,1.584.934,1.225,1.225,0,0,1-.5-.107,5.213,5.213,0,0,1-1.236-.618,6.03,6.03,0,0,1-1.86-8.15,5.224,5.224,0,0,1,.846-1.093C158.2,298.034,158.346,297.932,158.361,297.948Z" transform="translate(-156.261 -297.947)" fill="#263238"/>
              </g>
            </g>
            <g id="Group_52022" data-name="Group 52022" transform="translate(64.469 36.321)">
              <g id="Group_52021" data-name="Group 52021">
                <path id="Path_48628" data-name="Path 48628" d="M155.156,317.938a35.262,35.262,0,0,0-3.76.846,35.129,35.129,0,0,0-3.507,1.6,10.093,10.093,0,0,1,7.267-2.443Z" transform="translate(-147.887 -317.873)" fill="#263238"/>
              </g>
            </g>
            <g id="Group_52024" data-name="Group 52024" transform="translate(49.342 69.897)" opacity="0.3">
              <g id="Group_52023" data-name="Group 52023" transform="translate(0)">
                <path id="Path_48629" data-name="Path 48629" d="M126.063,375.064a34.81,34.81,0,0,0,23.558,7.1l-5.255,24.445c-.467,2.174-.9,4.592.236,6.5,1.593,2.68,5.3,2.948,8.417,2.9,3.471-.048,7.089-.131,10.167-1.738,4.36-2.277,6.7-7.1,8.392-11.716s3.151-9.563,6.633-13.039a27.056,27.056,0,0,0,15.351,8.744c1.736.32,3.7.415,5.092-.672a4.847,4.847,0,0,0,1.427-4.783,14.259,14.259,0,0,0-2.27-4.708L187.67,372.375c-1.372-2.129-2.874-4.372-5.2-5.387a12.737,12.737,0,0,0-5.871-.6,270.62,270.62,0,0,0-49.123,7.428" transform="translate(-126.063 -366.314)" fill="#929fb2"/>
              </g>
            </g>
            <g id="Group_52026" data-name="Group 52026" transform="translate(34.987)" opacity="0.3">
              <g id="Group_52025" data-name="Group 52025">
                <path id="Path_48630" data-name="Path 48630" d="M173.921,266.116c-4.1,10.84-19.423,13.326-24.8,23.592-5.319,10.151,1.275,23.6-4.2,33.661-2.029,3.728-5.513,6.509-7.5,10.262-1.334,2.526-2.023,5.529-4.176,7.407-2.509,2.189-6.4,2.146-9.41.732s-5.335-3.95-7.482-6.5c-4.022-4.77-7.8-9.926-9.679-15.877-3.235-10.242-.27-21.82,6.219-30.378s16.129-14.326,26.3-17.782,20.929-4.767,31.623-5.768" transform="translate(-105.354 -265.471)" fill="#929fb2"/>
              </g>
            </g>
          </g>
          <g id="Group_52158" data-name="Group 52158" transform="translate(27.185)">
            <g id="Group_52028" data-name="Group 52028" transform="translate(27.087)">
              <path id="Path_48631" data-name="Path 48631" d="M133.176,222.145a16.889,16.889,0,0,1,6.216-5.763,11.043,11.043,0,0,1,8.309-.835,8.251,8.251,0,0,1,5.562,5.989c.439,2.221-.152,4.7.995,6.655,1.32,2.246,4.5,2.958,5.619,5.311a5.136,5.136,0,0,1-.335,4.526,14.052,14.052,0,0,1-3.045,3.559,7.561,7.561,0,0,1,1.9,1.709,2.6,2.6,0,0,1,.4,2.426,3.554,3.554,0,0,1-2.054,1.663,20.519,20.519,0,0,1-12.264,1.152c-1.094-.237-2.347-.535-3.249.13" transform="translate(-133.176 -215.079)" fill="#263238"/>
            </g>
            <g id="Group_52029" data-name="Group 52029" transform="translate(47.356 10.7)">
              <path id="Path_48632" data-name="Path 48632" d="M169.9,235.1l-2.242,6.791,15.157,8.6-15.238.493,1.14,12.356,29.349-7.2S199.827,244.17,169.9,235.1l-2.105-.495a2.387,2.387,0,0,1-1.675-1.452h0a2.567,2.567,0,0,0-1.2-1.336l-2.5-1.3.017,1.983,1.374,1.616-.219,3.834a3.468,3.468,0,0,0,2.663,3.615l1.4.331" transform="translate(-162.419 -230.517)" fill="#ffbe9d"/>
            </g>
            <g id="Group_52046" data-name="Group 52046" transform="translate(4.409 30.768)">
              <g id="Group_52043" data-name="Group 52043">
                <g id="Group_52030" data-name="Group 52030">
                  <path id="Path_48633" data-name="Path 48633" d="M117.688,268.529a16.58,16.58,0,0,0-9.4,5.435c-3.2,4.077-7.834,19.361-7.834,19.361l11.795,2.038,5.085,12.78s30.114-3.947,28.514-5.532a60.433,60.433,0,0,0-4.889-4.032l6.943-23.085L156.241,271l-2.8-11.535-16.758,2.265Z" transform="translate(-100.458 -259.469)" fill="#fafafa"/>
                </g>
              </g>
              <g id="Group_52045" data-name="Group 52045" transform="translate(11.626 24.873)">
                <g id="Group_52044" data-name="Group 52044">
                  <path id="Path_48640" data-name="Path 48640" d="M119.847,295.354a92.653,92.653,0,0,1-2.6,11.258,92.572,92.572,0,0,1,2.6-11.258Z" transform="translate(-117.231 -295.354)" fill="#263238"/>
                </g>
              </g>
            </g>
            <g id="Group_52066" data-name="Group 52066" transform="translate(39.855 142.181)">
              <g id="Group_52047" data-name="Group 52047" transform="translate(2.8)">
                <path id="Path_48641" data-name="Path 48641" d="M164.414,420.209l-8.778,27.679,10.582,1.062,9.939-24.046Z" transform="translate(-155.636 -420.209)" fill="#ffbe9d"/>
              </g>
              <g id="Group_52065" data-name="Group 52065" transform="translate(0 13.495)">
                <g id="Group_52060" data-name="Group 52060">
                  <g id="Group_52048" data-name="Group 52048">
                    <path id="Path_48642" data-name="Path 48642" d="M170.917,444.157l-5.04,12.5s11.011,9.321,10.3,11.722l-24.583-8.9,7.054-19.8Z" transform="translate(-151.597 -439.678)" fill="#455a64"/>
                  </g>
                  <g id="Group_52050" data-name="Group 52050" transform="translate(5.948 13.151)">
                    <g id="Group_52049" data-name="Group 52049">
                      <path id="Path_48643" data-name="Path 48643" d="M161.294,458.659a1.067,1.067,0,0,0-1.109.894,1.026,1.026,0,0,0,.877,1.107,1.126,1.126,0,0,0,1.169-.953c0-.525-.521-1.126-1.04-1.05" transform="translate(-160.179 -458.651)" fill="#e0e0e0"/>
                    </g>
                  </g>
                  <g id="Group_52051" data-name="Group 52051" transform="translate(0 17.828)">
                    <path id="Path_48644" data-name="Path 48644" d="M151.6,467.367l.789-1.968,23.275,9.271s.922.873.519,1.6Z" transform="translate(-151.597 -465.399)" fill="#e0e0e0"/>
                  </g>
                  <g id="Group_52053" data-name="Group 52053" transform="translate(11.99 16.635)">
                    <g id="Group_52052" data-name="Group 52052">
                      <path id="Path_48645" data-name="Path 48645" d="M171.628,464.039c-.047.118-.667-.044-1.4.128-.735.153-1.228.563-1.321.475-.1-.063.337-.716,1.225-.909S171.694,463.939,171.628,464.039Z" transform="translate(-168.895 -463.678)" fill="#263238"/>
                    </g>
                  </g>
                  <g id="Group_52055" data-name="Group 52055" transform="translate(14.659 18.847)">
                    <g id="Group_52054" data-name="Group 52054">
                      <path id="Path_48646" data-name="Path 48646" d="M175,467.019c-.015.126-.609.142-1.2.5-.6.343-.9.855-1.022.806-.119-.022.052-.755.8-1.189S175.041,466.9,175,467.019Z" transform="translate(-172.746 -466.869)" fill="#263238"/>
                    </g>
                  </g>
                  <g id="Group_52057" data-name="Group 52057" transform="translate(17.21 20.856)">
                    <g id="Group_52056" data-name="Group 52056">
                      <path id="Path_48647" data-name="Path 48647" d="M176.479,471.524c-.119-.014-.069-.674.478-1.22s1.2-.6,1.216-.485c.033.123-.46.344-.9.8S176.6,471.556,176.479,471.524Z" transform="translate(-176.426 -469.767)" fill="#263238"/>
                    </g>
                  </g>
                  <g id="Group_52059" data-name="Group 52059" transform="translate(12.952 13.018)">
                    <g id="Group_52058" data-name="Group 52058">
                      <path id="Path_48648" data-name="Path 48648" d="M172.887,459.462c-.09.091-.581-.274-1.276-.473s-1.3-.177-1.327-.3.638-.369,1.453-.123S172.98,459.389,172.887,459.462Z" transform="translate(-170.283 -458.46)" fill="#263238"/>
                    </g>
                  </g>
                </g>
                <g id="Group_52062" data-name="Group 52062" transform="translate(13.271 8.33)">
                  <g id="Group_52061" data-name="Group 52061">
                    <path id="Path_48649" data-name="Path 48649" d="M174,454.847a2.445,2.445,0,0,1-1.229-.452,5.923,5.923,0,0,1-1.145-.862,6.123,6.123,0,0,1-.571-.631,1.6,1.6,0,0,1-.267-.424.556.556,0,0,1,.176-.658.7.7,0,0,1,.626-.084,1.712,1.712,0,0,1,.438.231,4.676,4.676,0,0,1,.67.54,4.609,4.609,0,0,1,.866,1.156,2.186,2.186,0,0,1,.362,1.262c-.069.02-.21-.456-.633-1.1a5.2,5.2,0,0,0-.874-1.016,4.86,4.86,0,0,0-.628-.474c-.236-.162-.456-.245-.565-.153-.04.036-.05.052-.023.148a1.313,1.313,0,0,0,.2.311,6.786,6.786,0,0,0,.516.607,7.247,7.247,0,0,0,1.025.887A9.179,9.179,0,0,1,174,454.847Z" transform="translate(-170.744 -451.697)" fill="#263238"/>
                  </g>
                </g>
                <g id="Group_52064" data-name="Group 52064" transform="translate(16.252 8.003)">
                  <g id="Group_52063" data-name="Group 52063">
                    <path id="Path_48650" data-name="Path 48650" d="M175.1,454.817a2.085,2.085,0,0,1,.106-1.306,4.243,4.243,0,0,1,1.241-1.921,1.08,1.08,0,0,1,1.01-.337.611.611,0,0,1,.39.53,1.776,1.776,0,0,1-.037.5,2.872,2.872,0,0,1-.3.829,3.01,3.01,0,0,1-.986,1.082c-.711.463-1.264.425-1.259.38a10.7,10.7,0,0,0,1.074-.634,3.008,3.008,0,0,0,.808-1.015,2.687,2.687,0,0,0,.235-.72c.057-.275.035-.521-.073-.53a.748.748,0,0,0-.577.247,4.4,4.4,0,0,0-.547.557,4.723,4.723,0,0,0-.683,1.142C175.206,454.326,175.172,454.823,175.1,454.817Z" transform="translate(-175.045 -451.224)" fill="#263238"/>
                  </g>
                </g>
              </g>
            </g>
            <g id="Group_52086" data-name="Group 52086" transform="translate(84.736 108.906)">
              <g id="Group_52067" data-name="Group 52067">
                <path id="Path_48651" data-name="Path 48651" d="M216.349,379.422l13.1,22.768,10.716-6.874L227.009,372.2Z" transform="translate(-216.349 -372.201)" fill="#ffbe9d"/>
              </g>
              <g id="Group_52085" data-name="Group 52085" transform="translate(9.05 16.608)">
                <g id="Group_52080" data-name="Group 52080">
                  <g id="Group_52068" data-name="Group 52068">
                    <path id="Path_48652" data-name="Path 48652" d="M240.474,396.163l6.766,11.654s14.118-2.963,15.578-.932l-22.125,13.931L229.405,403.09Z" transform="translate(-229.405 -396.163)" fill="#455a64"/>
                  </g>
                  <g id="Group_52070" data-name="Group 52070" transform="translate(10.129 14.696)">
                    <g id="Group_52069" data-name="Group 52069">
                      <path id="Path_48653" data-name="Path 48653" d="M244.279,417.672a1.067,1.067,0,0,0,.025,1.424,1.026,1.026,0,0,0,1.412-.012,1.126,1.126,0,0,0-.034-1.508,1.065,1.065,0,0,0-1.467.175" transform="translate(-244.019 -417.365)" fill="#e0e0e0"/>
                    </g>
                  </g>
                  <g id="Group_52071" data-name="Group 52071" transform="translate(10.22 10.129)">
                    <path id="Path_48654" data-name="Path 48654" d="M245.217,425.3l-1.067-1.831L265.763,410.8s1.255-.192,1.58.572Z" transform="translate(-244.15 -410.776)" fill="#e0e0e0"/>
                  </g>
                  <g id="Group_52073" data-name="Group 52073" transform="translate(16.748 11.291)">
                    <g id="Group_52072" data-name="Group 52072">
                      <path id="Path_48655" data-name="Path 48655" d="M254.943,412.477c.064.111-.445.5-.758,1.182-.331.674-.311,1.314-.437,1.334-.113.042-.358-.706.035-1.525S254.9,412.364,254.943,412.477Z" transform="translate(-253.568 -412.453)" fill="#263238"/>
                    </g>
                  </g>
                  <g id="Group_52075" data-name="Group 52075" transform="translate(20.248 10.8)">
                    <g id="Group_52074" data-name="Group 52074">
                      <path id="Path_48656" data-name="Path 48656" d="M259.417,411.759c.091.089-.262.568-.341,1.255-.1.686.119,1.239.009,1.3-.091.081-.564-.5-.45-1.358S259.35,411.658,259.417,411.759Z" transform="translate(-258.617 -411.745)" fill="#263238"/>
                    </g>
                  </g>
                  <g id="Group_52077" data-name="Group 52077" transform="translate(23.428 10.372)">
                    <g id="Group_52076" data-name="Group 52076">
                      <path id="Path_48657" data-name="Path 48657" d="M263.892,413.517c-.084.085-.575-.36-.67-1.126s.262-1.32.365-1.259-.011.575.076,1.2S263.992,413.438,263.892,413.517Z" transform="translate(-263.205 -411.126)" fill="#263238"/>
                    </g>
                  </g>
                  <g id="Group_52079" data-name="Group 52079" transform="translate(14.047 8.759)">
                    <g id="Group_52078" data-name="Group 52078">
                      <path id="Path_48658" data-name="Path 48658" d="M251.91,408.871c.017.128-.573.29-1.158.716s-.939.918-1.054.862c-.112-.039.1-.731.8-1.223S251.91,408.754,251.91,408.871Z" transform="translate(-249.671 -408.8)" fill="#263238"/>
                    </g>
                  </g>
                </g>
                <g id="Group_52082" data-name="Group 52082" transform="translate(10.621 6.049)">
                  <g id="Group_52081" data-name="Group 52081">
                    <path id="Path_48659" data-name="Path 48659" d="M248.985,405.346c.029.044-.356.379-1.112.692a5.852,5.852,0,0,1-1.383.374,6.143,6.143,0,0,1-.849.063,1.6,1.6,0,0,1-.5-.05.557.557,0,0,1-.412-.543.7.7,0,0,1,.318-.545,1.707,1.707,0,0,1,.452-.2,4.617,4.617,0,0,1,2.282-.171,2.184,2.184,0,0,1,1.218.49c-.026.067-.489-.114-1.259-.178a5.237,5.237,0,0,0-1.338.065,4.925,4.925,0,0,0-.76.2c-.273.086-.473.21-.468.352,0,.053.01.071.1.109a1.324,1.324,0,0,0,.366.035,6.73,6.73,0,0,0,.8-.034,7.224,7.224,0,0,0,1.33-.264A8.949,8.949,0,0,1,248.985,405.346Z" transform="translate(-244.728 -404.891)" fill="#263238"/>
                  </g>
                </g>
                <g id="Group_52084" data-name="Group 52084" transform="translate(13.11 2.611)">
                  <g id="Group_52083" data-name="Group 52083">
                    <path id="Path_48660" data-name="Path 48660" d="M250.044,404.067c-.028.041-.486-.211-.966-.887a4.235,4.235,0,0,1-.754-2.158,1.081,1.081,0,0,1,.355-1,.611.611,0,0,1,.657.017,1.759,1.759,0,0,1,.369.335,2.885,2.885,0,0,1,.471.746,3.013,3.013,0,0,1,.247,1.442c-.071.846-.441,1.259-.473,1.228a10.887,10.887,0,0,0,.159-1.237,3.024,3.024,0,0,0-.3-1.261,2.711,2.711,0,0,0-.423-.628c-.183-.213-.39-.347-.463-.268a.746.746,0,0,0-.159.606,4.275,4.275,0,0,0,.1.774,4.715,4.715,0,0,0,.481,1.241C249.722,403.682,250.092,404.014,250.044,404.067Z" transform="translate(-248.32 -399.93)" fill="#263238"/>
                  </g>
                </g>
              </g>
            </g>
            <g id="Group_52095" data-name="Group 52095" transform="translate(17.936 73.911)">
              <g id="Group_52087" data-name="Group 52087" transform="translate(0 2.293)">
                <path id="Path_48661" data-name="Path 48661" d="M147.782,361.733l25.723-17.492,16.225,31.587,14.755-7.984s-16.991-41.431-23.091-42.768c-3.418-.75-42.6,6.735-42.6,6.735l-4.378-2.2-11.085-1.348-.708,1.792a37.829,37.829,0,0,0,1.231,30.582l.539,1.1Z" transform="translate(-119.973 -325.022)" fill="#263238"/>
              </g>
              <g id="Group_52088" data-name="Group 52088" transform="translate(15.705)">
                <path id="Path_48662" data-name="Path 48662" d="M145.7,338.84c.192.867,21.457,20.779,21.457,20.779l-12.27,41.232,18.312,3.5,18.388-49.671-33.609-32.97-15.349,6.461Z" transform="translate(-142.631 -321.713)" fill="#263238"/>
              </g>
              <g id="Group_52090" data-name="Group 52090" transform="translate(27.809 21.511)">
                <g id="Group_52089" data-name="Group 52089">
                  <path id="Path_48663" data-name="Path 48663" d="M185.817,352.748c.055.082-5.657,4.065-12.76,8.895s-12.907,8.68-12.964,8.6,5.657-4.065,12.761-8.9S185.761,352.666,185.817,352.748Z" transform="translate(-160.093 -352.747)" fill="#455a64"/>
                </g>
              </g>
              <g id="Group_52092" data-name="Group 52092" transform="translate(53.53 21.512)">
                <g id="Group_52091" data-name="Group 52091">
                  <path id="Path_48664" data-name="Path 48664" d="M210.408,378.452a6.85,6.85,0,0,1-.62-.953c-.384-.624-.911-1.542-1.555-2.681-1.28-2.282-2.985-5.47-4.791-9.03s-3.391-6.809-4.509-9.174c-.559-1.182-1-2.143-1.3-2.811a6.569,6.569,0,0,1-.428-1.054,7.087,7.087,0,0,1,.555.993l1.4,2.761,4.6,9.122c1.8,3.557,3.473,6.76,4.693,9.072l1.453,2.734A6.835,6.835,0,0,1,210.408,378.452Z" transform="translate(-197.203 -352.749)" fill="#455a64"/>
                </g>
              </g>
              <g id="Group_52094" data-name="Group 52094" transform="translate(39.813 30.544)">
                <g id="Group_52093" data-name="Group 52093">
                  <path id="Path_48665" data-name="Path 48665" d="M181.679,365.781a64.83,64.83,0,0,1-4.26,8.678,64.729,64.729,0,0,1,4.26-8.678Z" transform="translate(-177.413 -365.78)" fill="#455a64"/>
                </g>
              </g>
            </g>
            <g id="Group_52096" data-name="Group 52096" transform="translate(0 64.624)">
              <path id="Path_48666" data-name="Path 48666" d="M98.506,308.315l-4.132,15.361a8.057,8.057,0,0,0,.687,5.914h0a8.058,8.058,0,0,0,8.911,4.03l32.958-8.119-3.446-6.844-25.963,2.251,2.781-10.554Z" transform="translate(-94.097 -308.315)" fill="#ffbe9d"/>
            </g>
            <g id="Group_52099" data-name="Group 52099" transform="translate(19.029 51.009)">
              <g id="Group_52097" data-name="Group 52097">
                <path id="Path_48667" data-name="Path 48667" d="M121.551,325.6l.43-2.233,17.86-3.209,5.19-27.537,33.174-3.952-5.574,29.4Z" transform="translate(-121.551 -288.672)" fill="#455a64"/>
              </g>
              <g id="Group_318" data-name="Group 318" transform="translate(35.838 15.909)">
                <path id="Path_289" data-name="Path 289" d="M185,.9l-.011-.01-.011-.01-.01-.01-.011-.01-.011-.01-.01-.01-.011-.01-.01-.01-.011-.01L184.895.8l-.01-.01-.011-.01-.01-.01-.011-.01-.011-.01-.01-.01-.011-.01-.01-.01L184.8.706,184.79.7l-.01-.012-.011-.01-.01-.01-.011-.01-.011-.01-.01-.01-.011-.01-.01-.01L184.7.6l-.011-.01-.01-.01-.011-.008-.011-.01-.01-.01-.011-.01-.01-.01-.011-.01L184.6.512l-.01-.01-.011-.01-.01-.01-.011-.01-.011-.01-.008-.008-.011-.01-.01-.01-.011-.01L184.5.413,184.487.4l-.011-.01c-.481-.494-1.268.265-.756.73l.01.01.011.01.011.01.01.01.011.01.011.01.01.01.011.01.01.01.011.01.011.01.01.01.011.01.01.01.011.01.011.01.01.01.011.01.01.01.011.01.011.01.01.01.011.01.01.01.011.01.011.01.01.01.011.01.01.01.011.01.011.01.01.01.011.01.011.01.01.01.011.01.01.01.011.01.011.01.01.01.011.01.01.01.011.01.011.01.01.01.011.01.01.01.011.01.011.01.01.01C184.726,2.123,185.512,1.364,185,.9Z" transform="translate(-183.367 -0.223)" fill="#f5f9fe"/>
                <path id="Path_290" data-name="Path 290" d="M254.991,70.891l-.005-.005-.005-.005-.005-.005-.005-.005-.005,0-.016-.016-.005-.005,0-.005-.005-.005-.005-.005-.011-.01-.005,0L254.9,70.8l-.005-.005,0-.005-.005-.005-.005-.005-.005-.005-.005-.005-.005,0-.016-.016-.005-.005-.006,0-.005-.005-.011-.01-.005-.005-.005,0-.011-.01-.005-.005-.005-.005,0-.005-.005-.005-.011-.01-.005,0-.005-.005-.005-.005-.011-.01-.005-.005,0-.005-.005-.005-.011-.01-.005-.005-.005,0-.005-.005-.011-.01-.005-.005,0-.005-.005-.005-.011-.01-.005-.005-.005,0-.005-.005-.011-.01-.005-.005,0-.005-.005-.005-.011-.01-.005-.005-.005,0-.005-.005-.011-.01-.005-.005,0-.005-.005-.005-.011-.01-.005-.005-.005,0-.005-.005-.011-.01-.005-.005,0-.005-.005-.005-.011-.01-.005-.005-.005,0-.005-.005-.011-.01-.005-.005,0-.005c-.481-.488-1.262.265-.757.73l.005.005.005.005,0,0,.005.005.005.005.005.005.005.005.005.005.005.005.005.005.005.005.005.005,0,0,.005.005.005.005.005.005.005.005.005.005.005.005.005.005.005.005.005.005,0,0,.005.005.005.005.005.005.005.005.005.005.005.005.005.005.005.005.005.005.005,0,0,.005.005.005.005.005.005.005.005.005.005.005.005.005.005.005.005.005.005.005,0,0,.005.005.005.005.005.005.005.005.005.005.005.005.005.005.005.005.005.005,0,0,.005.005L254,71.4l.005.005.005.005.005.005.005.005.005.005.005.005.005.005,0,0,.005.005.005.005.005.005.005.005.005.005.005.005.005.005.005.005.005.005,0,0,.005.005.005.005.005.005.005.005.005.005.005.005.005.005.005.005.005.005,0,0,.005.005.005.005.005.005.005.005.005.005.005.005.005.005.005.005.005.005,0,0,.005.005.005.005.005.005.005.005.005.005.005.005C254.717,72.109,255.5,71.357,254.991,70.891Z" transform="translate(-249.61 -66.598)" fill="#f5f9fe"/>
                <path id="Path_291" data-name="Path 291" d="M184.532.565a.541.541,0,0,0-.925-.352c-.01.006-.572.549-.583.558S183.007.789,183,.8l-.027.025-.026.026-.027.025L182.892.9l-.027.025-.026.026-.027.025L182.787,1l-.027.025-.026.026-.027.025-.026.026-.027.025-.027.026-.027.025-.026.026-.027.025-.026.026-.027.025-.026.026-.027.025-.026.026-.027.025-.026.026-.027.025-.026.026-.027.025-.026.026-.027.025-.026.026-.027.025-.026.026-.027.025-.026.026-.027.025-.026.026-.027.025-.026.026-.027.025-.026.026-.027.025-.026.026-.027.025-.026.026-.027.026-.026.025L181.754,2l-.026.025-.027.026-.026.025-.027.026-.026.025-.027.026-.026.025-.027.026-.026.025-.027.026-.026.025-.027.026-.026.025-.027.026-.026.025-.027.026-.026.025-.027.026-.026.025-.027.026-.026.025-.027.026-.026.025-.027.026-.026.025-.027.026-.026.025-.027.026-.026.025-.027.026-.026.025-.027.026-.026.025-.027.026-.026.025-.027.026-.026.025-.027.026-.026.025-.027.026-.026.025c-.008.009-.018.017-.027.026s-.018.017-.026.025-.018.017-.027.026l-.026.025c-.008.009-.018.017-.027.026l-.026.025c-.008.009-.018.017-.027.026l-.026.025c-.008.009-.018.017-.027.026l-.214.207c-.532.465.274,1.243.755.729.009-.008.207-.2.214-.207l.026-.026.027-.025.026-.026.027-.025.026-.026.027-.025.026-.026L181.4,3.8l.026-.026.027-.025.026-.026L181.5,3.7l.026-.026.027-.025.026-.026c.008-.009.018-.017.027-.025l.026-.026c.008-.009.018-.017.027-.025l.026-.026c.008-.009.018-.017.027-.025l.026-.026a.319.319,0,0,0,.027-.026.3.3,0,0,0,.026-.025.315.315,0,0,0,.027-.026l.027-.025.026-.026c.009-.009.018-.017.027-.025l.026-.026c.008-.009.018-.017.027-.025l.026-.026c.008-.009.018-.017.027-.025l.026-.026c.008-.009.018-.017.027-.025l.026-.026c.008-.009.018-.017.027-.025l.026-.026c.009-.009.018-.017.027-.025l.026-.026c.009-.009.018-.017.027-.025l.026-.026.027-.025.026-.026.027-.025.026-.026.027-.025.026-.026.027-.025.026-.026.027-.025.026-.026.027-.025.026-.026.027-.025.026-.026.027-.025.026-.026.027-.025.026-.026.027-.025.026-.026.027-.025.026-.026.027-.025.026-.026.027-.025.026-.026.027-.025.026-.026.027-.025.026-.026.027-.025.026-.026.027-.025.026-.026.027-.025.026-.026.027-.025.026-.026.027-.025.026-.026.027-.025.026-.026.027-.025.026-.026.027-.025.026-.026.027-.025.026-.026.027-.025.026-.026.027-.025.026-.026.027-.025.026-.026.027-.025.026-.026.027-.025.026-.026.582-.561a.508.508,0,0,0,.171-.375Z" transform="translate(-180.041 -0.051)" fill="#f5f9fe"/>
                <path id="Path_292" data-name="Path 292" d="M204.244,16.812a.541.541,0,0,0-.926-.352l-.581.561-.027.026-.026.025-.027.026-.026.025-.027.026-.026.025-.027.026-.026.025-.027.026c-.009.009-.018.017-.026.025s-.018.017-.027.026l-.026.025c-.008.009-.018.017-.027.026l-.026.025c-.008.009-.018.017-.027.026l-.026.025c-.008.009-.018.017-.027.026l-.026.025c-.008.009-.018.017-.027.026l-.026.025-.027.026c-.009.009-.018.017-.026.025s-.018.017-.027.026l-.027.025-.026.026-.027.025-.026.026-.027.025-.026.026-.027.025-.026.026-.027.025-.026.026-.027.025-.026.026-.027.025-.026.026-.027.025-.026.026-.027.025-.026.026-.027.025-.026.026-.027.025-.026.026-.027.025-.026.026-.027.025-.026.026-.027.025-.026.026-.027.025-.026.026-.027.025-.026.026-.027.025-.026.026-.027.025-.026.026-.027.025-.026.026-.027.025-.026.026-.027.025-.026.026-.027.025-.026.026-.027.025-.026.026-.027.025-.026.026-.027.025-.026.026-.027.025-.026.026-.027.026-.026.025-.027.026-.026.025-.027.026-.026.025-.027.026-.026.025-.027.026-.026.025-.027.026-.026.025-.027.026-.026.025-.027.026-.026.025-.027.026-.026.025-.027.026-.026.025-.027.026-.026.025-.027.026-.214.207c-.532.465.274,1.243.755.729.009-.008.207-.2.214-.207a19.75,19.75,0,0,1,.053-.051.289.289,0,0,0,.026-.025.31.31,0,0,0,.027-.026.3.3,0,0,0,.026-.025.309.309,0,0,0,.027-.026l.027-.025.026-.026c.008-.009.018-.017.027-.025l.026-.026c.008-.009.018-.017.027-.025l.026-.026c.009-.009.018-.017.027-.025l.026-.026.027-.025.026-.026.027-.025.026-.026.027-.025.026-.026.027-.025.026-.026.027-.025.026-.026.027-.025.026-.026.027-.025.026-.026.027-.025.026-.026.027-.025.026-.026.027-.025.026-.026.027-.025.026-.026.027-.025.026-.026.027-.025.026-.026.027-.025.026-.026.027-.025.026-.026.027-.025.026-.026.027-.025.026-.026L202.2,19l.026-.026.027-.025.026-.026.027-.025.026-.026.027-.025.026-.026.027-.025.026-.026.027-.025.026-.026.027-.025.026-.026.027-.025.026-.026.027-.025.026-.026.027-.025.026-.026.027-.025.026-.026.027-.025.026-.026.027-.025.026-.026.027-.025.026-.026.027-.025.026-.026.027-.025.026-.026.027-.025.026-.026.027-.025.026-.026.027-.025.026-.026.027-.025.026-.026.027-.025.026-.026.027-.025.026-.026.027-.025.026-.026a.317.317,0,0,0,.027-.026.308.308,0,0,0,.026-.025.3.3,0,0,0,.027-.026.3.3,0,0,0,.026-.025c.01-.008.573-.552.582-.561A.508.508,0,0,0,204.244,16.812Z" transform="translate(-198.7 -15.459)" fill="#f5f9fe"/>
              </g>
            </g>
            <g id="Group_52157" data-name="Group 52157" transform="translate(10.038 4.159)">
              <g id="Group_52154" data-name="Group 52154" transform="translate(13.845 3.275)">
                <g id="Group_52104" data-name="Group 52104">
                  <g id="Group_52103" data-name="Group 52103">
                    <g id="Group_52102" data-name="Group 52102">
                      <g id="Group_52101" data-name="Group 52101">
                        <g id="Group_52100" data-name="Group 52100">
                          <path id="Path_48669" data-name="Path 48669" d="M128.553,227.339l.063,1.991.746,29.81a6.4,6.4,0,0,0,6.836,6.021h0a6.758,6.758,0,0,0,6.718-6.552c-.032-3.671,0-7.536,0-7.536s4.719-.84,5.628-7.021a65.941,65.941,0,0,0-.069-12.212,6.516,6.516,0,0,0-7.256-5.99Z" transform="translate(-128.553 -225.804)" fill="#ffbe9d"/>
                        </g>
                      </g>
                    </g>
                  </g>
                </g>
                <g id="Group_52139" data-name="Group 52139" transform="translate(6.078 23.16)">
                  <g id="Group_52138" data-name="Group 52138">
                    <g id="Group_52137" data-name="Group 52137">
                      <g id="Group_52136" data-name="Group 52136">
                        <g id="Group_52135" data-name="Group 52135">
                          <path id="Path_48675" data-name="Path 48675" d="M145.61,261.327a15.7,15.7,0,0,1-8.288-2.108s2.054,4.215,8.222,3.566Z" transform="translate(-137.322 -259.218)" fill="#f15a24" opacity="0.3"/>
                        </g>
                      </g>
                    </g>
                  </g>
                </g>
              </g>
              <g id="Group_52155" data-name="Group 52155">
                <path id="Path_48680" data-name="Path 48680" d="M129.56,221.867a7.769,7.769,0,0,1-1.118,9.693c-1.475,1.374-3.67,2.445-3.82,4.455-.166,2.226,2.413,3.891,2.416,6.124,0,2.3-2.644,3.758-3.159,5.995-.414,1.8.661,3.606,1.908,4.969s2.747,2.573,3.5,4.263a7.535,7.535,0,0,1-.211,5.937,18.7,18.7,0,0,1-3.484,4.988,23.253,23.253,0,0,0-5.712-1.271q.184-1.1.367-2.208a2.037,2.037,0,0,1-1.49,1.874,5.451,5.451,0,0,1-2.547.032,41.354,41.354,0,0,1-7.626-1.961,13.655,13.655,0,0,0,2.786-3.482,4.627,4.627,0,0,0,.077-4.3c-.609-1.036-1.731-1.7-2.291-2.764-.841-1.593-.148-3.619,1.046-4.967a29.571,29.571,0,0,1,4.23-3.343,6.5,6.5,0,0,0,2.838-4.406c.149-2.332-1.738-4.458-1.507-6.784.263-2.648,3.064-4.268,4.164-6.691.8-1.754.689-3.918,1.91-5.408a4.648,4.648,0,0,1,3.831-1.526,8.624,8.624,0,0,1,3.994,1.4" transform="translate(-108.579 -221.08)" fill="#263238"/>
              </g>
              <g id="Group_52156" data-name="Group 52156" transform="translate(27.864 22.117)">
                <path id="Path_48681" data-name="Path 48681" d="M149.642,260.078c-1.115.615-1.05,2.307-.372,3.385s1.77,1.845,2.441,2.928a4.787,4.787,0,0,1-1.128,6.109l2.663,1.007.581-.329,1.634-.925-.767,1.888h1.7a4.87,4.87,0,0,0,4-7.724c-.7-.97-1.79-1.743-2.025-2.916-.285-1.415.783-2.7,1.307-4.043a5.717,5.717,0,0,0-1.86-6.47" transform="translate(-148.779 -252.989)" fill="#263238"/>
              </g>
            </g>
          </g>
        </g>
      </g>
      <g id="Speech_Bubble" data-name="Speech Bubble" transform="translate(0 79.56)">
        <g id="Group_52173" data-name="Group 52173">
          <g id="Group_52164" data-name="Group 52164" transform="translate(16.602 11.415)">
            <g id="Group_52161" data-name="Group 52161" transform="translate(0 2.627)">
              <g id="Group_52160" data-name="Group 52160">
                <path id="Path_48682" data-name="Path 48682" d="M71.573,182.251a.928.928,0,0,1,.526.837V187.7a.926.926,0,0,1-1.178.892,2.881,2.881,0,0,0-2.26.347,2.592,2.592,0,0,0-1.232,1.647A2.649,2.649,0,0,0,67.9,192.6a2.956,2.956,0,0,0,1.9,1.262,3.473,3.473,0,0,0,3.631-2.348.927.927,0,0,1,1.767.563,5.342,5.342,0,0,1-5.689,3.617,4.785,4.785,0,0,1-3.138-2.04,4.513,4.513,0,0,1-.761-3.447,4.448,4.448,0,0,1,2.085-2.855,4.851,4.851,0,0,1,2.547-.712v-3.558a.928.928,0,0,1,1.328-.836Z" transform="translate(-65.53 -182.16)" fill="#e8505b"/>
              </g>
            </g>
            <g id="Group_52163" data-name="Group 52163" transform="translate(4.766)">
              <g id="Group_52162" data-name="Group 52162">
                <path id="Path_48683" data-name="Path 48683" d="M72.407,179.147a.758.758,0,1,1,.778.739A.758.758,0,0,1,72.407,179.147Z" transform="translate(-72.407 -178.37)" fill="#e8505b"/>
              </g>
            </g>
          </g>
          <g id="Group_52172" data-name="Group 52172">
            <g id="Group_52166" data-name="Group 52166" transform="translate(41.507 36.88)">
              <g id="Group_52165" data-name="Group 52165">
                <path id="Path_48684" data-name="Path 48684" d="M103.937,215.138c0,.021-.23.035-.609.191a2.816,2.816,0,0,0-1.286,1.1,2.685,2.685,0,0,0-.4,1.1,2.333,2.333,0,0,0,.232,1.3,2.548,2.548,0,0,0,4.771-.283,2.335,2.335,0,0,0,.077-1.322,2.678,2.678,0,0,0-.525-1.045,2.819,2.819,0,0,0-1.407-.943c-.4-.11-.629-.1-.628-.117a.517.517,0,0,1,.168-.014,1.037,1.037,0,0,1,.2.01,1.589,1.589,0,0,1,.275.046,2.86,2.86,0,0,1,2.072,2.024,2.483,2.483,0,0,1-.063,1.421,2.9,2.9,0,0,1-.891,1.293,2.567,2.567,0,0,1-3.18.189,2.9,2.9,0,0,1-1.037-1.178,2.481,2.481,0,0,1-.231-1.4,2.862,2.862,0,0,1,1.819-2.255,1.616,1.616,0,0,1,.269-.078,1.043,1.043,0,0,1,.2-.035A.543.543,0,0,1,103.937,215.138Z" transform="translate(-101.461 -215.11)" fill="#263238"/>
              </g>
            </g>
            <g id="Group_52168" data-name="Group 52168" transform="translate(49.136 43.588)">
              <g id="Group_52167" data-name="Group 52167">
                <path id="Path_48685" data-name="Path 48685" d="M114.058,224.812c0,.019-.144.033-.379.134a1.779,1.779,0,0,0-.793.7,1.5,1.5,0,0,0-.095,1.484,1.572,1.572,0,0,0,2.941-.175,1.5,1.5,0,0,0-.27-1.462,1.784,1.784,0,0,0-.87-.6c-.245-.073-.392-.069-.392-.088a.835.835,0,0,1,.411.013,1.753,1.753,0,0,1,.959.582,1.779,1.779,0,0,1,.372.7,1.594,1.594,0,0,1-.038.913,1.746,1.746,0,0,1-3.278.195,1.593,1.593,0,0,1-.145-.9,1.808,1.808,0,0,1,1.17-1.429A.843.843,0,0,1,114.058,224.812Z" transform="translate(-112.468 -224.787)" fill="#263238"/>
              </g>
            </g>
            <g id="Group_52171" data-name="Group 52171">
              <g id="Group_52170" data-name="Group 52170">
                <g id="Group_52169" data-name="Group 52169">
                  <path id="Path_48686" data-name="Path 48686" d="M84.44,185.07s0-.118,0-.348.01-.575.018-1.019c0-.224.01-.474.016-.75s-.042-.577-.064-.9-.053-.678-.082-1.053a3.712,3.712,0,0,0-.077-.577l-.11-.61a20.385,20.385,0,0,0-1.919-5.857,21.3,21.3,0,0,0-4.94-6.465l-.866-.758c-.306-.238-.632-.458-.952-.692l-.487-.349a4.062,4.062,0,0,0-.5-.333l-1.063-.617c-.18-.1-.357-.211-.541-.31l-.573-.261-1.164-.53c-.4-.166-.814-.286-1.227-.434l-.625-.213c-.105-.035-.209-.075-.315-.1l-.325-.076a19.7,19.7,0,0,0-2.665-.522c-.457-.052-.916-.133-1.382-.162l-1.413-.037c-.238,0-.476-.022-.715-.01l-.717.054c-.48.041-.966.059-1.449.12a22.624,22.624,0,0,0-2.9.611l-.726.2c-.121.035-.243.065-.363.1l-.354.138-1.425.555c-.469.209-.921.459-1.386.688-.228.122-.47.223-.69.364l-.663.42a23.9,23.9,0,0,0-2.572,1.861l-1.174,1.106-.3.278c-.092.1-.179.2-.27.3l-.537.613-.54.616-.483.666-.482.671-.242.336c-.073.117-.14.238-.211.358l-.839,1.443-.7,1.529A21.132,21.132,0,0,0,42.4,188.537l.453,1.62.606,1.556.152.386.187.37.373.737.374.733.438.692.436.69.219.342.248.321.988,1.275a23.988,23.988,0,0,0,2.253,2.238l.589.518c.2.173.419.311.625.466.424.3.832.616,1.263.894l1.322.77.328.191c.112.058.229.107.343.16l.686.314a22.662,22.662,0,0,0,2.771,1.053c.469.135.945.228,1.413.343l.7.164c.234.05.472.067.707.1l1.4.182c.465.044.931.035,1.39.055a19.772,19.772,0,0,0,2.714-.1l.333-.024c.11-.012.219-.036.328-.054l.65-.113c.43-.082.862-.135,1.28-.238l1.232-.344.606-.168.583-.223L71.537,203a4.194,4.194,0,0,0,.55-.25l.534-.27c.353-.182.708-.349,1.048-.536l.974-.614a21.3,21.3,0,0,0,5.882-5.621c.175-.245.353-.482.518-.723l.433-.74.417-.712c.066-.117.139-.229.2-.347l.164-.356.62-1.347c.185-.433.309-.866.455-1.264l.2-.586a3.621,3.621,0,0,0,.166-.559q.131-.549.245-1.027c.072-.319.153-.611.2-.882s.071-.521.1-.744q.092-.66.14-1.009c.033-.227.055-.344.055-.344s-.008.117-.035.346l-.121,1.013q-.041.335-.091.747c-.046.272-.125.566-.194.887s-.152.664-.236,1.032a3.685,3.685,0,0,1-.162.562q-.1.286-.2.588c-.143.4-.265.837-.448,1.273l-.615,1.356c-.053.119-.108.238-.163.358s-.131.232-.2.35l-.414.717-.431.745c-.164.242-.342.481-.517.728a21.344,21.344,0,0,1-5.9,5.675l-.979.621c-.341.189-.7.359-1.054.543l-.538.272a4.251,4.251,0,0,1-.553.254l-1.153.451c-.195.074-.389.155-.586.226l-.611.171-1.24.349c-.42.105-.855.16-1.289.243l-.655.116c-.11.018-.219.042-.33.055l-.335.026a20.076,20.076,0,0,1-2.736.108c-.463-.019-.933-.01-1.4-.053l-1.414-.181c-.236-.035-.478-.052-.713-.1l-.707-.164c-.471-.116-.952-.209-1.425-.345a22.588,22.588,0,0,1-2.8-1.058l-.692-.315c-.115-.054-.233-.1-.347-.161l-.331-.192-1.334-.776c-.435-.281-.847-.6-1.275-.9-.209-.157-.434-.3-.631-.471l-.6-.521a24.248,24.248,0,0,1-2.274-2.257l-1-1.285-.251-.324-.221-.345-.441-.7-.442-.7L44,193.3l-.376-.744-.189-.374-.154-.39-.611-1.571q-.229-.814-.459-1.634a21.309,21.309,0,0,1,1.058-13.541l.707-1.544q.425-.731.847-1.456c.071-.12.139-.243.213-.36l.244-.34.487-.676L46.25,170l.545-.622.543-.618c.091-.1.179-.207.272-.307l.3-.28,1.185-1.115a24.137,24.137,0,0,1,2.6-1.876l.669-.423c.222-.142.466-.243.7-.367.47-.231.927-.482,1.4-.692l1.438-.559.357-.138c.121-.04.245-.071.367-.106l.732-.2a22.771,22.771,0,0,1,2.926-.611c.488-.061.977-.078,1.461-.119l.724-.053c.241-.012.481.008.72.01l1.424.04c.47.031.932.112,1.393.166a20,20,0,0,1,2.685.531l.327.077c.107.03.212.071.317.105l.629.216c.414.15.837.272,1.235.44l1.171.536.577.265c.185.1.364.21.545.314l1.069.624a4.18,4.18,0,0,1,.507.336l.489.353c.322.236.649.46.957.7l.87.765a21.333,21.333,0,0,1,4.946,6.52,20.326,20.326,0,0,1,1.9,5.893l.105.613a3.727,3.727,0,0,1,.073.58q.04.565.073,1.057c.019.327.051.629.054.905s-.017.527-.025.752q-.025.666-.038,1.02C84.45,184.953,84.44,185.07,84.44,185.07Z" transform="translate(-41.578 -161.901)" fill="#263238"/>
                </g>
              </g>
            </g>
          </g>
        </g>
      </g>
      <g id="Sreen" transform="translate(135.685 0)">
        <g id="Group_52245" data-name="Group 52245">
          <g id="Group_52174" data-name="Group 52174" transform="translate(0.297)">
            <rect id="Rectangle_13402" data-name="Rectangle 13402" width="143.093" height="217.217" rx="8" fill="#fff" stroke="#c8cfd8" stroke-width="1"/>
          </g>
          <g id="Group_52175" data-name="Group 52175" transform="translate(0.168 11.064)">
            <rect id="Rectangle_13403" data-name="Rectangle 13403" width="143.136" height="93.482" transform="translate(0)" fill="#f5f5f5"/>
          </g>
          <g id="Group_52177" data-name="Group 52177" transform="translate(92.409 203.207)">
            <g id="Group_52176" data-name="Group 52176">
              <path id="Path_48687" data-name="Path 48687" d="M370.657,340.291" transform="translate(-370.657 -340.291)" fill="none" stroke="#4e585d" stroke-miterlimit="10" stroke-width="1"/>
            </g>
          </g>
          <g id="Group_52223" data-name="Group 52223" transform="translate(35.955 36.28)">
            <g id="Group_52216" data-name="Group 52216" transform="translate(7.158)">
              <g id="Group_52194" data-name="Group 52194" transform="translate(0.559 1.894)">
                <g id="Group_52184" data-name="Group 52184" transform="translate(0.204 0.15)">
                  <g id="Group_52183" data-name="Group 52183">
                    <path id="Path_48705" data-name="Path 48705" d="M351.9,131.3a16.688,16.688,0,1,0-25.894-3.96l-3.395,3.168.811,5.636-5.269-1.477-4.248,3.964.811,5.636-5.269-1.477L305.8,146.2l.495,3.435-3.211-.9-2.126,1.982-.318,5.22,7.785,1.96,25.261-23.568A16.693,16.693,0,0,0,351.9,131.3Zm-2.467-20.521a4.787,4.787,0,1,1-6.766-.234A4.788,4.788,0,0,1,349.437,110.777Z" transform="translate(-300.638 -102.408)" fill="#263238"/>
                  </g>
                </g>
                <g id="Group_52193" data-name="Group 52193">
                  <g id="Group_52186" data-name="Group 52186" transform="translate(0.204 0.15)">
                    <g id="Group_52185" data-name="Group 52185">
                      <path id="Path_48706" data-name="Path 48706" d="M351.9,131.3a16.688,16.688,0,1,0-25.894-3.96l-3.395,3.168.811,5.636-5.269-1.477-4.248,3.964.811,5.636-5.269-1.477L305.8,146.2l.495,3.435-3.211-.9-2.126,1.982-.318,5.22,7.785,1.96,25.261-23.568A16.693,16.693,0,0,0,351.9,131.3Zm-2.467-20.521a4.787,4.787,0,1,1-6.766-.234A4.788,4.788,0,0,1,349.437,110.777Z" transform="translate(-300.638 -102.408)" fill="none"/>
                    </g>
                  </g>
                  <g id="Group_52189" data-name="Group 52189" transform="translate(40.516 6.862)">
                    <g id="Group_52188" data-name="Group 52188">
                      <g id="Group_52187" data-name="Group 52187">
                        <path id="Path_48707" data-name="Path 48707" d="M367.284,113.749c-.03.032-.313-.291-.951-.684a4.771,4.771,0,0,0-3.013-.661,4.607,4.607,0,1,0,5.032,5.393,4.782,4.782,0,0,0-.451-3.051c-.348-.663-.651-.968-.617-1,.01-.01.089.061.229.207a3.674,3.674,0,0,1,.53.71,4.764,4.764,0,0,1,.6,3.179,4.935,4.935,0,0,1-5.786,4.069,4.948,4.948,0,0,1-4.025-4.315,4.937,4.937,0,0,1,4.46-5.489,4.766,4.766,0,0,1,3.13.818,3.685,3.685,0,0,1,.672.578C367.229,113.657,367.295,113.739,367.284,113.749Z" transform="translate(-358.796 -112.092)" fill="#263238"/>
                      </g>
                    </g>
                  </g>
                  <g id="Group_52192" data-name="Group 52192">
                    <g id="Group_52191" data-name="Group 52191">
                      <g id="Group_52190" data-name="Group 52190">
                        <path id="Path_48708" data-name="Path 48708" d="M351.813,131.232s-.077.082-.24.231l-.735.655a17.46,17.46,0,0,1-3.229,2.053,16.8,16.8,0,0,1-14.066.2l.137-.023-25.219,23.613-.074.069-.1-.025-7.787-1.952-.157-.04.01-.162c.1-1.627.205-3.412.314-5.22l0-.079.058-.055,2.124-1.984.082-.077.109.031,3.212.9-.256.225c-.155-1.073-.325-2.25-.5-3.434l-.015-.106.078-.073,3.651-3.407.085-.08.112.032,5.27,1.475-.262.23c-.257-1.787-.533-3.7-.812-5.636l-.015-.108.08-.074,1.126-1.051,3.123-2.913.086-.08.112.031,5.269,1.478-.261.229q-.409-2.847-.81-5.636l-.015-.107.079-.073,3.4-3.166-.038.25a17.031,17.031,0,0,1-2.169-7.6,16.194,16.194,0,0,1,.277-3.861,16.419,16.419,0,0,1,1.111-3.63,16.812,16.812,0,0,1,32.189,8.061,16.492,16.492,0,0,1-1.872,6.425l-.311.594-.343.53c-.227.338-.416.669-.633.947-.451.543-.8,1.03-1.136,1.369l-.771.771c-.175.171-.27.252-.27.252s.078-.1.244-.279l.743-.792c.33-.346.665-.839,1.1-1.384.211-.279.394-.611.614-.95l.333-.53.3-.593a16.709,16.709,0,0,0,.121-15,16.534,16.534,0,0,0-29.958.736,16.008,16.008,0,0,0-1.079,3.547,15.8,15.8,0,0,0-.265,3.771,16.638,16.638,0,0,0,2.126,7.414l.078.141-.116.109-3.394,3.169.064-.18q.4,2.788.812,5.636l.046.315-.307-.086L318.01,134.8l.2-.048-3.122,2.913-1.126,1.05.064-.182.811,5.636.045.316-.307-.086-5.268-1.478.2-.048-3.653,3.405.063-.179c.17,1.185.338,2.363.492,3.435l.044.309-.3-.085-3.211-.9.191-.046L301,150.792l.063-.133-.322,5.219-.147-.2,7.783,1.966-.173.045,25.3-23.523.062-.057.076.034a16.726,16.726,0,0,0,13.9-.094,18.354,18.354,0,0,0,3.245-1.985l.755-.627C351.721,131.3,351.813,131.232,351.813,131.232Z" transform="translate(-300.343 -102.192)" fill="#263238"/>
                      </g>
                    </g>
                  </g>
                </g>
              </g>
              <g id="Group_52206" data-name="Group 52206">
                <g id="Group_52196" data-name="Group 52196" transform="translate(0.204 0.15)">
                  <g id="Group_52195" data-name="Group 52195">
                    <path id="Path_48709" data-name="Path 48709" d="M351.1,128.566a16.688,16.688,0,1,0-25.893-3.96l0,0-3.391,3.163.811,5.636-5.269-1.476L313.1,135.9l.811,5.636-5.269-1.476-3.651,3.407.494,3.434-3.211-.9-2.126,1.983-.318,5.219,7.785,1.959,25.262-23.568A16.692,16.692,0,0,0,351.1,128.566Zm-2.467-20.521a4.787,4.787,0,1,1-6.766-.235A4.787,4.787,0,0,1,348.63,108.045Z" transform="translate(-299.831 -99.676)" fill="#3f97f6"/>
                  </g>
                </g>
                <g id="Group_52205" data-name="Group 52205">
                  <g id="Group_52198" data-name="Group 52198" transform="translate(0.204 0.15)">
                    <g id="Group_52197" data-name="Group 52197">
                      <path id="Path_48710" data-name="Path 48710" d="M351.1,128.566a16.688,16.688,0,1,0-25.893-3.96l0,0-3.391,3.163.811,5.636-5.269-1.476L313.1,135.9l.811,5.636-5.269-1.476-3.651,3.407.494,3.434-3.211-.9-2.126,1.983-.318,5.219,7.785,1.959,25.262-23.568A16.692,16.692,0,0,0,351.1,128.566Zm-2.467-20.521a4.787,4.787,0,1,1-6.766-.235A4.787,4.787,0,0,1,348.63,108.045Z" transform="translate(-299.831 -99.676)" fill="none"/>
                    </g>
                  </g>
                  <g id="Group_52201" data-name="Group 52201" transform="translate(40.516 6.862)">
                    <g id="Group_52200" data-name="Group 52200">
                      <g id="Group_52199" data-name="Group 52199">
                        <path id="Path_48711" data-name="Path 48711" d="M366.477,111.016c-.031.031-.313-.292-.951-.685a4.78,4.78,0,0,0-3.013-.661,4.607,4.607,0,1,0,5.032,5.393,4.777,4.777,0,0,0-.451-3.051c-.348-.663-.65-.968-.617-1,.01-.01.089.061.229.207a3.7,3.7,0,0,1,.53.71,4.767,4.767,0,0,1,.6,3.179,4.936,4.936,0,0,1-5.786,4.069,4.947,4.947,0,0,1-4.025-4.315,4.935,4.935,0,0,1,4.459-5.49,4.762,4.762,0,0,1,3.13.819,3.686,3.686,0,0,1,.672.577C366.423,110.924,366.488,111.007,366.477,111.016Z" transform="translate(-357.99 -109.359)" fill="#263238"/>
                      </g>
                    </g>
                  </g>
                  <g id="Group_52204" data-name="Group 52204">
                    <g id="Group_52203" data-name="Group 52203">
                      <g id="Group_52202" data-name="Group 52202">
                        <path id="Path_48712" data-name="Path 48712" d="M351.006,128.5s-.077.082-.24.231l-.735.655a17.506,17.506,0,0,1-3.23,2.053,16.8,16.8,0,0,1-14.066.2l.138-.023-25.22,23.613-.074.07-.1-.025-7.787-1.952-.157-.04.01-.162c.1-1.627.206-3.412.315-5.22l0-.079.058-.055,2.124-1.984.082-.078.109.03,3.212.9-.256.225c-.155-1.072-.325-2.249-.5-3.434l-.015-.106.078-.073,3.651-3.408.085-.079.112.031,5.269,1.476-.262.229c-.257-1.787-.533-3.7-.812-5.636l-.015-.108.08-.074L314,134.627l3.122-2.913.086-.08.112.031,5.269,1.478-.261.229q-.409-2.847-.81-5.637l-.015-.106.079-.073,3.4-3.166-.038.25a17.038,17.038,0,0,1-2.17-7.6,16.194,16.194,0,0,1,.277-3.861,16.385,16.385,0,0,1,1.112-3.629,16.812,16.812,0,0,1,32.188,8.06,16.487,16.487,0,0,1-1.872,6.425l-.31.594-.343.53c-.227.338-.417.669-.634.947-.45.543-.8,1.03-1.136,1.37l-.771.77c-.175.171-.27.252-.27.252s.078-.1.245-.279l.742-.792c.33-.346.665-.838,1.1-1.383.211-.279.394-.612.614-.95l.333-.53q.146-.288.3-.593a16.707,16.707,0,0,0,.121-15,16.534,16.534,0,0,0-29.957.735,16.012,16.012,0,0,0-1.08,3.547,15.809,15.809,0,0,0-.264,3.772,16.635,16.635,0,0,0,2.125,7.414l.078.141-.116.109-3.394,3.169.063-.18q.4,2.787.812,5.636l.046.315-.307-.086-5.269-1.476.2-.049-3.122,2.913-1.126,1.051.064-.182c.277,1.932.553,3.85.81,5.637l.045.315-.307-.086-5.268-1.478.2-.048-3.653,3.405.063-.178c.17,1.185.339,2.362.493,3.435l.044.308-.3-.085-3.211-.9.191-.046-2.127,1.982.063-.134-.322,5.219-.147-.2,7.783,1.967-.173.044,25.3-23.522.061-.058.076.035a16.722,16.722,0,0,0,13.9-.095,18.357,18.357,0,0,0,3.245-1.985l.755-.627C350.914,128.564,351.006,128.5,351.006,128.5Z" transform="translate(-299.536 -99.459)" fill="#263238"/>
                      </g>
                    </g>
                  </g>
                </g>
              </g>
              <g id="Group_52209" data-name="Group 52209" transform="translate(25.033 2.113)">
                <g id="Group_52208" data-name="Group 52208">
                  <g id="Group_52207" data-name="Group 52207">
                    <path id="Path_48713" data-name="Path 48713" d="M360.558,128.133a22.821,22.821,0,0,0,2.241-2.827,14.042,14.042,0,0,0,1.716-3.842,14.535,14.535,0,0,0-7.392-16.974,13.642,13.642,0,0,0-3.945-1.332,13.261,13.261,0,0,0-4.34-.139A14.424,14.424,0,0,0,336.317,114.7a13.242,13.242,0,0,0-.163,4.34,13.611,13.611,0,0,0,1.056,4.029,14.576,14.576,0,0,0,16.422,8.549,14.054,14.054,0,0,0,3.951-1.446,22.893,22.893,0,0,0,2.975-2.039,1.038,1.038,0,0,1-.168.169l-.523.467a6.8,6.8,0,0,1-.895.7,10.4,10.4,0,0,1-1.311.84,13.881,13.881,0,0,1-3.98,1.531,14.811,14.811,0,0,1-11.95-2.488,14.89,14.89,0,0,1-4.875-6.138,13.994,13.994,0,0,1-1.1-4.135,13.619,13.619,0,0,1,.157-4.46,14.8,14.8,0,0,1,12.876-12.011,13.626,13.626,0,0,1,4.459.152,13.977,13.977,0,0,1,4.048,1.382,14.886,14.886,0,0,1,5.785,5.289,14.813,14.813,0,0,1,1.656,12.092,13.9,13.9,0,0,1-1.8,3.865,10.366,10.366,0,0,1-.929,1.25,6.86,6.86,0,0,1-.766.845l-.5.489A1.05,1.05,0,0,1,360.558,128.133Z" transform="translate(-335.652 -102.507)" fill="#263238"/>
                  </g>
                </g>
              </g>
              <g id="Group_52212" data-name="Group 52212" transform="translate(39.62 5.981)">
                <g id="Group_52211" data-name="Group 52211">
                  <g id="Group_52210" data-name="Group 52210">
                    <path id="Path_48714" data-name="Path 48714" d="M366.337,118c-.033-.032.349-.36.814-1.108a5.6,5.6,0,0,0,.789-3.542,5.455,5.455,0,0,0-2.969-4.277,5.366,5.366,0,0,0-3.1-.542,5.395,5.395,0,0,0-4.674,4.36,5.366,5.366,0,0,0,.326,3.127,5.453,5.453,0,0,0,4.062,3.258,5.6,5.6,0,0,0,3.588-.541c.778-.413,1.131-.771,1.16-.735.01.01-.075.1-.247.263a4.392,4.392,0,0,1-.835.614,5.588,5.588,0,0,1-3.717.691,5.68,5.68,0,0,1-2.456-1.015,5.779,5.779,0,0,1-1.909-2.384,5.72,5.72,0,0,1-.374-3.353,5.77,5.77,0,0,1,5.029-4.69,5.716,5.716,0,0,1,3.319.606,5.774,5.774,0,0,1,2.246,2.068,5.679,5.679,0,0,1,.841,2.522,5.584,5.584,0,0,1-.946,3.659,4.383,4.383,0,0,1-.67.791C366.443,117.936,366.347,118.014,366.337,118Z" transform="translate(-356.697 -108.088)" fill="#263238"/>
                  </g>
                </g>
              </g>
              <g id="Group_52215" data-name="Group 52215" transform="translate(5.949 30.738)">
                <g id="Group_52214" data-name="Group 52214">
                  <g id="Group_52213" data-name="Group 52213">
                    <path id="Path_48715" data-name="Path 48715" d="M308.12,167.778c-.079-.085,5.61-5.519,12.7-12.137s12.911-11.918,12.989-11.834-5.609,5.518-12.705,12.139S308.2,167.862,308.12,167.778Z" transform="translate(-308.119 -143.806)" fill="#263238"/>
                  </g>
                </g>
              </g>
            </g>
            <g id="Group_52217" data-name="Group 52217" transform="translate(14.91 21.118)">
              <path id="Path_48716" data-name="Path 48716" d="M312.054,130.442l.23-.515.31.472a2.365,2.365,0,0,0,1.012.862l.515.23-.472.31a2.362,2.362,0,0,0-.862,1.011l-.231.516-.31-.472a2.364,2.364,0,0,0-1.011-.862l-.516-.23.472-.31A2.365,2.365,0,0,0,312.054,130.442Z" transform="translate(-310.72 -129.927)" fill="#3f97f6"/>
            </g>
            <g id="Group_52218" data-name="Group 52218" transform="translate(0 17.479)">
              <path id="Path_48717" data-name="Path 48717" d="M289.983,124.975l.134-.3.18.274a1.369,1.369,0,0,0,.588.5l.3.134-.275.18a1.377,1.377,0,0,0-.5.587l-.134.3-.18-.274a1.37,1.37,0,0,0-.588-.5l-.3-.134.274-.18A1.376,1.376,0,0,0,289.983,124.975Z" transform="translate(-289.209 -124.676)" fill="#3f97f6"/>
            </g>
            <g id="Group_52219" data-name="Group 52219" transform="translate(48.71 43.842)">
              <path id="Path_48718" data-name="Path 48718" d="M360.258,163.011l.134-.3.18.274a1.369,1.369,0,0,0,.588.5l.3.134-.274.18a1.377,1.377,0,0,0-.5.587l-.134.3-.18-.274a1.376,1.376,0,0,0-.588-.5l-.3-.134.274-.18A1.377,1.377,0,0,0,360.258,163.011Z" transform="translate(-359.484 -162.712)" fill="#3f97f6"/>
            </g>
            <g id="Group_52220" data-name="Group 52220" transform="translate(71.999 30.109)">
              <path id="Path_48719" data-name="Path 48719" d="M394.418,143.413l.231-.515.309.472a2.368,2.368,0,0,0,1.012.862l.516.231-.472.309a2.365,2.365,0,0,0-.862,1.012l-.23.515-.31-.472a2.364,2.364,0,0,0-1.012-.862l-.515-.231.472-.309A2.368,2.368,0,0,0,394.418,143.413Z" transform="translate(-393.084 -142.898)" fill="#3f97f6"/>
            </g>
            <g id="Group_52221" data-name="Group 52221" transform="translate(67.985 10.822)">
              <path id="Path_48720" data-name="Path 48720" d="M389.535,115.938l.387-.866.52.793a3.97,3.97,0,0,0,1.7,1.448l.866.387-.793.52a3.966,3.966,0,0,0-1.448,1.7l-.387.866-.52-.793a3.977,3.977,0,0,0-1.7-1.449l-.866-.387.793-.521A3.975,3.975,0,0,0,389.535,115.938Z" transform="translate(-387.293 -115.072)" fill="#3f97f6"/>
            </g>
            <g id="Group_52222" data-name="Group 52222" transform="translate(9.196 4.982)">
              <path id="Path_48721" data-name="Path 48721" d="M304.717,107.513l.387-.866.52.794a3.98,3.98,0,0,0,1.7,1.448l.866.387-.793.52a3.973,3.973,0,0,0-1.449,1.7l-.387.866-.52-.794a3.98,3.98,0,0,0-1.7-1.448l-.866-.387.793-.52A3.967,3.967,0,0,0,304.717,107.513Z" transform="translate(-302.476 -106.647)" fill="#3f97f6"/>
            </g>
          </g>
          <g id="Group_52240" data-name="Group 52240" transform="translate(4.631 3.637)">
            <path id="Path_48746" data-name="Path 48746" d="M247.5,54.107a1.742,1.742,0,1,1-1.742-1.742A1.742,1.742,0,0,1,247.5,54.107Z" transform="translate(-244.017 -52.365)" fill="#929fb2"/>
          </g>
          <g id="Group_52241" data-name="Group 52241" transform="translate(9.636 3.637)">
            <path id="Path_48747" data-name="Path 48747" d="M254.721,54.107a1.742,1.742,0,1,1-1.742-1.742A1.742,1.742,0,0,1,254.721,54.107Z" transform="translate(-251.237 -52.365)" fill="#929fb2"/>
          </g>
          <g id="Group_52242" data-name="Group 52242" transform="translate(14.64 3.637)">
            <path id="Path_48748" data-name="Path 48748" d="M261.94,54.107a1.742,1.742,0,1,1-1.742-1.742A1.742,1.742,0,0,1,261.94,54.107Z" transform="translate(-258.456 -52.365)" fill="#929fb2"/>
          </g>
          <g id="Group_52403" data-name="Group 52403" transform="translate(25.075 187.418)">
            <rect id="Rectangle_13410" data-name="Rectangle 13410" width="34.776" transform="translate(11.322 0)" fill="#e4e5e8"/>
            <rect id="Rectangle_13405" data-name="Rectangle 13405" width="8.087" transform="translate(0 0)" fill="#e4e5e8"/>
          </g>
          <rect id="Rectangle_13407" data-name="Rectangle 13407" width="87.334" height="6.931" rx="3.466" transform="translate(27.894 118.345)" fill="#b9d8fb"/>
          <path id="Path_48782" data-name="Path 48782" d="M0,0H109.514V1.386H0Z" transform="translate(16.803 133.593)" fill="#c8cfd8"/>
          <rect id="Rectangle_13409" data-name="Rectangle 13409" width="83.869" height="1.386" transform="translate(29.973 138.445)" fill="#c8cfd8"/>
          <g id="Group_52226" data-name="Group 52226" transform="translate(16.358 177.713)">
            <path id="Path_48783" data-name="Path 48783" d="M9.97,0h94.9a10,10,0,0,1,9.97,10.033v.961a10,10,0,0,1-9.97,10.033H9.97A10,10,0,0,1,0,10.994v-.961A10,10,0,0,1,9.97,0Z" transform="translate(0)" fill="#2977ff"/>
          </g>
          <g id="Group_52408" data-name="Group 52408" transform="translate(16.358 151.967)">
            <g id="Group_52405" data-name="Group 52405" transform="translate(0 0)">
              <g id="Group_52421" data-name="Group 52421" transform="translate(0 0)">
                <rect id="Rectangle_13404" data-name="Rectangle 13404" width="114.842" height="21.027" rx="10.514" fill="none" stroke="#e4e5e8" stroke-width="1"/>
                <g id="Group_52419" data-name="Group 52419" transform="translate(10.514 6.874)" opacity="0.5">
                  <rect id="Rectangle_13413" data-name="Rectangle 13413" width="44.481" height="7.279" rx="2" transform="translate(9.705)" fill="#e4e5e8"/>
                  <rect id="Rectangle_13412" data-name="Rectangle 13412" width="8.087" height="7.279" rx="2" transform="translate(0)" fill="#e4e5e8"/>
                </g>
              </g>
            </g>
          </g>
        </g>
      </g>
      <g id="Plant" transform="translate(248.076 162.21)">
        <g id="Group_52401" data-name="Group 52401" transform="translate(0 0)">
          <g id="Group_52398" data-name="Group 52398">
            <g id="Group_52393" data-name="Group 52393">
              <g id="Group_52250" data-name="Group 52250" transform="translate(25.892)">
                <g id="Group_52249" data-name="Group 52249">
                  <g id="Group_52248" data-name="Group 52248">
                    <g id="Group_52247" data-name="Group 52247">
                      <g id="Group_52246" data-name="Group 52246">
                        <path id="Path_48750" data-name="Path 48750" d="M439.328,394.692a1.723,1.723,0,0,0-.118-.284l-.381-.812a20.41,20.41,0,0,1-1.119-3.25,28.692,28.692,0,0,1,.1-12.551,67.18,67.18,0,0,1,2.328-8.431c.985-2.992,2.129-6.167,3.064-9.6a37.134,37.134,0,0,0,1.513-11.036,43.212,43.212,0,0,0-2.569-11.679c-1.268-3.884-2.58-7.682-2.973-11.5a17.53,17.53,0,0,1,2.108-10.622c1.682-3.1,3.8-5.75,5.383-8.5a29.524,29.524,0,0,0,3.236-8.167,30.419,30.419,0,0,0,.2-12.654,23.567,23.567,0,0,0-1.32-4.469,1.7,1.7,0,0,0,.078.3c.067.211.155.495.268.857a32.534,32.534,0,0,1,.821,3.344,30.81,30.81,0,0,1-.329,12.559,29.422,29.422,0,0,1-3.246,8.064c-1.58,2.713-3.706,5.352-5.421,8.488a17.885,17.885,0,0,0-2.175,10.838c.4,3.884,1.718,7.707,2.983,11.586a43.029,43.029,0,0,1,2.558,11.569,36.964,36.964,0,0,1-1.477,10.924c-.92,3.415-2.05,6.59-3.023,9.591a66.441,66.441,0,0,0-2.29,8.48,28.361,28.361,0,0,0,.032,12.645,18.732,18.732,0,0,0,1.2,3.245l.418.8A1.652,1.652,0,0,0,439.328,394.692Z" transform="translate(-436.84 -281.143)" fill="#263238"/>
                      </g>
                    </g>
                  </g>
                </g>
              </g>
              <g id="Group_52260" data-name="Group 52260" transform="translate(30.216 11.578)">
                <g id="Group_52254" data-name="Group 52254">
                  <g id="Group_52253" data-name="Group 52253">
                    <g id="Group_52252" data-name="Group 52252">
                      <g id="Group_52251" data-name="Group 52251">
                        <path id="Path_48751" data-name="Path 48751" d="M446.424,314.267s3.217-10.285-2.553-16.307a.357.357,0,0,0-.611.177C442.952,299.836,442.567,305.009,446.424,314.267Z" transform="translate(-443.078 -297.847)" fill="#1ec769"/>
                      </g>
                    </g>
                  </g>
                </g>
                <g id="Group_52259" data-name="Group 52259" transform="translate(1.404 3.54)">
                  <g id="Group_52258" data-name="Group 52258">
                    <g id="Group_52257" data-name="Group 52257">
                      <g id="Group_52256" data-name="Group 52256">
                        <g id="Group_52255" data-name="Group 52255">
                          <path id="Path_48752" data-name="Path 48752" d="M445.119,302.955a9.432,9.432,0,0,0,.217,1.9c.211,1.307.46,2.842.733,4.537s.513,3.229.72,4.537a10.36,10.36,0,0,0,.341,1.877,7.994,7.994,0,0,0-.058-1.912c-.107-1.176-.314-2.792-.606-4.566s-.6-3.373-.851-4.524A8.53,8.53,0,0,0,445.119,302.955Z" transform="translate(-445.103 -302.955)" fill="#263238"/>
                        </g>
                      </g>
                    </g>
                  </g>
                </g>
              </g>
              <g id="Group_52270" data-name="Group 52270" transform="translate(19.426 39.017)">
                <g id="Group_52264" data-name="Group 52264">
                  <g id="Group_52263" data-name="Group 52263">
                    <g id="Group_52262" data-name="Group 52262">
                      <g id="Group_52261" data-name="Group 52261">
                        <path id="Path_48753" data-name="Path 48753" d="M437.869,350.674s-1.967-10.6-9.883-13.22a.357.357,0,0,0-.458.442C428.05,339.541,430.13,344.293,437.869,350.674Z" transform="translate(-427.511 -337.434)" fill="#1ec769"/>
                      </g>
                    </g>
                  </g>
                </g>
                <g id="Group_52269" data-name="Group 52269" transform="translate(2.628 2.753)">
                  <g id="Group_52268" data-name="Group 52268">
                    <g id="Group_52267" data-name="Group 52267">
                      <g id="Group_52266" data-name="Group 52266">
                        <g id="Group_52265" data-name="Group 52265">
                          <path id="Path_48754" data-name="Path 48754" d="M431.307,341.408a9.449,9.449,0,0,0,1.078,1.576l2.77,3.667,2.758,3.673a10.265,10.265,0,0,0,1.179,1.5,7.992,7.992,0,0,0-.945-1.663c-.643-.989-1.582-2.321-2.671-3.753s-2.107-2.7-2.868-3.6A8.594,8.594,0,0,0,431.307,341.408Z" transform="translate(-431.304 -341.407)" fill="#263238"/>
                        </g>
                      </g>
                    </g>
                  </g>
                </g>
              </g>
              <g id="Group_52280" data-name="Group 52280" transform="translate(25.739 63.248)">
                <g id="Group_52274" data-name="Group 52274">
                  <g id="Group_52273" data-name="Group 52273">
                    <g id="Group_52272" data-name="Group 52272">
                      <g id="Group_52271" data-name="Group 52271">
                        <path id="Path_48755" data-name="Path 48755" d="M442.8,387.982s1.195-10.71-5.618-15.521a.356.356,0,0,0-.566.29C436.642,374.477,437.251,379.629,442.8,387.982Z" transform="translate(-436.62 -372.393)" fill="#1ec769"/>
                      </g>
                    </g>
                  </g>
                </g>
                <g id="Group_52279" data-name="Group 52279" transform="translate(1.828 3.312)">
                  <g id="Group_52278" data-name="Group 52278">
                    <g id="Group_52277" data-name="Group 52277">
                      <g id="Group_52276" data-name="Group 52276">
                        <g id="Group_52275" data-name="Group 52275">
                          <path id="Path_48756" data-name="Path 48756" d="M439.264,377.172a9.487,9.487,0,0,0,.575,1.822c.457,1.243.993,2.7,1.586,4.313s1.119,3.073,1.573,4.315a10.253,10.253,0,0,0,.692,1.778,8.016,8.016,0,0,0-.421-1.865c-.329-1.133-.841-2.681-1.465-4.367s-1.232-3.2-1.7-4.278A8.551,8.551,0,0,0,439.264,377.172Z" transform="translate(-439.257 -377.171)" fill="#263238"/>
                        </g>
                      </g>
                    </g>
                  </g>
                </g>
              </g>
              <g id="Group_52290" data-name="Group 52290" transform="translate(19.235 90.203)">
                <g id="Group_52284" data-name="Group 52284">
                  <g id="Group_52283" data-name="Group 52283">
                    <g id="Group_52282" data-name="Group 52282">
                      <g id="Group_52281" data-name="Group 52281">
                        <path id="Path_48757" data-name="Path 48757" d="M433.961,426.65s.81-10.746-6.17-15.309a.357.357,0,0,0-.556.31C427.319,413.376,428.112,418.5,433.961,426.65Z" transform="translate(-427.235 -411.281)" fill="#1ec769"/>
                      </g>
                    </g>
                  </g>
                </g>
                <g id="Group_52289" data-name="Group 52289" transform="translate(1.933 3.256)">
                  <g id="Group_52288" data-name="Group 52288">
                    <g id="Group_52287" data-name="Group 52287">
                      <g id="Group_52286" data-name="Group 52286">
                        <g id="Group_52285" data-name="Group 52285">
                          <path id="Path_48758" data-name="Path 48758" d="M430.031,415.98a9.483,9.483,0,0,0,.64,1.8c.5,1.225,1.089,2.664,1.739,4.253l1.726,4.257a10.347,10.347,0,0,0,.756,1.752,7.954,7.954,0,0,0-.488-1.849c-.369-1.121-.936-2.649-1.621-4.312s-1.346-3.15-1.851-4.215A8.587,8.587,0,0,0,430.031,415.98Z" transform="translate(-430.025 -415.979)" fill="#263238"/>
                        </g>
                      </g>
                    </g>
                  </g>
                </g>
              </g>
              <g id="Group_52300" data-name="Group 52300" transform="translate(38.185 5.264)">
                <g id="Group_52294" data-name="Group 52294">
                  <g id="Group_52293" data-name="Group 52293">
                    <g id="Group_52292" data-name="Group 52292">
                      <g id="Group_52291" data-name="Group 52291">
                        <path id="Path_48759" data-name="Path 48759" d="M454.575,302.436s9.552-4.988,9.739-13.326a.356.356,0,0,0-.557-.308C462.338,289.783,458.4,293.165,454.575,302.436Z" transform="translate(-454.575 -288.738)" fill="#1ec769"/>
                      </g>
                    </g>
                  </g>
                </g>
                <g id="Group_52299" data-name="Group 52299" transform="translate(0.079 3.234)">
                  <g id="Group_52298" data-name="Group 52298">
                    <g id="Group_52297" data-name="Group 52297">
                      <g id="Group_52296" data-name="Group 52296">
                        <g id="Group_52295" data-name="Group 52295">
                          <path id="Path_48760" data-name="Path 48760" d="M462.366,293.405a9.44,9.44,0,0,0-1.19,1.494l-2.693,3.724-2.7,3.714a10.313,10.313,0,0,0-1.088,1.566,7.947,7.947,0,0,0,1.313-1.391c.756-.905,1.754-2.194,2.805-3.654s1.963-2.807,2.6-3.8A8.584,8.584,0,0,0,462.366,293.405Z" transform="translate(-454.689 -293.404)" fill="#263238"/>
                        </g>
                      </g>
                    </g>
                  </g>
                </g>
              </g>
              <g id="Group_52310" data-name="Group 52310" transform="translate(27.928 27.947)">
                <g id="Group_52304" data-name="Group 52304">
                  <g id="Group_52303" data-name="Group 52303">
                    <g id="Group_52302" data-name="Group 52302">
                      <g id="Group_52301" data-name="Group 52301">
                        <path id="Path_48761" data-name="Path 48761" d="M439.777,334.567s9.838-4.4,10.531-12.711a.357.357,0,0,0-.537-.341C448.294,322.408,444.162,325.546,439.777,334.567Z" transform="translate(-439.777 -321.463)" fill="#1ec769"/>
                      </g>
                    </g>
                  </g>
                </g>
                <g id="Group_52309" data-name="Group 52309" transform="translate(0.078 3.13)">
                  <g id="Group_52308" data-name="Group 52308">
                    <g id="Group_52307" data-name="Group 52307">
                      <g id="Group_52306" data-name="Group 52306">
                        <g id="Group_52305" data-name="Group 52305">
                          <path id="Path_48762" data-name="Path 48762" d="M448.189,325.98a9.414,9.414,0,0,0-1.279,1.419L444,330.952l-2.923,3.543a10.3,10.3,0,0,0-1.181,1.5,7.964,7.964,0,0,0,1.394-1.309c.81-.858,1.885-2.084,3.022-3.477s2.131-2.682,2.827-3.633A8.608,8.608,0,0,0,448.189,325.98Z" transform="translate(-439.889 -325.979)" fill="#263238"/>
                        </g>
                      </g>
                    </g>
                  </g>
                </g>
              </g>
              <g id="Group_52320" data-name="Group 52320" transform="translate(33.575 49.351)">
                <g id="Group_52314" data-name="Group 52314">
                  <g id="Group_52313" data-name="Group 52313">
                    <g id="Group_52312" data-name="Group 52312">
                      <g id="Group_52311" data-name="Group 52311">
                        <path id="Path_48763" data-name="Path 48763" d="M447.937,368.681s6.755-8.4,3.586-16.112a.357.357,0,0,0-.634-.059C449.983,353.978,447.732,358.653,447.937,368.681Z" transform="translate(-447.924 -352.343)" fill="#1ec769"/>
                      </g>
                    </g>
                  </g>
                </g>
                <g id="Group_52319" data-name="Group 52319" transform="translate(0.092 3.645)">
                  <g id="Group_52318" data-name="Group 52318">
                    <g id="Group_52317" data-name="Group 52317">
                      <g id="Group_52316" data-name="Group 52316">
                        <g id="Group_52315" data-name="Group 52315">
                          <path id="Path_48764" data-name="Path 48764" d="M450.895,357.6a9.344,9.344,0,0,0-.493,1.845c-.281,1.294-.611,2.813-.975,4.491s-.7,3.193-.989,4.485a10.407,10.407,0,0,0-.369,1.871,7.957,7.957,0,0,0,.645-1.8c.331-1.133.729-2.714,1.107-4.472s.675-3.358.862-4.521A8.658,8.658,0,0,0,450.895,357.6Z" transform="translate(-448.057 -357.602)" fill="#263238"/>
                        </g>
                      </g>
                    </g>
                  </g>
                </g>
              </g>
              <g id="Group_52330" data-name="Group 52330" transform="translate(26.897 81.41)">
                <g id="Group_52324" data-name="Group 52324">
                  <g id="Group_52323" data-name="Group 52323">
                    <g id="Group_52322" data-name="Group 52322">
                      <g id="Group_52321" data-name="Group 52321">
                        <path id="Path_48765" data-name="Path 48765" d="M438.29,411.868s9.763-4.564,10.316-12.885a.357.357,0,0,0-.543-.332C446.6,399.569,442.523,402.775,438.29,411.868Z" transform="translate(-438.29 -398.596)" fill="#1ec769"/>
                      </g>
                    </g>
                  </g>
                </g>
                <g id="Group_52329" data-name="Group 52329" transform="translate(0.078 3.16)">
                  <g id="Group_52328" data-name="Group 52328">
                    <g id="Group_52327" data-name="Group 52327">
                      <g id="Group_52326" data-name="Group 52326">
                        <g id="Group_52325" data-name="Group 52325">
                          <path id="Path_48766" data-name="Path 48766" d="M446.533,403.156a9.4,9.4,0,0,0-1.255,1.44l-2.854,3.6-2.863,3.591a10.347,10.347,0,0,0-1.156,1.518,7.943,7.943,0,0,0,1.372-1.332c.8-.871,1.849-2.115,2.963-3.527s2.085-2.718,2.765-3.68A8.566,8.566,0,0,0,446.533,403.156Z" transform="translate(-438.403 -403.155)" fill="#263238"/>
                        </g>
                      </g>
                    </g>
                  </g>
                </g>
              </g>
              <g id="Group_52392" data-name="Group 52392" transform="translate(0 49.863)">
                <g id="Group_52335" data-name="Group 52335" transform="translate(7.44 2.451)">
                  <g id="Group_52334" data-name="Group 52334">
                    <g id="Group_52333" data-name="Group 52333">
                      <g id="Group_52332" data-name="Group 52332">
                        <g id="Group_52331" data-name="Group 52331">
                          <path id="Path_48767" data-name="Path 48767" d="M410.232,356.618a.806.806,0,0,0-.013.237c0,.188.01.414.017.689.028.647.067,1.522.116,2.613.125,2.3.3,5.5.511,9.331v.009l0,.013a36.221,36.221,0,0,0,5.35,12.418c1.957,3.091,4.008,5.9,5.777,8.515a60.388,60.388,0,0,1,4.331,7.159,30.369,30.369,0,0,1,2.026,5.254c.172.644.3,1.146.375,1.49a2.718,2.718,0,0,0,.143.519,2.666,2.666,0,0,0-.063-.535c-.049-.349-.153-.859-.3-1.512a27.694,27.694,0,0,0-1.921-5.339,57.16,57.16,0,0,0-4.28-7.243c-1.757-2.633-3.8-5.447-5.743-8.523a36.711,36.711,0,0,1-5.352-12.269l0,.022c-.269-3.827-.494-7.027-.655-9.322-.088-1.089-.159-1.961-.211-2.608-.028-.273-.051-.5-.069-.685A.788.788,0,0,0,410.232,356.618Z" transform="translate(-410.219 -356.618)" fill="#263238"/>
                        </g>
                      </g>
                    </g>
                  </g>
                </g>
                <g id="Group_52349" data-name="Group 52349" transform="translate(11.707 10.35)">
                  <g id="Group_52339" data-name="Group 52339">
                    <g id="Group_52338" data-name="Group 52338">
                      <g id="Group_52337" data-name="Group 52337">
                        <g id="Group_52336" data-name="Group 52336">
                          <path id="Path_48768" data-name="Path 48768" d="M417.933,384.624S413.8,374.672,419,368.152a.357.357,0,0,1,.625.121C420.085,369.936,420.937,375.054,417.933,384.624Z" transform="translate(-416.375 -368.014)" fill="#1ec769"/>
                        </g>
                      </g>
                    </g>
                  </g>
                  <g id="Group_52344" data-name="Group 52344" transform="translate(1.356 3.607)">
                    <g id="Group_52343" data-name="Group 52343">
                      <g id="Group_52342" data-name="Group 52342">
                        <g id="Group_52341" data-name="Group 52341">
                          <g id="Group_52340" data-name="Group 52340">
                            <path id="Path_48769" data-name="Path 48769" d="M419.286,373.219a8.618,8.618,0,0,0-.327,1.883c-.146,1.169-.311,2.789-.439,4.582s-.189,3.423-.189,4.6a7.994,7.994,0,0,0,.116,1.91,10.338,10.338,0,0,0,.169-1.9c.089-1.32.192-2.87.306-4.583s.228-3.263.32-4.584A9.412,9.412,0,0,0,419.286,373.219Z" transform="translate(-418.331 -373.219)" fill="#263238"/>
                          </g>
                        </g>
                      </g>
                    </g>
                  </g>
                  <g id="Group_52348" data-name="Group 52348" opacity="0.3">
                    <g id="Group_52347" data-name="Group 52347">
                      <g id="Group_52346" data-name="Group 52346">
                        <g id="Group_52345" data-name="Group 52345">
                          <path id="Path_48770" data-name="Path 48770" d="M417.933,384.624S413.8,374.672,419,368.152a.357.357,0,0,1,.625.121C420.085,369.936,420.937,375.054,417.933,384.624Z" transform="translate(-416.375 -368.014)"/>
                        </g>
                      </g>
                    </g>
                  </g>
                </g>
                <g id="Group_52363" data-name="Group 52363" transform="translate(25.115 34.494)">
                  <g id="Group_52353" data-name="Group 52353">
                    <g id="Group_52352" data-name="Group 52352">
                      <g id="Group_52351" data-name="Group 52351">
                        <g id="Group_52350" data-name="Group 52350">
                          <path id="Path_48771" data-name="Path 48771" d="M436.675,419.295s-3.314-10.254,2.4-16.331a.357.357,0,0,1,.613.171C440.01,404.83,440.445,410,436.675,419.295Z" transform="translate(-435.719 -402.848)" fill="#1ec769"/>
                        </g>
                      </g>
                    </g>
                  </g>
                  <g id="Group_52358" data-name="Group 52358" transform="translate(0.836 3.549)">
                    <g id="Group_52357" data-name="Group 52357">
                      <g id="Group_52356" data-name="Group 52356">
                        <g id="Group_52355" data-name="Group 52355">
                          <g id="Group_52354" data-name="Group 52354">
                            <path id="Path_48772" data-name="Path 48772" d="M438.85,407.968a8.562,8.562,0,0,0-.48,1.85c-.241,1.153-.535,2.754-.808,4.531s-.466,3.4-.562,4.573a7.991,7.991,0,0,0-.039,1.912,10.3,10.3,0,0,0,.323-1.88c.195-1.309.424-2.845.677-4.543s.491-3.235.69-4.543A9.454,9.454,0,0,0,438.85,407.968Z" transform="translate(-436.925 -407.968)" fill="#263238"/>
                          </g>
                        </g>
                      </g>
                    </g>
                  </g>
                  <g id="Group_52362" data-name="Group 52362" opacity="0.3">
                    <g id="Group_52361" data-name="Group 52361">
                      <g id="Group_52360" data-name="Group 52360">
                        <g id="Group_52359" data-name="Group 52359">
                          <path id="Path_48773" data-name="Path 48773" d="M436.675,419.295s-3.314-10.254,2.4-16.331a.357.357,0,0,1,.613.171C440.01,404.83,440.445,410,436.675,419.295Z" transform="translate(-435.719 -402.848)"/>
                        </g>
                      </g>
                    </g>
                  </g>
                </g>
                <g id="Group_52377" data-name="Group 52377">
                  <g id="Group_52367" data-name="Group 52367">
                    <g id="Group_52366" data-name="Group 52366">
                      <g id="Group_52365" data-name="Group 52365">
                        <g id="Group_52364" data-name="Group 52364">
                          <path id="Path_48774" data-name="Path 48774" d="M407.485,367.879s-8.828-6.18-7.937-14.472a.357.357,0,0,1,.592-.234C401.421,354.33,404.885,358.192,407.485,367.879Z" transform="translate(-399.485 -353.082)" fill="#1ec769"/>
                        </g>
                      </g>
                    </g>
                  </g>
                  <g id="Group_52371" data-name="Group 52371" opacity="0.3">
                    <g id="Group_52370" data-name="Group 52370">
                      <g id="Group_52369" data-name="Group 52369">
                        <g id="Group_52368" data-name="Group 52368">
                          <path id="Path_48775" data-name="Path 48775" d="M407.485,367.879s-8.828-6.18-7.937-14.472a.357.357,0,0,1,.592-.234C401.421,354.33,404.885,358.192,407.485,367.879Z" transform="translate(-399.485 -353.082)"/>
                        </g>
                      </g>
                    </g>
                  </g>
                  <g id="Group_52376" data-name="Group 52376" transform="translate(1.654 3.421)">
                    <g id="Group_52375" data-name="Group 52375">
                      <g id="Group_52374" data-name="Group 52374">
                        <g id="Group_52373" data-name="Group 52373">
                          <g id="Group_52372" data-name="Group 52372">
                            <path id="Path_48776" data-name="Path 48776" d="M401.878,358.018a8.58,8.58,0,0,0,.733,1.765c.5,1.065,1.234,2.52,2.088,4.1s1.677,2.99,2.31,3.985a7.965,7.965,0,0,0,1.121,1.549,10.4,10.4,0,0,0-.877-1.695l-2.2-4.031-2.19-4.04A9.459,9.459,0,0,0,401.878,358.018Z" transform="translate(-401.872 -358.017)" fill="#263238"/>
                          </g>
                        </g>
                      </g>
                    </g>
                  </g>
                </g>
                <g id="Group_52391" data-name="Group 52391" transform="translate(8.989 30.793)">
                  <g id="Group_52381" data-name="Group 52381">
                    <g id="Group_52380" data-name="Group 52380">
                      <g id="Group_52379" data-name="Group 52379">
                        <g id="Group_52378" data-name="Group 52378">
                          <path id="Path_48777" data-name="Path 48777" d="M425.975,407.49s-10.647-1.66-13.5-9.5a.356.356,0,0,1,.428-.47C414.564,398,419.375,399.938,425.975,407.49Z" transform="translate(-412.453 -397.509)" fill="#1ec769"/>
                        </g>
                      </g>
                    </g>
                  </g>
                  <g id="Group_52385" data-name="Group 52385" opacity="0.3">
                    <g id="Group_52384" data-name="Group 52384">
                      <g id="Group_52383" data-name="Group 52383">
                        <g id="Group_52382" data-name="Group 52382">
                          <path id="Path_48778" data-name="Path 48778" d="M425.975,407.49s-10.647-1.66-13.5-9.5a.356.356,0,0,1,.428-.47C414.564,398,419.375,399.938,425.975,407.49Z" transform="translate(-412.453 -397.509)"/>
                        </g>
                      </g>
                    </g>
                  </g>
                  <g id="Group_52390" data-name="Group 52390" transform="translate(2.819 2.557)">
                    <g id="Group_52389" data-name="Group 52389">
                      <g id="Group_52388" data-name="Group 52388">
                        <g id="Group_52387" data-name="Group 52387">
                          <g id="Group_52386" data-name="Group 52386">
                            <path id="Path_48779" data-name="Path 48779" d="M416.521,401.2a8.565,8.565,0,0,0,1.435,1.262c.922.734,2.218,1.718,3.682,2.763s2.822,1.946,3.829,2.56a7.97,7.97,0,0,0,1.689.9,10.338,10.338,0,0,0-1.533-1.135l-3.751-2.651-3.745-2.663A9.5,9.5,0,0,0,416.521,401.2Z" transform="translate(-416.52 -401.198)" fill="#263238"/>
                          </g>
                        </g>
                      </g>
                    </g>
                  </g>
                </g>
              </g>
            </g>
            <g id="Group_52397" data-name="Group 52397" transform="translate(15.75 110.233)">
              <g id="Group_52396" data-name="Group 52396">
                <g id="Group_52395" data-name="Group 52395">
                  <g id="Group_52394" data-name="Group 52394">
                    <path id="Path_48780" data-name="Path 48780" d="M441.567,440.18l-3.054,20.033-12.2-.021-4.109-20.012Z" transform="translate(-422.208 -440.18)" fill="#455a64"/>
                  </g>
                </g>
              </g>
            </g>
          </g>
          <g id="Group_52400" data-name="Group 52400" transform="translate(17.537 113.052)">
            <g id="Group_52399" data-name="Group 52399">
              <path id="Path_48781" data-name="Path 48781" d="M431.227,447.859a3.4,3.4,0,0,0,.566-1.676,1.825,1.825,0,0,0-.828-1.723,1.976,1.976,0,0,0-2.043.168,2.984,2.984,0,0,0-1.169,1.84,7.846,7.846,0,0,0-.152,2.263,7.489,7.489,0,0,0,.495,2.314,5.112,5.112,0,0,0,1.414,2.017,3.948,3.948,0,0,0,2.347.98,4.3,4.3,0,0,0,2.441-.709,7.31,7.31,0,0,0,1.822-1.646,4,4,0,0,0,.923-2.2,2.549,2.549,0,0,0-.866-2.122,1.983,1.983,0,0,0-2.161-.132,2.312,2.312,0,0,0-1.247,1.633,3.135,3.135,0,0,0,1.542,3.171,4.311,4.311,0,0,0,2.944.426,6.706,6.706,0,0,0,2.1-.821,11.073,11.073,0,0,0,1.175-.8,2.455,2.455,0,0,0,.376-.32,3.02,3.02,0,0,0-.416.265c-.269.178-.663.446-1.2.736a6.8,6.8,0,0,1-2.067.751,4.137,4.137,0,0,1-2.791-.445,2.892,2.892,0,0,1-1.39-2.914,2.027,2.027,0,0,1,1.108-1.424,1.683,1.683,0,0,1,1.836.112,2.242,2.242,0,0,1,.738,1.863,3.688,3.688,0,0,1-.862,2.016,7.017,7.017,0,0,1-1.738,1.566,3.98,3.98,0,0,1-2.251.658,3.62,3.62,0,0,1-2.146-.9,4.777,4.777,0,0,1-1.326-1.886,7.2,7.2,0,0,1-.48-2.212,7.588,7.588,0,0,1,.132-2.169,2.694,2.694,0,0,1,1.032-1.668,1.7,1.7,0,0,1,1.743-.173,1.562,1.562,0,0,1,.708,1.471,3.171,3.171,0,0,1-.505,1.557,4.536,4.536,0,0,1-2.273,1.7,5,5,0,0,1-2.167.259,5.687,5.687,0,0,1-1.8-.535s.031.03.1.073a3.559,3.559,0,0,0,.322.184,4.444,4.444,0,0,0,1.363.407,5.012,5.012,0,0,0,2.242-.211,4.691,4.691,0,0,0,2.411-1.751" transform="translate(-424.786 -444.247)" fill="#263238"/>
            </g>
          </g>
        </g>
      </g>
    </g>
  </g>
</svg>
