<svg xmlns="http://www.w3.org/2000/svg" xmlns:xlink="http://www.w3.org/1999/xlink" width="81" height="81" viewBox="0 0 81 81">
  <defs>
    <filter id="Rectangle_950" x="0" y="0" width="81" height="81" filterUnits="userSpaceOnUse">
      <feOffset dx="6" dy="6" input="SourceAlpha"/>
      <feGaussianBlur stdDeviation="7.5" result="blur"/>
      <feFlood flood-color="#4b4e6d" flood-opacity="0.161"/>
      <feComposite operator="in" in2="blur"/>
      <feComposite in="SourceGraphic"/>
    </filter>
  </defs>
  <g id="sales-refund" transform="translate(-176.5 -1166.5)">
    <g transform="matrix(1, 0, 0, 1, 176.5, 1166.5)" filter="url(#Rectangle_950)">
      <rect id="Rectangle_950-2" data-name="Rectangle 950" width="36" height="36" rx="4" transform="translate(16.5 16.5)" fill="#2e8b57"/>
    </g>
    <path id="icons8_return" d="M5.663,2.966a.679.679,0,0,0-.368.178L1.266,6.879a.908.908,0,0,0,0,1.286L5.3,11.9a.691.691,0,0,0,1.159-.508V8.451h8.636a4.091,4.091,0,1,1,0,8.182h-.455a.909.909,0,1,0,0,1.818h.455a5.909,5.909,0,1,0,0-11.818H6.454V3.651A.692.692,0,0,0,5.663,2.966ZM3.727,16.632a.909.909,0,1,0,.909.909A.909.909,0,0,0,3.727,16.632Zm3.636,0a.909.909,0,1,0,.909.909A.909.909,0,0,0,7.364,16.632Zm3.636,0a.909.909,0,1,0,.909.909A.909.909,0,0,0,11,16.632Z" transform="translate(200 1190.041)" fill="#fff"/>
  </g>
</svg>
