<svg xmlns="http://www.w3.org/2000/svg" width="12" height="11.077" viewBox="0 0 12 11.077">
  <g id="icons8-sent" transform="translate(-2 -3)">
    <path id="Path_73631" data-name="Path 73631" d="M14.615,8.077a.462.462,0,1,0,.462.462A.462.462,0,0,0,14.615,8.077ZM4.462,3a.462.462,0,1,0,.462.462A.462.462,0,0,0,4.462,3Zm0,10.154a.462.462,0,1,0,.462.462A.462.462,0,0,0,4.462,13.154Z" transform="translate(-1.077)" fill="#0075f4"/>
    <path id="Path_73632" data-name="Path 73632" d="M13.719,8.156,3.564,3.079,2.923,3.5l.462,3.231L2,7.658l9.692.923L2,9.5l1.385.923-.462,3.231.641.425L13.719,9.006,14,8.581Z" transform="translate(0 -0.043)" fill="#0075f4"/>
  </g>
</svg>
