<svg xmlns="http://www.w3.org/2000/svg" width="36" height="36" viewBox="0 0 36 36">
  <g id="setting" transform="translate(-1140 -665)">
    <g id="Rectangle_16553" data-name="Rectangle 16553" transform="translate(1140 665)" fill="#fff" stroke="#707070" stroke-width="1" opacity="0">
      <rect width="36" height="36" rx="4" stroke="none"/>
      <rect x="0.5" y="0.5" width="35" height="35" rx="3.5" fill="none"/>
    </g>
    <path id="icons8_settings" d="M12.1,2a1.2,1.2,0,0,0-1.177.97l-.4,2.058a9.579,9.579,0,0,0-2.7,1.549L5.852,5.9a1.2,1.2,0,0,0-1.43.534L2.613,9.568a1.2,1.2,0,0,0,.251,1.507l1.582,1.376a8.9,8.9,0,0,0,0,3.1L2.864,16.925a1.2,1.2,0,0,0-.251,1.507l1.809,3.136a1.2,1.2,0,0,0,1.43.537l1.973-.68a9.583,9.583,0,0,0,2.7,1.547l.4,2.058A1.2,1.2,0,0,0,12.1,26h3.624a1.2,1.2,0,0,0,1.176-.97l.4-2.058a9.578,9.578,0,0,0,2.7-1.549l1.973.68a1.2,1.2,0,0,0,1.43-.534l1.809-3.138a1.2,1.2,0,0,0-.251-1.5l-1.582-1.376a8.894,8.894,0,0,0,0-3.1l1.582-1.376a1.2,1.2,0,0,0,.251-1.507L23.4,6.432a1.2,1.2,0,0,0-1.43-.537l-1.973.68a9.581,9.581,0,0,0-2.7-1.547L16.9,2.97A1.2,1.2,0,0,0,15.721,2ZM13.91,9.2A4.8,4.8,0,1,1,9.11,14,4.8,4.8,0,0,1,13.91,9.2Z" transform="translate(1144.55 669)" fill="#5d718d"/>
  </g>
</svg>
