<svg xmlns="http://www.w3.org/2000/svg" width="333.385" height="98.213" viewBox="0 0 333.385 98.213">
  <g id="smile" transform="translate(0 0)">
    <g id="XMLID_443_">
      <path id="XMLID_444_" d="M580.493,865.346c-1.007.668-2.075,1.362-3.175,2.111l-1.693,1.141-1.8,1.144c-2.477,1.524-5.056,3.288-7.911,5.023-1.436.855-2.9,1.757-4.406,2.683s-3.045,1.889-4.678,2.792-3.264,1.889-4.949,2.869l-1.269.742-1.308.709L546.644,886c-7.108,3.939-14.958,7.857-23.382,11.564a254.069,254.069,0,0,1-26.9,10.155,215.178,215.178,0,0,1-29.581,6.99,191.516,191.516,0,0,1-31.061,2.547l-3.917-.011c-1.305-.017-2.609-.092-3.913-.134-2.609-.061-5.21-.273-7.809-.439-1.3-.073-2.591-.248-3.886-.362-1.293-.136-2.591-.213-3.875-.4l-3.856-.494-.962-.123-.958-.152-1.915-.3a220.928,220.928,0,0,1-29.66-6.8c-4.738-1.475-9.4-2.984-13.893-4.678l-1.689-.616-1.664-.654-3.311-1.282-3.245-1.341c-1.081-.433-2.146-.886-3.2-1.345-8.457-3.63-16.3-7.532-23.442-11.387-3.575-1.922-6.961-3.855-10.166-5.738-1.614-.925-3.155-1.876-4.668-2.786L305.32,875.5c-2.83-1.758-5.414-3.5-7.838-5.088-2.4-1.612-4.593-3.125-6.567-4.508s-3.715-2.654-5.236-3.759-2.8-2.074-3.831-2.861c-2.072-1.574-3.158-2.453-3.158-2.453l.582.844c.39.553.967,1.378,1.761,2.42s1.779,2.326,2.986,3.8l1.958,2.358c.715.822,1.469,1.706,2.286,2.618,3.247,3.676,7.373,7.986,12.373,12.678a216.328,216.328,0,0,0,17.677,14.844c1.694,1.278,3.443,2.558,5.259,3.819,1.8,1.287,3.674,2.537,5.577,3.823.952.643,1.929,1.265,2.915,1.889s1.978,1.262,3,1.867l3.074,1.857c1.037.617,2.1,1.212,3.156,1.826,4.246,2.446,8.721,4.779,13.39,6.989l3.528,1.656,3.613,1.575c1.207.538,2.438,1.036,3.676,1.534s2.479,1.01,3.74,1.485a189.806,189.806,0,0,0,32.055,9.153c5.6,1.111,11.308,1.892,17.064,2.469,2.884.227,5.77.53,8.675.61,1.451.056,2.9.142,4.354.17l4.361.037a177.742,177.742,0,0,0,34.459-3.4,186.418,186.418,0,0,0,32.026-9.358A201.481,201.481,0,0,0,530.073,910.9l3.148-1.839c1.045-.6,2.039-1.271,3.048-1.9l2.984-1.886c.981-.63,1.975-1.224,2.906-1.9l5.543-3.86,1.351-.942,1.307-.977c.869-.645,1.721-1.294,2.562-1.938,3.4-2.533,6.522-5.114,9.478-7.575,1.491-1.213,2.883-2.47,4.241-3.681s2.678-2.381,3.938-3.536l.94-.855.9-.87,1.752-1.695q1.724-1.658,3.294-3.221L579,872.711l1.433-1.5c.937-.974,1.811-1.923,2.648-2.814,1.669-1.786,3.169-3.361,4.388-4.823,1.246-1.432,2.289-2.664,3.132-3.662s1.48-1.773,1.912-2.291l.652-.788-3.339,2.222C587.652,860.494,584.556,862.712,580.493,865.346Z" transform="translate(-269.236 -838.932)" fill="#5d718d"/>
      <path id="XMLID_445_" d="M251.262,778.43a12.18,12.18,0,0,1,6.607,1.938,12.241,12.241,0,1,0-16.912,16.911,12.24,12.24,0,0,1,10.305-18.849Z" transform="translate(-235.321 -774.732)" fill="#5d718d"/>
      <path id="XMLID_446_" d="M1671.548,774.732a12.23,12.23,0,0,0-10.305,5.636,12.24,12.24,0,0,1,16.912,16.911,12.241,12.241,0,0,0-6.607-22.548Z" transform="translate(-1350.406 -774.732)" fill="#5d718d"/>
    </g>
  </g>
</svg>
