<svg xmlns="http://www.w3.org/2000/svg" width="24" height="24" viewBox="0 0 24 24">
  <g id="up" transform="translate(2441)">
    <rect id="Rectangle_16424" data-name="Rectangle 16424" width="24" height="24" rx="2" transform="translate(-2441)" fill="#fff" opacity="0"/>
    <path id="icons8_up" d="M9.113,3.342a.565.565,0,0,0-.4.167l-3.2,3.2a.566.566,0,0,0,0,.8l.049.049a.566.566,0,0,0,.8,0L8.547,5.374v7.4a.566.566,0,0,0,1.133,0v-7.4l2.188,2.188a.566.566,0,0,0,.8,0l.049-.049a.566.566,0,0,0,0-.8l-3.2-3.2A.565.565,0,0,0,9.113,3.342Z" transform="translate(-2438.344 3.658)" fill="#5d718d"/>
  </g>
</svg>
