<svg id="star_outline_black_24dp" xmlns="http://www.w3.org/2000/svg" width="36" height="36" viewBox="0 0 36 36">
  <path id="Path_46293" data-name="Path 46293" d="M0,0H36V36H0Z" fill="none"/>
  <path id="icons8_star" d="M14.057,21.37l6,3.62a1.249,1.249,0,0,0,1.862-1.353l-1.592-6.823,5.3-4.591a1.249,1.249,0,0,0-.712-2.188l-6.976-.591L15.207,3a1.25,1.25,0,0,0-2.3,0L10.178,9.443,3.2,10.035a1.249,1.249,0,0,0-.712,2.188l5.3,4.591L6.2,23.637A1.249,1.249,0,0,0,8.06,24.99Z" transform="translate(3.943 4.757)" fill="none" stroke="#ff8000" stroke-width="2"/>
</svg>
