<svg xmlns="http://www.w3.org/2000/svg" width="24" height="24" viewBox="0 0 24 24">
  <g id="storage" transform="translate(4382)">
    <rect id="Rectangle_16412" data-name="Rectangle 16412" width="24" height="24" rx="4" transform="translate(-4382)" fill="#5d718d" opacity="0"/>
    <path id="icons8_cloud_done" d="M8,4A4.588,4.588,0,0,0,4.286,6.009a4.329,4.329,0,0,0,.047,8.658h8A3.66,3.66,0,0,0,12.4,7.348,4.621,4.621,0,0,0,8,4ZM8,5.333a3.323,3.323,0,0,1,3.281,2.777l.094.556h.958a2.333,2.333,0,1,1,0,4.667h-8a3,3,0,1,1,0-6c.023,0,.078,0,.167.009l.408.021.2-.354A3.324,3.324,0,0,1,8,5.333Zm1.529,2.2L6.667,10.391,5.138,8.862,4.2,9.8l2.471,2.471,3.8-3.8Z" transform="translate(-4378 2.999)" fill="#5d718d"/>
  </g>
</svg>
