<svg xmlns="http://www.w3.org/2000/svg" width="400" height="298.305" viewBox="0 0 400 298.305">
  <g id="succes-password" transform="translate(0 -180)">
    <g id="Group_59891" data-name="Group 59891" transform="translate(0 180)">
      <rect id="Rectangle_15911" data-name="Rectangle 15911" width="26.498" height="0.2" transform="translate(333.423 275.438)" fill="#ebebeb"/>
      <rect id="Rectangle_15912" data-name="Rectangle 15912" width="6.955" height="0.2" transform="translate(258.022 277.613)" fill="#ebebeb"/>
      <rect id="Rectangle_15913" data-name="Rectangle 15913" width="15.354" height="0.2" transform="translate(317.269 267.992)" fill="#ebebeb"/>
      <rect id="Rectangle_15914" data-name="Rectangle 15914" width="34.555" height="0.2" transform="translate(41.967 269.34)" fill="#ebebeb"/>
      <rect id="Rectangle_15915" data-name="Rectangle 15915" width="5.066" height="0.2" transform="translate(83.645 269.34)" fill="#ebebeb"/>
      <rect id="Rectangle_15916" data-name="Rectangle 15916" width="74.941" height="0.2" transform="translate(105.177 272.725)" fill="#ebebeb"/>
      <g id="Group_59721" data-name="Group 59721" transform="translate(31.675 0)">
        <path id="Path_78300" data-name="Path 78300" d="M198.64,281.728H44.16a4.577,4.577,0,0,1-4.566-4.576V59.529a4.576,4.576,0,0,1,4.566-4.576H198.64a4.576,4.576,0,0,1,4.566,4.576V277.152A4.577,4.577,0,0,1,198.64,281.728ZM44.16,55.153a4.376,4.376,0,0,0-4.366,4.375V277.152a4.376,4.376,0,0,0,4.366,4.376H198.64a4.375,4.375,0,0,0,4.366-4.376V59.529a4.375,4.375,0,0,0-4.366-4.375Z" transform="translate(-39.594 -54.953)" fill="#ebebeb"/>
        <path id="Path_78301" data-name="Path 78301" d="M414.937,281.728H260.458a4.577,4.577,0,0,1-4.566-4.576V59.529a4.576,4.576,0,0,1,4.566-4.576H414.937a4.576,4.576,0,0,1,4.566,4.576V277.152A4.577,4.577,0,0,1,414.937,281.728ZM260.458,55.153a4.375,4.375,0,0,0-4.366,4.375V277.152a4.375,4.375,0,0,0,4.366,4.376H414.937a4.376,4.376,0,0,0,4.366-4.376V59.529a4.376,4.376,0,0,0-4.366-4.375Z" transform="translate(-82.854 -54.953)" fill="#ebebeb"/>
      </g>
      <rect id="Rectangle_15917" data-name="Rectangle 15917" width="400" height="0.2" transform="translate(0 262.533)" fill="#ebebeb"/>
      <g id="Group_59823" data-name="Group 59823" transform="translate(40.02 10.005)">
        <g id="Group_59749" data-name="Group 59749" transform="translate(47.988 0)">
          <g id="Group_59726" data-name="Group 59726" transform="translate(173.526 105.443)">
            <g id="Group_59725" data-name="Group 59725" transform="translate(0)">
              <g id="Group_59722" data-name="Group 59722" transform="translate(0 32.936)">
                <rect id="Rectangle_15918" data-name="Rectangle 15918" width="76.142" height="101.539" transform="translate(90.667 101.539) rotate(180)" fill="#f5f5f5"/>
                <rect id="Rectangle_15919" data-name="Rectangle 15919" width="14.525" height="101.539" transform="translate(14.525 101.539) rotate(180)" fill="#e6e6e6"/>
                <rect id="Rectangle_15920" data-name="Rectangle 15920" width="65.867" height="24.658" transform="translate(85.333 32.193) rotate(180)" fill="#fafafa"/>
                <path id="Path_78302" data-name="Path 78302" d="M403.859,259.345l-.288,3.286a2.1,2.1,0,0,1-2.087,1.916H389.055a2.1,2.1,0,0,1-2.087-1.916l-.287-3.286Z" transform="translate(-342.87 -251.811)" fill="#ebebeb"/>
                <rect id="Rectangle_15921" data-name="Rectangle 15921" width="65.867" height="24.658" transform="translate(85.333 59.544) rotate(180)" fill="#fafafa"/>
                <path id="Path_78303" data-name="Path 78303" d="M403.859,293.459l-.288,3.287a2.1,2.1,0,0,1-2.087,1.916H389.055a2.1,2.1,0,0,1-2.087-1.916l-.287-3.287Z" transform="translate(-342.87 -258.573)" fill="#ebebeb"/>
                <rect id="Rectangle_15922" data-name="Rectangle 15922" width="65.867" height="24.658" transform="translate(85.333 86.896) rotate(180)" fill="#fafafa"/>
                <path id="Path_78304" data-name="Path 78304" d="M403.859,327.574l-.288,3.287a2.1,2.1,0,0,1-2.087,1.916H389.055a2.1,2.1,0,0,1-2.087-1.916l-.287-3.287Z" transform="translate(-342.87 -265.336)" fill="#ebebeb"/>
                <path id="Path_78305" data-name="Path 78305" d="M356.25,381.66h65.067l.8-5.078H356.25Z" transform="translate(-336.783 -275.052)" fill="#e6e6e6"/>
                <path id="Path_78306" data-name="Path 78306" d="M339.05,381.66h13.6v-5.078h-14.4Z" transform="translate(-333.183 -275.052)" fill="#e0e0e0"/>
              </g>
              <g id="Group_59723" data-name="Group 59723" transform="translate(45.926)">
                <path id="Path_78307" data-name="Path 78307" d="M393.76,241.913h26l-2.885-33.045h-26Z" transform="translate(-389.634 -208.868)" fill="#fafafa"/>
                <path id="Path_78308" data-name="Path 78308" d="M393.45,241.913h-1.241l-2.885-33.045h1.241Z" transform="translate(-389.324 -208.868)" fill="#ebebeb"/>
                <path id="Path_78309" data-name="Path 78309" d="M396.853,239.377h20.7l-2.3-26.307h-20.7Z" transform="translate(-390.371 -209.701)" fill="#f0f0f0"/>
                <path id="Path_78310" data-name="Path 78310" d="M398.841,237.747h17.29l-1.918-21.976h-17.29Z" transform="translate(-390.844 -210.237)" fill="#e6e6e6"/>
              </g>
              <g id="Group_59724" data-name="Group 59724" transform="translate(16.864 12.592)">
                <path id="Path_78311" data-name="Path 78311" d="M378.879,245.027l1.786-20.454H354.782L353,245.027Z" transform="translate(-352.997 -224.573)" fill="#f0f0f0"/>
                <path id="Path_78312" data-name="Path 78312" d="M385.35,245.027l1.785-20.454h1.394l-1.786,20.454Z" transform="translate(-359.467 -224.573)" fill="#e0e0e0"/>
                <path id="Path_78313" data-name="Path 78313" d="M377.128,243.457l1.422-16.283h-20.6l-1.421,16.283Z" transform="translate(-353.702 -225.089)" fill="#ebebeb"/>
                <path id="Path_78314" data-name="Path 78314" d="M376,242.448l1.187-13.6H359.977l-1.187,13.6Z" transform="translate(-354.155 -225.42)" fill="#f5f5f5"/>
              </g>
            </g>
          </g>
          <g id="Group_59727" data-name="Group 59727" transform="translate(134.107 171.749)">
            <path id="Path_78315" data-name="Path 78315" d="M305.044,359.209c0,5.42-.849,8.925-2.278,11.175a5.9,5.9,0,0,1-5.007,2.643h-7.83a5.9,5.9,0,0,1-5.006-2.643c-1.43-2.25-2.278-5.755-2.278-11.175,0-7.861,3.42-14.155,4.538-19.181.4-1.81-.938-7.355-.938-7.355h15.2s-1.339,5.546-.937,7.355C301.624,345.054,305.044,351.347,305.044,359.209Z" transform="translate(-282.644 -299.716)" fill="#ebebeb"/>
            <path id="Path_78316" data-name="Path 78316" d="M333.378,319.244c0-6.825-10.677-3.993-13.368-14.582-1.019-4.012,7.664-13.094,7.664-13.094H300.6s8.684,9.082,7.664,13.094c-2.69,10.589-13.368,7.756-13.368,14.582,0,7.517,15.062,23.173,15.788,40.8.065,1.575-2.833,4.839-2.833,4.839h12.574s-2.9-3.265-2.833-4.839C318.317,342.417,333.378,326.761,333.378,319.244Z" transform="translate(-285.094 -291.568)" fill="#f5f5f5"/>
            <path id="Path_78317" data-name="Path 78317" d="M331.861,344.6c1.574-3.317-1.68-14.6-1.68-14.6h11.733s-3.254,11.279-1.68,14.6c1.11,2.342,3.638,3.837,3.638,6.608v16.654c0,4.313-3.522,4.635-7.825,4.635s-7.825-.322-7.825-4.635V351.209C328.223,348.438,330.75,346.943,331.861,344.6Z" transform="translate(-291.76 -299.188)" fill="#f0f0f0"/>
          </g>
          <g id="Group_59736" data-name="Group 59736" transform="translate(31.006 59.347)">
            <g id="Group_59728" data-name="Group 59728" transform="translate(0 41.015)">
              <path id="Path_78318" data-name="Path 78318" d="M162.875,220.969c-6.741-2.926-10.587-9.1-8.572-13.763s9.138-6.077,15.88-3.151,10.588,9.1,8.573,13.763S169.617,223.895,162.875,220.969Zm5.366-12.42c-3.159-1.371-6.5-.708-7.442,1.477s.858,5.078,4.017,6.449,6.5.709,7.442-1.476S171.4,209.92,168.241,208.549Z" transform="translate(-153.767 -202.531)" fill="#e6e6e6"/>
            </g>
            <g id="Group_59735" data-name="Group 59735" transform="translate(13.836)">
              <g id="Group_59729" data-name="Group 59729">
                <path id="Path_78319" data-name="Path 78319" d="M174.265,198.667l-3.2-1.39,19.357-44.846a1.745,1.745,0,0,1,2.3-.911h0a1.751,1.751,0,0,1,.908,2.3Z" transform="translate(-171.062 -151.375)" fill="#e6e6e6"/>
              </g>
              <g id="Group_59734" data-name="Group 59734" transform="translate(1.646 0.878)">
                <g id="Group_59730" data-name="Group 59730" transform="translate(16.252)">
                  <path id="Path_78320" data-name="Path 78320" d="M199.581,158.371l-6.147-2.691,1.387-3.21,6.147,2.691Z" transform="translate(-193.434 -152.47)" fill="#e6e6e6"/>
                </g>
                <g id="Group_59731" data-name="Group 59731" transform="translate(14.967 4.365)">
                  <path id="Path_78321" data-name="Path 78321" d="M196.229,163.04l-4.4-1.916,1.387-3.21,4.4,1.916Z" transform="translate(-191.828 -157.914)" fill="#e6e6e6"/>
                </g>
                <g id="Group_59732" data-name="Group 59732" transform="translate(13.177 10.5)">
                  <path id="Path_78480" data-name="Path 78480" d="M0,0,3.5,0l0,5.38-3.5,0Z" transform="translate(0 3.213) rotate(-66.587)" fill="#e6e6e6"/>
                </g>
                <g id="Group_59733" data-name="Group 59733" transform="translate(0 37.509)">
                  <path id="Path_78322" data-name="Path 78322" d="M175.922,203.371l-1.76-.764a1.735,1.735,0,0,1-.9-2.28l.012-.027a1.729,1.729,0,0,1,2.275-.9l1.759.764a1.735,1.735,0,0,1,.9,2.28l-.012.027A1.73,1.73,0,0,1,175.922,203.371Z" transform="translate(-173.119 -199.254)" fill="#e6e6e6"/>
                </g>
              </g>
            </g>
          </g>
          <g id="Group_59742" data-name="Group 59742" transform="translate(194.181 61.166)">
            <g id="Group_59737" data-name="Group 59737" transform="translate(14.304)">
              <path id="Path_78323" data-name="Path 78323" d="M338.233,184.1a8.272,8.272,0,1,1-11.281,2.411A8.2,8.2,0,0,1,338.233,184.1Zm-6.723,10.113a3.876,3.876,0,1,0-1-5.324A3.821,3.821,0,0,0,331.51,194.211Z" transform="translate(-325.54 -182.773)" fill="#e6e6e6"/>
            </g>
            <g id="Group_59741" data-name="Group 59741" transform="translate(0 10.453)">
              <g id="Group_59738" data-name="Group 59738" transform="translate(2.753)">
                <path id="Path_78324" data-name="Path 78324" d="M321.3,201.614l2.291,1.53L307.2,228.287a1.375,1.375,0,0,1-1.909.383h0a1.381,1.381,0,0,1-.382-1.912Z" transform="translate(-304.675 -201.614)" fill="#e6e6e6"/>
              </g>
              <g id="Group_59740" data-name="Group 59740" transform="translate(0 19.404)">
                <g id="Group_59739" data-name="Group 59739">
                  <path id="Path_78325" data-name="Path 78325" d="M302.788,236.847l4.822,3.246-2.406,3.621-4.831-3.252a1.522,1.522,0,0,1-.417-2.1l.725-1.09A1.515,1.515,0,0,1,302.788,236.847Z" transform="translate(-299.701 -236.589)" fill="#e6e6e6"/>
                </g>
              </g>
            </g>
          </g>
          <g id="Group_59893" data-name="Group 59893" transform="translate(0 0)">
            <g id="Group_59747" data-name="Group 59747">
              <g id="Group_59746" data-name="Group 59746">
                <g id="Group_59743" data-name="Group 59743" transform="translate(8.095)">
                  <path id="Path_78326" data-name="Path 78326" d="M221.965,95.09l-3.678,9.547a1.667,1.667,0,1,1-3.109-1.2l3.678-9.547a6.006,6.006,0,0,0-3.425-7.752l-3.408-1.318a5.984,5.984,0,0,0-7.734,3.435l-1.5,3.9-3.109-1.2,1.5-3.9A9.32,9.32,0,0,1,213.224,81.7l3.408,1.319A9.354,9.354,0,0,1,221.965,95.09Z" transform="translate(-199.679 -81.074)" fill="#f0f0f0"/>
                </g>
                <g id="Group_59745" data-name="Group 59745" transform="translate(0 7.455)">
                  <g id="Group_59744" data-name="Group 59744">
                    <path id="Path_78327" data-name="Path 78327" d="M219.36,98.438a2.269,2.269,0,0,0-.976-.73l-18.561-7.181a2.239,2.239,0,0,0-1.253-.111,2.283,2.283,0,0,0-1.69,1.418l-7.166,18.6a2.28,2.28,0,0,0,1.3,2.95l18.561,7.181a2.272,2.272,0,0,0,2.943-1.306l7.166-18.6A2.274,2.274,0,0,0,219.36,98.438Zm-14.093,14.374-5.886-2.277,3.113-5.445a3.265,3.265,0,1,1,4.115,1.592Z" transform="translate(-189.561 -90.372)" fill="#e6e6e6"/>
                  </g>
                </g>
              </g>
            </g>
          </g>
        </g>
        <g id="Group_59750" data-name="Group 59750" transform="translate(0 156.327)">
          <rect id="Rectangle_15924" data-name="Rectangle 15924" width="148.103" height="79.881" transform="translate(159.409 85.824) rotate(180)" fill="#e6e6e6"/>
          <rect id="Rectangle_15925" data-name="Rectangle 15925" width="9.308" height="7.048" transform="translate(156.844 96.189) rotate(180)" fill="#e6e6e6"/>
          <rect id="Rectangle_15926" data-name="Rectangle 15926" width="9.308" height="96.188" transform="translate(9.308 96.189) rotate(180)" fill="#e6e6e6"/>
          <path id="Path_78328" data-name="Path 78328" d="M66.521,262.412V358.6h4.965v-5.39H214.168v5.39h4.964V262.412H66.521Zm4.965,8.707h68.859v33.409H71.486ZM214.168,344.5H145.309V271.119h68.859Zm-142.682,0v-35h68.859v35Z" transform="translate(-57.324 -262.412)" fill="#f0f0f0"/>
          <rect id="Rectangle_15927" data-name="Rectangle 15927" width="64.205" height="69.792" transform="translate(152.19 82.092) rotate(180)" fill="#f5f5f5"/>
          <path id="Path_78329" data-name="Path 78329" d="M168.64,317.931a2.983,2.983,0,1,0,2.983-2.99A2.986,2.986,0,0,0,168.64,317.931Z" transform="translate(-77.748 -272.825)" fill="#fafafa"/>
          <path id="Path_78330" data-name="Path 78330" d="M171.623,321.966a2.976,2.976,0,0,0,2.7-1.745,2.983,2.983,0,1,1-5.41,0A2.976,2.976,0,0,0,171.623,321.966Z" transform="translate(-77.748 -273.872)" fill="#e0e0e0"/>
          <path id="Path_78331" data-name="Path 78331" d="M208.478,347.545H193.16l-7.319-69.792h15.317Z" transform="translate(-81.188 -265.453)" fill="#fafafa"/>
          <path id="Path_78332" data-name="Path 78332" d="M187.494,347.545h-3.049l-7.319-69.792h3.049Z" transform="translate(-79.445 -265.453)" fill="#fafafa"/>
          <rect id="Rectangle_15928" data-name="Rectangle 15928" width="6.068" height="29.852" transform="translate(73.569 42.083) rotate(180)" fill="#fafafa"/>
          <rect id="Rectangle_15929" data-name="Rectangle 15929" width="6.068" height="29.852" transform="translate(48.412 42.083) rotate(180)" fill="#f5f5f5"/>
          <rect id="Rectangle_15930" data-name="Rectangle 15930" width="6.068" height="27.754" transform="translate(67.502 42.083) rotate(180)" fill="#f5f5f5"/>
          <rect id="Rectangle_15931" data-name="Rectangle 15931" width="6.068" height="27.754" transform="translate(54.48 42.083) rotate(180)" fill="#fafafa"/>
          <rect id="Rectangle_15932" data-name="Rectangle 15932" width="3.921" height="29.852" transform="translate(58.401 42.083) rotate(180)" fill="#ebebeb"/>
          <rect id="Rectangle_15933" data-name="Rectangle 15933" width="3.034" height="27.754" transform="translate(61.434 42.083) rotate(180)" fill="#fafafa"/>
          <rect id="Rectangle_15934" data-name="Rectangle 15934" width="6.068" height="29.852" transform="translate(42.345 42.083) rotate(180)" fill="#ebebeb"/>
          <rect id="Rectangle_15935" data-name="Rectangle 15935" width="6.068" height="27.754" transform="translate(36.277 42.083) rotate(180)" fill="#e6e6e6"/>
          <rect id="Rectangle_15936" data-name="Rectangle 15936" width="6.068" height="27.754" transform="translate(23.255 42.083) rotate(180)" fill="#e6e6e6"/>
          <rect id="Rectangle_15937" data-name="Rectangle 15937" width="3.921" height="29.852" transform="translate(27.176 42.083) rotate(180)" fill="#fafafa"/>
          <rect id="Rectangle_15938" data-name="Rectangle 15938" width="3.034" height="27.754" transform="translate(30.21 42.083) rotate(180)" fill="#ebebeb"/>
          <rect id="Rectangle_15939" data-name="Rectangle 15939" width="3.034" height="29.144" transform="translate(17.187 42.083) rotate(180)" fill="#ebebeb"/>
          <rect id="Rectangle_15940" data-name="Rectangle 15940" width="6.068" height="29.852" transform="translate(14.154 52.241)" fill="#ebebeb"/>
          <rect id="Rectangle_15941" data-name="Rectangle 15941" width="6.068" height="29.852" transform="translate(39.311 52.241)" fill="#fafafa"/>
          <rect id="Rectangle_15942" data-name="Rectangle 15942" width="6.068" height="27.754" transform="translate(20.221 54.338)" fill="#fafafa"/>
          <rect id="Rectangle_15943" data-name="Rectangle 15943" width="6.068" height="27.754" transform="translate(33.243 54.338)" fill="#ebebeb"/>
          <rect id="Rectangle_15944" data-name="Rectangle 15944" width="3.921" height="29.852" transform="translate(29.322 52.241)" fill="#fafafa"/>
          <rect id="Rectangle_15945" data-name="Rectangle 15945" width="3.034" height="27.754" transform="translate(26.289 54.338)" fill="#f5f5f5"/>
          <rect id="Rectangle_15946" data-name="Rectangle 15946" width="6.068" height="29.852" transform="translate(45.378 52.241)" fill="#ebebeb"/>
          <rect id="Rectangle_15947" data-name="Rectangle 15947" width="6.068" height="27.754" transform="translate(51.446 54.338)" fill="#f5f5f5"/>
          <rect id="Rectangle_15948" data-name="Rectangle 15948" width="6.068" height="27.754" transform="translate(64.468 54.338)" fill="#e6e6e6"/>
          <rect id="Rectangle_15949" data-name="Rectangle 15949" width="3.921" height="29.852" transform="translate(60.547 52.241)" fill="#fafafa"/>
          <rect id="Rectangle_15950" data-name="Rectangle 15950" width="3.921" height="29.852" transform="translate(73.569 52.241)" fill="#fafafa"/>
          <rect id="Rectangle_15951" data-name="Rectangle 15951" width="3.034" height="27.754" transform="translate(57.513 54.338)" fill="#ebebeb"/>
          <rect id="Rectangle_15952" data-name="Rectangle 15952" width="3.034" height="29.144" transform="translate(70.536 52.948)" fill="#ebebeb"/>
        </g>
        <g id="Group_59822" data-name="Group 59822" transform="translate(11.112 103.31)">
          <g id="Group_59820" data-name="Group 59820">
            <g id="Group_59773" data-name="Group 59773" transform="translate(4.622)">
              <g id="Group_59764" data-name="Group 59764" transform="translate(3.614)">
                <g id="Group_59752" data-name="Group 59752" transform="translate(0 1.605)">
                  <g id="Group_59751" data-name="Group 59751">
                    <path id="Path_78333" data-name="Path 78333" d="M80.786,198.288a3.439,3.439,0,0,0-1.484,1.419c-.466.949.978,2.7.978,2.7a2.676,2.676,0,0,0,2.417.3l1.2-.549s-2.06-3.582-3.06-3.618Z" transform="translate(-79.209 -198.288)" fill="#e6e6e6"/>
                  </g>
                </g>
                <g id="Group_59758" data-name="Group 59758" transform="translate(1.24)">
                  <g id="Group_59753" data-name="Group 59753">
                    <path id="Path_78334" data-name="Path 78334" d="M86.254,197.863c.146,1.7-.9,3.843-2.418,3.974s-2.917-1.8-3.064-3.5,1.075-1.865,2.589-2S86.107,196.164,86.254,197.863Z" transform="translate(-80.76 -196.286)" fill="#e6e6e6"/>
                  </g>
                  <g id="Group_59754" data-name="Group 59754" transform="translate(1.051 1.077)">
                    <path id="Path_78335" data-name="Path 78335" d="M82.083,197.629a4.3,4.3,0,0,0,3.54.384S81.863,200.527,82.083,197.629Z" transform="translate(-82.073 -197.629)" fill="#e6e6e6"/>
                  </g>
                  <g id="Group_59755" data-name="Group 59755" transform="translate(2.08 0.36)">
                    <path id="Path_78336" data-name="Path 78336" d="M83.36,197.114s1.334-.233,1.354.325c0,0,1.132-.063.975-.537S83.36,197.114,83.36,197.114Z" transform="translate(-83.36 -196.735)" fill="#e6e6e6"/>
                  </g>
                  <g id="Group_59756" data-name="Group 59756" transform="translate(1.051 1.077)" opacity="0.2">
                    <path id="Path_78337" data-name="Path 78337" d="M82.083,197.629a4.3,4.3,0,0,0,3.54.384S81.863,200.527,82.083,197.629Z" transform="translate(-82.073 -197.629)" fill="#fafafa"/>
                  </g>
                  <g id="Group_59757" data-name="Group 59757" transform="translate(2.08 0.36)" opacity="0.2">
                    <path id="Path_78338" data-name="Path 78338" d="M83.36,197.114s1.334-.233,1.354.325c0,0,1.132-.063.975-.537S83.36,197.114,83.36,197.114Z" transform="translate(-83.36 -196.735)" fill="#fafafa"/>
                  </g>
                </g>
                <g id="Group_59759" data-name="Group 59759" transform="translate(1.776 2.205)">
                  <path id="Path_78339" data-name="Path 78339" d="M81.429,202.92A2.476,2.476,0,0,0,83.8,204a3.313,3.313,0,0,0,2.256-1.433,5.088,5.088,0,0,0,.834-2.592c.015-.238.034-.832-.278-.924-.287-.084-.463.317-.6.5a9.4,9.4,0,0,1-1.273,1.493,8.4,8.4,0,0,1-1.55,1.133C83.041,202.265,81.514,203.058,81.429,202.92Z" transform="translate(-81.429 -199.036)" fill="#e6e6e6"/>
                </g>
                <g id="Group_59760" data-name="Group 59760" transform="translate(5.668 1.452)">
                  <path id="Path_78340" data-name="Path 78340" d="M88.9,199.341a2.2,2.2,0,0,1-.265,2.123,3.835,3.835,0,0,1-1.129.925c-.291.176-.666.343-.952.158-.309-.2-.281-.653-.21-1.014q.163-.835.372-1.658a5.6,5.6,0,0,1,.446-1.587c.248-.36.6-.147.974.115A2.165,2.165,0,0,1,88.9,199.341Z" transform="translate(-86.295 -198.097)" fill="#e6e6e6"/>
                </g>
                <g id="Group_59761" data-name="Group 59761" transform="translate(0.722 2.62)" opacity="0.2">
                  <path id="Path_78341" data-name="Path 78341" d="M81.553,202.081a1.558,1.558,0,0,1-1.35-.969c-.157-.4-.154-1.429.368-1.559A7.231,7.231,0,0,0,81.553,202.081Z" transform="translate(-80.112 -199.553)" fill="#fafafa"/>
                </g>
                <g id="Group_59762" data-name="Group 59762" transform="translate(6.108 2.583)" opacity="0.2">
                  <path id="Path_78342" data-name="Path 78342" d="M86.844,202.031a1.765,1.765,0,0,0,1.179-1.161c.093-.3-.025-1.857-.485-1.2-.15.213-.122.895-.2,1.171A5.561,5.561,0,0,1,86.844,202.031Z" transform="translate(-86.844 -199.507)" fill="#fafafa"/>
                </g>
                <g id="Group_59763" data-name="Group 59763" transform="translate(2.352 6.066)" opacity="0.2">
                  <path id="Path_78343" data-name="Path 78343" d="M83.791,203.851a1.274,1.274,0,0,0,1.554.04c-.058.3-1,.552-1.3.638-.762.224-1.161-.112-1.9-.422C82.149,204.108,83.321,204.286,83.791,203.851Z" transform="translate(-82.149 -203.851)" fill="#fafafa"/>
                </g>
              </g>
              <g id="Group_59766" data-name="Group 59766" transform="translate(6.284 7.127)">
                <g id="Group_59765" data-name="Group 59765">
                  <path id="Path_78344" data-name="Path 78344" d="M82.547,235.342l.073-23.132,1.184-7.035.45.076-1.178,7-.083,23.527Z" transform="translate(-82.547 -205.175)" fill="#e0e0e0"/>
                </g>
              </g>
              <g id="Group_59767" data-name="Group 59767" transform="translate(3.084 8.744)">
                <path id="Path_78345" data-name="Path 78345" d="M82.228,212.492l-.362.278a13.464,13.464,0,0,1-1.066-1.8,16.231,16.231,0,0,0-2.252-3.467l.338-.307a16.624,16.624,0,0,1,2.318,3.56A12.976,12.976,0,0,0,82.228,212.492Z" transform="translate(-78.547 -207.192)" fill="#e0e0e0"/>
              </g>
              <g id="Group_59768" data-name="Group 59768" transform="translate(4.717 7.747)">
                <path id="Path_78346" data-name="Path 78346" d="M82.915,209.143a2.666,2.666,0,0,0,1.519-1.082,5.318,5.318,0,0,0,.674-2.044c-.8.238-1.653-.149-2.478-.054a2.172,2.172,0,0,0-1.6,1.052c-.431.744-.606,1.588-.226,1.929A2.81,2.81,0,0,0,82.915,209.143Z" transform="translate(-80.589 -205.948)" fill="#e6e6e6"/>
              </g>
              <g id="Group_59770" data-name="Group 59770" transform="translate(0.074 7.25)">
                <g id="Group_59769" data-name="Group 59769">
                  <path id="Path_78347" data-name="Path 78347" d="M78.687,207.423a3.008,3.008,0,0,1-2.511.315c-.828-.27-1.07-1.518-1.39-2.329a15.982,15.982,0,0,1,3.091,0,1.462,1.462,0,0,1,1.1.606.9.9,0,0,1-.162,1.173C78.794,207.17,78.687,207.423,78.687,207.423Z" transform="translate(-74.785 -205.328)" fill="#e6e6e6"/>
                </g>
              </g>
              <g id="Group_59772" data-name="Group 59772" transform="translate(0 9.753)">
                <g id="Group_59771" data-name="Group 59771">
                  <path id="Path_78348" data-name="Path 78348" d="M74.882,209.394a3.16,3.16,0,0,1,2.536-.917,2.384,2.384,0,0,1,1.728,1.323,1.492,1.492,0,0,1-1.3.817,4.4,4.4,0,0,1-1.579-.277,4.393,4.393,0,0,0-1.578-.278Z" transform="translate(-74.692 -208.45)" fill="#e6e6e6"/>
                </g>
              </g>
            </g>
            <g id="Group_59796" data-name="Group 59796" transform="translate(10.25 4.063)">
              <g id="Group_59787" data-name="Group 59787" transform="translate(2.75)">
                <g id="Group_59775" data-name="Group 59775" transform="translate(3.096 2.656)">
                  <g id="Group_59774" data-name="Group 59774">
                    <path id="Path_78349" data-name="Path 78349" d="M93.149,204.666a3.448,3.448,0,0,1,1,1.794c.166,1.045-1.729,2.295-1.729,2.295a2.674,2.674,0,0,1-2.4-.428l-.99-.879s3.019-2.817,3.986-2.557Z" transform="translate(-89.035 -204.666)" fill="#e6e6e6"/>
                  </g>
                </g>
                <g id="Group_59781" data-name="Group 59781" transform="translate(1.986)">
                  <g id="Group_59776" data-name="Group 59776">
                    <path id="Path_78350" data-name="Path 78350" d="M87.949,202.463c-.638,1.58-.263,3.939,1.146,4.511s3.316-.86,3.954-2.441-.481-2.1-1.889-2.671S88.588,200.882,87.949,202.463Z" transform="translate(-87.648 -201.354)" fill="#e6e6e6"/>
                  </g>
                  <g id="Group_59777" data-name="Group 59777" transform="translate(1.19 1.261)">
                    <path id="Path_78351" data-name="Path 78351" d="M92.632,203.6a4.306,4.306,0,0,1-3.5-.676S91.99,206.436,92.632,203.6Z" transform="translate(-89.135 -202.927)" fill="#e6e6e6"/>
                  </g>
                  <g id="Group_59778" data-name="Group 59778" transform="translate(1.597 0.345)">
                    <path id="Path_78352" data-name="Path 78352" d="M91.857,202.753s-1.206-.616-1.389-.088c0,0-1.063-.394-.774-.8S91.857,202.753,91.857,202.753Z" transform="translate(-89.644 -201.784)" fill="#e6e6e6"/>
                  </g>
                  <g id="Group_59779" data-name="Group 59779" transform="translate(1.19 1.261)" opacity="0.2">
                    <path id="Path_78353" data-name="Path 78353" d="M92.632,203.6a4.306,4.306,0,0,1-3.5-.676S91.99,206.436,92.632,203.6Z" transform="translate(-89.135 -202.927)" fill="#fafafa"/>
                  </g>
                  <g id="Group_59780" data-name="Group 59780" transform="translate(1.597 0.345)" opacity="0.2">
                    <path id="Path_78354" data-name="Path 78354" d="M91.857,202.753s-1.206-.616-1.389-.088c0,0-1.063-.394-.774-.8S91.857,202.753,91.857,202.753Z" transform="translate(-89.644 -201.784)" fill="#fafafa"/>
                  </g>
                </g>
                <g id="Group_59782" data-name="Group 59782" transform="translate(1.178 1.653)">
                  <path id="Path_78355" data-name="Path 78355" d="M91.163,208.644a2.472,2.472,0,0,1-2.585.329,3.316,3.316,0,0,1-1.737-2.034,5.085,5.085,0,0,1-.037-2.724c.055-.232.212-.8.537-.8.3,0,.35.439.422.657a9.424,9.424,0,0,0,.778,1.8,8.4,8.4,0,0,0,1.15,1.539C89.814,207.544,91.041,208.752,91.163,208.644Z" transform="translate(-86.637 -203.415)" fill="#e6e6e6"/>
                </g>
                <g id="Group_59783" data-name="Group 59783" transform="translate(0 0.933)">
                  <path id="Path_78356" data-name="Path 78356" d="M85.657,203.309a2.2,2.2,0,0,0-.37,2.108,3.832,3.832,0,0,0,.808,1.216c.226.254.536.525.864.432.353-.1.459-.542.5-.908q.089-.844.131-1.694a5.6,5.6,0,0,0,.038-1.648c-.131-.417-.53-.317-.964-.177A2.165,2.165,0,0,0,85.657,203.309Z" transform="translate(-85.165 -202.517)" fill="#e6e6e6"/>
                </g>
                <g id="Group_59784" data-name="Group 59784" transform="translate(5.611 3.741)" opacity="0.2">
                  <path id="Path_78357" data-name="Path 78357" d="M92.178,208.147a1.555,1.555,0,0,0,1.574-.528c.269-.34.566-1.32.106-1.6A7.242,7.242,0,0,1,92.178,208.147Z" transform="translate(-92.178 -206.02)" fill="#fafafa"/>
                </g>
                <g id="Group_59785" data-name="Group 59785" transform="translate(1.064 1.985)" opacity="0.2">
                  <path id="Path_78358" data-name="Path 78358" d="M87.282,206.511a1.768,1.768,0,0,1-.787-1.457c0-.318.569-1.767.818-1.008.081.248-.146.892-.152,1.178A5.558,5.558,0,0,0,87.282,206.511Z" transform="translate(-86.495 -203.829)" fill="#fafafa"/>
                </g>
                <g id="Group_59786" data-name="Group 59786" transform="translate(2.092 5.787)" opacity="0.2">
                  <path id="Path_78359" data-name="Path 78359" d="M89.278,208.99a1.275,1.275,0,0,1-1.5-.419c-.033.3.8.823,1.05.991.663.439,1.143.236,1.942.158C90.773,209.72,89.6,209.545,89.278,208.99Z" transform="translate(-87.78 -208.571)" fill="#fafafa"/>
                </g>
              </g>
              <g id="Group_59789" data-name="Group 59789" transform="translate(0 7.18)">
                <g id="Group_59788" data-name="Group 59788">
                  <path id="Path_78360" data-name="Path 78360" d="M81.727,232.906l.287-.948.388-1.277.449-1.49,3.589-11.842.449-3.4.4-3.016.083-.625.223.029,0,0,.226.029-.006.054-.08.59-.423,3.223-.347,2.626-.076.578-.029.093-4.012,13.228-.452,1.484-.207.689-.287.941Z" transform="translate(-81.727 -210.31)" fill="#e0e0e0"/>
                </g>
              </g>
              <g id="Group_59790" data-name="Group 59790" transform="translate(4.805 10)">
                <path id="Path_78361" data-name="Path 78361" d="M87.734,217.908l.265.372a13.373,13.373,0,0,0,1.549-1.411,16.2,16.2,0,0,1,3.17-2.65l-.233-.393a16.6,16.6,0,0,0-3.259,2.72A12.951,12.951,0,0,1,87.734,217.908Z" transform="translate(-87.734 -213.826)" fill="#e0e0e0"/>
              </g>
              <g id="Group_59791" data-name="Group 59791" transform="translate(4.183 7.399)">
                <path id="Path_78362" data-name="Path 78362" d="M88.222,214.216a2.676,2.676,0,0,1-1.134-1.482,5.324,5.324,0,0,1-.044-2.153c.691.463,1.623.345,2.385.679a2.175,2.175,0,0,1,1.225,1.479c.194.838.114,1.7-.35,1.91A2.813,2.813,0,0,1,88.222,214.216Z" transform="translate(-86.956 -210.582)" fill="#e6e6e6"/>
              </g>
              <g id="Group_59793" data-name="Group 59793" transform="translate(8.653 8.685)">
                <g id="Group_59792" data-name="Group 59792">
                  <path id="Path_78363" data-name="Path 78363" d="M92.741,213.912a3.014,3.014,0,0,0,2.307,1.041c.871-.014,1.468-1.135,2.013-1.817a16.032,16.032,0,0,0-2.954-.914,1.46,1.46,0,0,0-1.232.254.9.9,0,0,0-.189,1.17C92.712,213.638,92.741,213.912,92.741,213.912Z" transform="translate(-92.543 -212.185)" fill="#e6e6e6"/>
                </g>
              </g>
              <g id="Group_59795" data-name="Group 59795" transform="translate(7.877 11.178)">
                <g id="Group_59794" data-name="Group 59794">
                  <path id="Path_78364" data-name="Path 78364" d="M95.769,216.936a3.165,3.165,0,0,0-2.155-1.624,2.381,2.381,0,0,0-2.04.755,1.5,1.5,0,0,0,1,1.163,4.385,4.385,0,0,0,1.59.2,4.388,4.388,0,0,1,1.591.2Z" transform="translate(-91.574 -215.296)" fill="#e6e6e6"/>
                </g>
              </g>
            </g>
            <g id="Group_59819" data-name="Group 59819" transform="translate(0 3.559)">
              <g id="Group_59810" data-name="Group 59810" transform="translate(2.769)">
                <g id="Group_59798" data-name="Group 59798" transform="translate(0 2.235)">
                  <g id="Group_59797" data-name="Group 59797">
                    <path id="Path_78365" data-name="Path 78365" d="M73.614,203.513a3.443,3.443,0,0,0-1.206,1.663c-.288,1.017,1.447,2.482,1.447,2.482a2.675,2.675,0,0,0,2.431-.143l1.086-.756s-2.669-3.153-3.658-3.008Z" transform="translate(-72.376 -203.513)" fill="#e6e6e6"/>
                  </g>
                </g>
                <g id="Group_59804" data-name="Group 59804" transform="translate(0.903)">
                  <g id="Group_59799" data-name="Group 59799">
                    <path id="Path_78366" data-name="Path 78366" d="M78.909,202c.449,1.645-.2,3.943-1.666,4.345s-3.192-1.244-3.641-2.89.723-2.028,2.189-2.429S78.459,200.359,78.909,202Z" transform="translate(-73.504 -200.725)" fill="#e6e6e6"/>
                  </g>
                  <g id="Group_59800" data-name="Group 59800" transform="translate(0.953 1.325)">
                    <path id="Path_78367" data-name="Path 78367" d="M74.7,202.638a4.3,4.3,0,0,0,3.552-.26S75,205.527,74.7,202.638Z" transform="translate(-74.695 -202.378)" fill="#e6e6e6"/>
                  </g>
                  <g id="Group_59801" data-name="Group 59801" transform="translate(1.896 0.335)">
                    <path id="Path_78368" data-name="Path 78368" d="M75.874,201.877s1.27-.469,1.39.076c0,0,1.1-.265.863-.7S75.874,201.877,75.874,201.877Z" transform="translate(-75.874 -201.143)" fill="#e6e6e6"/>
                  </g>
                  <g id="Group_59802" data-name="Group 59802" transform="translate(0.953 1.325)" opacity="0.2">
                    <path id="Path_78369" data-name="Path 78369" d="M74.7,202.638a4.3,4.3,0,0,0,3.552-.26S75,205.527,74.7,202.638Z" transform="translate(-74.695 -202.378)" fill="#fafafa"/>
                  </g>
                  <g id="Group_59803" data-name="Group 59803" transform="translate(1.896 0.335)" opacity="0.2">
                    <path id="Path_78370" data-name="Path 78370" d="M75.874,201.877s1.27-.469,1.39.076c0,0,1.1-.265.863-.7S75.874,201.877,75.874,201.877Z" transform="translate(-75.874 -201.143)" fill="#fafafa"/>
                  </g>
                </g>
                <g id="Group_59805" data-name="Group 59805" transform="translate(2.238 1.865)">
                  <path id="Path_78371" data-name="Path 78371" d="M75.173,207.8a2.475,2.475,0,0,0,2.529.631,3.317,3.317,0,0,0,1.963-1.816,5.092,5.092,0,0,0,.356-2.7c-.028-.237-.116-.824-.44-.858-.3-.031-.4.4-.5.6a9.338,9.338,0,0,1-.985,1.7,8.347,8.347,0,0,1-1.322,1.394C76.642,206.862,75.282,207.916,75.173,207.8Z" transform="translate(-75.173 -203.051)" fill="#e6e6e6"/>
                </g>
                <g id="Group_59806" data-name="Group 59806" transform="translate(5.897 1.127)">
                  <path id="Path_78372" data-name="Path 78372" d="M81.869,203.106a2.207,2.207,0,0,1,.12,2.137,3.843,3.843,0,0,1-.945,1.113c-.255.225-.594.458-.909.327-.338-.141-.393-.592-.388-.961q.012-.849.069-1.7a5.612,5.612,0,0,1,.154-1.641c.18-.4.563-.253.978-.063A2.167,2.167,0,0,1,81.869,203.106Z" transform="translate(-79.747 -202.13)" fill="#e6e6e6"/>
                </g>
                <g id="Group_59807" data-name="Group 59807" transform="translate(0.719 3.304)" opacity="0.2">
                  <path id="Path_78373" data-name="Path 78373" d="M75.005,207.156a1.555,1.555,0,0,1-1.5-.71c-.227-.369-.408-1.378.082-1.6A7.223,7.223,0,0,0,75.005,207.156Z" transform="translate(-73.275 -204.846)" fill="#fafafa"/>
                </g>
                <g id="Group_59808" data-name="Group 59808" transform="translate(6.323 2.217)" opacity="0.2">
                  <path id="Path_78374" data-name="Path 78374" d="M80.28,206.137a1.768,1.768,0,0,0,.952-1.354c.037-.315-.358-1.822-.693-1.1a5.756,5.756,0,0,0,.012,1.188A5.551,5.551,0,0,1,80.28,206.137Z" transform="translate(-80.28 -203.49)" fill="#fafafa"/>
                </g>
                <g id="Group_59809" data-name="Group 59809" transform="translate(2.847 5.947)" opacity="0.2">
                  <path id="Path_78375" data-name="Path 78375" d="M77.5,208.383a1.275,1.275,0,0,0,1.536-.24c0,.305-.887.722-1.16.86-.71.358-1.162.1-1.946-.072C75.934,208.931,77.119,208.9,77.5,208.383Z" transform="translate(-75.934 -208.143)" fill="#fafafa"/>
                </g>
              </g>
              <g id="Group_59812" data-name="Group 59812" transform="translate(7.308 7.237)">
                <g id="Group_59811" data-name="Group 59811">
                  <path id="Path_78376" data-name="Path 78376" d="M82.222,239.661l-4.075-22.769-.1-7.134.456-.006.1,7.1,4.136,23.159Z" transform="translate(-78.049 -209.752)" fill="#e0e0e0"/>
                </g>
              </g>
              <g id="Group_59813" data-name="Group 59813" transform="translate(3.27 9.576)">
                <path id="Path_78377" data-name="Path 78377" d="M77.517,217.282l-.306.339a13.359,13.359,0,0,1-1.373-1.584,16.23,16.23,0,0,0-2.837-3l.277-.363a16.6,16.6,0,0,1,2.918,3.084A13.044,13.044,0,0,0,77.517,217.282Z" transform="translate(-73.002 -212.669)" fill="#e0e0e0"/>
              </g>
              <g id="Group_59814" data-name="Group 59814" transform="translate(5.05 7.616)">
                <path id="Path_78378" data-name="Path 78378" d="M77.681,213.694a2.665,2.665,0,0,0,1.3-1.338,5.328,5.328,0,0,0,.3-2.132c-.742.378-1.653.151-2.448.394a2.175,2.175,0,0,0-1.39,1.324c-.29.81-.311,1.672.124,1.939A2.811,2.811,0,0,0,77.681,213.694Z" transform="translate(-75.228 -210.224)" fill="#e6e6e6"/>
              </g>
              <g id="Group_59816" data-name="Group 59816" transform="translate(0 8.222)">
                <g id="Group_59815" data-name="Group 59815">
                  <path id="Path_78379" data-name="Path 78379" d="M73.114,212.826a3.013,3.013,0,0,1-2.414.762c-.863-.116-1.325-1.3-1.786-2.041a16.105,16.105,0,0,1,3.041-.56,1.459,1.459,0,0,1,1.194.4.9.9,0,0,1,.05,1.183C73.174,212.556,73.114,212.826,73.114,212.826Z" transform="translate(-68.915 -210.98)" fill="#e6e6e6"/>
                </g>
              </g>
              <g id="Group_59818" data-name="Group 59818" transform="translate(0.65 10.72)">
                <g id="Group_59817" data-name="Group 59817">
                  <path id="Path_78380" data-name="Path 78380" d="M69.794,215.454a3.163,3.163,0,0,1,2.33-1.358,2.379,2.379,0,0,1,1.938.99,1.5,1.5,0,0,1-1.129,1.037,4.379,4.379,0,0,1-1.6.011,4.392,4.392,0,0,0-1.6.01Z" transform="translate(-69.728 -214.096)" fill="#e6e6e6"/>
                </g>
              </g>
            </g>
          </g>
          <g id="Group_59821" data-name="Group 59821" transform="translate(6.354 26.736)">
            <path id="Path_78381" data-name="Path 78381" d="M83.656,229.633H78.872a.8.8,0,0,0-.785.567,32.931,32.931,0,0,0-1.23,9.666,88.047,88.047,0,0,0,1.936,15.391.81.81,0,0,0,.786.645h3.33a.81.81,0,0,0,.786-.645,88.047,88.047,0,0,0,1.936-15.391A32.931,32.931,0,0,0,84.4,230.2.809.809,0,0,0,83.656,229.633Z" transform="translate(-76.858 -229.633)" fill="#f0f0f0"/>
          </g>
        </g>
      </g>
      <ellipse id="_Path_" data-name="&lt;Path&gt;" cx="155.111" cy="9.079" rx="155.111" ry="9.079" transform="translate(44.889 280.148)" fill="#f5f5f5"/>
      <g id="Group_59857" data-name="Group 59857" transform="translate(61.039 175.673)">
        <g id="Group_59854" data-name="Group 59854">
          <g id="Group_59828" data-name="Group 59828" transform="translate(23.266)">
            <g id="Group_59824" data-name="Group 59824" transform="translate(11.844 19.031)">
              <path id="Path_78382" data-name="Path 78382" d="M120.664,361.117a.513.513,0,0,1-.478-.525c.592-23.564,1.8-62.218,1.868-62.429a.512.512,0,0,1,.981.292c-.015.051-1.24,38.84-1.826,62.164a.512.512,0,0,1-.524.5Z" transform="translate(-120.186 -297.799)" fill="#263238"/>
            </g>
            <g id="Group_59827" data-name="Group 59827">
              <g id="Group_59825" data-name="Group 59825">
                <path id="Path_78383" data-name="Path 78383" d="M116.828,277.725c.2,1.815,2.365,8.107,4.176,7.909s2.578-6.809,2.382-8.624a3.3,3.3,0,1,0-6.558.714Z" transform="translate(-107.666 -274.063)" fill="#1ec769"/>
                <path id="Path_78384" data-name="Path 78384" d="M126.172,301.429c-.2-1.815-2.365-8.107-4.175-7.909s-2.579,6.809-2.382,8.625a3.3,3.3,0,1,0,6.558-.715Z" transform="translate(-108.221 -277.919)" fill="#1ec769"/>
                <path id="Path_78385" data-name="Path 78385" d="M109.035,294.869c1.811-.2,8.089-2.371,7.892-4.186s-6.794-2.584-8.606-2.387a3.306,3.306,0,0,0,.714,6.573Z" transform="translate(-105.38 -276.878)" fill="#1ec769"/>
                <path id="Path_78386" data-name="Path 78386" d="M132.729,285.51c-1.811.2-8.089,2.37-7.892,4.185s6.794,2.585,8.606,2.387a3.305,3.305,0,0,0-.714-6.572Z" transform="translate(-109.271 -276.328)" fill="#1ec769"/>
                <path id="Path_78387" data-name="Path 78387" d="M109.381,284.687c1.421,1.143,7.393,4.056,8.534,2.633s-2.98-6.643-4.4-7.786a3.3,3.3,0,0,0-4.134,5.153Z" transform="translate(-105.934 -275.003)" fill="#1ec769"/>
                <path id="Path_78388" data-name="Path 78388" d="M132.779,295.13c-1.419-1.143-7.391-4.056-8.533-2.633s2.981,6.642,4.4,7.786a3.3,3.3,0,0,0,4.133-5.153Z" transform="translate(-109.114 -277.641)" fill="#1ec769"/>
                <path id="Path_78389" data-name="Path 78389" d="M115.992,301.482c1.141-1.423,4.047-7.408,2.627-8.552s-6.628,2.987-7.77,4.411a3.3,3.3,0,1,0,5.142,4.142Z" transform="translate(-106.329 -277.764)" fill="#1ec769"/>
                <path id="Path_78390" data-name="Path 78390" d="M126.441,278.067c-1.142,1.423-4.048,7.408-2.628,8.552s6.628-2.987,7.77-4.41a3.3,3.3,0,1,0-5.142-4.142Z" transform="translate(-108.99 -274.611)" fill="#1ec769"/>
              </g>
              <g id="Group_59826" data-name="Group 59826" opacity="0.6" style="mix-blend-mode: normal;isolation: isolate">
                <path id="Path_78391" data-name="Path 78391" d="M116.828,277.725c.2,1.815,2.365,8.107,4.176,7.909s2.578-6.809,2.382-8.624a3.3,3.3,0,1,0-6.558.714Z" transform="translate(-107.666 -274.063)" fill="#fff"/>
                <path id="Path_78392" data-name="Path 78392" d="M126.172,301.429c-.2-1.815-2.365-8.107-4.175-7.909s-2.579,6.809-2.382,8.625a3.3,3.3,0,1,0,6.558-.715Z" transform="translate(-108.221 -277.919)" fill="#fff"/>
                <path id="Path_78393" data-name="Path 78393" d="M109.035,294.869c1.811-.2,8.089-2.371,7.892-4.186s-6.794-2.584-8.606-2.387a3.306,3.306,0,0,0,.714,6.573Z" transform="translate(-105.38 -276.878)" fill="#fff"/>
                <path id="Path_78394" data-name="Path 78394" d="M132.729,285.51c-1.811.2-8.089,2.37-7.892,4.185s6.794,2.585,8.606,2.387a3.305,3.305,0,0,0-.714-6.572Z" transform="translate(-109.271 -276.328)" fill="#fff"/>
                <path id="Path_78395" data-name="Path 78395" d="M109.381,284.687c1.421,1.143,7.393,4.056,8.534,2.633s-2.98-6.643-4.4-7.786a3.3,3.3,0,0,0-4.134,5.153Z" transform="translate(-105.934 -275.003)" fill="#fff"/>
                <path id="Path_78396" data-name="Path 78396" d="M132.779,295.13c-1.419-1.143-7.391-4.056-8.533-2.633s2.981,6.642,4.4,7.786a3.3,3.3,0,0,0,4.133-5.153Z" transform="translate(-109.114 -277.641)" fill="#fff"/>
                <path id="Path_78397" data-name="Path 78397" d="M115.992,301.482c1.141-1.423,4.047-7.408,2.627-8.552s-6.628,2.987-7.77,4.411a3.3,3.3,0,1,0,5.142,4.142Z" transform="translate(-106.329 -277.764)" fill="#fff"/>
                <path id="Path_78398" data-name="Path 78398" d="M126.441,278.067c-1.142,1.423-4.048,7.408-2.628,8.552s6.628-2.987,7.77-4.41a3.3,3.3,0,1,0-5.142-4.142Z" transform="translate(-108.99 -274.611)" fill="#fff"/>
              </g>
              <path id="Path_78399" data-name="Path 78399" d="M117.466,290.463a3.906,3.906,0,1,0,3.461-4.315A3.908,3.908,0,0,0,117.466,290.463Z" transform="translate(-107.793 -276.454)" fill="#1ec769"/>
            </g>
          </g>
          <g id="Group_59830" data-name="Group 59830" transform="translate(0 16.877)">
            <path id="Path_78400" data-name="Path 78400" d="M109.621,343.319c-4.507.1-12.219-4.074-15.254-8.147-3.079-4.132,5.557-1.588,4.661-4.838s-11.526-.815-13.5-5.467,5.7-3.6,5.39-5.984-8.261-1.873-10.828-6.817,4.435-2.19,3.331-4.24-9.9-10.661-6.232-12.472,11.907,7.161,14.664,8.156,3.382-5.219,6.973-2.258.948,15.96,5.17,17.661c3.145,1.268,1.791-4.676,5.412-3.185C115.744,318.336,111.452,343.279,109.621,343.319Z" transform="translate(-76.298 -295.113)" fill="#1ec769"/>
            <g id="Group_59829" data-name="Group 59829" opacity="0.2">
              <path id="Path_78401" data-name="Path 78401" d="M109.621,343.319c-4.507.1-12.219-4.074-15.254-8.147-3.079-4.132,5.557-1.588,4.661-4.838s-11.526-.815-13.5-5.467,5.7-3.6,5.39-5.984-8.261-1.873-10.828-6.817,4.435-2.19,3.331-4.24-9.9-10.661-6.232-12.472,11.907,7.161,14.664,8.156,3.382-5.219,6.973-2.258.948,15.96,5.17,17.661c3.145,1.268,1.791-4.676,5.412-3.185C115.744,318.336,111.452,343.279,109.621,343.319Z" transform="translate(-76.298 -295.113)" fill="#fff"/>
            </g>
          </g>
          <g id="Group_59833" data-name="Group 59833" transform="translate(36.213 5.246)">
            <g id="Group_59831" data-name="Group 59831">
              <path id="Path_78402" data-name="Path 78402" d="M125.152,334.711c.075.127-.6.767,1.626.86,5.48.226,15.171-.145,18.81-5.138,5.2-7.13-6.788-6.476-5.622-10.408s14.039-.722,16.552-6.335-6.85-4.517-6.417-7.405,10.258.854,13.5-5.1-5.343-2.768-3.953-5.235,12.285-12.736,7.871-15.025-14.651,8.431-18.027,9.579-4.157-9.368-8.594-5.85-1.526,19.391-6.7,21.362c-3.855,1.468-1.752-4.221-6.51-4C121.223,302.311,119.1,324.566,125.152,334.711Z" transform="translate(-121.565 -280.605)" fill="#1ec769"/>
            </g>
            <g id="Group_59832" data-name="Group 59832" opacity="0.3">
              <path id="Path_78403" data-name="Path 78403" d="M125.152,334.711c.075.127-.6.767,1.626.86,5.48.226,15.171-.145,18.81-5.138,5.2-7.13-6.788-6.476-5.622-10.408s14.039-.722,16.552-6.335-6.85-4.517-6.417-7.405,10.258.854,13.5-5.1-5.343-2.768-3.953-5.235,12.285-12.736,7.871-15.025-14.651,8.431-18.027,9.579-4.157-9.368-8.594-5.85-1.526,19.391-6.7,21.362c-3.855,1.468-1.752-4.221-6.51-4C121.223,302.311,119.1,324.566,125.152,334.711Z" transform="translate(-121.565 -280.605)" fill="#fff"/>
            </g>
          </g>
          <g id="Group_59853" data-name="Group 59853" transform="translate(10.579 15.5)">
            <g id="Group_59852" data-name="Group 59852">
              <g id="Group_59844" data-name="Group 59844" transform="translate(24.773)">
                <g id="Group_59843" data-name="Group 59843">
                  <g id="Group_59842" data-name="Group 59842">
                    <g id="Group_59841" data-name="Group 59841">
                      <g id="Group_59840" data-name="Group 59840">
                        <g id="Group_59839" data-name="Group 59839">
                          <g id="Group_59834" data-name="Group 59834" transform="translate(0 10.789)">
                            <path id="Path_78404" data-name="Path 78404" d="M120.83,359.351l-.03,0a.356.356,0,0,1-.31-.4c4.5-36.894,25.7-51.89,25.917-52.037a.357.357,0,0,1,.4.589c-.211.145-21.157,14.979-25.614,51.535A.357.357,0,0,1,120.83,359.351Z" transform="translate(-120.488 -306.852)" fill="#263238"/>
                          </g>
                          <g id="Group_59835" data-name="Group 59835" transform="translate(20.752 14.822)">
                            <path id="Path_78405" data-name="Path 78405" d="M146.769,313.038a.357.357,0,0,1-.1-.7c.132-.043,3.29-1.044,8.463.057a.357.357,0,0,1-.147.7,17.229,17.229,0,0,0-8.1-.077A.35.35,0,0,1,146.769,313.038Z" transform="translate(-146.427 -311.883)" fill="#263238"/>
                          </g>
                          <g id="Group_59836" data-name="Group 59836" transform="translate(16.832)">
                            <path id="Path_78406" data-name="Path 78406" d="M141.869,313.854a.356.356,0,0,1-.341-.354c-.11-11.157,6.335-19.875,6.4-19.962a.357.357,0,1,1,.57.43c-.063.085-6.365,8.617-6.257,19.525a.357.357,0,0,1-.353.361Z" transform="translate(-141.527 -293.396)" fill="#263238"/>
                          </g>
                          <g id="Group_59837" data-name="Group 59837" transform="translate(10.517 26.428)">
                            <path id="Path_78407" data-name="Path 78407" d="M133.976,329.832a.352.352,0,0,1-.244-.112.357.357,0,0,1,.014-.5c.048-.045,4.819-4.467,11.066-2.222a.357.357,0,0,1-.24.673c-5.842-2.1-10.294,2.027-10.337,2.069A.361.361,0,0,1,133.976,329.832Z" transform="translate(-133.634 -326.358)" fill="#263238"/>
                          </g>
                          <g id="Group_59838" data-name="Group 59838" transform="translate(5.709 22.135)">
                            <path id="Path_78408" data-name="Path 78408" d="M129.473,335.358a.356.356,0,0,1-.314-.216,26.9,26.9,0,0,1-1.149-13.837.351.351,0,0,1,.409-.3.356.356,0,0,1,.3.409,26.7,26.7,0,0,0,1.1,13.443.357.357,0,0,1-.188.468A.349.349,0,0,1,129.473,335.358Z" transform="translate(-127.624 -321.004)" fill="#263238"/>
                          </g>
                        </g>
                      </g>
                    </g>
                  </g>
                </g>
              </g>
              <g id="Group_59851" data-name="Group 59851" transform="translate(0 9.432)">
                <g id="Group_59850" data-name="Group 59850">
                  <g id="Group_59845" data-name="Group 59845" transform="translate(0.52 1.494)">
                    <path id="Path_78409" data-name="Path 78409" d="M114.91,372.564a.358.358,0,0,1-.342-.346l-.462-9.772c-1.365-32.491-23.6-54.59-23.827-54.81a.357.357,0,1,1,.5-.512c.226.221,22.665,22.509,24.042,55.295l.462,9.776a.356.356,0,0,1-.345.368Z" transform="translate(-90.171 -307.024)" fill="#263238"/>
                  </g>
                  <g id="Group_59846" data-name="Group 59846" transform="translate(0 11.725)">
                    <path id="Path_78410" data-name="Path 78410" d="M99.321,322.372a.381.381,0,0,1-.059-.007.419.419,0,0,1-.1-.04l-.115-.047a23.066,23.066,0,0,0-9.158-1.775.351.351,0,0,1-.364-.35.356.356,0,0,1,.348-.365,23.823,23.823,0,0,1,9.447,1.83l.118.049a.427.427,0,0,1,.062.029.358.358,0,0,1-.176.676Z" transform="translate(-89.522 -319.784)" fill="#263238"/>
                  </g>
                  <g id="Group_59847" data-name="Group 59847" transform="translate(8.402)">
                    <path id="Path_78411" data-name="Path 78411" d="M104.567,323.657l-.018,0a.356.356,0,0,1-.323-.387,31.083,31.083,0,0,0-4.145-17.559.357.357,0,1,1,.6-.386,31.845,31.845,0,0,1,4.254,18.008A.355.355,0,0,1,104.567,323.657Z" transform="translate(-100.025 -305.16)" fill="#263238"/>
                  </g>
                  <g id="Group_59848" data-name="Group 59848" transform="translate(6.57 20.696)">
                    <path id="Path_78412" data-name="Path 78412" d="M107.353,334.33a.358.358,0,0,1-.238-.105,9.676,9.676,0,0,0-8.932-2.2.357.357,0,0,1-.183-.69,10.208,10.208,0,0,1,9.622,2.386.357.357,0,0,1-.269.607Z" transform="translate(-97.735 -330.974)" fill="#263238"/>
                  </g>
                  <g id="Group_59849" data-name="Group 59849" transform="translate(19.967 20.542)">
                    <path id="Path_78413" data-name="Path 78413" d="M114.822,343.448a.371.371,0,0,1-.15-.041.358.358,0,0,1-.15-.482,23.63,23.63,0,0,0,1.914-11.758.357.357,0,0,1,.327-.384.349.349,0,0,1,.383.327,23.875,23.875,0,0,1-1.993,12.146A.357.357,0,0,1,114.822,343.448Z" transform="translate(-114.48 -330.781)" fill="#263238"/>
                  </g>
                </g>
              </g>
            </g>
          </g>
        </g>
        <g id="Group_59856" data-name="Group 59856" transform="translate(14.68 81.903)">
          <g id="Group_59855" data-name="Group 59855">
            <path id="Path_78414" data-name="Path 78414" d="M135.855,387.819c0,11.4-5.114,20.64-20.6,20.64-14.783,0-20.6-9.243-20.6-20.64a20.614,20.614,0,0,1,3.56-11.6H132.3A20.614,20.614,0,0,1,135.855,387.819Z" transform="translate(-94.649 -376.217)"/>
            <path id="Path_78415" data-name="Path 78415" d="M135.855,387.819c0,11.4-5.114,20.64-20.6,20.64-14.783,0-20.6-9.243-20.6-20.64a20.614,20.614,0,0,1,3.56-11.6H132.3A20.614,20.614,0,0,1,135.855,387.819Z" transform="translate(-94.649 -376.217)" fill="#fff" opacity="0.7"/>
          </g>
        </g>
      </g>
      <path id="Path_78477" data-name="Path 78477" d="M233.246,153.275c-.024-.048-.024-.072,0-.08C233.413,153.146,233.389,153.178,233.246,153.275Z" transform="translate(-46.646 -74.424)" fill="#fff" opacity="0.1"/>
      <g id="Group_59890" data-name="Group 59890" transform="translate(230.047 5.168)">
        <path id="Path_78478" data-name="Path 78478" d="M299.289,107.8l5.925,11.01,24.174-20.573a.222.222,0,0,0-.266-.356L306.46,112.873l-3.494-6.829Z" transform="translate(-287.915 -88.486)" fill="#fbb040"/>
        <path id="Path_78479" data-name="Path 78479" d="M334.586,107.03c0,10.416-10.278,18.858-22.954,18.858a26.271,26.271,0,0,1-13.085-3.371l-13.477,6.233,8.507-10.082a16.753,16.753,0,0,1-4.9-11.638c0-10.416,10.278-18.857,22.954-18.857S334.586,96.615,334.586,107.03Z" transform="translate(-285.071 -88.173)" fill="none" stroke="#fbb040" stroke-width="1.3"/>
      </g>
      <g id="freepik--character-1--inject-48" transform="translate(159.453 45.745)">
        <path id="Path_78232" data-name="Path 78232" d="M126.135,441.328l-.493,12.824s12.869,4.8,13.012,7.181l-24.9-.052L113.7,441.27Z" transform="translate(-83.524 -226.769)" fill="#263238"/>
        <path id="Path_78233" data-name="Path 78233" d="M119.858,459.424a1.025,1.025,0,0,0-.707,1.161.979.979,0,0,0,1.142.707,1.077,1.077,0,0,0,.746-1.232,1.012,1.012,0,0,0-1.3-.6" transform="translate(-85.434 -233.137)" fill="#e0e0e0"/>
        <path id="Path_78234" data-name="Path 78234" d="M113.79,471.027l.071-2.017,23.845.8s1.109.48.979,1.265Z" transform="translate(-83.556 -236.515)" fill="#455a64"/>
        <path id="Path_78235" data-name="Path 78235" d="M131.508,460.87c0,.123-.649.175-1.213.564s-.921.9-1.031.856.071-.752.8-1.213S131.534,460.76,131.508,460.87Z" transform="translate(-88.982 -233.616)" fill="#fff"/>
        <path id="Path_78236" data-name="Path 78236" d="M135.867,462.587c0,.117-.5.324-.915.837s-.532,1.057-.649,1.051-.195-.694.331-1.3S135.867,462.47,135.867,462.587Z" transform="translate(-90.733 -234.243)" fill="#fff"/>
        <path id="Path_78237" data-name="Path 78237" d="M138.921,466.3c-.11,0-.279-.584.032-1.245s.882-.928.934-.83-.3.461-.551,1.005S139.064,466.282,138.921,466.3Z" transform="translate(-92.334 -234.825)" fill="#fff"/>
        <path id="Path_78238" data-name="Path 78238" d="M131,456.18c-.052.11-.61-.058-1.3,0s-1.219.259-1.3.156.454-.538,1.265-.577S131.059,456.083,131,456.18Z" transform="translate(-88.688 -231.858)" fill="#fff"/>
        <path id="Path_78239" data-name="Path 78239" d="M81.982,440l-1.343,15.438L83.1,467.977a1.6,1.6,0,0,1-1.349,1.862h0a1.6,1.6,0,0,1-1.369-.5c-2.218-2.419-10.333-11.358-10.171-12.487.188-1.3.337-16.4.337-16.4Z" transform="translate(-68.243 -226.323)" fill="#263238"/>
        <path id="Path_78240" data-name="Path 78240" d="M81.754,478.415l-11.488-14-.039.649a2.355,2.355,0,0,0,.467,1.583c.908,1.22,3.49,4.541,9.633,11.287a1.589,1.589,0,0,0,1.427.486Z" transform="translate(-68.248 -234.899)" fill="#455a64"/>
        <g id="Group_59719" data-name="Group 59719" transform="translate(4.081 224.547)" opacity="0.6">
          <path id="Path_78241" data-name="Path 78241" d="M74.911,456.915a.96.96,0,0,1,.182,1.3.921.921,0,0,1-1.258.188,1.012,1.012,0,0,1-.188-1.343.954.954,0,0,1,1.33-.058" transform="translate(-73.472 -456.757)" fill="#fff"/>
        </g>
        <path id="Path_78242" data-name="Path 78242" d="M83.183,474.368a4.881,4.881,0,0,1,1.44-1.116,4.681,4.681,0,0,1,1.8-.227c0-.039-.175-.169-.532-.246a2.484,2.484,0,0,0-1.408.156,2.536,2.536,0,0,0-1.1.882C83.183,474.128,83.144,474.355,83.183,474.368Z" transform="translate(-72.798 -237.825)" fill="#fff"/>
        <path id="Path_78243" data-name="Path 78243" d="M84.686,478.014a11.779,11.779,0,0,1,1.414-.577,10.971,10.971,0,0,1,1.524-.1,1.764,1.764,0,0,0-1.6-.24C85.094,477.313,84.608,477.968,84.686,478.014Z" transform="translate(-73.328 -239.324)" fill="#fff"/>
        <path id="Path_78244" data-name="Path 78244" d="M80.29,470.149a14.847,14.847,0,0,1,2.121-1.038,15.879,15.879,0,0,1,2.335-.389,4.352,4.352,0,0,0-4.456,1.427Z" transform="translate(-71.786 -236.363)" fill="#fff"/>
        <path id="Path_78245" data-name="Path 78245" d="M80.31,463.368c.039.1.915-.208,2.03-.175s1.985.35,2.024.259a3.944,3.944,0,0,0-4.054-.084Z" transform="translate(-71.793 -234.35)" fill="#fff"/>
        <path id="Path_78246" data-name="Path 78246" d="M80.749,456.308a8.231,8.231,0,0,1,2.108-.24,7.784,7.784,0,0,1,2.017.649,1.512,1.512,0,0,0-.474-.461,3.36,3.36,0,0,0-1.511-.525,3.5,3.5,0,0,0-1.589.214C80.911,456.107,80.73,456.276,80.749,456.308Z" transform="translate(-71.947 -231.844)" fill="#fff"/>
        <path id="Path_78247" data-name="Path 78247" d="M82.893,453.234a1.3,1.3,0,0,0,.058-.584,4.087,4.087,0,0,0-.363-1.57,1.836,1.836,0,0,0-.72-.908.649.649,0,0,0-.727.1,1,1,0,0,0-.292.681,2.251,2.251,0,0,0,1.829,2.206,2.6,2.6,0,0,0,2.672-1.174.9.9,0,0,0,.091-.746.649.649,0,0,0-.649-.376,2.186,2.186,0,0,0-1.051.467,4.539,4.539,0,0,0-1.135,1.135,1.369,1.369,0,0,0-.272.519,7.38,7.38,0,0,1,1.537-1.453,2,2,0,0,1,.934-.383.331.331,0,0,1,.344.2.6.6,0,0,1-.091.486,2.335,2.335,0,0,1-2.3,1.012A1.946,1.946,0,0,1,81.174,451a.778.778,0,0,1,.182-.487.357.357,0,0,1,.4-.058,1.654,1.654,0,0,1,.649.766,6.084,6.084,0,0,1,.486,2.017Z" transform="translate(-71.983 -229.872)" fill="#fff"/>
        <path id="Path_78248" data-name="Path 78248" d="M121.914,277.648a55.033,55.033,0,0,1,1.2,16.217c-.266,3.444-11.89,98.753-11.89,98.753h-15.7l4.411-89.574-1.3.279s-8.556,38.219-9.25,44.382c-.649,5.559-7.855,45.951-7.855,45.951l-14.355.169,4.586-53.43L77.1,289.149l2-14.919Z" transform="translate(-67.18 -168.082)" fill="#263238"/>
        <path id="Path_78249" data-name="Path 78249" d="M117.62,302.844s0,.039.1.1a1,1,0,0,0,.383.182,1.778,1.778,0,0,0,1.485-.35,2.965,2.965,0,0,0,1.018-2.03c.11-.856.13-1.771.195-2.744.1-1.946.182-3.691.221-4.962a13.911,13.911,0,0,0,0-2.063,13.232,13.232,0,0,0-.221,2.05c-.1,1.3-.208,3.023-.318,4.962-.058.967-.071,1.9-.162,2.718a2.8,2.8,0,0,1-.869,1.894,1.726,1.726,0,0,1-1.336.409C117.789,302.961,117.639,302.812,117.62,302.844Z" transform="translate(-84.901 -173.966)" fill="#455a64"/>
        <path id="Path_78250" data-name="Path 78250" d="M83.06,293.156a1.3,1.3,0,0,0,.435.156,7.963,7.963,0,0,0,1.258.214,9.081,9.081,0,0,0,7.55-3.036,7.726,7.726,0,0,0,.759-1.018c.156-.259.227-.409.208-.422s-.389.532-1.122,1.3a9.607,9.607,0,0,1-7.382,2.964C83.709,293.266,83.066,293.1,83.06,293.156Z" transform="translate(-72.759 -173.288)" fill="#455a64"/>
        <path id="Path_78251" data-name="Path 78251" d="M142.712,288.91a5.071,5.071,0,0,0,.24,1.576,11.761,11.761,0,0,0,4.2,6.325,4.95,4.95,0,0,0,1.362.83,14.271,14.271,0,0,1-5.838-8.731Z" transform="translate(-93.706 -173.239)" fill="#455a64"/>
        <path id="Path_78252" data-name="Path 78252" d="M131.046,124.7a2.9,2.9,0,0,0,.941-5.7,3.016,3.016,0,0,0-2.887-4.949,3.613,3.613,0,0,0-5.579-2.679,4.061,4.061,0,0,0-5,.156,2.887,2.887,0,0,0-2.3,5.021" transform="translate(-84.07 -110.588)" fill="#263238"/>
        <path id="Path_78253" data-name="Path 78253" d="M114.527,116.482h.649a12.325,12.325,0,0,1,12.811,10.69c.772,5.916,1.55,12.461,1.674,15.646.247,6.6-6.3,7.953-6.3,7.953l.954,7.9-16.035.3L105.433,130.3C104.492,123.455,107.69,117.228,114.527,116.482Z" transform="translate(-80.563 -112.654)" fill="#ffbe9d"/>
        <path id="Path_78254" data-name="Path 78254" d="M128.48,168.155a16,16,0,0,1-8.77-2.1s2.27,4.644,8.822,3.723Z" transform="translate(-85.636 -130.078)" fill="#fba078"/>
        <path id="Path_78262" data-name="Path 78262" d="M126.318,123.68s-1.946-4.048-3.983-4.91c-2.471-1.051-3.38,1.648-5.708,1.122s-4.69-1.531-6.947.357c-2.478,2.076-1.2,3.38-1.213,6.312-.058,11.9-2.056,15.36-2.951,9.8-.1-.6-1.823-1.012-2.2-3.581-.493-3.341-.83-7.408-.195-9.827a9.406,9.406,0,0,1,3.581-5.111c3.12-2.595,7.563-2.848,10.6-2.692S126.337,118.491,126.318,123.68Z" transform="translate(-79.685 -112.179)" fill="#263238"/>
        <path id="Path_78263" data-name="Path 78263" d="M105.254,146.677a1.8,1.8,0,0,0-2.017-1.635c-1.226.182-2.556.947-2.348,3.483.363,4.5,4.813,3.2,4.807,3.075S105.429,148.558,105.254,146.677Z" transform="translate(-79.015 -122.688)" fill="#ffbe9d"/>
        <path id="Path_78265" data-name="Path 78265" d="M104.651,126.592a4.262,4.262,0,0,0,1.946.785,1.466,1.466,0,0,0,1.583-1.116c.039-.318-.058-.649.136-.928s.694-.233,1.07-.214c1.3.078,2.776-1.447,3.049-2.744a1.181,1.181,0,0,0,1.589.253,4.209,4.209,0,0,0,1.038-1.025,1.868,1.868,0,0,1,1.511-.85,4.417,4.417,0,0,0,.992.169c.59-.084.843-.791.9-1.382s.1-1.3.584-1.628a2.374,2.374,0,0,1,1.609-.123c.551.052,1.245-.11,1.362-.649a1.083,1.083,0,0,0-.247-.811,2.919,2.919,0,0,0-3.5-.934,3.963,3.963,0,0,0-7.31-.4,4.022,4.022,0,0,0-6.35,1.784,2.912,2.912,0,0,0-3.068,4.4,2.763,2.763,0,0,0-1.414,2.277A1.578,1.578,0,0,0,102,124.983a1.615,1.615,0,0,0,2.867,1.466" transform="translate(-78.757 -111.347)" fill="#263238"/>
        <path id="Path_78266" data-name="Path 78266" d="M118.938,118.85v.324a2.783,2.783,0,0,1-.285.889,3.179,3.179,0,0,1-.947,1.116,3,3,0,0,1-1.816.649l.071-.1a1.648,1.648,0,0,1-.032,1.252,4.756,4.756,0,0,1-.714,1.148,3.328,3.328,0,0,1-.48.538,1.544,1.544,0,0,1-.7.3,1.648,1.648,0,0,1-1.479-.448l.169-.058a3.4,3.4,0,0,1-1.3,2.413,2.465,2.465,0,0,1-1.453.558,4.593,4.593,0,0,1-1.479-.247l.123-.058a3.626,3.626,0,0,1-1,1.44,1.9,1.9,0,0,1-1.55.506,2.471,2.471,0,0,1-2.011-1.849l.1.045a2.342,2.342,0,0,1-1.537.3,2.6,2.6,0,0,1-1.1-.428,2.122,2.122,0,0,1-.532-.525c-.091-.149-.13-.227-.13-.227a2.913,2.913,0,0,0,.7.688,2.477,2.477,0,0,0,1.077.383,2.25,2.25,0,0,0,1.453-.311l.078-.052v.091a2.342,2.342,0,0,0,1.9,1.712,1.7,1.7,0,0,0,1.4-.473,3.405,3.405,0,0,0,.941-1.369v-.091h.084a4.346,4.346,0,0,0,1.414.24,2.3,2.3,0,0,0,1.343-.519,3.243,3.243,0,0,0,1.245-2.277V124.2l.149.162a1.473,1.473,0,0,0,1.3.4,1.414,1.414,0,0,0,.649-.266,3.412,3.412,0,0,0,.448-.506,4.54,4.54,0,0,0,.707-1.1,1.485,1.485,0,0,0,.039-1.129l-.039-.1h.123a2.893,2.893,0,0,0,1.745-.564,3.341,3.341,0,0,0,.947-1.057A3.463,3.463,0,0,0,118.938,118.85Z" transform="translate(-79.013 -113.491)" fill="#455a64"/>
        <path id="Path_78268" data-name="Path 78268" d="M155.451,200.166,138.54,213.333a178.217,178.217,0,0,0-8.232-24.649,31.092,31.092,0,0,0-2.77-5.358l-.2-.4a12.7,12.7,0,0,0-9.879-6.214c-.448,0-1.55,0-3.094.084l-1.09-.357-3.634-2.213-2.672,2.57-12.677-5.864-.905,3.626-10.158,4.482h0s-9.347,2.089-10.534,10.132c-1.375,9.256-2.595,30.442-2.595,30.442l11.611-5.935-2.8,21.179L77.7,241.812l28.5,5.174a15.065,15.065,0,0,0,4.32,0l13.09-1.946,1.583-3.73-1.479-23.624v-1.537c1.628,4.184,5.4,12.85,9.243,14.271,3.73,1.395,23.6-17.164,23.6-17.164Z" transform="translate(-66.26 -132.531)" fill="#0075f4"/>
        <path id="Path_78269" data-name="Path 78269" d="M107.375,168.39a36.515,36.515,0,0,1,5.7,2.653c4.015,2.141,8.575,4.093,8.575,4.093l-.344,6.448-15.3-7.92" transform="translate(-80.819 -130.896)" fill="#fff"/>
        <path id="Path_78270" data-name="Path 78270" d="M133.11,173.7l-2.99,3.3,2.7,4.807,1.563-4.138" transform="translate(-89.293 -132.762)" fill="#fff"/>
        <g id="Group_59720" data-name="Group 59720" transform="translate(26.621 43.727)" opacity="0.3">
          <path id="Path_78271" data-name="Path 78271" d="M122.484,179.226c.13.1.96,7.972.96,7.972L108.22,178l13.862,6.96Z" transform="translate(-108.22 -178)"/>
        </g>
        <path id="Path_78272" data-name="Path 78272" d="M130.031,213.424c-.227-6.026.72-21.406.72-21.406l1.985-.318a224.713,224.713,0,0,1,5.092,33.276c.558,7.408.558,15.983.558,15.983l-3.989,8.556-4.4-8.53S130.31,220.741,130.031,213.424Z" transform="translate(-89.249 -139.086)" fill="#0075f4"/>
        <path id="Path_78273" data-name="Path 78273" d="M85.76,186.269s.415.37,1.031,1a12.442,12.442,0,0,1,3.243,6.007c.188.863.234,1.414.272,1.408a1.49,1.49,0,0,0,0-.389,7.6,7.6,0,0,0-.123-1.051,11.216,11.216,0,0,0-3.243-6.078,9.575,9.575,0,0,0-.8-.688A1.372,1.372,0,0,0,85.76,186.269Z" transform="translate(-73.708 -137.177)" fill="#263238"/>
        <path id="Path_78274" data-name="Path 78274" d="M152.654,200.19c-.058,0-.1,7.862-.1,17.553s.045,17.553.1,17.553.1-7.855.1-17.553S152.712,200.19,152.654,200.19Z" transform="translate(-97.174 -142.069)" fill="#263238"/>
        <path id="Path_78275" data-name="Path 78275" d="M129.9,178.71s.292.506.778,1.3a34.573,34.573,0,0,1,1.725,3.243l.143.311.1.208.1-.208a26.3,26.3,0,0,0,1.3-3.243c.13-.415.221-.759.279-.992a1.432,1.432,0,0,0,.071-.376,13.669,13.669,0,0,0-.493,1.3,33.319,33.319,0,0,1-1.3,3.172h.195l-.149-.318a26.523,26.523,0,0,0-1.79-3.243c-.259-.4-.48-.707-.649-.921a1.7,1.7,0,0,0-.3-.227Z" transform="translate(-89.216 -134.522)" fill="#263238"/>
        <path id="Path_78276" data-name="Path 78276" d="M106,176.52a1.336,1.336,0,0,0,.208.13l.649.318,2.27,1.174c1.946,1,4.541,2.413,7.44,3.97,1.771.941,3.444,1.816,4.9,2.543l.13.065v-.149c0-1.888.039-3.483.045-4.631v-1.3a4.306,4.306,0,0,0,0-.461,2.177,2.177,0,0,0-.039.461,12.651,12.651,0,0,1-.052,1.3c0,1.148-.071,2.744-.117,4.631l.136-.084c-1.453-.739-3.12-1.622-4.891-2.595-2.9-1.55-5.54-2.951-7.466-3.892-.967-.486-1.758-.863-2.3-1.116l-.649-.285a1,1,0,0,0-.266-.078Z" transform="translate(-80.819 -133.753)" fill="#263238"/>
        <path id="Path_78277" data-name="Path 78277" d="M149.88,184.18s.208.422.519,1.109a12.747,12.747,0,0,1,.869,2.8,12.413,12.413,0,0,1,.182,2.925,12.1,12.1,0,0,0-.084,1.226,1.1,1.1,0,0,0,.091-.318,6.652,6.652,0,0,0,.143-.9,10.619,10.619,0,0,0-1.07-5.838,7.137,7.137,0,0,0-.448-.785C149.958,184.264,149.893,184.173,149.88,184.18Z" transform="translate(-96.236 -136.444)" fill="#263238"/>
        <path id="Path_78278" data-name="Path 78278" d="M78.349,186.91s-4.709,3.392-5.3,5.267-3.094,32.31-3.535,35.929-.882,10.379,1.946,12.6S80.3,244.57,80.3,244.57l5.572-11.514-2.951-6.182,2.951-23.118Z" transform="translate(-67.886 -137.403)" fill="#0075f4"/>
        <path id="Path_78279" data-name="Path 78279" d="M84.18,252.814a1.055,1.055,0,0,1,.3,0,7,7,0,0,0,.863-.052,6.486,6.486,0,0,0,3.016-1.1,8.232,8.232,0,0,0,2.874-3.931,18.066,18.066,0,0,0,1.09-6.195v.078L88,235.631v-.1a4.36,4.36,0,0,1,.065-.487c.83-6.487,1.583-12.325,2.134-16.632.272-2.108.493-3.821.649-5.04.071-.571.136-1.031.175-1.369a3,3,0,0,1,.071-.48.376.376,0,0,1,0,.123v.363c0,.337-.078.8-.13,1.375-.117,1.194-.311,2.919-.558,5.053-.5,4.262-1.219,10.145-2.05,16.638a3.678,3.678,0,0,1-.065.487v-.1l4.314,6v.078a18.027,18.027,0,0,1-1.148,6.286,8.329,8.329,0,0,1-3,3.989,5.838,5.838,0,0,1-1.719.8l-.383.1-.363.065a5.117,5.117,0,0,1-.649.078,4.945,4.945,0,0,1-.876,0Z" transform="translate(-73.153 -146.049)" fill="#263238"/>
        <path id="Path_78280" data-name="Path 78280" d="M75.41,250.531a4.846,4.846,0,0,1,1.239-.882,11.475,11.475,0,0,1,7.135-1.382,5.253,5.253,0,0,1,1.479.35,17.11,17.11,0,0,0-5.086.058A16.9,16.9,0,0,0,75.41,250.531Z" transform="translate(-70.071 -158.925)" fill="#263238"/>
        <path id="Path_78295" data-name="Path 78295" d="M131.55,271.943a3.062,3.062,0,1,1,2.964-3.814h0a3.062,3.062,0,0,1-2.964,3.814Zm0-6.085a2.943,2.943,0,0,0-.746.091,3.029,3.029,0,1,0,3.678,2.186h0A3.029,3.029,0,0,0,131.55,265.859Z" transform="translate(-88.718 -165.127)" fill="#fff"/>
        <path id="Path_78298" data-name="Path 78298" d="M89.135,258.21l5.916,4.709-4.346,7.732L82,267.505S82.259,258.372,89.135,258.21Z" transform="translate(-72.387 -162.453)" fill="#ffbe9d"/>
        <g id="Group_59892" data-name="Group 59892" transform="translate(19.453 84.118) rotate(-17)">
          <g id="Group_59872" data-name="Group 59872" transform="translate(0 0)">
            <g id="Group_59871" data-name="Group 59871" transform="translate(0 0)">
              <path id="Path_78452" data-name="Path 78452" d="M18.492,1.01,5.212,7.682a9.453,9.453,0,0,0-4.558,11.9l6.4,16.335a9.467,9.467,0,0,0,11.435,5.64l14.282-4.118A9.454,9.454,0,0,0,38.96,24.9L31.554,6.013A9.467,9.467,0,0,0,18.492,1.01ZM16.3,29.063a5.758,5.758,0,1,1,3.259-7.46A5.763,5.763,0,0,1,16.3,29.063Z" transform="translate(0.001 8.476)" fill="#5971a3"/>
              <path id="Path_78453" data-name="Path 78453" d="M18.492,1.01,5.212,7.682a9.453,9.453,0,0,0-4.558,11.9l6.4,16.335a9.467,9.467,0,0,0,11.435,5.64l14.282-4.118A9.454,9.454,0,0,0,38.96,24.9L31.554,6.013A9.467,9.467,0,0,0,18.492,1.01ZM16.3,29.063a5.758,5.758,0,1,1,3.259-7.46A5.763,5.763,0,0,1,16.3,29.063Z" transform="translate(0.001 8.476)" fill="#5971a3"/>
              <path id="Path_78454" data-name="Path 78454" d="M38.963,24.905,31.553,6.018A9.461,9.461,0,0,0,18.5,1.01L14.638,2.949l-2.592,1.3L5.217,7.683a9.458,9.458,0,0,0-4.564,11.9l6.4,16.335A9.475,9.475,0,0,0,18.5,41.56l14.285-4.119a9.413,9.413,0,0,0,3.127-1.58A9.2,9.2,0,0,0,37.742,34,9.437,9.437,0,0,0,38.963,24.905ZM16.3,29.064A5.756,5.756,0,1,1,19.56,21.6,5.758,5.758,0,0,1,16.3,29.064Z" transform="translate(0 8.474)" fill="#fff" opacity="0.1"/>
              <path id="Path_78455" data-name="Path 78455" d="M17.344.948,4.889,7.2A8.866,8.866,0,0,0,.614,18.366l6.007,15.32a8.88,8.88,0,0,0,10.725,5.29l13.394-3.863a8.867,8.867,0,0,0,5.8-11.758L29.594,5.64A8.879,8.879,0,0,0,17.344.948ZM7.547,24.5a5.758,5.758,0,1,1,7.464,3.262A5.753,5.753,0,0,1,7.547,24.5Z" transform="translate(1.287 9.781)" fill="#5971a3"/>
              <path id="Path_78456" data-name="Path 78456" d="M17.344.948,4.889,7.2A8.866,8.866,0,0,0,.614,18.366l6.007,15.32a8.88,8.88,0,0,0,10.725,5.29l13.394-3.863a8.867,8.867,0,0,0,5.8-11.758L29.594,5.64A8.879,8.879,0,0,0,17.344.948ZM7.547,24.5a5.758,5.758,0,1,1,7.464,3.262A5.753,5.753,0,0,1,7.547,24.5Z" transform="translate(1.287 9.781)" fill="#5971a3" opacity="0.1"/>
              <g id="Group_59869" data-name="Group 59869" transform="translate(32.621 0)">
                <path id="Path_78457" data-name="Path 78457" d="M47.9,4.821l-.381.7-.211.386L46.7,7l.252,2.811a.87.87,0,0,1-.553.892l-5.25,2.055a.882.882,0,0,1-.944-.2L37.243,9.538l-.008-.008-4.22,1.652.612,1.56-4.22,1.652,1.007,2.568-3.108,1.216a.935.935,0,0,1-.771-.04.95.95,0,0,1-.215-.151L24.529,16.3l-4.22,1.653,1.008,2.568-4.438,1.737,1.012,2.579a.82.82,0,0,1-.464,1.062L5.273,30.657,0,17.209,43.96,0l.687.353L46.876,1.5A2.427,2.427,0,0,1,47.9,4.821Z" transform="translate(0 0)" fill="#5971a3"/>
              </g>
              <g id="Group_59870" data-name="Group 59870" transform="translate(32.621 0)" opacity="0.1">
                <path id="Path_78458" data-name="Path 78458" d="M47.9,4.821l-.381.7-.211.386L46.7,7l.252,2.811a.87.87,0,0,1-.553.892l-5.25,2.055a.882.882,0,0,1-.944-.2L37.243,9.538l-.008-.008-4.22,1.652.612,1.56-4.22,1.652,1.007,2.568-3.108,1.216a.935.935,0,0,1-.771-.04.95.95,0,0,1-.215-.151L24.529,16.3l-4.22,1.653,1.008,2.568-4.438,1.737,1.012,2.579a.82.82,0,0,1-.464,1.062L5.273,30.657,0,17.209,43.96,0l.687.353L46.876,1.5A2.427,2.427,0,0,1,47.9,4.821Z" transform="translate(0 0)" fill="#fff"/>
              </g>
            </g>
            <path id="Path_78459" data-name="Path 78459" d="M48.369,2.6l-47,18.4L0,17.541,44.812,0,47.04,1.144C47.889,1.579,48.377,1.984,48.369,2.6Z" transform="translate(31.977 0.695)" fill="#5971a3"/>
            <path id="Path_78460" data-name="Path 78460" d="M48.369,2.6l-47,18.4L0,17.541,44.812,0,47.04,1.144C47.889,1.579,48.377,1.984,48.369,2.6Z" transform="translate(31.977 0.695)" opacity="0.1"/>
            <path id="Path_78461" data-name="Path 78461" d="M45.678,1.425l-.454,1.021a.1.1,0,0,0-.009.054l.254,2.782a.87.87,0,0,1-.023.3.107.107,0,0,1-.064.071L39.675,7.9a.1.1,0,0,1-.094-.007.831.831,0,0,1-.154-.124l-3.265-3.28a.108.108,0,0,0-.116-.025L31.413,6.284a.107.107,0,0,0-.06.139l.551,1.4a.106.106,0,0,1-.06.139L27.892,9.515a.107.107,0,0,0-.06.139l.952,2.414a.107.107,0,0,1-.06.139l-2.9,1.141a.1.1,0,0,1-.091-.005.94.94,0,0,1-.171-.127l-2.119-1.953a.109.109,0,0,0-.112-.021l-4.6,1.812a.108.108,0,0,0-.06.139l.975,2.473a.107.107,0,0,1-.06.139L1.911,22.759a.107.107,0,0,1-.139-.06L.008,18.273a.108.108,0,0,1,.06-.139L46.121.008a.107.107,0,0,1,.137.143Z" transform="translate(33.739 4.457)" fill="#5971a3"/>
            <path id="Path_78462" data-name="Path 78462" d="M45.678,1.425l-.454,1.021a.1.1,0,0,0-.009.054l.254,2.782a.87.87,0,0,1-.023.3.107.107,0,0,1-.064.071L39.675,7.9a.1.1,0,0,1-.094-.007.831.831,0,0,1-.154-.124l-3.265-3.28a.108.108,0,0,0-.116-.025L31.413,6.284a.107.107,0,0,0-.06.139l.551,1.4a.106.106,0,0,1-.06.139L27.892,9.515a.107.107,0,0,0-.06.139l.952,2.414a.107.107,0,0,1-.06.139l-2.9,1.141a.1.1,0,0,1-.091-.005.94.94,0,0,1-.171-.127l-2.119-1.953a.109.109,0,0,0-.112-.021l-4.6,1.812a.108.108,0,0,0-.06.139l.975,2.473a.107.107,0,0,1-.06.139L1.911,22.759a.107.107,0,0,1-.139-.06L.008,18.273a.108.108,0,0,1,.06-.139L46.121.008a.107.107,0,0,1,.137.143Z" transform="translate(33.739 4.457)" opacity="0.1"/>
            <line id="Line_477" data-name="Line 477" x1="17.673" y2="6.955" transform="translate(35.649 20.261)" fill="#407bff" opacity="0.1"/>
          </g>
          <path id="Path_78463" data-name="Path 78463" d="M4.59.5A7.223,7.223,0,1,0,13.952,4.59,7.218,7.218,0,0,0,4.59.5ZM9.145,12.656A5.758,5.758,0,1,1,12.4,5.2,5.763,5.763,0,0,1,9.145,12.656Z" transform="translate(7.154 24.882)" fill="#fff" opacity="0.3"/>
        </g>
        <path id="Path_78299" data-name="Path 78299" d="M203.047,220.414s.3-2.063,4.644-1.362c2.724.441,1.3,2.205,1.3,2.205a1.661,1.661,0,0,1-.292,2.718l.285.214s2.167,1.083.3,3.016a1.946,1.946,0,0,1-.253,2.186c-.934.934-3.243-.311-3.243-.311s-3.308-.058-3.5-.928a1.2,1.2,0,0,1,.649-1.349,18.018,18.018,0,0,1,2.309-.279s-2.887-.032-3.153-.6c-.467-1.005-.344-2.037,3.153-1.914h0s-2.595-.052-2.9-.6.071-1.382,1.005-1.816a3.807,3.807,0,0,1,1.771-.37S202.671,221.724,203.047,220.414Z" transform="translate(-117.755 -148.216)" fill="#ffbe9d"/>
        <path id="Path_78297" data-name="Path 78297" d="M99.726,264.5a7.778,7.778,0,0,1,3.289-1.524c1.4-.065,3.243.486,3.594.3s1.213-.979,1.764-.3,1.213,3.107-1.706,3.775h-2.011a9.851,9.851,0,0,0,.733,2.8c.486.791,7.3,9.38,7.3,9.38s.856.85.428,1.706-2.251.363-2.251.363a2.926,2.926,0,0,1-2.744.61,10.6,10.6,0,0,1-2.069-.973,2.711,2.711,0,0,1-3.289,0c-1.706-1.3-7.388-8.433-7.388-8.433l2.03-7.972Z" transform="translate(-77.088 -164.034)" fill="#ffbe9d"/>
      </g>
    </g>
  </g>
</svg>
