<svg id="switch-user" xmlns="http://www.w3.org/2000/svg" width="32" height="32" viewBox="0 0 32 32">
  <rect id="Rectangle_14687" data-name="Rectangle 14687" width="32" height="32" rx="4" fill="#5d718d" opacity="0"/>
  <path id="icons8_change_user_2" d="M13.963,2a12.045,12.045,0,1,0,9.047,4.187L26,3.2H18.748v7.252l2.579-2.579a9.56,9.56,0,1,1-7.365-3.477Zm0,4.785a3.589,3.589,0,1,0,3.589,3.589A3.59,3.59,0,0,0,13.963,6.785Zm0,9.57a8.031,8.031,0,0,0-6.093,2.43,7.763,7.763,0,0,0,12.187,0A8.031,8.031,0,0,0,13.963,16.355Z" transform="translate(2 2)" fill="#5d718d"/>
</svg>
