<svg xmlns="http://www.w3.org/2000/svg" width="24" height="24" viewBox="0 0 24 24">
  <g id="tickets" transform="translate(4382)">
    <rect id="Rectangle_16412" data-name="Rectangle 16412" width="24" height="24" rx="4" transform="translate(-4382)" fill="#5d718d" opacity="0"/>
    <path id="icons8_Online_Ticket" d="M3.455,2A1.45,1.45,0,0,0,2,3.455V6.364A1.455,1.455,0,0,1,2,9.273v2.909a1.454,1.454,0,0,0,1.455,1.455H8.545v-.727a2.66,2.66,0,0,1,.1-.727H3.455V10.335a2.905,2.905,0,0,0,0-5.034V3.455H15.091V5.3a2.911,2.911,0,0,0-1.455,2.517,2.867,2.867,0,0,0,1,2.182h1.186a2.66,2.66,0,0,1,.727.1V9.273a1.455,1.455,0,0,1,0-2.909V3.455A1.454,1.454,0,0,0,15.091,2Zm8,9.455A1.465,1.465,0,0,0,10,12.909v2.909a1.377,1.377,0,0,0,.3.727H9.273V18H18V16.545H16.969a1.377,1.377,0,0,0,.3-.727V12.909a1.465,1.465,0,0,0-1.455-1.455Zm0,1.455h4.364v2.909H11.455Z" transform="translate(-4380 2)" fill="#5d718d"/>
  </g>
</svg>
