<svg xmlns="http://www.w3.org/2000/svg" width="31.998" height="32" viewBox="0 0 31.998 32">
  <path id="tickets" d="M6.909,4A2.908,2.908,0,0,0,4,6.909v16a2.908,2.908,0,0,0,2.909,2.909h26.18A2.908,2.908,0,0,0,36,22.908v-16A2.908,2.908,0,0,0,33.089,4Zm4.363,5.818H28.726a1.454,1.454,0,0,1,0,2.909H11.272a1.454,1.454,0,1,1,0-2.909Zm0,7.272H28.726a1.454,1.454,0,0,1,0,2.909H11.272a1.454,1.454,0,0,1,0-2.909ZM9.034,28.726l19.371,7.1a2.91,2.91,0,0,0,3.733-1.73L34.1,28.726Z" transform="translate(-4 -4)" fill="#5d718d"/>
</svg>
