<svg xmlns="http://www.w3.org/2000/svg" width="304.185" height="171.976" viewBox="0 0 304.185 171.976">
  <g id="undraw_reviewed_docs_re_9lmr" transform="translate(0 -88.878)">
    <path id="Path_336" data-name="Path 336" d="M473.5,424.649a4.021,4.021,0,0,0-3.677-2.46H396.44a3.98,3.98,0,0,0-3.978,3.978v92.841a3.98,3.98,0,0,0,3.978,3.978h73.389a3.983,3.983,0,0,0,3.978-3.978V426.167a3.905,3.905,0,0,0-.3-1.518Zm-.582,94.359a3.1,3.1,0,0,1-3.095,3.095H396.44a3.1,3.1,0,0,1-3.095-3.094V426.168a3.1,3.1,0,0,1,3.095-3.095h73.389a3.11,3.11,0,0,1,2.873,1.947,3.477,3.477,0,0,1,.116.349,3.068,3.068,0,0,1,.106.8Z" transform="translate(-281.125 -262.949)" fill="#3f3d56" stroke="#274268" stroke-width="1"/>
    <path id="Path_337" data-name="Path 337" d="M495.452,460.475h-22.1a1.768,1.768,0,0,1,0-3.537h22.1a1.768,1.768,0,0,1,0,3.537Z" transform="translate(-318.388 -279.315)" fill="#0075f4"/>
    <path id="Path_338" data-name="Path 338" d="M495.452,478.025h-22.1a1.768,1.768,0,0,1,0-3.537h22.1a1.768,1.768,0,0,1,0,3.537Z" transform="translate(-318.388 -287.581)" fill="#0075f4"/>
    <path id="Path_339" data-name="Path 339" d="M437.327,470.651H421.173a1.992,1.992,0,0,1-1.99-1.99V449.6a1.992,1.992,0,0,1,1.99-1.99h16.154a1.991,1.991,0,0,1,1.99,1.989v19.063a1.991,1.991,0,0,1-1.99,1.99Z" transform="translate(-293.71 -274.921)" fill="#3f97f6"/>
    <path id="Path_340" data-name="Path 340" d="M470.364,513.961H420.407a1.768,1.768,0,0,1,0-3.537h49.957a1.769,1.769,0,0,1,0,3.537Z" transform="translate(-293.454 -304.507)" fill="#ccc"/>
    <path id="Path_341" data-name="Path 341" d="M470.364,531.511H420.407a1.768,1.768,0,1,1,0-3.537h49.957a1.768,1.768,0,1,1,0,3.537Z" transform="translate(-293.454 -312.773)" fill="#ccc"/>
    <path id="Path_342" data-name="Path 342" d="M470.364,549.061H420.407a1.768,1.768,0,1,1,0-3.537h49.957a1.768,1.768,0,1,1,0,3.537Z" transform="translate(-293.454 -321.039)" fill="#ccc"/>
    <path id="Path_343" data-name="Path 343" d="M470.364,566.611H420.407a1.768,1.768,0,1,1,0-3.537h49.957a1.768,1.768,0,0,1,0,3.537Z" transform="translate(-293.454 -329.305)" fill="#ccc"/>
    <path id="Path_344" data-name="Path 344" d="M470.364,584.161H420.407a1.768,1.768,0,1,1,0-3.537h49.957a1.768,1.768,0,1,1,0,3.537Z" transform="translate(-293.454 -337.571)" fill="#ccc"/>
    <circle id="Ellipse_44" data-name="Ellipse 44" cx="17.067" cy="17.067" r="17.067" transform="translate(136.185 102.738)" fill="#3f97f6"/>
    <path id="Path_395" data-name="Path 395" d="M463.339,348.392a1.77,1.77,0,0,1-1.065-.354l-.019-.014-4.011-3.068a1.782,1.782,0,1,1,2.169-2.829l2.6,1.992,6.139-8.009a1.782,1.782,0,0,1,2.5-.33h0l-.038.053.039-.053a1.784,1.784,0,0,1,.33,2.5l-7.221,9.416a1.783,1.783,0,0,1-1.418.7Z" transform="translate(-311.779 -222.077)" fill="#fff"/>
    <circle id="Ellipse_46" data-name="Ellipse 46" cx="11.565" cy="11.565" r="11.565" transform="translate(29.325 88.878)" fill="#ccc"/>
    <path id="Path_408" data-name="Path 408" d="M253.632,311.55a1.2,1.2,0,0,1-.721-.24l-.013-.01-2.718-2.081a1.208,1.208,0,1,1,1.469-1.917l1.76,1.35,4.16-5.426a1.207,1.207,0,0,1,1.693-.223h0l-.026.035.026-.034a1.209,1.209,0,0,1,.223,1.693l-4.893,6.382a1.208,1.208,0,0,1-.961.471Z" transform="translate(-213.888 -206.696)" fill="#fff"/>
    <path id="Path_410" data-name="Path 410" d="M263.953,360.579a3.164,3.164,0,0,0-2.893-1.936H203.313a3.132,3.132,0,0,0-3.13,3.13v73.052a3.132,3.132,0,0,0,3.13,3.13H261.06a3.134,3.134,0,0,0,3.13-3.13V361.773A3.073,3.073,0,0,0,263.953,360.579Zm-.458,74.247a2.438,2.438,0,0,1-2.433,2.434H203.313a2.433,2.433,0,0,1-2.433-2.434h0V361.773a2.438,2.438,0,0,1,2.433-2.433H261.06a2.447,2.447,0,0,1,2.26,1.534,2.726,2.726,0,0,1,.092.275,2.411,2.411,0,0,1,.084.628Z" transform="translate(-190.563 -233.019)" fill="#ccc"/>
    <path id="Path_411" data-name="Path 411" d="M281.221,388.769H263.827a1.392,1.392,0,0,1,0-2.783H281.22a1.392,1.392,0,1,1,0,2.783Z" transform="translate(-219.883 -245.897)" fill="#ccc"/>
    <path id="Path_412" data-name="Path 412" d="M281.221,402.579H263.827a1.392,1.392,0,0,1,0-2.783H281.22a1.392,1.392,0,1,1,0,2.783Z" transform="translate(-219.883 -252.402)" fill="#ccc"/>
    <path id="Path_413" data-name="Path 413" d="M235.484,396.778H222.773a1.567,1.567,0,0,1-1.565-1.565v-15a1.567,1.567,0,0,1,1.565-1.565h12.711a1.568,1.568,0,0,1,1.565,1.565v15A1.567,1.567,0,0,1,235.484,396.778Z" transform="translate(-200.465 -242.441)" fill="#ccc"/>
    <path id="Path_414" data-name="Path 414" d="M261.48,430.855H222.171a1.392,1.392,0,0,1,0-2.783H261.48a1.392,1.392,0,1,1,0,2.783Z" transform="translate(-200.264 -265.72)" fill="#ccc"/>
    <path id="Path_415" data-name="Path 415" d="M261.48,444.669H222.171a1.392,1.392,0,0,1,0-2.783H261.48a1.392,1.392,0,1,1,0,2.783Z" transform="translate(-200.264 -272.226)" fill="#ccc"/>
    <path id="Path_416" data-name="Path 416" d="M261.48,458.474H222.171a1.392,1.392,0,1,1,0-2.783H261.48a1.392,1.392,0,1,1,0,2.783Z" transform="translate(-200.264 -278.728)" fill="#ccc"/>
    <path id="Path_417" data-name="Path 417" d="M261.48,472.287H222.171a1.392,1.392,0,0,1,0-2.783H261.48a1.392,1.392,0,1,1,0,2.783Z" transform="translate(-200.264 -285.234)" fill="#ccc"/>
    <path id="Path_418" data-name="Path 418" d="M261.48,486.093H222.171a1.392,1.392,0,1,1,0-2.783H261.48a1.392,1.392,0,1,1,0,2.783Z" transform="translate(-200.264 -291.736)" fill="#ccc"/>
    <path id="Path_419" data-name="Path 419" d="M182.416,508.406h81.168a.416.416,0,0,0,0-.833H182.416a.416.416,0,1,0,0,.833Z" transform="translate(-181.998 -303.164)" fill="#ccc"/>
    <circle id="Ellipse_46-2" data-name="Ellipse 46" cx="11.565" cy="11.565" r="11.565" transform="translate(251.507 88.878)" fill="#ccc"/>
    <path id="Path_408-2" data-name="Path 408" d="M673.632,311.55a1.2,1.2,0,0,1-.722-.24l-.013-.01-2.718-2.081a1.208,1.208,0,1,1,1.469-1.917l1.76,1.35,4.16-5.426a1.207,1.207,0,0,1,1.692-.223h0l-.026.035.026-.034a1.208,1.208,0,0,1,.223,1.693l-4.893,6.382a1.208,1.208,0,0,1-.961.471Z" transform="translate(-411.705 -206.696)" fill="#fff"/>
    <path id="Path_410-2" data-name="Path 410" d="M683.953,360.579a3.164,3.164,0,0,0-2.892-1.936H623.313a3.132,3.132,0,0,0-3.13,3.13v73.052a3.132,3.132,0,0,0,3.13,3.13H681.06a3.135,3.135,0,0,0,3.13-3.13V361.773A3.074,3.074,0,0,0,683.953,360.579Zm-.458,74.247a2.438,2.438,0,0,1-2.434,2.434H623.313a2.433,2.433,0,0,1-2.433-2.434h0V361.773a2.438,2.438,0,0,1,2.433-2.433H681.06a2.447,2.447,0,0,1,2.26,1.534,2.673,2.673,0,0,1,.091.275,2.407,2.407,0,0,1,.084.628Z" transform="translate(-388.38 -233.019)" fill="#ccc"/>
    <path id="Path_411-2" data-name="Path 411" d="M701.221,388.769H683.827a1.392,1.392,0,1,1,0-2.783H701.22a1.392,1.392,0,0,1,0,2.783Z" transform="translate(-417.701 -245.897)" fill="#ccc"/>
    <path id="Path_412-2" data-name="Path 412" d="M701.221,402.579H683.827a1.392,1.392,0,0,1,0-2.783H701.22a1.392,1.392,0,0,1,0,2.783Z" transform="translate(-417.701 -252.402)" fill="#ccc"/>
    <path id="Path_413-2" data-name="Path 413" d="M655.484,396.778H642.773a1.567,1.567,0,0,1-1.565-1.565v-15a1.567,1.567,0,0,1,1.565-1.565h12.711a1.567,1.567,0,0,1,1.565,1.565v15A1.567,1.567,0,0,1,655.484,396.778Z" transform="translate(-398.283 -242.441)" fill="#ccc"/>
    <path id="Path_414-2" data-name="Path 414" d="M681.48,430.855H642.171a1.392,1.392,0,0,1,0-2.783H681.48a1.392,1.392,0,0,1,0,2.783Z" transform="translate(-398.081 -265.72)" fill="#ccc"/>
    <path id="Path_415-2" data-name="Path 415" d="M681.48,444.669H642.171a1.392,1.392,0,0,1,0-2.783H681.48a1.392,1.392,0,0,1,0,2.783Z" transform="translate(-398.081 -272.226)" fill="#ccc"/>
    <path id="Path_416-2" data-name="Path 416" d="M681.48,458.474H642.171a1.392,1.392,0,0,1,0-2.783H681.48a1.392,1.392,0,0,1,0,2.783Z" transform="translate(-398.081 -278.728)" fill="#ccc"/>
    <path id="Path_417-2" data-name="Path 417" d="M681.48,472.287H642.171a1.392,1.392,0,0,1,0-2.783H681.48a1.392,1.392,0,0,1,0,2.783Z" transform="translate(-398.081 -285.234)" fill="#ccc"/>
    <path id="Path_418-2" data-name="Path 418" d="M681.48,486.093H642.171a1.392,1.392,0,0,1,0-2.783H681.48a1.392,1.392,0,0,1,0,2.783Z" transform="translate(-398.081 -291.736)" fill="#ccc"/>
    <path id="Path_419-2" data-name="Path 419" d="M602.416,508.406h81.167a.416.416,0,1,0,0-.833H602.416a.416.416,0,1,0,0,.833Z" transform="translate(-379.815 -303.164)" fill="#ccc"/>
    <path id="Path_420" data-name="Path 420" d="M370.531,612.386H473.687a.529.529,0,0,0,0-1.058H370.531a.529.529,0,0,0,0,1.058Z" transform="translate(-270.547 -352.032)" fill="#3f3d56" stroke="#274268" stroke-width="1"/>
  </g>
</svg>
