<svg xmlns="http://www.w3.org/2000/svg" width="40" height="36" viewBox="0 0 40 36">
  <path id="icons8-user_groups" d="M10,3a4,4,0,1,0,4,4,4,4,0,0,0-4-4ZM34,3a4,4,0,1,0,4,4A4,4,0,0,0,34,3ZM22,11a4,4,0,1,0,4,4A4,4,0,0,0,22,11ZM10,19a4,4,0,1,0,4,4,4,4,0,0,0-4-4Zm24,0a4,4,0,1,0,4,4A4,4,0,0,0,34,19ZM10,31c-2.67,0-8,1.442-8,4.1V37a2,2,0,0,0,2,2H16a2,2,0,0,0,2-2V35.1C18,32.442,12.67,31,10,31Zm24,0c-2.67,0-8,1.442-8,4.1V37a2,2,0,0,0,2,2H40a2,2,0,0,0,2-2V35.1C42,32.442,36.67,31,34,31Z" transform="translate(-2 -3)" fill="#5d718d"/>
</svg>
