<svg xmlns="http://www.w3.org/2000/svg" width="30" height="30" viewBox="0 0 30 30">
  <g id="user" transform="translate(1105)">
    <rect id="Rectangle_16473" data-name="Rectangle 16473" width="30" height="30" rx="4" transform="translate(-1105)" fill="#fff" opacity="0"/>
    <path id="icons8_user" d="M14.363,3.406c-1.974.036-3.235.834-3.777,2.073a6.762,6.762,0,0,0-.026,4.213,1.259,1.259,0,0,0-.3,1.03,2.265,2.265,0,0,0,.409,1.149c.112.142.259.155.4.225a4.539,4.539,0,0,0,.383,1.255,3.853,3.853,0,0,0,.343.568,1.979,1.979,0,0,0,.185.172c0,.522,0,.956-.04,1.506a1.86,1.86,0,0,1-.977.858c-.536.267-1.235.515-1.941.819a6.177,6.177,0,0,0-2.007,1.255,3.663,3.663,0,0,0-1.043,2.43l-.026.449H22.894l-.026-.449a3.671,3.671,0,0,0-1.043-2.43,6.138,6.138,0,0,0-1.994-1.255c-.7-.3-1.393-.551-1.928-.819a1.9,1.9,0,0,1-.977-.845c-.046-.556-.043-.992-.04-1.519a2.238,2.238,0,0,0,.185-.172,4.031,4.031,0,0,0,.33-.568,4.671,4.671,0,0,0,.383-1.255c.132-.069.274-.086.383-.225a2.266,2.266,0,0,0,.409-1.149,1.254,1.254,0,0,0-.291-1,7.947,7.947,0,0,0,.383-2.866A3.33,3.33,0,0,0,18.1,5.136,2.488,2.488,0,0,0,16.542,4.2a2.63,2.63,0,0,0-2.166-.792Zm.013.845h.013c.85,0,1.4.253,1.558.528l.106.172.2.026a1.583,1.583,0,0,1,1.162.647,2.567,2.567,0,0,1,.409,1.294,7.849,7.849,0,0,1-.4,2.747l-.106.33v.172c-.018-.012.505-.09.462.262l-.143.617-.135.31c-.076.1-.116.092-.119.092l-.357.026-.04.343a3.842,3.842,0,0,1-.357,1.162,3.149,3.149,0,0,1-.251.436c-.078.107.462-.414.5-.436l-.845.7v.251a17.771,17.771,0,0,0,.04,1.822v.053l.026.053a2.634,2.634,0,0,0,1.413,1.36c.614.307,1.319.533,1.981.819a5.377,5.377,0,0,1,1.717,1.083,2.74,2.74,0,0,1,.7,1.439h-15a2.734,2.734,0,0,1,.7-1.439,5.424,5.424,0,0,1,1.73-1.083c.665-.286,1.365-.512,1.981-.819a2.654,2.654,0,0,0,1.426-1.36l.026-.106a17.772,17.772,0,0,0,.04-1.822v-.251l-1.03-.618c.038.02.753.461.673.354a3.069,3.069,0,0,1-.264-.436,3.689,3.689,0,0,1-.357-1.162l-.04-.343-.357-.026s-.043,0-.119-.092a1.51,1.51,0,0,1-.224-.726l-.04-.13.158-.332L11.5,10l-.079-.3a6.279,6.279,0,0,1-.053-3.869C11.778,4.88,12.62,4.288,14.376,4.251Z" transform="translate(-1104.438 2.094)" fill="none" stroke="#5d718d" stroke-width="1"/>
  </g>
</svg>
