<svg xmlns="http://www3.org/2000/svg" width="388" height="238.786" viewBox="0 0 388 238.786">
  <g id="verification_code" transform="translate(-21.65 -38.58)">
    <g id="freepik--background-complete--inject-16" transform="translate(45.653 38.58)">
      <rect id="Rectangle_13489" data-name="Rectangle 13489" width="34.109" height="35.556" transform="translate(323.887 57.553)" fill="#e0e0e0"/>
      <rect id="Rectangle_13490" data-name="Rectangle 13490" width="34.109" height="35.556" transform="translate(321.58 57.553)" fill="#ebebeb"/>
      <rect id="Rectangle_13491" data-name="Rectangle 13491" width="24.935" height="25.993" transform="translate(326.162 62.332)" fill="#fafafa"/>
      <path id="Path_49729" data-name="Path 49729" d="M656.845,200.07a5.376,5.376,0,0,1-.625.707c-.4.417-.959.986-1.584,1.6s-1.206,1.173-1.644,1.567a5.142,5.142,0,0,1-.712.608,4.388,4.388,0,0,1,.619-.707c.4-.417.965-.986,1.589-1.606s1.206-1.173,1.644-1.567a4.566,4.566,0,0,1,.712-.6Z" transform="translate(-330.683 -111.57)" fill="#e0e0e0"/>
      <path id="Path_49730" data-name="Path 49730" d="M706.12,200a5.38,5.38,0,0,1,.707.625c.417.4.981.959,1.6,1.589s1.173,1.2,1.562,1.644a4.6,4.6,0,0,1,.608.712,4.459,4.459,0,0,1-.7-.619c-.417-.4-.986-.959-1.606-1.589s-1.173-1.206-1.567-1.644A4.719,4.719,0,0,1,706.12,200Z" transform="translate(-355.018 -111.538)" fill="#e0e0e0"/>
      <path id="Path_49731" data-name="Path 49731" d="M706,148.747a5.17,5.17,0,0,1,.625-.7c.4-.422.959-.986,1.589-1.606s1.2-1.173,1.644-1.562a4.6,4.6,0,0,1,.712-.608,4.455,4.455,0,0,1-.619.7c-.4.417-.959.986-1.589,1.606s-1.206,1.173-1.644,1.567A4.335,4.335,0,0,1,706,148.747Z" transform="translate(-354.964 -86.349)" fill="#e0e0e0"/>
      <path id="Path_49732" data-name="Path 49732" d="M656.793,148.791a4.646,4.646,0,0,1-.707-.625c-.417-.4-.986-.959-1.606-1.589s-1.167-1.2-1.562-1.644a4.318,4.318,0,0,1-.608-.712,4.456,4.456,0,0,1,.7.619c.422.4.986.965,1.606,1.589s1.173,1.206,1.567,1.644a4.862,4.862,0,0,1,.608.718Z" transform="translate(-330.697 -86.327)" fill="#e0e0e0"/>
      <path id="Path_49733" data-name="Path 49733" d="M685.43,178.164v-7.185c0-4.554,0-11.043-.044-18.808l.082.082H660.605l.093-.093v25.993l-.082-.077,18.014.038h.027l-18.085.044h-.082V151.99h25.045v.082c0,7.787-.033,14.3-.044,18.863v7.015A.907.907,0,0,1,685.43,178.164Z" transform="translate(-334.394 -89.839)" fill="#e0e0e0"/>
      <path id="Path_49734" data-name="Path 49734" d="M672.612,172.13s-.548,6.439,6.439,6.439A6.686,6.686,0,0,0,672.612,172.13Z" transform="translate(-339.868 -98.942)" fill="#ebebeb"/>
      <path id="Path_49735" data-name="Path 49735" d="M690.584,172.132s-6.434-.548-6.434,6.439A6.677,6.677,0,0,0,690.584,172.132Z" transform="translate(-345.088 -98.938)" fill="#ebebeb"/>
      <path id="Path_49736" data-name="Path 49736" d="M681.943,165.72s-5.256,4.718.29,9.952A7.328,7.328,0,0,0,681.943,165.72Z" transform="translate(-343.072 -96.044)" fill="#e0e0e0"/>
      <path id="Path_49737" data-name="Path 49737" d="M545.5,44.52v41.4H486.043L483.9,44.81Z" transform="translate(-254.579 -41.265)" fill="#e0e0e0"/>
      <rect id="Rectangle_13492" data-name="Rectangle 13492" width="41.025" height="59.46" transform="translate(229.32 44.571) rotate(-90)" fill="#fff"/>
      <path id="Path_49738" data-name="Path 49738" d="M543.4,86.124H483.38V44.54H543.4Zm-59.46-.548h58.9V45.1h-58.9Z" transform="translate(-254.344 -41.274)" fill="#e0e0e0"/>
      <rect id="Rectangle_13493" data-name="Rectangle 13493" width="46.582" height="30.832" transform="translate(235.76 8.642)" fill="#fff"/>
      <path id="Path_49739" data-name="Path 49739" d="M542.051,54.2h-3.464l-9.6.038-33.533.066.137-.137V84.994h0l-.148-.148h46.582l-.121.121c.027-9.382.049-17.076.066-22.431,0-2.68,0-4.768.027-6.2v-.038c0,1.43,0,3.513.033,6.182,0,5.371.033,13.087.06,22.5v.115h-.115l-46.582.033h-.148v-.148h0V54.02h.137l33.621.066,9.568.033h3.178Z" transform="translate(-259.709 -45.559)" fill="#e0e0e0"/>
      <path id="Path_49740" data-name="Path 49740" d="M483.9,44.84a5.174,5.174,0,0,1,1.019.663c.608.438,1.441,1.063,2.335,1.781s1.682,1.392,2.236,1.9a4.931,4.931,0,0,1,.849.871,40.04,40.04,0,0,1-3.288-2.543A31.4,31.4,0,0,1,483.9,44.84Z" transform="translate(-254.579 -41.409)" fill="#e0e0e0"/>
      <path id="Path_49741" data-name="Path 49741" d="M587.107,45.05a28.447,28.447,0,0,1-3.129,2.663,28.8,28.8,0,0,1-3.288,2.433,29.236,29.236,0,0,1,3.129-2.663,29.05,29.05,0,0,1,3.288-2.433Z" transform="translate(-298.326 -41.504)" fill="#e0e0e0"/>
      <path id="Path_49742" data-name="Path 49742" d="M586.846,115.486l-6.626-5.376" transform="translate(-298.114 -70.91)" fill="#fff"/>
      <path id="Path_49743" data-name="Path 49743" d="M580.22,110.11a32.028,32.028,0,0,1,3.4,2.576,30.52,30.52,0,0,1,3.222,2.8,32.022,32.022,0,0,1-3.4-2.576,29.791,29.791,0,0,1-3.222-2.8Z" transform="translate(-298.114 -70.91)" fill="#e0e0e0"/>
      <path id="Path_49744" data-name="Path 49744" d="M483.9,115.752a28.193,28.193,0,0,1,3.1-2.636,28.014,28.014,0,0,1,3.288-2.406,28.192,28.192,0,0,1-3.1,2.636A28.817,28.817,0,0,1,483.9,115.752Z" transform="translate(-254.579 -71.181)" fill="#e0e0e0"/>
      <rect id="Rectangle_13494" data-name="Rectangle 13494" width="10.325" height="29.308" transform="translate(245.219 28.574) rotate(-90)" fill="#e0e0e0"/>
      <path id="Path_49745" data-name="Path 49745" d="M107.028,45.326,88.362,38.58,69.878,45.238c-2.356,1.1-4.428,1.792-4.428,4.006V60.26a41.842,41.842,0,0,0,6.089,21.921A37.978,37.978,0,0,0,88.527,97.3c7.557-2.472,13.2-9.059,16.643-14.692a41.825,41.825,0,0,0,6.089-21.921v-9.9C111.275,47.628,109.593,46.088,107.028,45.326Z" transform="translate(-65.449 -38.58)" fill="#f5f5f5"/>
      <path id="Path_49746" data-name="Path 49746" d="M88.543,90.916A30.207,30.207,0,0,1,75.089,78.86a33.079,33.079,0,0,1-4.817-17.345V53.777a4.9,4.9,0,0,1,3.135-4.384l14.961-5.634V38.58l-18.49,6.658c-1.935.849-4.428,1.792-4.428,3.984V60.238a41.842,41.842,0,0,0,6.089,21.921,37.978,37.978,0,0,0,16.989,15.12Z" transform="translate(-65.449 -38.58)" fill="#ebebeb"/>
      <path id="Path_49747" data-name="Path 49747" d="M107.441,97.312a22.278,22.278,0,0,0,3.666-1.584,32.914,32.914,0,0,0,7.76-6.143,41.749,41.749,0,0,0,5.4-7.305,40.274,40.274,0,0,0,5.908-22.14v-9.1c0-4.527-2.318-4.861-4.258-5.716L107.26,38.58v5.2L122.4,49.5a4.877,4.877,0,0,1,3.129,4.384v7.727a33.084,33.084,0,0,1-4.817,17.35,29.588,29.588,0,0,1-13.273,11.969Z" transform="translate(-84.347 -38.58)" fill="#e0e0e0"/>
      <path id="Path_49748" data-name="Path 49748" d="M106.4,74.29V72.8a4.845,4.845,0,0,0-9.689,0v1.518a2.74,2.74,0,0,0-2.313,2.7v8.768a2.74,2.74,0,0,0,2.74,2.74h9.042a2.74,2.74,0,0,0,2.74-2.74V77.019A2.74,2.74,0,0,0,106.4,74.29Zm-3.535,9.316H100.5l.373-1.721a1.436,1.436,0,1,1,1.562,0Zm2.488-9.316h-7.6V72.815a3.8,3.8,0,1,1,7.607,0Z" transform="translate(-78.534 -51.859)" fill="#e0e0e0"/>
      <path id="Path_49749" data-name="Path 49749" d="M79.409,71.149a5.765,5.765,0,0,1-.279-1.523,25.8,25.8,0,0,1-.142-3.743,19.581,19.581,0,0,1,.137-2.055,4.483,4.483,0,0,1,.416-1.644,1.924,1.924,0,0,1,.817-.828c.252-.115.411-.11.411-.093a2.159,2.159,0,0,0-1.025,1.025,4.708,4.708,0,0,0-.323,1.589c-.049.625-.088,1.315-.1,2.039-.044,1.447,0,2.74.055,3.71A9.2,9.2,0,0,1,79.409,71.149Z" transform="translate(-71.561 -48.828)" fill="#fff"/>
      <path id="Path_49750" data-name="Path 49750" d="M80.12,86.4c-.093,0-.17-.455-.181-1.014s.049-1.014.142-1.014.17.449.181,1.008S80.207,86.392,80.12,86.4Z" transform="translate(-71.998 -59.276)" fill="#fff"/>
      <path id="Path_49751" data-name="Path 49751" d="M628.093,372.352a18.688,18.688,0,0,0-8.012-2.74,5.382,5.382,0,0,0-3.792.7.784.784,0,0,0-.389.7.86.86,0,0,0,.367.471,11.47,11.47,0,0,0,11.826.9" transform="translate(-314.24 -188.173)" fill="#e0e0e0"/>
      <path id="Path_49752" data-name="Path 49752" d="M630.735,363.89a38.62,38.62,0,0,1-5.173-4.554,13.092,13.092,0,0,1-3.244-5.99,2.406,2.406,0,0,1,.258-2.006c4.121,3.222,7.365,7.387,8.16,12.561" transform="translate(-317.091 -179.94)" fill="#e0e0e0"/>
      <path id="Path_49753" data-name="Path 49753" d="M637.851,364.372a18.635,18.635,0,0,1,.1-6.8,9.158,9.158,0,0,1,3.617-5.606,8.048,8.048,0,0,1-.093,5.327,25.966,25.966,0,0,1-3.589,7.557" transform="translate(-324.042 -180.225)" fill="#e0e0e0"/>
      <path id="Path_49754" data-name="Path 49754" d="M637.12,387.82a11.876,11.876,0,0,0-6.428,3.255,12.155,12.155,0,0,0-3.672,6.308c2.406-.148,4.45-1.847,5.93-3.748s2.51-4,4.138-5.776" transform="translate(-319.267 -196.429)" fill="#e0e0e0"/>
      <path id="Path_49755" data-name="Path 49755" d="M646.145,377.574a15.893,15.893,0,0,1,1.83-14.994,19.06,19.06,0,0,1-1.83,14.994" transform="translate(-327.415 -185.021)" fill="#e0e0e0"/>
      <path id="Path_49756" data-name="Path 49756" d="M647.629,401.532a11.47,11.47,0,0,0-10.96,6.308.849.849,0,0,0-.077.86.827.827,0,0,0,.734.2,9.542,9.542,0,0,0,5.65-2.921,53.921,53.921,0,0,1,4.7-4.466" transform="translate(-323.555 -202.616)" fill="#e0e0e0"/>
      <path id="Path_49757" data-name="Path 49757" d="M655.736,388.4a20.485,20.485,0,0,1-.2-11.4,5.609,5.609,0,0,1,2.433-3.7.482.482,0,0,1,.373-.066.488.488,0,0,1,.236.274,6.873,6.873,0,0,1,.575,3.288,20.65,20.65,0,0,1-.515,3.316c-.427,2.022-.652,4.2-1.765,5.941a13.092,13.092,0,0,0-.707,1.31c-.208.438-.208.6-.4.948" transform="translate(-331.832 -189.828)" fill="#e0e0e0"/>
      <path id="Path_49758" data-name="Path 49758" d="M681.977,394.4a14.688,14.688,0,0,1,2.581-12.084c.181-.241.427-.5.729-.471.466.044.581.658.548,1.1a21.8,21.8,0,0,1-3.875,11.432" transform="translate(-343.928 -193.729)" fill="#e0e0e0"/>
      <path id="Path_49759" data-name="Path 49759" d="M684.63,402.905a17.581,17.581,0,0,0,14.451-2.932,11.668,11.668,0,0,0-7.809-.959,11.152,11.152,0,0,0-6.62,3.891" transform="translate(-345.305 -201.359)" fill="#e0e0e0"/>
      <path id="Path_49760" data-name="Path 49760" d="M686.59,395.264a16.679,16.679,0,0,1,13.1-7.574,8.047,8.047,0,0,1-4.286,4.735,23.85,23.85,0,0,1-6.286,1.841,4.414,4.414,0,0,0-2.526,1" transform="translate(-346.191 -196.37)" fill="#e0e0e0"/>
      <path id="Path_49761" data-name="Path 49761" d="M681.246,365.417a38.137,38.137,0,0,0,1.671-7.672,12.753,12.753,0,0,0-1.529-7.585,16.7,16.7,0,0,0-.219,15.52" transform="translate(-342.924 -179.407)" fill="#e0e0e0"/>
      <path id="Path_49762" data-name="Path 49762" d="M698.36,361.652c2.965-5.387,9.009-9.689,15.125-10.292-2.362,5.88-8.8,10.412-15.125,10.292" transform="translate(-351.511 -179.949)" fill="#e0e0e0"/>
      <path id="Path_49763" data-name="Path 49763" d="M695,371.371c4.417.669,8.182,3.491,12.314,5.206a5.6,5.6,0,0,0,2.784.548,2.192,2.192,0,0,0,1.365-3.836,6.029,6.029,0,0,0-2.022-1.222,22.437,22.437,0,0,0-14.062-.784" transform="translate(-349.992 -188.611)" fill="#e0e0e0"/>
      <path id="Path_49764" data-name="Path 49764" d="M690.29,377.538a5.218,5.218,0,0,1,2.137,1.48,22.941,22.941,0,0,0,9.316,4.8c.356.088.822.126,1-.2s-.038-.625-.241-.871a12.868,12.868,0,0,0-5.634-3.836c-2.159-.8-4.022-1.77-6.576-1.562" transform="translate(-347.863 -191.682)" fill="#e0e0e0"/>
      <path id="Path_49765" data-name="Path 49765" d="M685,343.178a17.679,17.679,0,0,0,13.564,4.625.921.921,0,0,0,.614-.225c.345-.373-.066-.943-.46-1.255a15.651,15.651,0,0,0-13.7-3.135" transform="translate(-345.472 -176.042)" fill="#e0e0e0"/>
      <path id="Path_49766" data-name="Path 49766" d="M691.27,338.249a18.879,18.879,0,0,1,16.906-2.789,13.415,13.415,0,0,1-8.056,3.535,25.384,25.384,0,0,1-8.851-.745" transform="translate(-348.306 -172.362)" fill="#e0e0e0"/>
      <path id="Path_49767" data-name="Path 49767" d="M686.91,315.72c-.389-3.973-.137-7.124-.411-11.1,0-.323-.093-.707-.389-.822-.417-.159-.762.351-.9.778a12.725,12.725,0,0,0,1.693,11.059" transform="translate(-345.305 -158.438)" fill="#e0e0e0"/>
      <path id="Path_49768" data-name="Path 49768" d="M688.261,316.08a23.478,23.478,0,0,0,6.576-6.4c1.3-1.781,2.395-3.913,2.1-6.1a6.313,6.313,0,0,0-4.751,2.362,13.3,13.3,0,0,0-2.422,4.872c-.548,1.748-.893,3.546-1.513,5.266" transform="translate(-346.941 -158.354)" fill="#e0e0e0"/>
      <path id="Path_49769" data-name="Path 49769" d="M700,314.9a53.1,53.1,0,0,0,16.21-9.558,8.3,8.3,0,0,0-6.089.466,19.213,19.213,0,0,0-10.2,9.031" transform="translate(-352.216 -158.968)" fill="#e0e0e0"/>
      <path id="Path_49770" data-name="Path 49770" d="M691.572,326.486a32.564,32.564,0,0,0,9,.044,38.292,38.292,0,0,0,8.4-2.789.976.976,0,0,0,.548-.433.652.652,0,0,0-.2-.718,1.7,1.7,0,0,0-.718-.334,15.461,15.461,0,0,0-9.081.548,42.028,42.028,0,0,0-7.968,3.688" transform="translate(-348.433 -166.59)" fill="#e0e0e0"/>
      <path id="Path_49771" data-name="Path 49771" d="M659.181,332.963a15.852,15.852,0,0,1-.148-13.153,10.109,10.109,0,0,1,1.167,6.576c-.225,2.274-.915,4.565-.959,6.828" transform="translate(-333.124 -165.69)" fill="#e0e0e0"/>
      <path id="Path_49772" data-name="Path 49772" d="M634.277,336.309a18.375,18.375,0,0,0-13.657,5.815,12.758,12.758,0,0,0,7.475-1.387,37.913,37.913,0,0,0,6.412-4.286" transform="translate(-316.374 -173.146)" fill="#e0e0e0"/>
      <path id="Path_49773" data-name="Path 49773" d="M624.936,332.8c-2.494-.2-4.888-.51-7.289.225a8.768,8.768,0,0,0-5.557,4.713,13.152,13.152,0,0,0,6.834-1.293,39.125,39.125,0,0,0,6.028-3.644" transform="translate(-312.518 -171.453)" fill="#e0e0e0"/>
      <path id="Path_49774" data-name="Path 49774" d="M638.286,329.96a22.855,22.855,0,0,0-7.157-3.579c-2.614-.608-5.634-.159-7.459,1.808,2.115,1.244,4.68,1.392,7.124,1.387s5.48-.027,7.771.789" transform="translate(-317.752 -168.546)" fill="#e0e0e0"/>
      <path id="Path_49775" data-name="Path 49775" d="M646.779,320.4c-3.836-3.765-5.288-10.528-3.748-15.673a23.872,23.872,0,0,1,3.748,15.673" transform="translate(-326.229 -158.874)" fill="#e0e0e0"/>
      <path id="Path_49776" data-name="Path 49776" d="M669.61,303.664c.723-1.682,1.233-3.447,1.88-5.157a14.721,14.721,0,0,1,2.68-4.757,7.075,7.075,0,0,1,4.751-2.461,19.126,19.126,0,0,1-9.218,12.4" transform="translate(-338.516 -152.799)" fill="#e0e0e0"/>
      <path id="Path_49777" data-name="Path 49777" d="M657.949,312.346c-1.2-1.644-2.581-3.88-4.2-5.113a7.02,7.02,0,0,0-5.716-1.5,13.317,13.317,0,0,0,9.919,6.615" transform="translate(-328.763 -159.262)" fill="#e0e0e0"/>
      <path id="Path_49778" data-name="Path 49778" d="M665.128,303.928a28.6,28.6,0,0,1-1.891-6.127,9.541,9.541,0,0,1,.959-6.231c2.1,3.979,2.784,8.253,1.041,12.4" transform="translate(-335.563 -152.926)" fill="#e0e0e0"/>
      <path id="Path_49779" data-name="Path 49779" d="M669.64,284.625c1.195-3.94,4.806-6.845,8.7-8.182a3.289,3.289,0,0,1,1.529-.225,1.321,1.321,0,0,1,1.123.937c.142.669-.411,1.271-.932,1.715a29.594,29.594,0,0,1-10.412,5.754" transform="translate(-338.53 -145.981)" fill="#e0e0e0"/>
      <path id="Path_49780" data-name="Path 49780" d="M669.666,274.757a28.343,28.343,0,0,1,1.14-7.535,9.491,9.491,0,0,1,4.74-5.721c.395,2.565-.74,5.124-2.11,7.333s-3.009,4.3-3.836,6.763" transform="translate(-338.512 -139.335)" fill="#e0e0e0"/>
      <path id="Path_49781" data-name="Path 49781" d="M663.515,277.477c-.986-2.872-1.1-6.527-2.811-9.031-1.2-1.748-3.129-2.943-4.165-4.8a7.3,7.3,0,0,0,.241,5.447,15.98,15.98,0,0,0,3.184,4.56c1.277,1.359,2.367,2.384,3.551,3.836" transform="translate(-332.421 -140.307)" fill="#e0e0e0"/>
      <path id="Path_49782" data-name="Path 49782" d="M669.518,372.7c-.077,0-.143-19.181-.148-42.822s.055-42.828.132-42.828.142,19.181.148,42.828S669.594,372.7,669.518,372.7Z" transform="translate(-338.407 -150.883)" fill="#e0e0e0"/>
      <path id="Path_49783" data-name="Path 49783" d="M686.377,338.53a3.781,3.781,0,0,1-.723.274l-1.984.669c-1.644.548-3.968,1.392-6.461,2.417s-4.8,1.918-6.127,3.069a4.51,4.51,0,0,0-1.233,1.644c-.186.449-.225.723-.247.723s0-.071,0-.2a2.87,2.87,0,0,1,.142-.548,4.331,4.331,0,0,1,1.2-1.737,10.839,10.839,0,0,1,2.658-1.644c1.063-.5,2.241-1.014,3.491-1.529,2.5-1.025,4.823-1.825,6.51-2.346.844-.263,1.534-.46,2.017-.586A4.388,4.388,0,0,1,686.377,338.53Z" transform="translate(-338.508 -174.151)" fill="#e0e0e0"/>
      <path id="Path_49784" data-name="Path 49784" d="M692.97,313.91a1.945,1.945,0,0,1-.2.219l-.614.575-2.3,2.088-7.645,6.806c-2.987,2.658-5.562,5.2-7.354,7.124-.893.954-1.595,1.743-2.077,2.3l-.548.636a1.279,1.279,0,0,1-.2.208,1.191,1.191,0,0,1,.159-.247c.121-.153.285-.384.548-.669.455-.548,1.14-1.386,2.017-2.357a96.374,96.374,0,0,1,7.311-7.185c3-2.647,5.721-5.031,7.7-6.746l2.356-2.017.652-.548A1.377,1.377,0,0,1,692.97,313.91Z" transform="translate(-339.61 -163.023)" fill="#e0e0e0"/>
      <path id="Path_49785" data-name="Path 49785" d="M684.725,331.051c-.077-.033.548-1.474,1.167-3.288s.921-3.359,1-3.343a11.143,11.143,0,0,1-.734,3.431,21.836,21.836,0,0,1-.932,2.307A3.575,3.575,0,0,1,684.725,331.051Z" transform="translate(-345.345 -167.773)" fill="#e0e0e0"/>
      <path id="Path_49786" data-name="Path 49786" d="M660.508,346.175a3.919,3.919,0,0,1-.455-.548l-1.178-1.48c-.992-1.282-2.362-3.047-3.891-4.976s-2.948-3.666-3.968-4.932l-1.206-1.491a3.325,3.325,0,0,1-.411-.548,3.885,3.885,0,0,1,.493.5c.307.334.745.822,1.271,1.436,1.063,1.222,2.5,2.937,4.033,4.872s2.883,3.721,3.836,5.031c.477.658.855,1.189,1.1,1.567A3.111,3.111,0,0,1,660.508,346.175Z" transform="translate(-329.382 -171.29)" fill="#e0e0e0"/>
      <path id="Path_49787" data-name="Path 49787" d="M661.43,344.3a6.763,6.763,0,0,1-1.54-2.883,8.324,8.324,0,0,1-.351-2.9h.126c-.055.225-.1.34-.121.334a.854.854,0,0,1,0-.356h.121a12.927,12.927,0,0,0,.493,2.828A21.526,21.526,0,0,0,661.43,344.3Z" transform="translate(-333.958 -174.133)" fill="#e0e0e0"/>
      <path id="Path_49788" data-name="Path 49788" d="M647.449,337.236a4.889,4.889,0,0,0-1.1-.619,7.19,7.19,0,0,0-2.981-.241,18.337,18.337,0,0,0-3,.488,9.445,9.445,0,0,1-1.239.3,4.334,4.334,0,0,1,1.184-.488,13.831,13.831,0,0,1,3.036-.548,6.577,6.577,0,0,1,3.08.329A1.891,1.891,0,0,1,647.449,337.236Z" transform="translate(-324.74 -173.037)" fill="#e0e0e0"/>
      <path id="Path_49789" data-name="Path 49789" d="M642.642,334.112c0,.038-.625-.252-1.644-.6a16.588,16.588,0,0,0-8.3-.63c-1.063.186-1.7.389-1.721.34a1.791,1.791,0,0,1,.438-.186,10.88,10.88,0,0,1,1.244-.345,14.539,14.539,0,0,1,8.4.641,10.09,10.09,0,0,1,1.178.548C642.5,334,642.653,334.09,642.642,334.112Z" transform="translate(-321.056 -171.354)" fill="#e0e0e0"/>
      <path id="Path_49790" data-name="Path 49790" d="M667.852,317.472a33.472,33.472,0,0,1-1.2-4.17,32.782,32.782,0,0,1-.932-4.242,67.835,67.835,0,0,1,2.132,8.412Z" transform="translate(-336.758 -160.831)" fill="#e0e0e0"/>
      <path id="Path_49791" data-name="Path 49791" d="M667.034,320.681a19.925,19.925,0,0,0-1.332-2.5,10.8,10.8,0,0,0-1.962-2.022,1.863,1.863,0,0,1,.756.389,6.137,6.137,0,0,1,1.43,1.474A5.568,5.568,0,0,1,667.034,320.681Z" transform="translate(-335.863 -164.04)" fill="#e0e0e0"/>
      <path id="Path_49792" data-name="Path 49792" d="M655.154,401.6s-.082-.46-.3-1.277a17.956,17.956,0,0,0-1.282-3.316,45.7,45.7,0,0,0-6.8-9.579c-1.518-1.737-2.992-3.37-4.242-4.932a34.526,34.526,0,0,1-3.031-4.384,21.249,21.249,0,0,1-1.534-3.244c-.137-.4-.241-.712-.3-.926a1.281,1.281,0,0,1-.082-.334s.164.438.482,1.222a23.078,23.078,0,0,0,1.6,3.184,36.834,36.834,0,0,0,3.058,4.313c1.255,1.551,2.74,3.179,4.253,4.932a43.34,43.34,0,0,1,6.763,9.673,16.226,16.226,0,0,1,1.211,3.381,9.594,9.594,0,0,1,.17.959A1.45,1.45,0,0,1,655.154,401.6Z" transform="translate(-324.044 -190.006)" fill="#e0e0e0"/>
      <path id="Path_49793" data-name="Path 49793" d="M684.782,393.48a6.15,6.15,0,0,1-.795.449,17.385,17.385,0,0,0-2.055,1.359,22.924,22.924,0,0,0-2.7,2.466c-.953,1-1.929,2.192-2.926,3.414-1.995,2.5-3.836,4.713-4.976,6.483-.548.877-.981,1.644-1.25,2.132a6.206,6.206,0,0,1-.438.8.812.812,0,0,1,.077-.225c.055-.142.137-.356.263-.619a19.226,19.226,0,0,1,1.184-2.192,74.564,74.564,0,0,1,4.932-6.576c1-1.25,1.989-2.417,2.954-3.42a22.247,22.247,0,0,1,2.768-2.444,14.8,14.8,0,0,1,2.126-1.3c.263-.132.477-.214.619-.274A.97.97,0,0,1,684.782,393.48Z" transform="translate(-338.53 -198.987)" fill="#e0e0e0"/>
      <path id="Path_49794" data-name="Path 49794" d="M689.182,403.594a12.278,12.278,0,0,1-1.677.241,22.542,22.542,0,0,0-3.979.784,11.969,11.969,0,0,0-3.562,1.869c-.817.636-1.206,1.162-1.244,1.129a1.266,1.266,0,0,1,.247-.384,6.744,6.744,0,0,1,.877-.9,10.911,10.911,0,0,1,3.6-1.978,17.838,17.838,0,0,1,4.044-.712A8.9,8.9,0,0,1,689.182,403.594Z" transform="translate(-342.634 -203.549)" fill="#e0e0e0"/>
      <path id="Path_49795" data-name="Path 49795" d="M679.6,405.166c-.088-.049.669-1.206,1.255-2.74s.68-2.943.778-2.926a2.619,2.619,0,0,1-.027.9,9.647,9.647,0,0,1-.488,2.121,10.462,10.462,0,0,1-.975,1.945A2.678,2.678,0,0,1,679.6,405.166Z" transform="translate(-343.03 -201.708)" fill="#e0e0e0"/>
      <path id="Path_49796" data-name="Path 49796" d="M689.709,366.3a.971.971,0,0,1-.268.142l-.789.362c-.345.148-.762.334-1.233.581s-1.03.5-1.606.844l-.915.521c-.318.181-.63.4-.964.608-.674.411-1.348.915-2.072,1.425a35.534,35.534,0,0,0-7.979,8.259c-.488.74-.97,1.43-1.354,2.121a10.581,10.581,0,0,0-.548.981c-.142.323-.334.636-.488.937-.329.586-.548,1.145-.789,1.644s-.406.9-.548,1.255l-.329.8a1.22,1.22,0,0,1-.137.274,1.846,1.846,0,0,1,.082-.29l.285-.822c.121-.356.279-.789.5-1.277s.438-1.063.756-1.644c.148-.307.307-.619.477-.948s.367-.652.548-1c.378-.7.855-1.4,1.343-2.148a34.325,34.325,0,0,1,8.034-8.314c.734-.515,1.419-1.014,2.1-1.419.34-.2.658-.417.976-.6l.932-.5c.586-.34,1.145-.581,1.644-.811s.91-.411,1.266-.548l.806-.307a1.342,1.342,0,0,1,.268-.121Z" transform="translate(-338.552 -186.702)" fill="#e0e0e0"/>
      <path id="Path_49797" data-name="Path 49797" d="M684.35,379.35a1.978,1.978,0,0,1,.663-.981,4.181,4.181,0,0,1,2.652-1.019,7.333,7.333,0,0,1,2.795.548,3.952,3.952,0,0,1,1.058.515,6.7,6.7,0,0,1-1.1-.329,8.488,8.488,0,0,0-2.74-.455,4.324,4.324,0,0,0-2.537.888A8.371,8.371,0,0,0,684.35,379.35Z" transform="translate(-345.178 -191.696)" fill="#e0e0e0"/>
      <path id="Path_49798" data-name="Path 49798" d="M681.09,380.194a10.145,10.145,0,0,0,.751-2.455,9.918,9.918,0,0,0-.17-2.559,1.692,1.692,0,0,1,.312.712,4.97,4.97,0,0,1,.132,1.88,5.044,5.044,0,0,1-.548,1.8,1.781,1.781,0,0,1-.477.625Z" transform="translate(-343.705 -190.716)" fill="#e0e0e0"/>
      <path id="Path_49799" data-name="Path 49799" d="M645.48,429.7c.411,7.333,2.62,14.8,6.028,22.315h14.769a64.205,64.205,0,0,0,5.661-22.315Z" transform="translate(-327.61 -215.357)" fill="#e0e0e0"/>
      <path id="Path_49800" data-name="Path 49800" d="M671.454,451.227c0,.077-4.861.137-10.862.137s-10.862-.06-10.862-.137,4.861-.137,10.862-.137S671.454,451.15,671.454,451.227Z" transform="translate(-329.531 -225.025)" fill="#fafafa"/>
      <path id="Path_49801" data-name="Path 49801" d="M671.974,456.072c0,.077-4.56.137-10.182.137s-10.182-.06-10.182-.137,4.56-.142,10.182-.142S671.974,456,671.974,456.072Z" transform="translate(-330.381 -227.213)" fill="#fafafa"/>
      <path id="Path_49802" data-name="Path 49802" d="M656.777,438.48a40.71,40.71,0,0,1,0,6.806,42.336,42.336,0,0,1,0-6.806Z" transform="translate(-332.654 -219.326)" fill="#fafafa"/>
      <path id="Path_49803" data-name="Path 49803" d="M671.217,438.48a43.653,43.653,0,0,1,0,7.048A45.368,45.368,0,0,1,671.217,438.48Z" transform="translate(-339.181 -219.326)" fill="#fafafa"/>
      <path id="Path_49804" data-name="Path 49804" d="M684.777,438.37a47.242,47.242,0,0,1,0,7.19,47.219,47.219,0,0,1,0-7.19Z" transform="translate(-345.309 -219.276)" fill="#fafafa"/>
      <path id="Path_49805" data-name="Path 49805" d="M671.868,438.367c0,.077-5.7.142-12.736.142s-12.742-.066-12.742-.142,5.7-.137,12.742-.137S671.868,438.29,671.868,438.367Z" transform="translate(-328.021 -219.213)" fill="#fafafa"/>
    </g>
    <g id="freepik--Floor--inject-16" transform="translate(35.811 275.041)">
      <path id="Path_49806" data-name="Path 49806" d="M407.82,470.2c0,.082-80.669.143-180.157.143S47.49,470.285,47.49,470.2s80.652-.142,180.173-.142S407.82,470.126,407.82,470.2Z" transform="translate(-47.49 -470.06)" fill="#263238"/>
    </g>
    <g id="freepik--Character--inject-16" transform="translate(314.753 89.078)">
      <path id="Path_49807" data-name="Path 49807" d="M646.967,437l6.143,10.96,7.354,7.267a1.282,1.282,0,0,1-.049,1.88h0a1.288,1.288,0,0,1-1.145.29c-2.587-.608-12.089-2.894-12.495-3.721-.466-.959-7.245-11.13-7.245-11.13Z" transform="translate(-594.02 -269.155)" fill="#6f6f6f"/>
      <g id="Group_53274" data-name="Group 53274" transform="translate(52.343 183.781)" opacity="0.6">
        <path id="Path_49808" data-name="Path 49808" d="M666.051,470.239,652,466.08l.269.46a1.945,1.945,0,0,0,1.036.844c1.162.405,4.384,1.441,11.585,3.168a1.293,1.293,0,0,0,1.178-.312Z" transform="translate(-652 -466.08)" fill="#fff"/>
      </g>
      <g id="Group_53275" data-name="Group 53275" transform="translate(51.691 178.981)" opacity="0.6">
        <path id="Path_49809" data-name="Path 49809" d="M651.6,457.32a.784.784,0,0,1,.7.767.745.745,0,0,1-.756.7.822.822,0,0,1-.74-.817.778.778,0,0,1,.866-.641" transform="translate(-650.81 -457.32)" fill="#fff"/>
      </g>
      <path id="Path_49810" data-name="Path 49810" d="M667.9,465.736a2.771,2.771,0,0,1,1.545-2.373c0-.033-.192-.038-.466.077a1.989,1.989,0,0,0-.871.745,2.049,2.049,0,0,0-.334,1.1A1.24,1.24,0,0,0,667.9,465.736Z" transform="translate(-606.784 -281.061)" fill="#263238"/>
      <path id="Path_49811" data-name="Path 49811" d="M670.974,468.026a8.005,8.005,0,0,1,.68-1.03c.46-.482,1-.68.981-.756s-.658,0-1.184.548A1.432,1.432,0,0,0,670.974,468.026Z" transform="translate(-608.218 -282.359)" fill="#263238"/>
      <path id="Path_49812" data-name="Path 49812" d="M663.41,463.42a12.6,12.6,0,0,1,.948-1.644,13.706,13.706,0,0,1,1.381-1.326,2.883,2.883,0,0,0-1.6,1.156,2.834,2.834,0,0,0-.729,1.814Z" transform="translate(-604.813 -279.754)" fill="#263238"/>
      <path id="Path_49813" data-name="Path 49813" d="M659.5,458.594c.066.049.515-.548,1.277-1.041s1.485-.663,1.469-.745a2.488,2.488,0,0,0-1.644.515,2.461,2.461,0,0,0-1.1,1.271Z" transform="translate(-603.046 -278.106)" fill="#263238"/>
      <path id="Path_49814" data-name="Path 49814" d="M656.052,452.884a6.285,6.285,0,0,1,1.3-1.123,6.414,6.414,0,0,1,1.644-.488c0-.033-.192-.1-.548-.093a2.739,2.739,0,0,0-1.255.34,2.806,2.806,0,0,0-.965.866C656.074,452.665,656.02,452.868,656.052,452.884Z" transform="translate(-601.484 -275.564)" fill="#263238"/>
      <path id="Path_49815" data-name="Path 49815" d="M655.657,449.026a1.1,1.1,0,0,0-.23-.417,3.223,3.223,0,0,0-.953-.882,1.491,1.491,0,0,0-.9-.285.548.548,0,0,0-.444.4.833.833,0,0,0,.121.586,1.819,1.819,0,0,0,2.225.641,2.121,2.121,0,0,0,1.228-2.006.745.745,0,0,0-.28-.548.515.515,0,0,0-.6.038,1.852,1.852,0,0,0-.493.795,3.58,3.58,0,0,0-.241,1.271,1.15,1.15,0,0,0,.055.477,5.729,5.729,0,0,1,.367-1.677,1.677,1.677,0,0,1,.449-.68.263.263,0,0,1,.323,0,.482.482,0,0,1,.159.367,1.88,1.88,0,0,1-1.1,1.726,1.589,1.589,0,0,1-1.9-.515.652.652,0,0,1-.1-.411.285.285,0,0,1,.241-.219,1.348,1.348,0,0,1,.767.225,5.014,5.014,0,0,1,1.3,1.112Z" transform="translate(-600.162 -273.421)" fill="#263238"/>
      <path id="Path_49816" data-name="Path 49816" d="M617.845,441.58l-2.5,8.982s8.3,5.557,8,7.283l-17.591-4.214,3.288-14.161Z" transform="translate(-578.753 -270.272)" fill="#6f6f6f"/>
      <g id="Group_53276" data-name="Group 53276" transform="translate(30.642 178.224)" opacity="0.6">
        <path id="Path_49817" data-name="Path 49817" d="M613.1,455.94a.751.751,0,0,0-.7.7.712.712,0,0,0,.69.7.778.778,0,0,0,.729-.745.729.729,0,0,0-.795-.641" transform="translate(-612.4 -455.94)" fill="#fff"/>
      </g>
      <g id="Group_53277" data-name="Group 53277" transform="translate(26.997 181.924)" opacity="0.6">
        <path id="Path_49818" data-name="Path 49818" d="M605.75,464.1l.389-1.414,16.737,4.554s.7.548.477,1.058Z" transform="translate(-605.75 -462.69)" fill="#fff"/>
      </g>
      <path id="Path_49819" data-name="Path 49819" d="M622.31,459.525c0,.088-.46,0-.948.2s-.8.482-.871.433.175-.521.773-.723S622.348,459.454,622.31,459.525Z" transform="translate(-585.409 -279.256)" fill="#263238"/>
      <path id="Path_49820" data-name="Path 49820" d="M625.66,461.817c0,.088-.411.148-.789.438s-.548.658-.636.636,0-.548.455-.882S625.676,461.735,625.66,461.817Z" transform="translate(-587.094 -280.343)" fill="#263238"/>
      <path id="Path_49821" data-name="Path 49821" d="M627.769,465.262c-.082,0-.1-.46.23-.877s.784-.51.8-.427-.29.274-.548.619S627.873,465.273,627.769,465.262Z" transform="translate(-588.682 -281.327)" fill="#263238"/>
      <path id="Path_49822" data-name="Path 49822" d="M622.921,455.36c-.055.071-.422-.142-.915-.225s-.91,0-.937-.1.411-.307.992-.2S622.976,455.305,622.921,455.36Z" transform="translate(-585.676 -277.201)" fill="#263238"/>
      <g id="Group_53278" data-name="Group 53278" transform="translate(29.524 170.673)" opacity="0.3">
        <path id="Path_49823" data-name="Path 49823" d="M619.43,444.571l-.444,1.606-8.626-2.154.433-1.863Z" transform="translate(-610.36 -442.16)"/>
      </g>
      <path id="Path_49824" data-name="Path 49824" d="M623.287,450.877a1.743,1.743,0,0,1-.877-.219,3.892,3.892,0,0,1-.855-.5,4.026,4.026,0,0,1-.444-.389,1.145,1.145,0,0,1-.214-.268.373.373,0,0,1,.071-.466.482.482,0,0,1,.422-.11,1.238,1.238,0,0,1,.318.126,3.039,3.039,0,0,1,.5.318,3.217,3.217,0,0,1,.685.729,1.512,1.512,0,0,1,.345.838c-.044,0-.181-.3-.548-.707a3.656,3.656,0,0,0-.68-.63,3.483,3.483,0,0,0-.466-.28c-.175-.093-.334-.132-.4-.06s-.033.038,0,.1a.926.926,0,0,0,.159.2c.131.137.268.263.4.378a5.63,5.63,0,0,0,.773.548C622.974,450.729,623.3,450.828,623.287,450.877Z" transform="translate(-585.576 -274.538)" fill="#263238"/>
      <path id="Path_49825" data-name="Path 49825" d="M624.977,450.489a1.446,1.446,0,0,1-.027-.915,3.157,3.157,0,0,1,.351-.937,2.878,2.878,0,0,1,.356-.482.74.74,0,0,1,.669-.307.416.416,0,0,1,.307.334,1.221,1.221,0,0,1,0,.34,2.07,2.07,0,0,1-.142.6,2.043,2.043,0,0,1-.6.817c-.449.378-.833.395-.833.362a3.8,3.8,0,0,0,.685-.521,2,2,0,0,0,.482-.762,1.912,1.912,0,0,0,.1-.51c0-.2,0-.362-.093-.362a.6.6,0,0,0-.378.214,3.286,3.286,0,0,0-.329.427,3.388,3.388,0,0,0-.384.838C625.01,450.122,625.026,450.489,624.977,450.489Z" transform="translate(-587.403 -274.057)" fill="#263238"/>
      <path id="Path_49826" data-name="Path 49826" d="M620.9,262.85s6,10.473,6.324,22.074-8.155,83.568-8.155,83.568L605.625,365.2c-.247,2.313,4.214-23.658,5.793-36.169,1.551-12.309-6.247-56.72-6.247-56.72l14.7-9.464" transform="translate(-578.49 -190.443)" fill="#263238"/>
      <path id="Path_49827" data-name="Path 49827" d="M577.583,278.86s-1.458,12.457,2.192,20.825,32.881,77.408,32.881,77.408l12-6.089-29.292-92.068Z" transform="translate(-565.892 -197.679)" fill="#263238"/>
      <path id="Path_49828" data-name="Path 49828" d="M630.473,343.424c-.077.027-3.765-11.092-8.22-24.825s-8.05-24.891-7.974-24.919,3.765,11.092,8.22,24.831S630.566,343.4,630.473,343.424Z" transform="translate(-582.607 -204.378)" fill="#455a64"/>
      <path id="Path_49829" data-name="Path 49829" d="M620.595,407.869c-.071.033-5.9-13.569-13.026-30.371S594.728,347.038,594.8,347s5.908,13.564,13.032,30.377S620.666,407.83,620.595,407.869Z" transform="translate(-573.803 -228.477)" fill="#455a64"/>
      <path id="Path_49830" data-name="Path 49830" d="M581.868,135.666c-1.748-3.65-7.283-5.738-11.865-4.653-3.836.91-8.039,4.658-8.423,8.615-.548,5.732,2.455,11.689.438,17.1-2.351,6.291-5.562,4.22-5.338,13.344.071,2.74,1.134,9.486,2.472,11.9a4.963,4.963,0,0,0,3.184,2.68c1.77.329,4.2.68,5.639-.389,3.869-2.894,7.47-3.288,8.44-8,1.436-6.932-3.19-15.427-2.992-21.061s-.674-11.234-1.551-16.808" transform="translate(-556.569 -130.726)" fill="#263238"/>
      <path id="Path_49831" data-name="Path 49831" d="M614.008,168.212c-1.1-2.483-3.288-4.3-5.557-5.836a41.031,41.031,0,0,1-6.576-4.845c-1.918-1.951-3.239-6.384-3.288-9.64h0c-.033-.9-.1-1.781-.214-2.652-.438-3.195-1.1-6.445-2.861-9.179s-6.346-5.283-10.412-3.694l-2.05,2.641a75.863,75.863,0,0,1,2.11,26.4c-.247,2.559-.548,5.425,1.1,7.448a7.336,7.336,0,0,0,4.423,2.324c1.852.367,3.951.318,5.42-.849a1.811,1.811,0,0,1,.285-.181,8.68,8.68,0,0,0,1.485,2.691c1.644,1.94,4.154,2.872,6.576,3.546,2.795.773,6.11,1.211,8.33-.658C614.89,173.966,615.131,170.694,614.008,168.212Z" transform="translate(-568.493 -131.245)" fill="#263238"/>
      <path id="Path_49832" data-name="Path 49832" d="M569.236,184.161a85.266,85.266,0,0,0-8.072,3.88c-1.551,1.085,6.363,22.979,6.363,22.979s3.727,9,2.795,13.037c-.548,2.274-1.491,4.7-1.907,6.8a4.012,4.012,0,0,0,3.124,4.708c3.836.795,11.24,1.765,17.537-.636a44.971,44.971,0,0,0,10.7-5.612,4.012,4.012,0,0,0,1.052-5.3,10.868,10.868,0,0,0-1.644-2.1c-2.137-2.137-4.044-10.473-4.538-12.763a4.023,4.023,0,0,1-.077-1.145c.17-2.192.669-10.171-.663-14.035a51.257,51.257,0,0,0-4.538-8.768,4.017,4.017,0,0,0-2.658-1.787l-5.2-.954a4.044,4.044,0,0,0-1.359,0l-10.928,1.732Z" transform="translate(-558.51 -154.084)" fill="#b9d8fb"/>
      <g id="Group_53279" data-name="Group 53279" transform="translate(10.962 57.276)" opacity="0.3">
        <path id="Path_49833" data-name="Path 49833" d="M577.652,247.1l-1.162,3.836s8-2.7,10.571-5.727,5.124-5.3,6.319-5.431,6.357-.137,7.261.586,3.957,2.663,3.957,2.663L603.2,239l-3.409-2.7-10.21-1.058Z" transform="translate(-576.49 -235.24)"/>
      </g>
      <path id="Path_49834" data-name="Path 49834" d="M559.188,192.69s-2.6,1.858-2.6,6.516c0,0,.236,21.335.965,25.445.97,5.48,5.387,6.138,7.672,6.138s14.649-10.045,14.649-10.045l-3.792-5.7-9.015,2.346s-.373-8.768-.373-11.772S559.188,192.69,559.188,192.69Z" transform="translate(-556.533 -158.733)" fill="#b9d8fb"/>
      <path id="Path_49835" data-name="Path 49835" d="M609.1,184.54s5.743,1.354,8.034,6.341c2.011,4.384,14.621,24.042,8.111,27.664-4.691,2.62-10.719-3.409-10.719-3.409Z" transform="translate(-580.267 -155.049)" fill="#b9d8fb"/>
      <path id="Path_49836" data-name="Path 49836" d="M623.286,225.118a7.869,7.869,0,0,1-.548-2.833,5.255,5.255,0,0,0-.208-1.732,1.337,1.337,0,0,0-1.381-.926l-.208,4.28Z" transform="translate(-585.618 -170.905)" fill="#ffbe9d"/>
      <path id="Path_49837" data-name="Path 49837" d="M614.955,211.323l-.718,15.131-7.272.707-.164-14.829a.789.789,0,0,1,.669-.784l6.576-1.036a.789.789,0,0,1,.91.811Z" transform="translate(-579.227 -166.784)" fill="#263238"/>
      <path id="Path_49838" data-name="Path 49838" d="M608,216.91a2.665,2.665,0,0,0,.038-.444c0-.318.033-.729.055-1.228s.038-1.14.066-1.814a1.769,1.769,0,0,1,0-.247.439.439,0,0,1,.1-.2.46.46,0,0,1,.186-.137,1.1,1.1,0,0,1,.258-.055l1.134-.186c1.556-.252,2.965-.493,3.984-.674l1.206-.225a2.628,2.628,0,0,0,.438-.1,2.45,2.45,0,0,0-.449.044l-1.211.175c-1.025.153-2.433.373-3.99.63l-1.14.186a1.24,1.24,0,0,0-.285.066.618.618,0,0,0-.367.449,1.591,1.591,0,0,0,0,.269c0,.68,0,1.293,0,1.819v1.222A2.406,2.406,0,0,0,608,216.91Z" transform="translate(-579.768 -167.279)" fill="#455a64"/>
      <path id="Path_49839" data-name="Path 49839" d="M614.092,214.116a.362.362,0,0,1,.7-.038.406.406,0,0,1-.137.4.373.373,0,0,1-.417,0,.334.334,0,0,1-.142-.362Z" transform="translate(-582.518 -168.288)" fill="#fafafa"/>
      <path id="Path_49840" data-name="Path 49840" d="M611.906,222.342c.175,0,4.3,1.376,4.3,1.376l2.318,1.781a4.116,4.116,0,0,1,.63,3.085c-.285,1.989-1.129,2.806-3.233,3.694h-4.242l-2.367-1.365a1.315,1.315,0,0,1-.636-1.337v-.088l-.3-.362a.723.723,0,0,1-.093-.8h0a.729.729,0,0,1,.981-.312l2.636,1.348,1.644-.044.159-.548-2.576-.855-3.4-1.863a.893.893,0,0,1-.334-1.255h0a.893.893,0,0,1,1.1-.373l3.074,1.206,3.14.833-.647-1.1-3.836-2.011S609.757,222.145,611.906,222.342Z" transform="translate(-579.434 -172.125)" fill="#ffbe9d"/>
      <path id="Path_49841" data-name="Path 49841" d="M604.67,218.742a2.548,2.548,0,0,0-2.1.427c-1.233.751-2.778,1.841-2.778,1.841l-2.417,1.129.2-.669s2.532-.142,2.126-1.94l-1.5.3-1.392-.455-2.148,2.872-.548,3.189L592.75,227l2.992,4.631,4.028-1.54,3.628-.356,1.578-1.754-.093-1.891L606.374,224s.077-.943-.751-.9-2.493,2.307-2.493,2.307l-1.967.362s-.389-.258-.137-.477,5.617-4,5.771-4.68.356-1.145-.252-1.233a3.239,3.239,0,0,0-1.513.395S605.13,218.808,604.67,218.742Z" transform="translate(-572.877 -170.476)" fill="#ffbe9d"/>
      <path id="Path_49842" data-name="Path 49842" d="M606.75,223.917a27.57,27.57,0,0,0,2.4-1.644,26.308,26.308,0,0,0,2.313-1.743,28.585,28.585,0,0,0-2.4,1.644,26.312,26.312,0,0,0-2.313,1.743Z" transform="translate(-579.205 -171.316)" fill="#fba078"/>
      <path id="Path_49843" data-name="Path 49843" d="M606,232.307a1.238,1.238,0,0,0,.312.049c.2,0,.493.044.855.049a5.48,5.48,0,0,0,1.277-.11,3.688,3.688,0,0,0,1.43-.652,6.642,6.642,0,0,0,1.8-2.192c.175-.318.3-.581.389-.762a1.1,1.1,0,0,0,.12-.29s-.236.378-.6,1a7.163,7.163,0,0,1-1.8,2.121,3.8,3.8,0,0,1-1.375.636,6.367,6.367,0,0,1-1.244.142C606.422,232.307,606,232.28,606,232.307Z" transform="translate(-578.866 -174.873)" fill="#fba078"/>
      <path id="Path_49844" data-name="Path 49844" d="M592.7,227.011l.1-.093.263-.3,1.025-1.151h0l.586-3.179h0l2.159-2.866h-.066l1.4.466h.027l1.5-.3-.071-.044a1.452,1.452,0,0,1-.027.751,1.315,1.315,0,0,1-.477.6,3.288,3.288,0,0,1-1.567.5H597.5v.044c-.06.208-.131.438-.2.674l-.044.142.137-.06,2.417-1.123h0c.718-.5,1.469-1.008,2.247-1.507a6.206,6.206,0,0,1,1.211-.663,2.313,2.313,0,0,1,1.359-.093h0c.143,0,.23.186.263.367a2.015,2.015,0,0,1,0,.575v.137l.126-.06a4.257,4.257,0,0,1,.822-.318,1.326,1.326,0,0,1,.849,0,.3.3,0,0,1,.143.323,2.226,2.226,0,0,1-.082.449,1.416,1.416,0,0,1-.132.422,2.964,2.964,0,0,1-.307.34,35,35,0,0,1-2.932,2.378l-1.474,1.1-.729.548-.181.132a.406.406,0,0,0-.164.208.3.3,0,0,0,.066.269.592.592,0,0,0,.181.17h.027l1.967-.362h.027a12.465,12.465,0,0,1,1.644-1.825c.3-.247.63-.515.992-.449a.548.548,0,0,1,.406.29,1.1,1.1,0,0,1,.093.548v-.033c-.548.729-1.014,1.419-1.485,2.088h0c.033.658.066,1.288.1,1.9v-.044l-1.573,1.754h.033l-3.628.373h0l-2.976,1.151-.773.307-.2.082c-.044,0-.066,0-.066.033h.066l.2-.071.784-.285,2.992-1.123h0l3.628-.345h0l1.584-1.748h0c0-.608-.06-1.239-.093-1.9v.038l1.491-2.082h0a1.259,1.259,0,0,0-.11-.6.784.784,0,0,0-.2-.241.69.69,0,0,0-.3-.121.926.926,0,0,0-.614.121,2.816,2.816,0,0,0-.493.356,12.2,12.2,0,0,0-1.644,1.847l.044-.033-1.962.362h.049c-.1-.071-.208-.2-.181-.279s.181-.17.29-.258l.729-.548,1.48-1.1a35.85,35.85,0,0,0,2.948-2.389,2.67,2.67,0,0,0,.323-.367.61.61,0,0,0,.1-.241l.055-.225a2.743,2.743,0,0,0,.088-.477.548.548,0,0,0-.038-.263.378.378,0,0,0-.186-.2,1.441,1.441,0,0,0-.959,0,5.014,5.014,0,0,0-.855.329l.11.077a2.131,2.131,0,0,0,0-.619.745.745,0,0,0-.11-.3.405.405,0,0,0-.274-.192h0a2.4,2.4,0,0,0-1.458.093,6.027,6.027,0,0,0-1.244.68c-.778.5-1.529,1.008-2.247,1.513h0l-2.411,1.1.093.082c.071-.236.137-.466.2-.674l-.06.049a3.474,3.474,0,0,0,1.644-.548,1.4,1.4,0,0,0,.515-.663,1.556,1.556,0,0,0,.033-.822v-.06h-.06l-1.5.307h.033l-1.4-.455h-.038v.033c-.795,1.063-1.513,2.033-2.143,2.883h0c-.225,1.282-.411,2.356-.548,3.189h0c-.433.5-.767.9-1,1.167l-.252.307-.06.044Z" transform="translate(-572.854 -170.497)" fill="#fba078"/>
      <path id="Path_49845" data-name="Path 49845" d="M573.089,144a8.533,8.533,0,0,1,8.023-9.316,8.768,8.768,0,0,1,9.19,7.672,88.359,88.359,0,0,1,.86,9.388c-.175,4.351-2.811,5.979-3.88,6.461a5.583,5.583,0,0,1-1.173.252h0a.033.033,0,0,0,0,.033l.855,5.025a5.642,5.642,0,0,1-4.932,6.549c-3.354.389-5.9-2.192-6.324-5.48Z" transform="translate(-563.974 -132.511)" fill="#ffbe9d"/>
      <path id="Path_49851" data-name="Path 49851" d="M591.229,177.186a12.555,12.555,0,0,1-6.779-1.156s1.606,3.644,7.009,2.51Z" transform="translate(-569.125 -151.203)" fill="#fba078"/>
      <path id="Path_49856" data-name="Path 49856" d="M585.972,133.962a9.031,9.031,0,0,1-6.5,7.048c.093-.406.186-.817.285-1.228a12.835,12.835,0,0,1-7.157,5.924,8.878,8.878,0,0,1,2.044-10.9c3.124-2.576,8.177-3.184,11.35-.663" transform="translate(-563.299 -131.543)" fill="#263238"/>
      <path id="Path_49857" data-name="Path 49857" d="M574.546,150.893c-.762,1.425-.449,3.168.027,4.713a12.128,12.128,0,0,1,.932,4.713c-.164,1.491-1.014,2.839-1.206,4.324-.318,2.5,1.26,4.828,1.869,7.283a9.864,9.864,0,0,1-2.455,9.02,1.2,1.2,0,0,1-.855.466.888.888,0,0,1-.751-.767,3.836,3.836,0,0,1,.06-1.14c.4-3.6-3.047-6.576-3.464-10.16-.274-2.335.767-4.614.975-6.954.263-2.948-.795-5.842-1.1-8.768a6.67,6.67,0,0,1,.252-3,3.14,3.14,0,0,1,2.121-2.028,2.1,2.1,0,0,1,2.483,1.288" transform="translate(-561.923 -138.774)" fill="#263238"/>
      <path id="Path_49858" data-name="Path 49858" d="M573.58,237.156a8.818,8.818,0,0,1-.932.044,5.261,5.261,0,0,0-2.1.669,5.167,5.167,0,0,0-1.644,1.491,8.816,8.816,0,0,1-.51.789,2.017,2.017,0,0,1,.34-.9A4.609,4.609,0,0,1,572.615,237,1.94,1.94,0,0,1,573.58,237.156Z" transform="translate(-561.867 -178.757)" fill="#263238"/>
      <path id="Path_49859" data-name="Path 49859" d="M575.476,215.83c.077,0,.181,2.614.236,5.847s0,5.847-.049,5.847a57.9,57.9,0,0,1-.236-5.842C575.371,218.45,575.4,215.83,575.476,215.83Z" transform="translate(-565.034 -169.191)" fill="#263238"/>
      <path id="Path_49860" data-name="Path 49860" d="M616.992,213.705c-.049,0-.1-.7-.3-1.8a18.743,18.743,0,0,0-3.464-7.946,15.245,15.245,0,0,1-1.1-1.441,1.7,1.7,0,0,1,.373.323,12.6,12.6,0,0,1,.9.992,16.7,16.7,0,0,1,2.3,3.781,16.275,16.275,0,0,1,1.206,4.258,10.652,10.652,0,0,1,.115,1.337A1.928,1.928,0,0,1,616.992,213.705Z" transform="translate(-581.637 -163.175)" fill="#263238"/>
      <path id="Path_49861" data-name="Path 49861" d="M556.5,206.83a1.093,1.093,0,0,1,0,.175v.521c0,.471,0,1.134.038,1.978.044,1.743.1,4.231.175,7.294s.219,6.741.477,10.8c.033.5.071,1.019.11,1.54l.055.778c.038.263.071.521.11.778a10.059,10.059,0,0,0,.345,1.551,8.67,8.67,0,0,0,.674,1.469,6.483,6.483,0,0,0,2.318,2.3,7.6,7.6,0,0,0,3.233,1h.2a4.959,4.959,0,0,0,2.455-.471,17.29,17.29,0,0,0,2.192-1.211q2.137-1.326,4.066-2.74a67.289,67.289,0,0,0,6.834-5.546v.153l-3.77-5.721.1.038c-2.488.614-4.444,1.156-5.8,1.5l-1.545.389-.4.1a.653.653,0,0,1-.143,0l.132-.049.395-.121,1.54-.438c1.343-.367,3.288-.937,5.776-1.573h.06l.038.055L580,227.063l.055.082-.071.071a66.865,66.865,0,0,1-6.763,5.628c-1.282.932-2.647,1.847-4.077,2.74a17.707,17.707,0,0,1-2.247,1.233,5.261,5.261,0,0,1-2.6.493h-.219a7.782,7.782,0,0,1-3.359-1.041,6.762,6.762,0,0,1-2.417-2.4,8.869,8.869,0,0,1-.7-1.523,10.412,10.412,0,0,1-.351-1.595c-.038-.269-.071-.548-.11-.8l-.055-.784c-.038-.521-.071-1.036-.1-1.54-.247-4.072-.345-7.738-.417-10.818s-.088-5.568-.082-7.294v-2.5A.734.734,0,0,1,556.5,206.83Z" transform="translate(-556.487 -165.124)" fill="#263238"/>
      <path id="Path_49862" data-name="Path 49862" d="M627.677,244.409a1.157,1.157,0,0,1-.384.049,6.906,6.906,0,0,1-1.058-.038,8.811,8.811,0,0,1-1.54-.312,10.571,10.571,0,0,1-1.781-.734,15.555,15.555,0,0,1-2.855-1.989,5.754,5.754,0,0,1-1.019-1.014,8.551,8.551,0,0,1,1.151.855,19.3,19.3,0,0,0,2.855,1.9,11.878,11.878,0,0,0,1.726.734,10.008,10.008,0,0,0,1.491.362C627.129,244.36,627.677,244.354,627.677,244.409Z" transform="translate(-584.759 -180.283)" fill="#263238"/>
      <path id="Path_49863" data-name="Path 49863" d="M632.835,229.08a13.473,13.473,0,0,0-2.6-1.1,13.153,13.153,0,0,0-2.822-.263,4.932,4.932,0,0,1,2.894,0,4.85,4.85,0,0,1,2.532,1.359Z" transform="translate(-588.542 -174.468)" fill="#263238"/>
      <path id="Path_49864" data-name="Path 49864" d="M630.333,225.837c0,.088-.773.077-1.644.329s-1.545.652-1.589.581A3.639,3.639,0,0,1,630.333,225.837Z" transform="translate(-588.402 -173.68)" fill="#263238"/>
      <path id="Path_49865" data-name="Path 49865" d="M580.416,276.146c0,.027-.252-.066-.548-.351a2.669,2.669,0,0,1-.7-1.386,2.707,2.707,0,0,1,.164-1.54c.164-.373.351-.548.378-.521a4.011,4.011,0,0,1-.186.586,3.119,3.119,0,0,0-.077,1.425,3.173,3.173,0,0,0,.548,1.3C580.258,275.959,580.444,276.107,580.416,276.146Z" transform="translate(-566.72 -194.735)" fill="#263238"/>
      <path id="Path_49866" data-name="Path 49866" d="M590.031,277.392c0,.033-.28-.055-.625-.329a3.408,3.408,0,0,1-1-1.381,3.29,3.29,0,0,1-.214-1.693c.066-.438.192-.68.225-.669a3.827,3.827,0,0,1,0,.685,4.074,4.074,0,0,0,.28,1.567,4.006,4.006,0,0,0,.871,1.337C589.833,277.205,590.052,277.353,590.031,277.392Z" transform="translate(-570.804 -195.175)" fill="#263238"/>
      <path id="Path_49867" data-name="Path 49867" d="M599.649,278.339c0,.027-.252-.066-.548-.329a3.052,3.052,0,0,1-.921-2.844c.088-.395.225-.6.252-.586a3.99,3.99,0,0,0,1.217,3.759Z" transform="translate(-575.304 -195.744)" fill="#263238"/>
      <path id="Path_49868" data-name="Path 49868" d="M609.416,276.24c-.082,0-.153-.756-.438-1.644a16.118,16.118,0,0,1-.575-1.606,3.068,3.068,0,0,1,.849,1.518,3.025,3.025,0,0,1,.164,1.732Z" transform="translate(-579.947 -195.026)" fill="#263238"/>
      <path id="Path_49869" data-name="Path 49869" d="M619.052,272.04a16.72,16.72,0,0,0-.378-2.055,14.9,14.9,0,0,0-.9-1.885,3.288,3.288,0,0,1,1.178,1.8,3.326,3.326,0,0,1,.1,2.143Z" transform="translate(-584.185 -192.816)" fill="#263238"/>
      <path id="Path_49870" data-name="Path 49870" d="M625.952,268.091a19.652,19.652,0,0,0-.438-1.94c-.362-1.03-.954-1.726-.888-1.781a4,4,0,0,1,1.326,3.721Z" transform="translate(-587.282 -191.13)" fill="#263238"/>
      <path id="Path_49871" data-name="Path 49871" d="M631.54,264.134a11.265,11.265,0,0,0-.608-1.874,11.507,11.507,0,0,0-1.162-1.6,3.5,3.5,0,0,1,1.77,3.474Z" transform="translate(-589.609 -189.453)" fill="#263238"/>
      <g id="Group_53280" data-name="Group 53280" transform="translate(5.317 57.579)" opacity="0.3">
        <path id="Path_49872" data-name="Path 49872" d="M571.385,236.405a3.5,3.5,0,0,0-4.823.849,1.693,1.693,0,0,0-.373.975.866.866,0,0,0,.548.838,1.365,1.365,0,0,0,1.326-.548,6.577,6.577,0,0,1,3.458-1.995" transform="translate(-566.189 -235.794)"/>
      </g>
      <g id="Group_53281" data-name="Group 53281" transform="translate(38.774 52.041)" opacity="0.3">
        <path id="Path_49873" data-name="Path 49873" d="M627.322,226.895c1.463-.208,2.9.455,4.384.658a1.019,1.019,0,0,0,.773-.115.652.652,0,0,0,.23-.548,1,1,0,0,0-.252-.548,2.373,2.373,0,0,0-1.814-.647,7.371,7.371,0,0,0-2.017.247,2.115,2.115,0,0,0-1.386.882" transform="translate(-627.24 -225.688)"/>
      </g>
      <path id="Path_49874" data-name="Path 49874" d="M556.51,211.67a2.094,2.094,0,0,0,.608,1.145.827.827,0,0,0,1.1.11c.186-.164.285-.449.521-.548s.614.214.932.17c.488-.071.586-.871,1.1-.948s.822.614,1.277.488.4-.822.789-1.058.762.066,1.047.345.625.614,1.014.521c.641-.159.652-1.3,1.31-1.392.466-.055.915.51,1.332.3.2-.1.279-.345.438-.493.312-.29.8-.186,1.211-.093s.943.11,1.151-.252a7.36,7.36,0,0,0-3.129-.548,1.693,1.693,0,0,1-1.1-.164c-.214-.148-.378-.411-.636-.406s-.384.241-.6.318c-.345.126-.7-.181-.877-.5a2.352,2.352,0,0,0-.6-.91,1.1,1.1,0,0,0-1.4.384,3.134,3.134,0,0,0-.433,1.534c-.548-.181-.548-1.195-1.145-1.3-.373-.066-.674.3-.822.647s-.291.745-.63.9c-.274-.444-.548-.888-.811-1.332a1.644,1.644,0,0,1-1.644,1.392" transform="translate(-556.497 -165.487)" fill="#fff"/>
      <path id="Path_49875" data-name="Path 49875" d="M598.045,197.446c.164-.312.323-.625.482-.937a1.1,1.1,0,0,0,1.715-.323c.142-.384.055-.871.345-1.173a.828.828,0,0,1,1-.049,2.384,2.384,0,0,1,.712.8,2.646,2.646,0,0,1,.548-1.047.915.915,0,0,1,1.1-.192c.219.142.389.422.647.4.493-.044.312-.959.756-1.173s.871.416,1.288.247.351-.691.685-.855c.5-.241.964.636,1.507.515.263-.06.417-.323.641-.471a1.03,1.03,0,0,1,1.156.153,3.025,3.025,0,0,1,.7,1.025,2.191,2.191,0,0,1,.291.877.74.74,0,0,1-.449.74c-.586.186-1.14-.669-1.732-.477-.438.142-.592.806-1.047.86s-.767-.581-1.244-.641c-.548-.071-.844.663-1.271,1.052a1.3,1.3,0,0,1-1.935-.351l-.866.548a1.1,1.1,0,0,0-1.644.641c.055-.279-.3-.493-.548-.422a1.277,1.277,0,0,0-.63.548,1.25,1.25,0,0,1-.636.548c-.427.11-.882-.247-1.3-.115s-.712.8-1.178.712-.444-.685-.159-.97a1.715,1.715,0,0,1,1.1-.351" transform="translate(-574.692 -158.907)" fill="#fff"/>
      <path id="Path_49876" data-name="Path 49876" d="M586.906,222.844a.734.734,0,0,0-1.321-.455c-.164.214-.225.548-.471.63-.427.164-.844-.5-1.277-.345s-.362.789-.745.926c-.3.1-.575-.181-.729-.449s-.312-.586-.614-.647-.685.329-.828.69-.3.8-.669.915c-.5.164-.937-.367-1.195-.828s-.7-.986-1.2-.828a1.189,1.189,0,0,0-.586.614l-1.452,2.559.033,2.844c.669,0,.784-.652.839-1.326a1.255,1.255,0,0,0,1.485.482,4.707,4.707,0,0,0,1.441-.888,2.576,2.576,0,0,1,1.534-.641c.406,0,.838.186,1.195,0s.477-.734.745-1.1a1.962,1.962,0,0,1,1.458-.63,5.233,5.233,0,0,0,1.606-.247,1.14,1.14,0,0,0,.751-1.282Z" transform="translate(-565.225 -172.024)" fill="#fff"/>
      <path id="Path_49877" data-name="Path 49877" d="M626.754,219.376a3.74,3.74,0,0,0-.088-.981c-.033-.329.1-.734.417-.806a.8.8,0,0,1,.7.318,1.326,1.326,0,0,0,.625.477c.241-.274,0-.729.17-1.063a.7.7,0,0,1,.932-.236,2.006,2.006,0,0,1,.729.767c.1-.367.641-.433.948-.219a1.863,1.863,0,0,1,.581.959.608.608,0,0,1,0,.488.548.548,0,0,1-.345.225,2.055,2.055,0,0,1-1.343-.082.789.789,0,0,0-.477-.11c-.329.082-.367.6-.685.718-.208.082-.455-.049-.669.027s-.318.329-.515.433a.592.592,0,0,1-.674-.164,1.714,1.714,0,0,1-.334-.652l.071-.044" transform="translate(-588.204 -169.718)" fill="#fff"/>
      <path id="Path_49878" data-name="Path 49878" d="M626.846,240.243c-.055.3.334.482.625.433a3.514,3.514,0,0,1,.871-.175,2.3,2.3,0,0,1,.647.274,1.573,1.573,0,0,0,1.644-.263,1.726,1.726,0,0,0,.192.849.586.586,0,0,0,.762.236,1.229,1.229,0,0,0,.323-.477c.093-.175.263-.345.455-.3s.263.219.378.356a1.143,1.143,0,0,0,1.644-.175,3.255,3.255,0,0,0,.548-1.748c.033-.269.038-.6-.186-.751a.5.5,0,0,0-.63.132,1.441,1.441,0,0,0-.285.63,1.228,1.228,0,0,0-1.041-1.513,1.1,1.1,0,0,0-1.058,1.425,2.12,2.12,0,0,0-.274-.734.712.712,0,0,0-.663-.345c-.406.06-.592.548-.691.932s-.252.877-.652.975c-.5.126-.888-.449-1.354-.685a1.14,1.14,0,0,0-1.189.11Z" transform="translate(-588.285 -179.099)" fill="#fff"/>
      <path id="Path_49879" data-name="Path 49879" d="M575.793,261.661s-.7,2.461-.734,2.461.723-.427,1.03-.323.6.34.921.258c.5-.121.6-.921,1.1-1.008a.9.9,0,0,1,.625.208,1.222,1.222,0,0,0,.6.28c.225,0,.471-.192.411-.406a1.173,1.173,0,0,0,1.337.86,4.269,4.269,0,0,0,1.6-.707,2.378,2.378,0,0,1,1.644-.422,6.11,6.11,0,0,1,1.025.46.97.97,0,0,0,1.052-.093c.154-.153.219-.395.406-.515a.751.751,0,0,1,.784.1,1.907,1.907,0,0,0,.734.373,1.047,1.047,0,0,0,.976-.669c.181-.373.252-.8.438-1.173a1.03,1.03,0,0,1,.986-.647c.208.033.417.159.614.082.395-.159.159-.882.521-1.1a.778.778,0,0,1,.625,0,3.661,3.661,0,0,0,2.707-.252,1.841,1.841,0,0,0-1.359-.795,5.578,5.578,0,0,0-1.644.115,2.817,2.817,0,0,0-1.343.482c-.17.148-.334.345-.548.351-.395,0-.63-.614-1.014-.521s-.285.641-.559.86-.685-.055-.959-.3-.69-.466-.959-.225-.2.806-.548.844-.389-.515-.636-.767a.669.669,0,0,0-.981.208,1.88,1.88,0,0,0-.175,1.129,2.74,2.74,0,0,0-.981-1.1.943.943,0,0,0-1.293.34c-.055.137-.071.3-.186.395a.416.416,0,0,1-.548-.126c-.137-.164-.2-.373-.34-.548a.833.833,0,0,0-1.041-.159.822.822,0,0,0-.3,1,2.11,2.11,0,0,0-3.677.932Z" transform="translate(-564.881 -188.531)" fill="#fff"/>
      <path id="Path_49880" data-name="Path 49880" d="M559.46,251.132c1.041.477,2.028.975,2.7.049a1.545,1.545,0,0,0,2.773-.044c.241-.5.247-1.189.734-1.469.548-.329,1.25.2,1.9.323a2.59,2.59,0,0,0,2.148-.926,7.76,7.76,0,0,1,1.8-1.617c.647-.329,1.578-.575,1.573-1.3s-.893-.959-1.5-.723a7.3,7.3,0,0,0-1.556,1.184,1.462,1.462,0,0,1-1.8.175c-.274-.252-.449-.7-.822-.7s-.548.548-.548.954-.192.943-.6.91-.482-.669-.778-.992c-.438-.482-1.321-.082-1.518.548a2.844,2.844,0,0,0,.323,1.885l-2.148-2.811-.608,2.1a4.192,4.192,0,0,0-1.578-1.4,1.278,1.278,0,0,0-1.732.51C558.1,247.976,558.836,250.847,559.46,251.132Z" transform="translate(-557.266 -182.529)" fill="#fff"/>
      <path id="Path_49881" data-name="Path 49881" d="M625.531,252.911c-.154.164,0,.406.055.63a1.8,1.8,0,0,1,.071.68c-.038.225-.252.438-.477.378-.121-.033-.208-.137-.318-.186-.29-.132-.592.11-.882.214-.965.34-2.017-.778-2.959-.395-.548.214-.921.877-1.48.762a.8.8,0,0,1-.548-.943,1.8,1.8,0,0,1,.674-.975,5.975,5.975,0,0,0,.9-.8c.192-.247.384-.548.7-.548.411,0,.669.674,1.058.548.208-.071.274-.329.263-.548a1.83,1.83,0,0,1,0-.647.762.762,0,0,1,1.1-.285,2.274,2.274,0,0,1,.893.943Z" transform="translate(-584.729 -184.938)" fill="#fff"/>
    </g>
    <g id="freepik--Device--inject-16" transform="translate(65.574 67.943)">
      <path id="Path_49882" data-name="Path 49882" d="M343.741,92.16H109.122a7.327,7.327,0,0,0-7.322,7.327V265.2a7.322,7.322,0,0,0,7.322,7.322h90.046s5.727,17.712-12.057,26.853h84.226s-20.047-6.872-14.89-26.853h87.295a7.322,7.322,0,0,0,7.322-7.322V99.487A7.327,7.327,0,0,0,343.741,92.16Z" transform="translate(-101.8 -92.16)" fill="#455a64"/>
      <path id="Path_49883" data-name="Path 49883" d="M326.378,388.324c3.195,4.56-1.8,9.557-6.363,6.363a1.568,1.568,0,0,1-.395-.389c-3.184-4.565,1.808-9.552,6.368-6.368A1.567,1.567,0,0,1,326.378,388.324Z" transform="translate(-199.795 -225.386)" fill="#263238"/>
      <path id="Path_49884" data-name="Path 49884" d="M114.486,97.7H345.039a5.316,5.316,0,0,1,5.316,5.316V244.734H109.17V103.016A5.316,5.316,0,0,1,114.486,97.7Z" transform="translate(-105.131 -94.664)" fill="#e0e0e0"/>
      <path id="Path_49885" data-name="Path 49885" d="M343.748,421.207c0,.077-33.386.142-74.564.142s-74.564-.066-74.564-.142,33.375-.137,74.564-.137S343.748,421.13,343.748,421.207Z" transform="translate(-143.753 -240.82)" fill="#263238"/>
      <rect id="Rectangle_13495" data-name="Rectangle 13495" width="186.53" height="137.515" transform="translate(30.317 7.787)" fill="#fff"/>
      <path id="Path_49886" data-name="Path 49886" d="M343.7,243.933H156.62V105.87H343.7Zm-186.53-.548H343.156V106.418H157.168Z" transform="translate(-126.577 -98.357)" fill="#263238"/>
      <path id="Path_49887" data-name="Path 49887" d="M171,116.66a1.31,1.31,0,1,1-1.31-1.31A1.31,1.31,0,0,1,171,116.66Z" transform="translate(-131.893 -102.641)" fill="#263238"/>
      <circle id="Ellipse_42" data-name="Ellipse 42" cx="1.31" cy="1.31" r="1.31" transform="translate(40.395 12.709)" fill="#263238"/>
      <circle id="Ellipse_43" data-name="Ellipse 43" cx="1.31" cy="1.31" r="1.31" transform="translate(44.11 12.709)" fill="#263238"/>
      <path id="Path_49888" data-name="Path 49888" d="M329.146,130.908l-10.177-3.748-10.073,3.7c-1.288.625-2.417,1-2.417,2.225v6.121a23.565,23.565,0,0,0,3.321,12.177,20.863,20.863,0,0,0,9.267,8.4c4.121-1.376,7.2-5.031,9.07-8.16a23.532,23.532,0,0,0,3.321-12.177v-5.48A2.865,2.865,0,0,0,329.146,130.908Z" transform="translate(-194.31 -107.979)" fill="#3f97f6"/>
      <g id="Group_53282" data-name="Group 53282" transform="translate(112.169 19.181)" opacity="0.8">
        <path id="Path_49889" data-name="Path 49889" d="M329.146,130.908l-10.177-3.748-10.073,3.7c-1.288.625-2.417,1-2.417,2.225v6.121a23.565,23.565,0,0,0,3.321,12.177,20.863,20.863,0,0,0,9.267,8.4c4.121-1.376,7.2-5.031,9.07-8.16a23.532,23.532,0,0,0,3.321-12.177v-5.48A2.865,2.865,0,0,0,329.146,130.908Z" transform="translate(-306.479 -127.16)" fill="#fff"/>
      </g>
      <path id="Path_49890" data-name="Path 49890" d="M330.6,146.737h-2.263V134.429a5.256,5.256,0,1,0-10.511,0v12.309H315.56V134.429a7.519,7.519,0,1,1,15.038,0Z" transform="translate(-198.415 -107.866)" fill="#3f97f6"/>
      <g id="Group_53283" data-name="Group 53283" transform="translate(117.145 19.044)" opacity="0.4">
        <path id="Path_49891" data-name="Path 49891" d="M330.6,146.737h-2.263V134.429a5.256,5.256,0,1,0-10.511,0v12.309H315.56V134.429a7.519,7.519,0,1,1,15.038,0Z" transform="translate(-315.56 -126.91)"/>
      </g>
      <rect id="Rectangle_13496" data-name="Rectangle 13496" width="20.26" height="12.999" rx="5.81" transform="translate(114.526 33.396)" fill="#3f97f6"/>
      <g id="Group_53284" data-name="Group 53284" transform="translate(122.965 36.524)" opacity="0.5">
        <path id="Path_49892" data-name="Path 49892" d="M329.567,160.485a1.693,1.693,0,1,0-2.154,1.644v2.532h.921v-2.532a1.688,1.688,0,0,0,1.233-1.644Z" transform="translate(-326.18 -158.806)"/>
      </g>
      <path id="Path_49893" data-name="Path 49893" d="M312.688,166.584c-.049,0-.088-2.165-.088-4.839s.038-4.845.088-4.845.082,2.192.082,4.845S312.732,166.584,312.688,166.584Z" transform="translate(-197.077 -121.421)" fill="#fafafa"/>
      <path id="Path_49894" data-name="Path 49894" d="M325.929,162.268a.983.983,0,0,1-.2-.11,2.137,2.137,0,0,1-.438-.449,2.367,2.367,0,0,1,.844-3.557,1.983,1.983,0,0,1,.592-.2h.225a4.651,4.651,0,0,0-.756.318,2.34,2.34,0,0,0-.806,3.387,5,5,0,0,0,.537.614Z" transform="translate(-202.596 -121.896)" fill="#fafafa"/>
      <circle id="Ellipse_44" data-name="Ellipse 44" cx="0.778" cy="0.778" r="0.778" transform="translate(107.171 41.578)" fill="#3f97f6"/>
      <path id="Path_49895" data-name="Path 49895" d="M361.707,131.5a.784.784,0,1,1-.778-.784A.784.784,0,0,1,361.707,131.5Z" transform="translate(-218.564 -109.588)" fill="#3f97f6"/>
      <path id="Path_49896" data-name="Path 49896" d="M306.9,182.577a.208.208,0,0,1-.2.2.2.2,0,0,1-.2-.2.2.2,0,0,1,.2-.2.2.2,0,0,1,.2.2Z" transform="translate(-194.32 -132.937)" fill="#3f97f6"/>
      <path id="Path_49897" data-name="Path 49897" d="M306.9,142.317a.2.2,0,0,1-.2.2.2.2,0,0,1,0-.395A.2.2,0,0,1,306.9,142.317Z" transform="translate(-194.32 -114.741)" fill="#3f97f6"/>
      <path id="Path_49898" data-name="Path 49898" d="M363.375,161.707a.2.2,0,1,1-.2-.2A.2.2,0,0,1,363.375,161.707Z" transform="translate(-219.847 -123.505)" fill="#3f97f6"/>
      <path id="Path_49899" data-name="Path 49899" d="M368.4,144.837a.2.2,0,1,1-.2-.2A.2.2,0,0,1,368.4,144.837Z" transform="translate(-222.121 -115.88)" fill="#3f97f6"/>
      <path id="Path_49923" data-name="Path 49923" d="M339.922,218.126c0,.077-32.224.142-71.966.142S196,218.2,196,218.126,228.2,218,267.955,218,339.922,218.044,339.922,218.126Z" transform="translate(-142.376 -146.037)" fill="#263238"/>
      <path id="Path_49924" data-name="Path 49924" d="M334.425,231.668a.871.871,0,0,1-.208,0H333.6l-2.373.027-8.719.044-28.766.071-28.771-.044-8.719-.044-2.373-.027h-.614a.871.871,0,0,1-.208,0,1.03,1.03,0,0,1,.208,0h.614l2.373-.027,8.719-.049,28.771-.038,28.766.038,8.719.049,2.373.027h.614A1.03,1.03,0,0,1,334.425,231.668Z" transform="translate(-170.166 -161.175)" fill="#263238"/>
      <rect id="Rectangle_13497" data-name="Rectangle 13497" width="14.758" height="19.86" rx="6.34" transform="translate(76.477 82.987)" fill="#e0e0e0"/>
      <rect id="Rectangle_13498" data-name="Rectangle 13498" width="14.758" height="19.86" rx="6.34" transform="translate(96.337 82.987)" fill="#e0e0e0"/>
      <rect id="Rectangle_13499" data-name="Rectangle 13499" width="14.758" height="19.86" rx="6.34" transform="translate(116.197 82.987)" fill="#e0e0e0"/>
      <rect id="Rectangle_13500" data-name="Rectangle 13500" width="14.758" height="19.86" rx="6.34" transform="translate(136.058 82.987)" fill="#e0e0e0"/>
      <rect id="Rectangle_13501" data-name="Rectangle 13501" width="14.758" height="19.86" rx="6.34" transform="translate(155.918 82.987)" fill="#e0e0e0"/>
      <path id="Path_49925" data-name="Path 49925" d="M255.979,260.324v.548h-5.891v-.444l3.622-3.6c1.019-1.019,1.217-1.617,1.217-2.269,0-1.1-.751-1.748-2.192-1.748a3.042,3.042,0,0,0-2.461.992l-.444-.395a3.787,3.787,0,0,1,2.954-1.173c1.677,0,2.74.866,2.74,2.263a3.52,3.52,0,0,1-1.4,2.658l-3.107,3.168Z" transform="translate(-168.706 -164.508)"/>
      <path id="Path_49926" data-name="Path 49926" d="M284.48,256.636c0-2.68,1.387-4.346,3.359-4.346s3.354,1.644,3.354,4.346-1.381,4.351-3.354,4.351S284.48,259.321,284.48,256.636Zm6.089,0c0-2.389-1.1-3.77-2.74-3.77s-2.74,1.381-2.74,3.77,1.1,3.776,2.74,3.776S290.569,259.025,290.569,256.636Z" transform="translate(-184.367 -164.535)"/>
      <path id="Path_49927" data-name="Path 49927" d="M328.479,252.4v.438l-3.688,8.138h-.685l3.65-8.012h-4.812v1.644h-.614v-2.192Z" transform="translate(-201.475 -164.585)"/>
      <path id="Path_49928" data-name="Path 49928" d="M363.705,258.6h-1.8v2.378h-.614V258.6H356.4v-.455l4.658-5.743h.7l-4.565,5.645H361.3v-2.093h.6v2.093h1.8Z" transform="translate(-216.873 -164.585)"/>
      <path id="Path_49929" data-name="Path 49929" d="M401.03,272.243a80.742,80.742,0,0,1-9.59,0,77.783,77.783,0,0,1,9.59,0Z" transform="translate(-232.711 -173.478)" fill="#3f97f6"/>
      <rect id="Rectangle_13502" data-name="Rectangle 13502" width="56.731" height="18.233" rx="9.116" transform="translate(94.841 113.495)" fill="#0075f4"/>
      <rect id="Rectangle_13503" data-name="Rectangle 13503" width="52" height="5" rx="2.5" transform="translate(99.076 58.637)" fill="#b9d8fb" opacity="0.5"/>
    </g>
    <g id="freepik--speech-bubble--inject-16" transform="translate(347.453 69.008)">
      <path id="Path_49978" data-name="Path 49978" d="M616.644,129.741l3.206-6.971a17.876,17.876,0,1,1,4.669,4.384h0Z" transform="translate(-616.242 -94.176)" fill="#fff"/>
      <path id="Path_49979" data-name="Path 49979" d="M616.558,129.668l7.859-2.647-.027.115h0l-.378-.406.466.3a17.74,17.74,0,0,0,8.768,2.8,15.634,15.634,0,0,0,2.8-.1c.477-.071.959-.126,1.447-.208l1.469-.356a17.816,17.816,0,0,0,10.369-8.007,17.608,17.608,0,0,0,2.378-7.037,17.925,17.925,0,0,0-.877-7.787,17.362,17.362,0,0,0-4.384-6.894,17.673,17.673,0,0,0-7.146-4.291,17.948,17.948,0,0,0-7.968-.548,17.378,17.378,0,0,0-7.042,2.74,17.893,17.893,0,0,0-7.5,10.96,19.028,19.028,0,0,0-.3,5.787,17.772,17.772,0,0,0,3.326,8.549v.066c-2.066,4.384-3.063,6.505-3.288,6.943.2-.438,1.151-2.57,3.146-7v.066a17.723,17.723,0,0,1-3.414-8.6,19.3,19.3,0,0,1,.28-5.858,18.085,18.085,0,0,1,7.568-11.125,17.64,17.64,0,0,1,7.124-2.795,18.249,18.249,0,0,1,8.089.548,17.952,17.952,0,0,1,7.283,4.324,17.619,17.619,0,0,1,4.444,7,18.233,18.233,0,0,1,.882,7.908,18.029,18.029,0,0,1-12.961,15.213l-1.485.356c-.493.082-.986.137-1.469.208a16.506,16.506,0,0,1-2.833.093,17.816,17.816,0,0,1-8.851-2.883l.093-.11h0l.071.082-.1.033Z" transform="translate(-616.157 -94.104)" fill="#263238"/>
      <path id="Path_49980" data-name="Path 49980" d="M647.29,121.245a4.735,4.735,0,1,0-7.343-1.1l-.959.9.225,1.595-1.491-.416-1.206,1.123.23,1.6-1.491-.422-1.036.965.137.975-.926-.29-.6.548-.088,1.48,2.192.548,7.163-6.68a4.735,4.735,0,0,0,5.2-.828Zm-.707-5.831a1.359,1.359,0,1,1-1.918-.066,1.359,1.359,0,0,1,1.918.066Z" transform="translate(-623.652 -102.67)" fill="#263238"/>
      <path id="Path_49981" data-name="Path 49981" d="M647.29,121.245a4.735,4.735,0,1,0-7.343-1.1l-.959.9.225,1.595-1.491-.416-1.206,1.123.23,1.6-1.491-.422-1.036.965.137.975-.926-.29-.6.548-.088,1.48,2.192.548,7.163-6.68a4.735,4.735,0,0,0,5.2-.828Zm-.707-5.831a1.359,1.359,0,1,1-1.918-.066,1.359,1.359,0,0,1,1.918.066Z" transform="translate(-623.652 -102.67)" fill="none"/>
      <path id="Path_49982" data-name="Path 49982" d="M656.016,116.971a1.758,1.758,0,0,0-.269-.192,1.354,1.354,0,0,0-.855-.186,1.282,1.282,0,1,0,1.3.663c-.1-.192-.186-.274-.175-.285s0,0,.066.06a.921.921,0,0,1,.148.2,1.327,1.327,0,0,1,.17.9,1.4,1.4,0,0,1-2.778-.071,1.342,1.342,0,0,1,.148-.806,1.409,1.409,0,0,1,1.1-.751,1.337,1.337,0,0,1,.888.236.9.9,0,0,1,.192.164C656.016,116.944,656.016,116.971,656.016,116.971Z" transform="translate(-633.085 -104.226)" fill="#263238"/>
      <path id="Path_49983" data-name="Path 49983" d="M647.3,121.361l-.071.066-.208.186a4.884,4.884,0,0,1-.915.581,4.8,4.8,0,0,1-1.682.449,4.735,4.735,0,0,1-2.3-.395h.038l-7.124,6.7h-.027l-2.192-.548h-.044v-.044c.027-.466.055-.97.088-1.485h0l.6-.548h.033l.91.252-.071.066-.142-.975v-.033h0l1.036-.97h.027l1.5.416-.077.066c-.071-.5-.148-1.052-.23-1.595v-.033h0l.318-.3.888-.828h.033l1.491.416-.071.066c-.077-.548-.154-1.1-.23-1.6h0l.965-.9v.071a4.823,4.823,0,0,1-.614-2.154,4.574,4.574,0,0,1,.077-1.1,4.384,4.384,0,0,1,.318-1.025,4.779,4.779,0,0,1,8.659-.2,4.85,4.85,0,0,1,.466,2.488,4.736,4.736,0,0,1-.548,1.819l-.088.17-.1.148a2.845,2.845,0,0,1-.181.269c-.126.153-.225.29-.318.389s-.17.164-.219.219l-.077.071.066-.082.214-.225c.093-.1.186-.236.312-.389a1.887,1.887,0,0,0,.175-.269l.093-.153.082-.164a4.625,4.625,0,0,0,.51-1.808,4.685,4.685,0,0,0-8.966-2.236,4.434,4.434,0,0,0-.307,1,4.632,4.632,0,0,0-.077,1.1,4.746,4.746,0,0,0,.6,2.1v.038l.1-.192-.959.9v-.055c.077.548.153,1.063.23,1.6v.088H639.2l-1.5-.422h.055l-.882.828-.323.3v-.055c.077.548.153,1.1.23,1.6v.088H636.7l-1.452-.482h.055l-1.036.965v-.049c.049.334.1.669.143.975v.088l-.088-.027-.882-.252h.055l-.6.548v-.038c0,.51-.06,1.019-.088,1.48l-.044-.06,2.192.548H634.9l7.174-6.664h0a4.746,4.746,0,0,0,2.274.406,4.664,4.664,0,0,0,1.644-.433,5.212,5.212,0,0,0,.921-.548l.214-.181Z" transform="translate(-623.661 -102.785)" fill="#263238"/>
      <path id="Path_49984" data-name="Path 49984" d="M647.014,120.245a4.735,4.735,0,1,0-7.343-1.1h0l-.959.9.23,1.595-1.5-.416-1.206,1.1.23,1.6-1.491-.422-1.036.965.137.975-.91-.252-.6.548-.088,1.48,2.192.548,7.163-6.686a4.735,4.735,0,0,0,5.179-.833Zm-.7-5.82a1.359,1.359,0,1,1-1.918-.066A1.359,1.359,0,0,1,646.312,114.425Z" transform="translate(-623.534 -102.218)" fill="#3f97f6"/>
      <path id="Path_49985" data-name="Path 49985" d="M647.014,120.245a4.735,4.735,0,1,0-7.343-1.1h0l-.959.9.23,1.595-1.5-.416-1.206,1.1.23,1.6-1.491-.422-1.036.965.137.975-.91-.252-.6.548-.088,1.48,2.192.548,7.163-6.686a4.735,4.735,0,0,0,5.179-.833Zm-.7-5.82a1.359,1.359,0,1,1-1.918-.066A1.359,1.359,0,0,1,646.312,114.425Z" transform="translate(-623.534 -102.218)" fill="none"/>
      <path id="Path_49986" data-name="Path 49986" d="M655.736,115.991a1.759,1.759,0,0,0-.268-.192,1.343,1.343,0,0,0-.855-.186,1.3,1.3,0,1,0,.641,2.5,1.337,1.337,0,0,0,.658-1.841c-.1-.192-.186-.274-.175-.285s0,0,.066.06a.921.921,0,0,1,.148.2,1.3,1.3,0,0,1,.17.9,1.4,1.4,0,0,1-2.779-.071,1.343,1.343,0,0,1,.148-.806,1.408,1.408,0,0,1,1.1-.751,1.326,1.326,0,0,1,.882.236.9.9,0,0,1,.192.164C655.719,115.964,655.741,115.991,655.736,115.991Z" transform="translate(-632.958 -103.783)" fill="#263238"/>
      <path id="Path_49987" data-name="Path 49987" d="M646.982,120.289l-.071.066-.208.186a4.882,4.882,0,0,1-.915.581,4.8,4.8,0,0,1-1.682.449,4.735,4.735,0,0,1-2.3-.395h.038l-7.124,6.7h0l-2.192-.548h-.044v-.044c0-.466.055-.97.088-1.485h0l.6-.548h.033l.91.252-.071.066-.143-.975v-.033h0l1.036-.97h0l1.5.417-.071.066c-.077-.5-.153-1.052-.23-1.595v-.033h0l.318-.3.888-.828h.033l1.491.417-.071.066c-.077-.548-.153-1.1-.23-1.6h0l.965-.9v.071a4.822,4.822,0,0,1-.614-2.154,4.574,4.574,0,0,1,.077-1.1,4.387,4.387,0,0,1,.318-1.025,4.768,4.768,0,0,1,9.125,2.285,4.642,4.642,0,0,1-.548,1.819l-.088.17-.1.148a2.849,2.849,0,0,1-.181.269c-.126.153-.225.29-.318.389l-.219.219.005-.11.066-.082.214-.225c.093-.1.186-.236.312-.389a1.889,1.889,0,0,0,.175-.269l.093-.153.082-.164a4.626,4.626,0,0,0,.51-1.808,4.686,4.686,0,0,0-8.966-2.236,4.431,4.431,0,0,0-.307,1,4.638,4.638,0,0,0-.077,1.1,4.822,4.822,0,0,0,.6,2.1v.038l-.033.033-.959.9v-.055c.077.548.154,1.063.23,1.6v.088h-.088l-1.5-.422h.055l-.828.767-.318.3v-.055c.077.548.159,1.1.23,1.6v.088h-.088l-1.469-.466h.055l-1.036.965v-.049c.049.334.1.669.142.975v.088H634l-.91-.252h.055l-.6.548v-.038c0,.51-.06,1.019-.088,1.48l-.044-.06,2.192.548h-.049l7.174-6.664h0a4.746,4.746,0,0,0,2.274.406,4.663,4.663,0,0,0,1.644-.433,5.211,5.211,0,0,0,.921-.548l.214-.181Z" transform="translate(-623.503 -102.261)" fill="#263238"/>
      <path id="Path_49988" data-name="Path 49988" d="M652.374,120.285a5.374,5.374,0,0,0,.636-.8,3.9,3.9,0,0,0,.488-1.1,4.127,4.127,0,0,0-.488-3.354,4.192,4.192,0,0,0-1.606-1.458,4.017,4.017,0,0,0-1.1-.378,4.488,4.488,0,0,0-.608-.066,4.769,4.769,0,0,0-.625,0,4.1,4.1,0,0,0-3.551,3.288,4.659,4.659,0,0,0-.071.619,5.592,5.592,0,0,0,.027.608,3.764,3.764,0,0,0,.3,1.14,4.066,4.066,0,0,0,1.337,1.7,4.138,4.138,0,0,0,1.743.751,4.275,4.275,0,0,0,1.573-.027,3.962,3.962,0,0,0,1.1-.411,5.724,5.724,0,0,0,.839-.581l-.044.049-.148.132a1.924,1.924,0,0,1-.258.2,3.314,3.314,0,0,1-.367.236,3.914,3.914,0,0,1-1.129.438,4.2,4.2,0,0,1-4.773-2.45,3.937,3.937,0,0,1-.307-1.173,4.728,4.728,0,0,1-.033-.625,4.115,4.115,0,0,1,.077-.636,4.22,4.22,0,0,1,1.26-2.307,4.269,4.269,0,0,1,2.389-1.1,5.019,5.019,0,0,1,.641-.027,4.657,4.657,0,0,1,.619.071,4.028,4.028,0,0,1,1.151.395,4.181,4.181,0,0,1,2.263,3.332,4.116,4.116,0,0,1-.669,2.691,2.432,2.432,0,0,1-.263.351,2.046,2.046,0,0,1-.214.241l-.142.137C652.4,120.274,652.379,120.291,652.374,120.285Z" transform="translate(-629.333 -102.63)" fill="#263238"/>
      <path id="Path_49989" data-name="Path 49989" d="M655.608,117.884a2.461,2.461,0,0,0,.236-.312,1.644,1.644,0,0,0,.219-1.008,1.492,1.492,0,0,0-.236-.669,1.568,1.568,0,0,0-.6-.548,1.534,1.534,0,0,0-2.192,1.1,1.551,1.551,0,0,0,.592,1.524,1.463,1.463,0,0,0,.652.285,1.584,1.584,0,0,0,1.014-.153,3.569,3.569,0,0,0,.329-.208l-.066.071a1.146,1.146,0,0,1-.241.175,1.568,1.568,0,0,1-1.052.2,1.611,1.611,0,0,1-1.239-.965,1.643,1.643,0,0,1-.1-.948,1.682,1.682,0,0,1,.493-.9,1.644,1.644,0,0,1,1.874-.258,1.738,1.738,0,0,1,.636.586,1.562,1.562,0,0,1-.219,1.978Z" transform="translate(-632.759 -103.583)" fill="#263238"/>
      <path id="Path_49990" data-name="Path 49990" d="M635.45,134.675c0-.027,1.589-1.567,3.6-3.442s3.661-3.381,3.683-3.354-1.589,1.562-3.6,3.442S635.472,134.7,635.45,134.675Z" transform="translate(-624.877 -109.37)" fill="#263238"/>
      <path id="Path_49991" data-name="Path 49991" d="M636.758,123.048l.066-.148.088.132a.691.691,0,0,0,.285.247l.148.066-.132.088a.69.69,0,0,0-.247.285l-.066.148-.088-.137a.675.675,0,0,0-.285-.241l-.148-.066.137-.088a.673.673,0,0,0,.241-.285Z" transform="translate(-625.297 -107.119)" fill="#3f97f6"/>
      <path id="Path_49992" data-name="Path 49992" d="M628.889,121.1l.038-.082.049.077a.433.433,0,0,0,.17.142l.082.038-.077.049a.346.346,0,0,0-.142.164l-.038.088-.049-.077a.356.356,0,0,0-.17-.142l-.082-.038.077-.049a.433.433,0,0,0,.143-.17Z" transform="translate(-621.812 -106.269)" fill="#3f97f6"/>
      <path id="Path_49993" data-name="Path 49993" d="M654.089,134.742l.038-.082.049.077a.417.417,0,0,0,.164.142l.088.038-.077.049a.345.345,0,0,0-.143.164l-.038.088-.055-.082a.367.367,0,0,0-.164-.137l-.082-.038.077-.055A.417.417,0,0,0,654.089,134.742Z" transform="translate(-633.202 -112.434)" fill="#3f97f6"/>
      <path id="Path_49994" data-name="Path 49994" d="M666.288,127.7l.066-.148.088.132a.636.636,0,0,0,.29.247l.143.066-.132.088a.691.691,0,0,0-.247.285l-.066.148-.088-.132a.657.657,0,0,0-.285-.247l-.148-.066.137-.088a.673.673,0,0,0,.241-.285Z" transform="translate(-638.644 -109.221)" fill="#3f97f6"/>
      <path id="Path_49995" data-name="Path 49995" d="M664.476,117.8l.11-.247.148.225a1.1,1.1,0,0,0,.482.411l.241.11-.225.148a1.135,1.135,0,0,0-.411.482l-.11.247-.148-.225a1.1,1.1,0,0,0-.477-.411l-.247-.11.225-.148a1.1,1.1,0,0,0,.411-.482Z" transform="translate(-637.708 -104.701)" fill="#3f97f6"/>
      <path id="Path_49996" data-name="Path 49996" d="M634.06,114.8l.115-.247.143.225a1.134,1.134,0,0,0,.482.411l.247.11-.225.148a1.134,1.134,0,0,0-.411.482l-.11.247-.148-.225a1.1,1.1,0,0,0-.482-.411l-.241-.11.225-.148a1.157,1.157,0,0,0,.406-.482Z" transform="translate(-623.964 -103.345)" fill="#3f97f6"/>
    </g>
    <g id="freepik--Plant--inject-16" transform="translate(21.65 164.351)">
      <rect id="Rectangle_13465" data-name="Rectangle 13465" width="40.882" height="5.617" transform="translate(18.882 76.524)" fill="#263238"/>
      <path id="Path_49556" data-name="Path 49556" d="M97.036,413.044H56V407.29H97.019Zm-40.882-.137h40.74v-5.48H56.153Z" transform="translate(-37.205 -330.832)" fill="#263238"/>
      <path id="Path_49557" data-name="Path 49557" d="M63.07,414.25l5.886,29.029H90.729l5.688-27.16Z" transform="translate(-40.401 -333.978)" fill="#263238"/>
      <path id="Path_49558" data-name="Path 49558" d="M63.07,462.21l3.14,4.318H92.674l3.743-4.318Z" transform="translate(-40.401 -355.655)" fill="#455a64"/>
      <path id="Path_49559" data-name="Path 49559" d="M90.444,366.254c-.077,0-.181-13.448-.23-30.037s0-30.037.06-30.037.186,13.448.23,30.037S90.526,366.254,90.444,366.254Z" transform="translate(-52.66 -285.133)" fill="#263238"/>
      <path id="Path_49560" data-name="Path 49560" d="M104.155,354.39a1.606,1.606,0,0,1-.11.312l-.367.871-.263.625c-.088.236-.175.493-.274.762s-.2.548-.318.877-.192.652-.3,1a41.061,41.061,0,0,0-1.14,5.009,60.459,60.459,0,0,0-.636,6.258,84.8,84.8,0,0,0,.323,11.432c.132,1.458.263,2.641.362,3.453.044.384.077.7.1.943a1.644,1.644,0,0,1,0,.329,1.249,1.249,0,0,1-.077-.323c-.038-.241-.093-.548-.159-.932-.132-.811-.3-1.989-.449-3.447a75.511,75.511,0,0,1-.411-11.47,57.891,57.891,0,0,1,.658-6.286,39.049,39.049,0,0,1,1.211-5.025c.115-.345.208-.685.323-1s.236-.6.34-.871l.3-.762.29-.619.417-.849A1.217,1.217,0,0,1,104.155,354.39Z" transform="translate(-57.263 -306.923)" fill="#263238"/>
      <path id="Path_49561" data-name="Path 49561" d="M100.994,334.54a2.137,2.137,0,0,1-.132.444l-.422,1.25q-.148.411-.312.9t-.329,1.1c-.241.778-.548,1.644-.762,2.658l-.411,1.551c-.126.548-.252,1.1-.384,1.7-.285,1.167-.493,2.439-.756,3.77-.449,2.669-.849,5.623-1.1,8.735s-.367,6.1-.406,8.807,0,5.151.137,7.2c.033,1.025.1,1.945.153,2.74s.1,1.513.148,2.082.077.986.1,1.315a2.5,2.5,0,0,1,0,.466,2.911,2.911,0,0,1-.071-.46c-.038-.323-.093-.762-.153-1.31s-.137-1.271-.2-2.082-.148-1.737-.2-2.74c-.137-2.05-.192-4.5-.2-7.212s.126-5.7.384-8.829.685-6.089,1.151-8.768c.269-1.332.488-2.6.784-3.776.137-.586.269-1.156.4-1.7l.427-1.551c.263-1,.548-1.88.806-2.652l.356-1.1c.121-.323.236-.619.334-.893q.3-.773.477-1.233a2.739,2.739,0,0,1,.175-.416Z" transform="translate(-55.149 -297.951)" fill="#263238"/>
      <path id="Path_49562" data-name="Path 49562" d="M79.544,370.138a.745.745,0,0,1,0-.159,2.175,2.175,0,0,0-.038-.46c0-.427-.071-1.025-.121-1.781-.1-1.567-.236-3.8-.411-6.549-.351-5.53-.866-13.153-1.8-21.576-.477-4.2-1.025-8.187-1.6-11.8-.3-1.808-.581-3.524-.893-5.124s-.6-3.085-.882-4.444-.548-2.576-.811-3.644-.466-1.995-.658-2.74-.323-1.315-.422-1.737c-.044-.181-.077-.334-.1-.449a.7.7,0,0,1,0-.159.472.472,0,0,1,.055.148c.033.121.077.263.132.449l.477,1.721c.208.745.455,1.644.707,2.74s.548,2.285.855,3.639.619,2.839.915,4.444.614,3.288.926,5.124c.586,3.617,1.145,7.612,1.644,11.815.932,8.412,1.414,16.063,1.715,21.592.148,2.767.252,5.009.318,6.576,0,.756.049,1.354.066,1.781v.466a.515.515,0,0,1-.071.132Z" transform="translate(-44.347 -286.638)" fill="#263238"/>
      <path id="Path_49563" data-name="Path 49563" d="M79.4,315.229a4.04,4.04,0,0,0-4.017-3.359,6.237,6.237,0,0,0-4.866,2.641,15.2,15.2,0,0,0-2.34,5.2,35.282,35.282,0,0,0-1.441,13.838,20.955,20.955,0,0,0,5.76,12.484,2.318,2.318,0,0,0,1.984.9,2.39,2.39,0,0,0,1.085-.658,30.963,30.963,0,0,0,10.051-23.565,9.556,9.556,0,0,0-1.26-5.069c-.975-1.469-3.25-3.031-4.932-2.439" transform="translate(-41.971 -287.704)" fill="#1ec769"/>
      <path id="Path_49564" data-name="Path 49564" d="M55.394,284.363l-2.713,4.861c-.06.115-.142.241-.274.252s-.247-.121-.323-.241q-3.568-5.48-7.124-10.933l1.644-.932Z" transform="translate(-32.216 -272.111)" fill="#1ec769"/>
      <g id="Group_53276-2" data-name="Group 53276" transform="translate(12.744 5.259)" opacity="0.2">
        <path id="Path_49565" data-name="Path 49565" d="M55.394,284.363l-2.713,4.861c-.06.115-.142.241-.274.252s-.247-.121-.323-.241q-3.568-5.48-7.124-10.933l1.644-.932Z" transform="translate(-44.96 -277.37)"/>
      </g>
      <path id="Path_49566" data-name="Path 49566" d="M69.786,288.821l-24.3-14.347a.844.844,0,0,1-.159-1.567A16.759,16.759,0,0,1,58.316,267.8,14.835,14.835,0,0,1,70.06,275.1a13.364,13.364,0,0,1-.269,13.7" transform="translate(-32.173 -267.774)" fill="#1ec769"/>
      <path id="Path_49567" data-name="Path 49567" d="M52.39,271.591a1.216,1.216,0,0,1,.318-.038c.208,0,.515-.049.915-.044a18.438,18.438,0,0,1,3.376.263A19.7,19.7,0,0,1,72.727,286.02a17.977,17.977,0,0,1,.6,3.294c.044.4.027.5.038.712a1.227,1.227,0,0,1-.186.548,4.28,4.28,0,0,0,.038-1.228,21.656,21.656,0,0,0-.691-3.288,19.855,19.855,0,0,0-15.569-14.09,20.917,20.917,0,0,0-3.337-.356C52.828,271.6,52.39,271.618,52.39,271.591Z" transform="translate(-35.574 -269.461)" fill="#263238"/>
      <path id="Path_49568" data-name="Path 49568" d="M77.126,288.12a5.8,5.8,0,0,1-1.228.548c-.773.307-1.858.7-3.069,1.1s-2.318.691-3.129.888a5.836,5.836,0,0,1-1.321.252,6.663,6.663,0,0,1,1.266-.449l3.1-.97,3.1-1A6.63,6.63,0,0,1,77.126,288.12Z" transform="translate(-42.801 -276.97)" fill="#263238"/>
      <path id="Path_49569" data-name="Path 49569" d="M77.312,269.36a17.18,17.18,0,0,1,.137,5.436,16.907,16.907,0,0,1-.142-2.74A16.6,16.6,0,0,1,77.312,269.36Z" transform="translate(-46.812 -268.491)" fill="#263238"/>
      <path id="Path_49570" data-name="Path 49570" d="M45.61,277.057a10.35,10.35,0,0,1,1.765-.625c1.1-.34,2.641-.767,4.384-1.184s3.288-.729,4.417-.926a10.66,10.66,0,0,1,1.852-.252,12.715,12.715,0,0,1-1.814.449c-1.1.252-2.68.6-4.384,1.014s-3.25.811-4.384,1.1A13.706,13.706,0,0,1,45.61,277.057Z" transform="translate(-32.509 -270.62)" fill="#263238"/>
      <path id="Path_49571" data-name="Path 49571" d="M49.07,308.943c-2.093-1.589-4.3-1.9-6.922-1.8A21.175,21.175,0,0,0,34.57,309.1a23.444,23.444,0,0,0-10.412,8.187c-2.461,3.748-3.288,8.7-1.469,12.78a1.814,1.814,0,0,0,.822,1.008,2,2,0,0,0,1.376-.1,77.275,77.275,0,0,0,13.64-5.436A25.7,25.7,0,0,0,49.01,315.513a8.626,8.626,0,0,0,1.1-3.327,4.143,4.143,0,0,0-1.1-3.244" transform="translate(-21.705 -285.561)" fill="#1ec769"/>
      <path id="Path_49572" data-name="Path 49572" d="M50.431,309.54a1.541,1.541,0,0,1-.334.137l-.975.334-.707.236c-.258.093-.548.208-.828.323-.592.236-1.277.477-1.995.828l-1.145.521c-.395.181-.789.406-1.211.619-.844.417-1.7.948-2.609,1.485a41.723,41.723,0,0,0-10.281,9.026c-.652.838-1.288,1.617-1.8,2.4-.269.389-.548.756-.773,1.1l-.663,1.1c-.438.669-.762,1.321-1.1,1.874-.148.279-.3.548-.422.778s-.225.466-.323.669c-.192.384-.34.691-.46.926a1.7,1.7,0,0,1-.175.318,1.545,1.545,0,0,1,.121-.34c.11-.247.241-.548.411-.948l.3-.685c.115-.247.258-.51.406-.795.3-.548.614-1.222,1.041-1.9l.652-1.1c.225-.373.5-.745.756-1.14.515-.795,1.145-1.584,1.8-2.428a42.911,42.911,0,0,1,4.779-5,43.389,43.389,0,0,1,5.568-4.1c.921-.548,1.787-1.058,2.641-1.469.422-.208.822-.433,1.228-.608l1.156-.51c.729-.34,1.425-.548,2.022-.789.3-.11.548-.214.833-.3l.718-.214,1-.279a1.463,1.463,0,0,1,.373-.055Z" transform="translate(-23.027 -286.651)" fill="#263238"/>
      <path id="Path_49573" data-name="Path 49573" d="M33.458,325.67a47.51,47.51,0,0,1-5.086,1.644,49.228,49.228,0,0,1-5.162,1.359,49.03,49.03,0,0,1,5.086-1.644,49.237,49.237,0,0,1,5.162-1.359Z" transform="translate(-22.385 -293.942)" fill="#263238"/>
      <path id="Path_49574" data-name="Path 49574" d="M41.428,337.214a8.423,8.423,0,0,1-.11-1.584c0-.981-.033-2.335,0-3.836s.121-2.844.2-3.836a8.511,8.511,0,0,1,.2-1.578,8.307,8.307,0,0,1,0,1.589c-.033,1.1-.071,2.378-.115,3.836s-.071,2.74-.1,3.836A8.379,8.379,0,0,1,41.428,337.214Z" transform="translate(-30.563 -294.263)" fill="#263238"/>
      <path id="Path_49575" data-name="Path 49575" d="M58.368,327.059a61.376,61.376,0,0,1-.548-6.143c-.214-3.4-.362-6.16-.279-6.165a61.176,61.176,0,0,1,.548,6.149C58.3,324.307,58.451,327.053,58.368,327.059Z" transform="translate(-37.892 -289.006)" fill="#263238"/>
      <path id="Path_49576" data-name="Path 49576" d="M37.24,314.213a8.221,8.221,0,0,1,1.644-.049c1.008,0,2.395.033,3.924.082s2.921.115,3.924.175a9.626,9.626,0,0,1,1.644.153,8.216,8.216,0,0,1-1.644.049c-1,0-2.395-.033-3.929-.082s-2.915-.115-3.918-.175A9.431,9.431,0,0,1,37.24,314.213Z" transform="translate(-28.726 -288.732)" fill="#263238"/>
      <path id="Path_49577" data-name="Path 49577" d="M79.249,349.465a1.364,1.364,0,0,1-.038-.323,8.909,8.909,0,0,0-.038-.937c-.038-.811-.049-1.989,0-3.442s.126-3.184.3-5.1.46-4.012.855-6.2.871-4.247,1.365-6.116,1.03-3.513,1.518-4.888.9-2.477,1.228-3.228c.148-.351.274-.636.367-.86a1.907,1.907,0,0,1,.148-.3,1.211,1.211,0,0,1-.093.318l-.318.893c-.285.756-.68,1.869-1.134,3.25s-.959,3.031-1.452,4.888S81,331.342,80.6,333.518s-.669,4.269-.871,6.176-.312,3.628-.362,5.075-.082,2.625-.082,3.436v.937A1.337,1.337,0,0,1,79.249,349.465Z" transform="translate(-47.664 -290.511)" fill="#263238"/>
      <path id="Path_49578" data-name="Path 49578" d="M75.605,346.32a6.847,6.847,0,0,1-.97,1.063c-.63.625-1.524,1.469-2.543,2.362s-1.967,1.644-2.674,2.192a6.534,6.534,0,0,1-1.178.822,7.122,7.122,0,0,1,1.047-.981l2.614-2.269,2.592-2.269A7.065,7.065,0,0,1,75.605,346.32Z" transform="translate(-42.738 -303.275)" fill="#263238"/>
      <path id="Path_49579" data-name="Path 49579" d="M90.066,349.48a11.111,11.111,0,0,1-1.036-1.436l-2.4-3.5-2.439-3.469a10.961,10.961,0,0,1-.981-1.463,9.865,9.865,0,0,1,1.151,1.343c.674.855,1.573,2.061,2.526,3.425s1.765,2.631,2.335,3.562A10.868,10.868,0,0,1,90.066,349.48Z" transform="translate(-49.504 -300.242)" fill="#263238"/>
      <path id="Path_49580" data-name="Path 49580" d="M78.818,322.058c.044.066-2.51,1.787-5.7,3.836s-5.825,3.666-5.864,3.6,2.51-1.792,5.7-3.836S78.775,321.993,78.818,322.058Z" transform="translate(-42.29 -292.308)" fill="#263238"/>
      <path id="Path_49581" data-name="Path 49581" d="M95.3,330.189a47.16,47.16,0,0,1-3.864-3.568,48.735,48.735,0,0,1-3.666-3.781,46.67,46.67,0,0,1,3.869,3.568A49.231,49.231,0,0,1,95.3,330.189Z" transform="translate(-51.565 -292.663)" fill="#263238"/>
      <path id="Path_49582" data-name="Path 49582" d="M104.82,322.751l2.192-.181a10.866,10.866,0,0,0,4.428-1.359,17.74,17.74,0,0,1,2.066-1.036c2.74-1.1,5.738-.893,8.659-1.041a35.819,35.819,0,0,0,13.772-3.524,1.3,1.3,0,0,0,.6-.548c.455-.822-.384-1.551-1.1-1.995-3.694-2.28-7.453-4.581-11.645-5.716s-8.949-.937-12.528,1.523c-4.2,2.888-5.727,8.823-6.434,13.87" transform="translate(-59.271 -285.361)" fill="#1ec769"/>
      <path id="Path_49583" data-name="Path 49583" d="M136.629,316.481a1.722,1.722,0,0,1-.367-.175l-1.041-.548c-.9-.477-2.192-1.173-3.836-1.962a35.967,35.967,0,0,0-5.946-2.291,19.614,19.614,0,0,0-7.705-.625,13.153,13.153,0,0,0-7.02,3.02,15.646,15.646,0,0,0-3.661,5.135c-.767,1.644-1.244,3.042-1.589,4-.164.46-.29.828-.389,1.1a2.676,2.676,0,0,1-.153.378,2.07,2.07,0,0,1,.093-.4c.088-.28.2-.658.34-1.123a36.976,36.976,0,0,1,1.513-4.05,15.525,15.525,0,0,1,3.666-5.25,13.338,13.338,0,0,1,7.163-3.107,19.608,19.608,0,0,1,7.815.658,34.976,34.976,0,0,1,5.962,2.362c1.644.817,2.921,1.545,3.809,2.05l1.014.592A1.7,1.7,0,0,1,136.629,316.481Z" transform="translate(-59.316 -287.06)" fill="#263238"/>
      <path id="Path_49584" data-name="Path 49584" d="M142.733,319.586c-.044.071-2.915-1.787-6.406-4.143s-6.291-4.318-6.247-4.384,2.915,1.787,6.412,4.143S142.777,319.52,142.733,319.586Z" transform="translate(-70.688 -287.337)" fill="#263238"/>
      <path id="Path_49585" data-name="Path 49585" d="M144.11,310.779a7.028,7.028,0,0,1-2.093.378,7.125,7.125,0,0,1-2.126-.033,14.65,14.65,0,0,1,2.1-.214A14.28,14.28,0,0,1,144.11,310.779Z" transform="translate(-75.122 -287.211)" fill="#263238"/>
      <path id="Path_49586" data-name="Path 49586" d="M122.907,307.79a5.826,5.826,0,0,1-.943,1.474,6.137,6.137,0,0,1-1.195,1.354,5.749,5.749,0,0,1,.943-1.469A6.412,6.412,0,0,1,122.907,307.79Z" transform="translate(-66.48 -285.86)" fill="#263238"/>
      <path id="Path_49587" data-name="Path 49587" d="M122.16,324.621a7.484,7.484,0,0,1-1.381-.751c-.828-.5-1.951-1.239-3.146-2.11s-2.252-1.688-3.009-2.291a8.641,8.641,0,0,1-1.195-1.019,8,8,0,0,1,1.315.855l3.058,2.219c1.195.866,2.291,1.644,3.085,2.192a8.805,8.805,0,0,1,1.271.9Z" transform="translate(-63.163 -290.678)" fill="#263238"/>
      <path id="Path_49588" data-name="Path 49588" d="M106.47,352.185c-2.093-.548-4.587,1.485-5.02,3.606s.367,4.291,1.3,6.242a31.84,31.84,0,0,0,8.653,11.322,21.4,21.4,0,0,0,13.229,4.872c-.882-4.11.236-8.4-.258-12.577a16.364,16.364,0,0,0-14.49-14.342c-1.337-.142-2.883-.356-3.414.877" transform="translate(-57.693 -305.48)" fill="#1ec769"/>
      <path id="Path_49589" data-name="Path 49589" d="M128.844,379.012a1.164,1.164,0,0,1-.3-.137,5.527,5.527,0,0,1-.784-.548,8.22,8.22,0,0,1-2.066-2.74c-.334-.652-.707-1.354-1.1-2.132s-.729-1.644-1.123-2.488A25.242,25.242,0,0,0,122.1,368.3a20.621,20.621,0,0,0-1.907-2.587c-1.43-1.682-2.97-3.14-4.3-4.527a29.512,29.512,0,0,1-3.288-3.94A14.677,14.677,0,0,1,111,354.192c-.132-.389-.23-.69-.28-.9a1.168,1.168,0,0,1-.066-.323c.027,0,.148.427.449,1.178a15.672,15.672,0,0,0,1.644,2.987A31.273,31.273,0,0,0,116.032,361c1.337,1.376,2.888,2.822,4.335,4.527a20.721,20.721,0,0,1,1.924,2.625,23.409,23.409,0,0,1,1.386,2.7l1.1,2.493c.351.778.718,1.491,1.036,2.137a8.516,8.516,0,0,0,1.956,2.773C128.45,378.787,128.861,378.985,128.844,379.012Z" transform="translate(-61.906 -306.281)" fill="#263238"/>
      <path id="Path_49590" data-name="Path 49590" d="M124.11,386.585a6.22,6.22,0,0,1,.192-1.408c.159-.86.427-2.044.795-3.332s.751-2.439,1.058-3.261a6.276,6.276,0,0,1,.548-1.3,7.853,7.853,0,0,1-.378,1.37c-.258.833-.614,1.989-.975,3.288s-.663,2.45-.877,3.288A8.06,8.06,0,0,1,124.11,386.585Z" transform="translate(-67.99 -317.268)" fill="#263238"/>
      <path id="Path_49591" data-name="Path 49591" d="M134.841,373.991a8.77,8.77,0,0,1-1.474-.34c-.9-.236-2.148-.548-3.535-.871s-2.647-.548-3.562-.729a8.882,8.882,0,0,1-1.48-.323,7.124,7.124,0,0,1,1.513.121c.926.121,2.192.334,3.6.647s2.636.669,3.524.959A6.959,6.959,0,0,1,134.841,373.991Z" transform="translate(-68.297 -314.758)" fill="#263238"/>
      <path id="Path_49592" data-name="Path 49592" d="M109.94,372.251a8.16,8.16,0,0,1,.225-1.644c.186-1,.477-2.373.866-3.875s.811-2.839,1.14-3.8a7.913,7.913,0,0,1,.6-1.529,10.155,10.155,0,0,1-.406,1.589c-.274.975-.658,2.324-1.047,3.836s-.712,2.855-.948,3.836A10.41,10.41,0,0,1,109.94,372.251Z" transform="translate(-61.585 -310.091)" fill="#263238"/>
      <path id="Path_49593" data-name="Path 49593" d="M124.77,358.8c0,.077-2.625-.132-5.836-.471s-5.809-.685-5.8-.762a58.317,58.317,0,0,1,5.836.471,58.085,58.085,0,0,1,5.8.762Z" transform="translate(-63.027 -308.36)" fill="#263238"/>
      <path id="Path_49594" data-name="Path 49594" d="M97.03,417.5c0,.082-9.179.148-20.507.148S56,417.585,56,417.5s9.179-.142,20.507-.142S97.03,417.42,97.03,417.5Z" transform="translate(-37.205 -335.384)" fill="#455a64"/>
      <path id="Path_49595" data-name="Path 49595" d="M96.427,439.062c0,.082-6.187.148-13.816.148s-13.821-.066-13.821-.148,6.187-.142,13.821-.142S96.427,438.964,96.427,439.062Z" transform="translate(-42.986 -345.128)" fill="#455a64"/>
      <path id="Path_49596" data-name="Path 49596" d="M96.385,442.148c0,.077-6.078.142-13.575.142s-13.58-.066-13.58-.142S75.308,442,82.8,442,96.385,442.066,96.385,442.148Z" transform="translate(-43.185 -346.52)" fill="#455a64"/>
      <path id="Path_49597" data-name="Path 49597" d="M96.085,436.522c0,.082-6.4.148-14.292.148S67.5,436.6,67.5,436.522s6.4-.142,14.292-.142S96.085,436.44,96.085,436.522Z" transform="translate(-42.403 -343.98)" fill="#455a64"/>
    </g>
  </g>
</svg>
