<svg xmlns="http://www.w3.org/2000/svg" width="36" height="36" viewBox="0 0 36 36">
  <g id="web" transform="translate(-1036 -405)">
    <rect id="Rectangle_16545" data-name="Rectangle 16545" width="36" height="36" rx="4" transform="translate(1036 405)" fill="#0075f4" opacity="0"/>
    <path id="icons8_laptop_metrics" d="M4.667,4A2.333,2.333,0,0,0,2.333,6.333V18a2.333,2.333,0,0,0,2.333,2.333h-3.5a1.167,1.167,0,1,0,0,2.333H26.833a1.167,1.167,0,1,0,0-2.333h-3.5A2.333,2.333,0,0,0,25.667,18V6.326A2.328,2.328,0,0,0,23.333,4Zm0,2.333H23.333l0,11.667H4.667ZM17.482,8.651a1.167,1.167,0,0,0-1.148,1.183V14.5a1.167,1.167,0,1,0,2.333,0V9.833a1.167,1.167,0,0,0-1.185-1.183Zm-3.5,2.333a1.167,1.167,0,0,0-1.148,1.183V14.5a1.167,1.167,0,1,0,2.333,0V12.167a1.167,1.167,0,0,0-1.185-1.183ZM10.5,13.333A1.167,1.167,0,1,0,11.667,14.5,1.167,1.167,0,0,0,10.5,13.333Z" transform="translate(1040 409.999)" fill="#0075f4"/>
  </g>
</svg>
