<svg xmlns="http://www.w3.org/2000/svg" width="40" height="36.364" viewBox="0 0 40 36.364">
  <path id="icons8-website" d="M21,2A18.175,18.175,0,0,0,5.279,11.091H9.718a14.592,14.592,0,0,1,6.257-4.542A24.1,24.1,0,0,0,14.6,11.091H18.34C19.211,7.5,20.431,5.636,21,5.636s1.789,1.86,2.66,5.455H27.4a24.232,24.232,0,0,0-1.374-4.542,14.6,14.6,0,0,1,6.257,4.542h4.439A18.175,18.175,0,0,0,21,2ZM1,14.727,3.259,25.636H5.638l1.545-6.31,1.541,6.31h2.369l2.259-10.909H10.616L9.64,20.846,8.187,14.727H6.163L4.707,20.857l-.966-6.129Zm13.825,0,2.259,10.909h2.379l1.545-6.31,1.541,6.31h2.369l2.259-10.909H24.445l-.98,6.119-1.449-6.119H19.988l-1.452,6.129-.969-6.129Zm13.825,0,2.259,10.909h2.379l1.545-6.31,1.541,6.31h2.369L41,14.727H38.266l-.977,6.119-1.452-6.119H33.813l-1.456,6.129-.966-6.129ZM5.279,29.273a18.138,18.138,0,0,0,31.442,0H32.282a14.592,14.592,0,0,1-6.257,4.542A24.236,24.236,0,0,0,27.4,29.273H23.656c-.871,3.595-2.091,5.455-2.66,5.455s-1.785-1.86-2.656-5.455H14.6a24.232,24.232,0,0,0,1.374,4.542,14.6,14.6,0,0,1-6.257-4.542Z" transform="translate(-1 -2)" fill="#5d718d"/>
</svg>
