 <svg xmlns="http://www.w3.org/2000/svg" width="36" height="36" viewBox="0 0 36 36">
  <g id="windows" transform="translate(-1036 -405)">
    <rect id="Rectangle_16545" data-name="Rectangle 16545" width="36" height="36" rx="4" transform="translate(1036 405)" fill="#0075f4" opacity="0"/>
    <path id="icons8_windows_10" d="M3.545,2A2.545,2.545,0,0,0,1,4.545V19.818a2.545,2.545,0,0,0,2.545,2.545h8.909v2.545H11.182a1.273,1.273,0,0,0,0,2.545h7.636a1.273,1.273,0,0,0,0-2.545H17.545V22.364h8.909A2.545,2.545,0,0,0,29,19.818V4.545A2.545,2.545,0,0,0,26.455,2Zm0,2.545H26.455V19.818H3.545ZM20.513,5.823l-4.241.562v4.524h5.091V6.584A.766.766,0,0,0,20.513,5.823Zm-6.786,1-4.1.457A1.118,1.118,0,0,0,8.636,8.4v2.513h5.091ZM8.636,13.455v2.513a1.117,1.117,0,0,0,.994,1.111l4.1.457V13.455Zm7.636,0v4.524l4.241.562a.766.766,0,0,0,.85-.761V13.455Z" transform="translate(1039 407.999)" fill="#0075f4"/>
  </g>
</svg>
