<svg id="Component_74_2" data-name="Component 74 – 2" xmlns="http://www.w3.org/2000/svg" width="20" height="20" viewBox="0 0 20 20">
  <rect id="Rectangle_16594" data-name="Rectangle 16594" width="20" height="20" fill="#fff" opacity="0"/>
  <path id="icons8_favorite" d="M16.256,3.005A5.986,5.986,0,0,0,12,5.09,5.986,5.986,0,0,0,7.744,3.005,5.557,5.557,0,0,0,3.111,5.312c-3.862,5.1,3.45,11.075,5.17,12.678,1.029.959,2.3,2.1,3.057,2.773a.99.99,0,0,0,1.323,0c.758-.675,2.028-1.814,3.057-2.773,1.72-1.6,9.033-7.574,5.17-12.678A5.554,5.554,0,0,0,16.256,3.005Z" transform="translate(-2 -2)" fill="#dc3545"/>
</svg>
