<svg xmlns="http://www.w3.org/2000/svg" width="198" height="24" viewBox="0 0 198 24">
  <g id="Group_60778" data-name="Group 60778" transform="translate(-440 -226)">
    <g id="Group_60776" data-name="Group 60776" transform="translate(-6 226)">
      <rect id="Rectangle_16517" data-name="Rectangle 16517" width="24" height="24" rx="4" transform="translate(620)" fill="#929fb2" opacity="0"/>
      <path id="icons8_edit" d="M15.98,2a.838.838,0,0,0-.6.247L13.947,3.684l3.368,3.368,1.437-1.437a.841.841,0,0,0,0-1.191L16.576,2.247A.839.839,0,0,0,15.98,2Zm-3.3,2.947L3,14.632V18H6.368l9.684-9.684Z" transform="translate(621 2)" fill="#c8cfd8"/>
    </g>
    <text id="Workspace_Name" data-name="Workspace Name" transform="translate(480 244)" fill="#274268" stroke="rgba(0,0,0,0)" stroke-width="1" font-size="16" font-family="DexefERP-Normal, Dexef"><tspan x="0" y="0">Workspace Name</tspan></text>
    <g id="Group_60777" data-name="Group 60777" transform="translate(-180 226)">
      <rect id="Rectangle_16518" data-name="Rectangle 16518" width="24" height="24" rx="4" transform="translate(620)" fill="#5d718d" opacity="0"/>
      <path id="icons8_name" d="M20.778,3H5.222A2.222,2.222,0,0,0,3,5.222V20.778A2.222,2.222,0,0,0,5.222,23H20.778A2.222,2.222,0,0,0,23,20.778V5.222A2.222,2.222,0,0,0,20.778,3ZM13,6.333a3.274,3.274,0,0,1,3.333,3.333,3.333,3.333,0,1,1-6.667,0A3.274,3.274,0,0,1,13,6.333Zm6.667,13.333H6.333V18.556c0-1.746,3.024-3.333,6.667-3.333s6.667,1.588,6.667,3.333Z" transform="translate(619 -1)" fill="#5d718d"/>
    </g>
  </g>
</svg>
