<svg id="Group_60544" data-name="Group 60544" xmlns="http://www.w3.org/2000/svg" width="20.18" height="26" viewBox="0 0 20.18 26">
  <rect id="Rectangle_16460" data-name="Rectangle 16460" width="20" height="26" rx="2" fill="#fff" opacity="0"/>
  <g id="Password" transform="translate(58.313 -599.281)">
    <path id="icons8-eye" d="M10.246,8c-5.21,0-9.219,4.59-9.219,4.59L.656,13l.371.41s3.655,4.167,8.516,4.551a6.348,6.348,0,0,0,1.406,0c4.861-.383,8.516-4.551,8.516-4.551l.371-.41-.371-.41S15.456,8,10.246,8Zm0,1.25a9.053,9.053,0,0,1,3.75.879,4.307,4.307,0,0,1,.625,2.246,4.372,4.372,0,0,1-3.887,4.355c-.012,0-.027,0-.039,0-.149.007-.3.02-.449.02s-.327-.01-.488-.02a4.387,4.387,0,0,1-3.281-6.582h-.02A9.075,9.075,0,0,1,10.246,9.25Zm0,1.25a1.875,1.875,0,1,0,1.875,1.875A1.875,1.875,0,0,0,10.246,10.5Zm-5.469.586a5.557,5.557,0,0,0,.7,4.277A14.5,14.5,0,0,1,2.453,13,14.957,14.957,0,0,1,4.777,11.086Zm10.938,0A14.957,14.957,0,0,1,18.039,13a14.5,14.5,0,0,1-3.027,2.363,5.557,5.557,0,0,0,.7-4.277Z" transform="translate(-57.969 599.281)" fill="#929fb2"/>
    <path id="icons8-hide" d="M2.911,2.281l-.838.838,4.3,4.3s0,.014,0,.018l.838.82s0,.014,0,.018L8.487,9.534s0,.014,0,.018l8.747,8.729.838-.838L14.428,13.8a12.025,12.025,0,0,0,3.7-3.171l.237-.346-.237-.346s-2.838-3.964-7.472-4.282a4.479,4.479,0,0,0-.583-.036,4.349,4.349,0,0,0-.547.036,8.951,8.951,0,0,0-2.661.583Zm7.162,4.5A3.505,3.505,0,0,1,12.934,12.3L11.658,11.01a1.693,1.693,0,0,0,.164-.729,1.75,1.75,0,0,0-1.749-1.749,1.693,1.693,0,0,0-.729.164L8.05,7.42a3.488,3.488,0,0,1,1.513-.6C9.733,6.807,9.9,6.782,10.073,6.782ZM4.7,7.4A12.01,12.01,0,0,0,2.018,9.935l-.237.346.237.346c.123.171,2.923,3.97,7.472,4.282a4.479,4.479,0,0,0,.583.036c.159,0,.314-.009.474-.018.032,0,.059-.014.091-.018a8.753,8.753,0,0,0,1.367-.2l-1-1h-.018l-.036-.036a3.36,3.36,0,0,1-.875.109c-.128,0-.257-.011-.383-.018a3.5,3.5,0,0,1-3.116-3.481,3.36,3.36,0,0,1,.109-.875l-.911-.929a4.585,4.585,0,0,0,.292,4.155,11.425,11.425,0,0,1-2.825-2.351,11.471,11.471,0,0,1,2.3-2.041Zm9.367.492A10.114,10.114,0,0,1,16.852,10.3a9.615,9.615,0,0,1-2.77,2.369,4.617,4.617,0,0,0-.018-4.774Z" transform="translate(-57.093 602)" fill="#5d718d" opacity="0"/>
  </g>
</svg>
